<svg width="65" height="65" viewBox="0 0 65 65" fill="none" xmlns="http://www.w3.org/2000/svg">
<path d="M26.4701 33.6085C26.4701 33.6085 17.3052 36.4789 13.7628 37.7583C10.2204 39.0377 6.57527 40.1556 4.46666 40.532C2.35782 40.9083 1.75571 40.9835 1.75571 40.9835C1.75571 40.9835 1.54596 37.0704 2.30755 34.8879C3.06892 32.7054 3.44727 32.2539 3.44727 32.2539C3.44727 32.2539 11.4918 34.1352 15.9319 34.1352C20.3722 34.1352 26.4701 33.6085 26.4701 33.6085Z" fill="#1F70B6"/>
<path d="M26.3442 31.6768C26.3442 31.6768 16.7529 31.5525 12.993 31.6662C9.23286 31.7798 5.42557 31.7078 3.30717 31.4088C1.18899 31.1096 0.593994 30.9938 0.593994 30.9938C0.593994 30.9938 1.61449 27.2049 3.01712 25.3655C4.41975 23.5262 4.91932 23.2144 4.91932 23.2144C4.91932 23.2144 11.9667 27.5112 16.1802 28.8947C20.3936 30.2782 26.3442 31.6768 26.3442 31.6768Z" fill="#1F70B6"/>
<path d="M26.897 29.6422C26.897 29.6422 17.7877 26.6735 14.1681 25.6648C10.549 24.6561 6.93964 23.4561 5.0083 22.5408C3.07719 21.6255 2.54425 21.3377 2.54425 21.3377C2.54425 21.3377 4.6433 18.0184 6.52748 16.6767C8.41167 15.335 8.98064 15.1855 8.98064 15.1855C8.98064 15.1855 14.4246 21.3875 18.0314 23.9621C21.6379 26.5367 26.897 29.6422 26.897 29.6422Z" fill="#1F70B6"/>
<path d="M27.7753 27.9483C27.7753 27.9483 20.0215 22.3325 16.8884 20.2641C13.7555 18.1958 10.6907 15.9481 9.13411 14.485C7.57801 13.0219 7.15918 12.5846 7.15918 12.5846C7.15918 12.5846 10.1697 10.062 12.3715 9.35895C14.5734 8.65608 15.1603 8.68722 15.1603 8.68722C15.1603 8.68722 18.44 16.2647 21.082 19.8222C23.7245 23.3795 27.7753 27.9483 27.7753 27.9483Z" fill="#1F70B6"/>
<path d="M29.3443 26.6274C29.3443 26.6274 23.7745 18.8404 21.4604 15.8848C19.1465 12.9292 16.9538 9.82456 15.9417 7.94238C14.9301 6.06042 14.6719 5.51236 14.6719 5.51236C14.6719 5.51236 18.3217 4.06814 20.63 4.09661C22.9382 4.12508 23.4842 4.34039 23.4842 4.34039C23.4842 4.34039 24.1951 12.576 25.5733 16.791C26.9514 21.0062 29.3443 26.6274 29.3443 26.6274Z" fill="#1F70B6"/>
<path d="M31.0864 26.0146C31.0864 26.0146 28.2426 16.865 26.9734 13.3295C25.7045 9.79402 24.597 6.15488 24.2269 4.04827C23.8568 1.94143 23.7834 1.33954 23.7834 1.33954C23.7834 1.33954 27.6972 1.10911 29.8775 1.85891C32.0577 2.60894 32.5081 2.98462 32.5081 2.98462C32.5081 2.98462 30.6032 11.0392 30.5903 15.4793C30.5774 19.9194 31.0864 26.0146 31.0864 26.0146Z" fill="#1F70B6"/>
<path d="M33.3091 25.9117C33.3091 25.9117 33.195 16.3201 32.9882 12.5655C32.7811 8.81075 32.7584 5.00256 33.0046 2.87527C33.2509 0.747967 33.3521 0.149414 33.3521 0.149414C33.3521 0.149414 37.1647 1.04402 39.0382 2.38526C40.9115 3.7265 41.2358 4.21539 41.2358 4.21539C41.2358 4.21539 37.1158 11.4023 35.8377 15.6597C34.5596 19.917 33.3091 25.9117 33.3091 25.9117Z" fill="#1F70B6"/>
<path d="M35.0133 26.3643C35.0133 26.3643 37.8153 17.1785 38.7575 13.5331C39.6997 9.88795 40.8336 6.2477 41.7135 4.29278C42.5934 2.33786 42.8713 1.79736 42.8713 1.79736C42.8713 1.79736 46.2281 3.80766 47.6039 5.65582C48.9796 7.50397 49.1397 8.06893 49.1397 8.06893C49.1397 8.06893 43.0383 13.6759 40.5302 17.3499C38.0221 21.0242 35.0133 26.3643 35.0133 26.3643Z" fill="#1F70B6"/>
<path d="M36.6851 27.4461C36.6851 27.4461 42.3592 19.6883 44.4512 16.5538C46.5433 13.4194 48.8141 10.3528 50.289 8.79534C51.7637 7.2379 52.2041 6.81885 52.2041 6.81885C52.2041 6.81885 54.7042 9.82763 55.3908 12.029C56.077 14.2301 56.0412 14.8171 56.0412 14.8171C56.0412 14.8171 48.4393 18.1024 44.8618 20.7473C41.2845 23.3919 36.6851 27.4461 36.6851 27.4461Z" fill="#1F70B6"/>
<path d="M37.9623 28.9651C37.9623 28.9651 45.6919 23.252 48.6237 20.8839C51.5555 18.5154 54.6375 16.2656 56.5092 15.2193C58.3807 14.1728 58.9259 13.9043 58.9259 13.9043C58.9259 13.9043 60.4072 17.5274 60.4023 19.8358C60.3972 22.1444 60.1877 22.6944 60.1877 22.6944C60.1877 22.6944 51.9601 23.5572 47.7593 25.013C43.5586 26.4688 37.9623 28.9651 37.9623 28.9651Z" fill="#1F70B6"/>
<path d="M38.6807 30.875C38.6807 30.875 47.7689 27.7679 51.2772 26.3971C54.7856 25.0265 58.4009 23.8143 60.4995 23.3834C62.5977 22.9526 63.198 22.8618 63.198 22.8618C63.198 22.8618 63.5092 26.7679 62.8046 28.969C62.0997 31.1704 61.7333 31.6315 61.7333 31.6315C61.7333 31.6315 53.6417 29.9597 49.2027 30.0749C44.7637 30.1901 38.6807 30.875 38.6807 30.875Z" fill="#1F70B6"/>
<path d="M38.8071 32.8792C38.8071 32.8792 48.3986 32.7024 52.1538 32.4708C55.9089 32.2391 59.717 32.1915 61.8441 32.4239C63.971 32.6561 64.5693 32.7535 64.5693 32.7535C64.5693 32.7535 63.6683 36.5719 62.3239 38.4541C60.9793 40.3363 60.4898 40.6637 60.4898 40.6637C60.4898 40.6637 53.31 36.5908 49.0545 35.3406C44.7993 34.0903 38.8071 32.8792 38.8071 32.8792Z" fill="#1F70B6"/>
<path d="M38.5731 34.5454C38.5731 34.5454 47.6759 37.5339 51.293 38.5504C54.9101 39.5669 58.5166 40.7747 60.4459 41.6942C62.375 42.6138 62.9073 42.9027 62.9073 42.9027C62.9073 42.9027 60.8014 46.2173 58.9143 47.555C57.0274 48.8927 56.458 49.041 56.458 49.041C56.458 49.041 51.0277 42.8271 47.4263 40.2447C43.825 37.6623 38.5731 34.5454 38.5731 34.5454Z" fill="#1F70B6"/>
<path d="M37.4867 36.3428C37.4867 36.3428 45.2205 41.986 48.3463 44.0655C51.4719 46.1447 54.5287 48.4035 56.0799 49.8719C57.6309 51.3406 58.0482 51.7795 58.0482 51.7795C58.0482 51.7795 55.0287 54.2914 52.8244 54.9867C50.6202 55.682 50.0336 55.6486 50.0336 55.6486C50.0336 55.6486 46.7806 48.0594 44.1511 44.4927C41.5213 40.9259 37.4867 36.3428 37.4867 36.3428Z" fill="#1F70B6"/>
<path d="M35.5979 37.585C35.5979 37.585 41.2969 45.2776 43.6602 48.1941C46.0233 51.1106 48.2676 54.1778 49.3108 56.0427C50.3535 57.9075 50.6211 58.4511 50.6211 58.4511C50.6211 58.4511 46.9955 59.9558 44.6869 59.9659C42.3784 59.9759 41.829 59.7697 41.829 59.7697C41.829 59.7697 40.9808 51.5476 39.5324 47.3564C38.0839 43.1652 35.5979 37.585 35.5979 37.585Z" fill="#1F70B6"/>
<path d="M33.9117 38.2573C33.9117 38.2573 36.8746 47.3686 38.1898 50.887C39.505 54.4056 40.6597 58.0296 41.0574 60.1313C41.4548 62.2328 41.5362 62.8338 41.5362 62.8338C41.5362 62.8338 37.6253 63.1154 35.4355 62.3938C33.2455 61.6725 32.7899 61.3028 32.7899 61.3028C32.7899 61.3028 34.5901 53.2243 34.5451 48.7846C34.5 44.3449 33.9117 38.2573 33.9117 38.2573Z" fill="#1F70B6"/>
<path d="M31.9323 38.3926C31.9323 38.3926 31.8555 47.9852 31.9879 51.7436C32.1202 55.5019 32.0673 59.3101 31.7786 61.4323C31.4901 63.5545 31.3771 64.151 31.3771 64.151C31.3771 64.151 27.5831 63.1806 25.737 61.8024C23.8908 60.424 23.5765 59.9287 23.5765 59.9287C23.5765 59.9287 27.8383 52.8246 29.2006 48.5931C30.5632 44.3616 31.9323 38.3926 31.9323 38.3926Z" fill="#1F70B6"/>
<path d="M30.0174 37.9268C30.0174 37.9268 27.0531 47.0621 26.0461 50.6901C25.0394 54.3183 23.8412 57.9381 22.9268 59.8773C22.0126 61.8164 21.7248 62.352 21.7248 62.352C21.7248 62.352 18.4046 60.2821 17.0623 58.4097C15.7195 56.5373 15.5696 55.9696 15.5696 55.9696C15.5696 55.9696 21.7689 50.4715 24.3417 46.8421C26.9145 43.2128 30.0174 37.9268 30.0174 37.9268Z" fill="#1F70B6"/>
<path d="M28.4922 36.791C28.4922 36.791 22.8477 44.5704 20.7678 47.7129C18.6878 50.8556 16.4289 53.9306 14.96 55.4936C13.491 57.0568 13.0522 57.4775 13.0522 57.4775C13.0522 57.4775 10.5405 54.4785 9.84568 52.2798C9.15104 50.0813 9.1844 49.4943 9.1844 49.4943C9.1844 49.4943 16.7741 46.1797 20.3411 43.5212C23.9087 40.8628 28.4922 36.791 28.4922 36.791Z" fill="#1F70B6"/>
<path d="M27.1781 35.4565C27.1781 35.4565 19.3698 41.0606 16.4051 43.3876C13.4403 45.7147 10.3272 47.9212 8.44106 48.9412C6.55509 49.9611 6.00614 50.222 6.00614 50.222C6.00614 50.222 4.57593 46.5784 4.61352 44.27C4.65089 41.9617 4.8682 41.4145 4.8682 41.4145C4.8682 41.4145 13.1067 40.6676 17.3273 39.2707C21.5476 37.8741 27.1781 35.4565 27.1781 35.4565Z" fill="#1F70B6"/>
</svg>
