<svg width="29" height="20" viewBox="0 0 29 20" fill="none" xmlns="http://www.w3.org/2000/svg">
<g clip-path="url(#clip0)">
<path d="M21.0099 18.2851C21.7487 17.6907 22.4535 17.1301 23.1584 16.5696C24.5256 15.4741 25.8843 14.3616 27.26 13.283C27.5487 13.0537 27.5487 12.9263 27.277 12.714C25.2559 11.1004 23.2433 9.47834 21.2307 7.85626C21.1797 7.8138 21.1033 7.76284 21.0524 7.77983C20.9505 7.8053 20.9759 7.91571 20.9759 7.99214C20.9759 8.52717 20.9759 9.0707 20.9759 9.60573C20.9759 10.387 20.7891 10.5739 19.9909 10.5739C16.5686 10.5739 13.1379 10.5824 9.7156 10.5654C9.291 10.5654 9.14664 10.6758 9.16362 11.1174C9.19759 11.8053 9.17211 12.5017 9.17211 13.1981C9.17211 13.5208 9.14664 13.835 8.81545 14.0049C8.47577 14.1832 8.24649 13.9284 8.0257 13.7501C6.35278 12.3998 4.69685 11.041 3.02394 9.69065C2.14078 8.98577 1.24912 8.28938 0.357465 7.59299C-0.109592 7.22781 -0.109592 6.86263 0.348973 6.48896C2.8541 4.46773 5.36772 2.44649 7.87284 0.433755C7.95776 0.365814 8.05117 0.297874 8.14459 0.229933C8.3399 0.0855595 8.52672 -0.0842919 8.78997 0.0600818C9.06172 0.204455 9.15513 0.45074 9.15513 0.730995C9.16362 1.46985 9.1806 2.20021 9.14664 2.93906C9.12965 3.36369 9.24854 3.49957 9.69012 3.49957C13.0614 3.48259 16.4242 3.49108 19.7955 3.49108C19.9909 3.49108 20.1862 3.48259 20.3815 3.55053C20.6362 3.64395 20.7212 3.82229 20.7127 4.07707C20.7127 4.34883 20.5768 4.51019 20.322 4.55265C20.1267 4.58662 19.9314 4.60361 19.7276 4.60361C16.178 4.60361 12.6198 4.60361 9.07021 4.60361C8.96831 4.60361 8.87489 4.60361 8.77299 4.59511C8.238 4.56114 8.05967 4.39978 8.04268 3.86475C8.0257 3.28726 8.03419 2.70127 8.03419 2.12378C8.03419 2.01337 8.07665 1.90297 7.96626 1.7501C7.48221 2.13227 6.99817 2.50594 6.52262 2.88811C4.9686 4.14501 3.40608 5.4104 1.83507 6.65881C1.38499 7.0155 1.36801 7.04097 1.81808 7.37218C3.9071 8.94331 5.86874 10.6673 7.9238 12.2809C7.94078 12.2979 7.97475 12.2979 8.04268 12.3064C8.04268 11.6694 8.04268 11.041 8.04268 10.4125C8.05117 9.58874 8.15308 9.48683 8.96831 9.48683C12.4075 9.48683 15.8468 9.47834 19.286 9.49533C19.7106 9.49533 19.8635 9.38492 19.8465 8.94331C19.8125 8.23843 19.8295 7.52505 19.8465 6.82017C19.855 6.51443 19.821 6.17473 20.1777 6.01337C20.5174 5.86051 20.7466 6.08131 20.9759 6.25966C22.6149 7.576 24.2538 8.89235 25.9013 10.2172C26.8184 10.956 27.727 11.6864 28.6357 12.4253C29.1282 12.8244 29.1367 13.1217 28.6187 13.5463C27.7355 14.2766 26.8354 14.9815 25.9437 15.7034C24.2793 17.0367 22.6149 18.3701 20.9505 19.7034C20.7212 19.8902 20.5004 20.0686 20.1862 19.9412C19.8465 19.7968 19.8465 19.4826 19.838 19.1853C19.8295 18.4635 19.8125 17.7416 19.8465 17.0197C19.8635 16.6036 19.7021 16.4932 19.303 16.4932C15.9232 16.5102 12.5349 16.5017 9.15513 16.5017C9.00227 16.5017 8.84093 16.5187 8.68807 16.4847C8.41633 16.4168 8.238 16.2469 8.25498 15.9412C8.27197 15.6439 8.4418 15.4741 8.72204 15.4316C8.84942 15.4146 8.9768 15.4231 9.10418 15.4231C12.7133 15.4231 16.3223 15.4231 19.9314 15.4231C20.7806 15.4231 20.9505 15.593 20.9505 16.4422C20.9505 16.9943 20.9505 17.5463 20.9589 18.0983C20.9674 18.1493 20.9759 18.1747 21.0099 18.2851Z" fill="#0079C5"/>
</g>
<defs>
<clipPath id="clip0">
<rect width="29" height="20" fill="white"/>
</clipPath>
</defs>
</svg>
