<svg width="230" height="92" viewBox="0 0 230 92" fill="none" xmlns="http://www.w3.org/2000/svg">
<path d="M5.93303 45.84C9.75116 31.3869 19.1987 18.4595 31.0184 9.67041C17.0699 17.1523 5.52754 30.5305 1.48314 45.84C-2.56134 61.1495 1.91201 74.5281 11.9078 82.0098C4.73185 73.2208 2.1148 60.2931 5.93303 45.84Z" fill="#1F70B6"/>
<path d="M48.3206 91.1128C23.266 91.1128 12.1585 67.2899 17.9307 45.7476C23.786 23.8956 47.5772 0.382285 72.6318 0.382285C72.9904 0.382285 73.3396 0.401132 73.6941 0.409312C71.7864 0.148291 69.8129 0 67.764 0C42.4982 0 16.5283 20.4819 9.75837 45.7476C2.98846 71.0132 17.9822 91.4952 43.2479 91.4952C45.2971 91.4952 47.3503 91.3468 49.3982 91.0857C49.039 91.0939 48.6796 91.1128 48.3206 91.1128Z" fill="#1F70B6"/>
<path d="M81.4652 25.7648C86.1725 20.8187 96.2846 13.3377 96.2846 13.3377C96.2846 13.3377 96.2698 12.5774 95.0742 10.0899C93.8786 7.60235 90.0745 4.89648 90.0745 4.89648C90.0745 4.89648 89.5085 5.62389 87.63 8.25526C85.7516 10.8866 82.9329 15.7863 80.3701 20.6927C79.695 21.9853 78.7069 23.7995 77.6216 25.7648H81.4652Z" fill="#1F70B6"/>
<path d="M74.4696 25.765C74.8784 25.0052 75.2865 24.2613 75.6858 23.5532C78.918 17.8229 87.0151 8.14948 87.0151 8.14948C87.0151 8.14948 86.7527 7.49141 84.7072 5.68614C82.6619 3.88087 77.8478 2.67676 77.8478 2.67676C77.8478 2.67676 77.4989 3.48258 76.4122 6.3458C75.3254 9.20921 74.0038 14.3348 72.949 19.3885C72.6208 20.9615 72.0795 23.296 71.4897 25.765H74.4696V25.765Z" fill="#1F70B6"/>
<path d="M65.0303 26.6219C65.9988 26.3196 66.9958 26.1034 68.018 25.9661C68.2362 25.0558 68.46 24.1591 68.6868 23.3088C70.281 17.3326 75.705 6.49113 75.705 6.49113C75.705 6.49113 75.2322 5.98527 72.5638 4.97604C69.8957 3.96663 64.5456 4.27691 64.5456 4.27691C64.5456 4.27691 64.4308 5.08717 64.1809 7.92266C63.9309 10.7583 64.1294 15.6564 64.5821 20.4152C64.7263 21.9312 64.8833 24.2147 65.0303 26.6219Z" fill="#1F70B6"/>
<path d="M56.2545 23.8554C56.9826 25.258 58.0424 27.4706 59.1092 29.7455C59.9277 29.0963 60.7911 28.5074 61.7096 28.0055C61.6124 27.0058 61.5277 26.014 61.4685 25.0752C61.1102 19.4019 63.0779 8.3169 63.0779 8.3169C63.0779 8.3169 62.4194 8.02707 59.3226 7.98884C56.2259 7.95044 50.8003 9.8944 50.8003 9.8944C50.8003 9.8944 50.9536 10.6319 51.647 13.1652C52.3405 15.6986 54.1895 19.8772 56.2545 23.8554Z" fill="#1F70B6"/>
<path d="M54.6612 34.9566C55.1157 34.1678 55.6206 33.4226 56.1818 32.7171C55.5319 31.5206 54.895 30.3004 54.3474 29.1569C52.0542 24.3687 50.3303 14.1697 50.3303 14.1697C50.3303 14.1697 49.5517 14.1276 46.3384 15.0737C43.1253 16.02 38.1772 19.4154 38.1772 19.4154C38.1772 19.4154 38.5855 20.0039 40.1609 21.9733C41.7361 23.9425 45.0632 26.9679 48.5457 29.7518C50.0297 30.9382 52.413 32.9906 54.6612 34.9566Z" fill="#1F70B6"/>
<path d="M52.8359 39.1759C52.9197 38.8706 53.0596 38.5946 53.1583 38.2966C51.6679 37.1491 50.1052 35.9016 48.7706 34.7279C44.83 31.2624 39.7051 22.9146 39.7051 22.9146C39.7051 22.9146 38.8861 23.116 35.8735 24.922C32.8611 26.7278 28.8574 31.1954 28.8574 31.1954C28.8574 31.1954 29.4725 31.5826 31.7468 32.8147C34.0211 34.0467 38.4529 35.6619 42.9664 37.0196C45.2304 37.7006 49.1777 39.0452 52.5507 40.2166L52.8359 39.1759Z" fill="#1F70B6"/>
<path d="M51.6235 43.5995C49.3385 42.9475 46.7253 42.1556 44.5283 41.3657C39.3486 39.5036 31.3884 33.7202 31.3884 33.7202C31.3884 33.7202 30.6053 34.14 28.0643 36.6156C25.523 39.0912 22.8042 44.1909 22.8042 44.1909C22.8042 44.1909 23.5638 44.3472 26.3088 44.7498C29.0538 45.1521 34.1529 45.249 39.2542 45.0961C42.0477 45.0124 47.1627 45.0248 51.225 45.0531L51.6235 43.5995Z" fill="#1F70B6"/>
<path d="M50.3765 48.1473C47.805 48.2934 44.8556 48.42 42.3327 48.42C36.3564 48.42 26.1967 45.8877 26.1967 45.8877C26.1967 45.8877 25.5273 46.4954 23.7273 49.4328C21.9272 52.3704 20.8198 57.6375 20.8198 57.6375C20.8198 57.6375 21.6573 57.5364 24.6292 57.0298C27.601 56.5234 32.9043 55.0184 38.1265 53.2966C40.8674 52.3928 45.8397 50.9019 49.9547 49.6864L50.3765 48.1473Z" fill="#1F70B6"/>
<path d="M48.7789 53.9754L49.0097 53.1333C46.8182 53.9041 44.4758 54.6962 42.3876 55.3317C36.2111 57.2117 24.8569 58.2172 24.8569 58.2172C24.8569 58.2172 24.3701 58.9535 23.5001 62.0605C22.6301 65.1675 23.2613 70.0717 23.2613 70.0717C23.2613 70.0717 24.0927 69.7207 26.9934 68.3477C29.8942 66.9749 34.8678 64.0049 39.6846 60.8729C41.7397 59.5365 45.1921 57.3978 48.4771 55.3842C48.5529 54.9131 48.6505 54.4428 48.7789 53.9754Z" fill="#1F70B6"/>
<path d="M48.399 58.8257C47.2198 59.6045 46.0422 60.3657 44.9341 61.0559C39.1888 64.6341 27.7963 69.0955 27.7963 69.0955C27.7963 69.0955 27.5428 69.8855 27.6975 72.8447C27.852 75.8039 30.1676 79.8407 30.1676 79.8407C30.1676 79.8407 30.9076 79.2744 33.4397 77.1706C35.9719 75.0667 40.1045 70.9276 44.0198 66.6979C45.225 65.396 47.0418 63.5018 48.9779 61.5047C48.6869 60.634 48.4977 59.7368 48.399 58.8257Z" fill="#1F70B6"/>
<path d="M50.9725 65.2809C50.7315 64.9649 50.5203 64.6342 50.3114 64.3027C49.9154 64.7204 49.5225 65.132 49.1396 65.5257C44.3879 70.4106 34.0913 77.8111 34.0913 77.8111C34.0913 77.8111 34.0915 78.5751 35.2339 81.0954C36.3761 83.6156 40.1101 86.4015 40.1101 86.4015C40.1101 86.4015 40.6872 85.6808 42.6065 83.0708C44.5257 80.4606 47.424 75.5885 50.0674 70.705C50.6332 69.6599 51.4152 68.2662 52.2856 66.7351C51.8204 66.2835 51.3741 65.8075 50.9725 65.2809Z" fill="#1F70B6"/>
<path d="M54.6477 68.5498C51.0973 74.2928 43.4639 83.136 43.4639 83.136C43.4639 83.136 43.711 83.8028 45.7065 85.658C47.7021 87.5133 52.4639 88.8191 52.4639 88.8191C52.4639 88.8191 52.8281 88.0163 53.9699 85.1598C55.1116 82.3035 56.5353 77.1779 57.6918 72.1191C57.8291 71.5185 58.0015 70.801 58.1953 70.0137C56.9383 69.7088 55.7493 69.2084 54.6477 68.5498Z" fill="#1F70B6"/>
<path d="M66.2821 70.3872H61.5164C59.5112 76.4872 55.376 84.9891 55.376 84.9891C55.376 84.9891 55.8575 85.4867 58.5489 86.4578C61.2404 87.4288 66.6043 87.0498 66.6043 87.0498C66.6043 87.0498 66.7081 86.241 66.9194 83.4123C67.1304 80.5835 66.863 75.7056 66.3422 70.9697C66.3227 70.7923 66.3022 70.5848 66.2821 70.3872Z" fill="#1F70B6"/>
<path d="M76.2577 70.3872H69.429C69.1863 76.0608 68.0864 82.9263 68.0864 82.9263C68.0864 82.9263 68.7528 83.2037 71.8638 83.1902C74.9745 83.1769 80.3889 81.1513 80.3889 81.1513C80.3889 81.1513 80.2219 80.4198 79.4801 77.9097C78.9296 76.0464 77.7204 73.289 76.2577 70.3872Z" fill="#1F70B6"/>
<path d="M103.293 18.6655C103.151 15.7027 100.855 11.6528 100.855 11.6528C100.855 11.6528 100.113 12.217 97.5748 14.3132C95.0368 16.4095 90.8914 20.537 86.9626 24.756C86.6797 25.0597 86.3557 25.403 86.0122 25.765H95.1931C99.4564 23.8635 103.179 22.4183 103.179 22.4183C103.179 22.4183 103.436 21.6285 103.293 18.6655Z" fill="#1F70B6"/>
<path d="M107.657 25.7106C107.691 23.3515 107.386 21.1904 107.386 21.1904C107.386 21.1904 106.557 21.5517 103.666 22.9601C102.375 23.589 100.65 24.564 98.7349 25.7106H107.657V25.7106Z" fill="#1F70B6"/>
<path d="M84.2656 70.2578L84.2297 70.3873H79.1729C80.0539 74.1002 80.5944 77.3761 80.5944 77.3761C80.5944 77.3761 81.3721 77.4209 84.5858 76.4851C87.7997 75.5495 92.7559 72.1683 92.7559 72.1683C92.7559 72.1683 92.4012 71.6646 91.2991 70.2578H84.2656Z" fill="#1F70B6"/>
<path d="M179.602 30.8145H184.748L184.49 31.776H180.478L179.73 34.5754H183.113L182.854 35.537H179.471L178.601 38.7859H182.746L182.49 39.7475H177.209L179.602 30.8145Z" fill="#3B3B3A"/>
<path d="M186.777 30.8145H187.949L189.676 36.4303L190.146 38.2795H190.2C190.385 37.3777 190.564 36.3734 190.814 35.4403L192.055 30.8145H193.133L190.74 39.7475H189.568L187.841 34.1259L187.372 32.2824H187.318C187.133 33.1843 186.965 34.1402 186.715 35.0733L185.463 39.7475H184.385L186.777 30.8145Z" fill="#3B3B3A"/>
<path d="M193.873 35.2862C194.643 32.4072 196.843 30.6519 199.21 30.6519C200.447 30.6519 201.11 31.2123 201.491 31.7528L200.669 32.4925C200.342 32.0259 199.87 31.6504 198.973 31.6504C197.173 31.6504 195.648 33.033 195.053 35.2578C194.45 37.5052 195.133 38.9106 197.039 38.9106C197.679 38.9106 198.345 38.72 198.789 38.3872L199.412 36.06H197.52L197.77 35.1184H200.697L199.693 38.8736C198.956 39.4739 197.864 39.9092 196.663 39.9092C194.308 39.9092 193.093 38.188 193.873 35.2862Z" fill="#3B3B3A"/>
<path d="M203.989 30.8145H205.124L202.731 39.7475H201.596L203.989 30.8145Z" fill="#3B3B3A"/>
<path d="M207.57 30.8145H208.742L210.469 36.4303L210.939 38.2795H210.993C211.178 37.3777 211.357 36.3734 211.607 35.4403L212.848 30.8145H213.926L211.533 39.7475H210.361L208.634 34.1259L208.165 32.2824H208.111C207.926 33.1843 207.758 34.1402 207.508 35.0733L206.256 39.7475H205.178L207.57 30.8145Z" fill="#3B3B3A"/>
<path d="M216.381 30.8145H221.528L221.269 31.776H217.258L216.509 34.5754H219.892L219.633 35.537H216.25L215.38 38.7859H219.525L219.269 39.7475H213.989L216.381 30.8145Z" fill="#3B3B3A"/>
<path d="M173.508 51.1405L174.396 50.361C174.86 51.0267 175.636 51.4677 176.564 51.4677C177.736 51.4677 178.586 50.8816 178.82 50.0139C179.064 49.1007 178.495 48.8134 177.747 48.4435L176.621 47.8774C175.881 47.5218 175.076 46.8931 175.426 45.5787C175.793 44.2132 177.252 43.2061 178.874 43.2061C179.932 43.2061 180.754 43.6669 181.207 44.3127L180.407 45.041C180 44.5261 179.431 44.2046 178.606 44.2046C177.605 44.2046 176.806 44.711 176.592 45.5104C176.362 46.3696 177.056 46.6911 177.676 46.9869L178.8 47.5389C179.713 47.9827 180.353 48.5972 179.998 49.9286C179.619 51.3368 178.154 52.4634 176.276 52.4634C175.025 52.4634 174.072 51.9542 173.508 51.1405Z" fill="#3B3B3A"/>
<path d="M182.066 48.6147L183.471 43.3687H184.606L183.195 48.646C182.618 50.791 183.346 51.4681 184.512 51.4681C185.693 51.4681 186.808 50.791 187.386 48.646L188.797 43.3687H189.884L188.478 48.6147C187.71 51.4823 186.066 52.4638 184.245 52.4638C182.421 52.4638 181.298 51.4823 182.066 48.6147Z" fill="#3B3B3A"/>
<path d="M192.291 43.3687H194.84C196.84 43.3687 198.012 44.0429 197.488 46.0002C196.982 47.8807 195.406 48.7569 193.451 48.7569H191.983L191.033 52.3017H189.898L192.291 43.3687ZM193.557 47.838C195.118 47.838 196.012 47.2719 196.353 46.0002C196.697 44.7115 196.02 44.2932 194.453 44.2932H193.181L192.231 47.838H193.557Z" fill="#3B3B3A"/>
<path d="M199.997 43.3687H202.546C204.546 43.3687 205.718 44.0429 205.195 46.0002C204.688 47.8807 203.112 48.7569 201.158 48.7569H199.69L198.74 52.3017H197.604L199.997 43.3687ZM201.263 47.838C202.825 47.838 203.718 47.2719 204.06 46.0002C204.404 44.7115 203.727 44.2932 202.159 44.2932H200.888L199.937 47.838H201.263Z" fill="#3B3B3A"/>
<path d="M206 47.8034C206.766 44.9443 208.805 43.2061 211.047 43.2061C213.289 43.2061 214.396 44.9471 213.63 47.8034C212.862 50.6654 210.808 52.4634 208.566 52.4634C206.325 52.4634 205.232 50.6654 206 47.8034ZM212.458 47.8034C213.053 45.5787 212.373 44.2046 210.78 44.2046C209.187 44.2046 207.767 45.5787 207.172 47.8034C206.575 50.031 207.241 51.4677 208.834 51.4677C210.427 51.4677 211.861 50.031 212.458 47.8034Z" fill="#3B3B3A"/>
<path d="M216.745 43.3687H219.542C221.36 43.3687 222.492 44.023 221.994 45.8836C221.516 47.6673 219.98 48.5265 218.162 48.5265H216.5L215.488 52.3017H214.353L216.745 43.3687ZM218.244 47.6047C219.636 47.6047 220.549 47.0414 220.859 45.8836C221.172 44.7086 220.523 44.2932 219.132 44.2932H217.636L216.748 47.6047H218.244V47.6047ZM218.02 48.2164L219.067 47.6275L220.537 52.3017H219.251L218.02 48.2164Z" fill="#3B3B3A"/>
<path d="M225.906 44.3302H223.206L223.462 43.3687H230L229.744 44.3302H227.044L224.907 52.3017H223.769L225.906 44.3302Z" fill="#3B3B3A"/>
<path d="M172.874 55.9258H175.523C177.338 55.9258 178.43 56.5431 178.009 58.1107C177.773 58.9954 177.093 59.7806 176.183 60.0509L176.168 60.1078C177.178 60.3183 177.742 61.021 177.414 62.2443C176.942 63.9996 175.323 64.8588 173.335 64.8588H170.481L172.874 55.9258ZM173.409 63.957C174.937 63.957 175.984 63.4051 176.308 62.2017C176.601 61.1007 175.873 60.6 174.311 60.6H172.757L171.856 63.957H173.409ZM174.314 59.7237C175.833 59.7237 176.612 59.1661 176.854 58.2615C177.133 57.2174 176.521 56.8248 175.141 56.8248H173.767L172.991 59.7237H174.314Z" fill="#3B3B3A"/>
<path d="M182.714 55.9258H183.997L184.623 64.8588H183.42L183.201 59.8688C183.144 58.8703 183.124 57.8888 183.113 56.8589H183.058C182.504 57.8945 181.955 58.8703 181.369 59.8688L178.458 64.8588H177.303L182.714 55.9258ZM179.861 61.2315H183.972L183.73 62.1391H179.619L179.861 61.2315Z" fill="#3B3B3A"/>
<path d="M188.234 55.9258H189.369L187.232 63.8972H191.13L190.874 64.8588H185.841L188.234 55.9258Z" fill="#3B3B3A"/>
<path d="M194.817 56.8874H192.117L192.376 55.9258H198.914L198.655 56.8874H195.952L193.818 64.8588H192.683L194.817 56.8874Z" fill="#3B3B3A"/>
<path d="M200.515 55.9258H201.65L199.258 64.8588H198.123L200.515 55.9258Z" fill="#3B3B3A"/>
<path d="M202.381 60.3985C203.152 57.5195 205.317 55.7642 207.582 55.7642C208.666 55.7642 209.377 56.2905 209.741 56.8651L208.922 57.6048C208.586 57.1041 208.088 56.7599 207.334 56.7599C205.647 56.7599 204.156 58.1454 203.559 60.3672C202.959 62.6175 203.653 64.0229 205.346 64.0229C206.196 64.0229 206.944 63.6531 207.684 63.0215L208.117 63.7328C207.189 64.5521 206.191 65.0215 205.03 65.0215C202.805 65.0215 201.602 63.3003 202.381 60.3985Z" fill="#3B3B3A"/>
<path d="M92.2677 28.6787L89.7865 37.8223H74.3219C72.2257 37.8223 70.3859 39.2182 69.8215 41.237L69.2105 43.4223H87.3901L84.9802 52.2899H66.8034L66.1303 54.7524C65.6377 56.5544 66.994 58.3314 68.8621 58.3314H84.5485L82.0121 67.4749H61.2913C54.6484 67.4749 49.8277 61.1529 51.5858 54.747L55.6478 39.9471C57.4743 33.2919 63.5242 28.6787 70.4256 28.6787H92.2677V28.6787Z" fill="#3B3B3A"/>
<path d="M115.596 28.0468C115.375 28.0447 115.14 28.0468 114.92 28.0468C107.871 28.0468 102.352 29.5884 98.366 32.7322C94.9569 35.41 93.1093 38.7357 92.8255 42.7154C92.6614 44.9895 93.1512 46.8428 94.2986 48.2726C95.4433 49.7025 97.9844 50.9219 101.927 51.9338L106.085 52.9629C107.082 53.1818 107.772 53.3978 108.153 53.6167C108.779 53.9777 109.065 54.5036 109.016 55.1885C108.956 56.0216 108.477 56.6894 107.57 57.1954C106.41 57.8236 104.545 58.14 102.013 58.162V58.1688H101.807C101.788 58.1688 101.772 58.1705 101.753 58.1705C101.741 58.1705 101.729 58.1688 101.717 58.1688H88.6801L86.2729 67.2839H99.5C100.258 67.3061 101.043 67.2839 101.859 67.2839C104.787 67.2839 107.481 67.0138 109.946 66.4707C113.692 65.6379 116.704 64.2281 118.98 62.2411C120.331 61.0443 121.506 59.5206 122.509 57.656C123.509 55.7941 124.078 53.9236 124.214 52.0419C124.425 49.0771 123.305 46.7831 120.854 45.1544C119.406 44.1793 117.31 43.4175 114.563 42.8774C113.777 42.7325 112.582 42.5164 110.976 42.2236C108.836 41.7915 107.807 41.0326 107.884 39.9468C107.967 38.7898 108.819 37.9939 110.44 37.5618C111.418 37.2871 112.738 37.1527 114.349 37.1383V37.1232H126.169L127.889 30.9145L128.733 28.0468H115.596V28.0468Z" fill="#3B3B3A"/>
<path d="M170.099 37.3808C169.92 39.8583 168.86 42.0629 166.908 44.0061C164.961 45.9434 162.583 47.1721 159.773 47.689L159.702 47.9127C161.921 47.9127 163.635 48.7056 164.851 50.2944C165.934 51.7003 166.411 53.3065 166.281 55.116C166.054 58.2936 164.527 61.0442 161.7 63.3736C158.4 66.1069 154.108 67.4749 148.827 67.4749H124.496L135.143 28.6787H159.196C163.149 28.6787 166.073 29.6227 167.972 31.5049C169.558 33.0965 170.265 35.0513 170.099 37.3808ZM151.266 55.0608C151.309 54.4683 151.2 53.9164 150.94 53.3994C150.552 52.6587 150.04 52.1883 149.406 51.9849C148.776 51.7816 147.923 51.6799 146.852 51.6799H142.916L140.743 59.6064H144.51C146.729 59.6064 148.445 59.0865 149.667 58.0525C150.65 57.2015 151.184 56.2053 151.266 55.0608ZM155.242 39.7625C155.297 38.987 155.139 38.3625 154.766 37.8803C154.092 36.9945 152.811 36.55 150.926 36.55H147.104L145.018 44.0293H148.509C150.539 44.0293 152.149 43.6082 153.337 42.7571C154.526 41.909 155.16 40.9098 155.242 39.7625Z" fill="#3B3B3A"/>
</svg>
