<svg width="18" height="18" viewBox="0 0 18 18" fill="none" xmlns="http://www.w3.org/2000/svg">
<g clip-path="url(#clip0)">
<path d="M7.2999 3.01678C6.1999 3.01678 5.0999 3.51958 4.3999 4.32405C4.8999 4.12293 5.3999 4.02237 5.8999 4.02237C8.5999 4.02237 10.6999 6.23466 10.6999 8.84919C10.6999 9.15086 10.6999 9.35198 10.5999 9.5531C11.0999 8.84919 11.3999 8.04472 11.3999 7.13969C11.3999 4.9274 9.5999 3.01678 7.2999 3.01678Z" fill="#0079C5"/>
<path d="M17.5 15.3855L13.3 11.3631C14.1 10.1564 14.5 8.84916 14.5 7.34078C14.5 3.31844 11.3 0 7.2 0C3.2 0 0 3.21788 0 7.34078C0 11.4637 3.2 14.6816 7.3 14.6816C8.7 14.6816 10.1 14.2793 11.2 13.5754L15.5 17.6983C15.8 18 16.2 18.1006 16.5 18.1006C16.9 18.1006 17.3 17.8994 17.6 17.5978C18.1 16.8939 18.1 15.8883 17.5 15.3855ZM7.3 12.771C4.3 12.771 1.9 10.3575 1.9 7.34078C1.9 4.32402 4.3 1.91061 7.3 1.91061C10.3 1.91061 12.7 4.32402 12.7 7.34078C12.7 10.3575 10.2 12.771 7.3 12.771Z" fill="#0079C5"/>
</g>
<defs>
<clipPath id="clip0">
<rect width="18" height="18" fill="white"/>
</clipPath>
</defs>
</svg>
