<svg width="18" height="18" viewBox="0 0 18 18" fill="none" xmlns="http://www.w3.org/2000/svg">
<rect y="14" width="2" height="2" transform="rotate(-90 0 14)" fill="#449DDA"/>
<rect x="4" y="14" width="2" height="2" transform="rotate(-90 4 14)" fill="#449DDA"/>
<rect x="8" y="14" width="2" height="2" transform="rotate(-90 8 14)" fill="#449DDA"/>
<rect x="12" y="14" width="2" height="2" transform="rotate(-90 12 14)" fill="#449DDA"/>
<rect x="8" y="18" width="2" height="2" transform="rotate(-90 8 18)" fill="#449DDA"/>
<rect y="10" width="2" height="2" transform="rotate(-90 0 10)" fill="#449DDA"/>
<rect x="4" y="10" width="2" height="2" transform="rotate(-90 4 10)" fill="#449DDA"/>
<rect x="8" y="10" width="2" height="2" transform="rotate(-90 8 10)" fill="#449DDA"/>
<rect x="12" y="10" width="2" height="2" transform="rotate(-90 12 10)" fill="#449DDA"/>
<rect x="16" y="10" width="2" height="2" transform="rotate(-90 16 10)" fill="#449DDA"/>
<rect y="6" width="2" height="2" transform="rotate(-90 0 6)" fill="#449DDA"/>
<rect x="4" y="6" width="2" height="2" transform="rotate(-90 4 6)" fill="#449DDA"/>
<rect x="8" y="6" width="2" height="2" transform="rotate(-90 8 6)" fill="#449DDA"/>
<rect x="12" y="6" width="2" height="2" transform="rotate(-90 12 6)" fill="#449DDA"/>
<rect x="8" y="2" width="2" height="2" transform="rotate(-90 8 2)" fill="#449DDA"/>
</svg>
