<svg width="16" height="12" viewBox="0 0 16 12" fill="none" xmlns="http://www.w3.org/2000/svg">
<path fill-rule="evenodd" clip-rule="evenodd" d="M2 1H14C14.071 1 14.1403 1.0074 14.2071 1.02147L8.92049 5.544C8.35913 6.02423 7.53169 6.02423 6.97032 5.544L1.7089 1.04303C1.80101 1.01505 1.89875 1 2 1ZM1.02555 1.77443C1.00883 1.84692 1 1.92243 1 2V9.56627C1 9.66947 1.01563 9.76902 1.04466 9.86269L5.04404 5.86331L5.75114 6.57042L1.77965 10.5419C1.85055 10.5579 1.92429 10.5663 2 10.5663H14C14.1032 10.5663 14.2028 10.5506 14.2964 10.5216L10.3452 6.57042L11.0523 5.86331L14.9756 9.78661C14.9916 9.71572 15 9.64197 15 9.56626V2C15 1.895 14.9838 1.79377 14.9538 1.69869L9.57055 6.30388C8.63494 7.10427 7.25587 7.10427 6.32027 6.30388L1.02555 1.77443ZM0 2C0 0.895432 0.895431 0 2 0H14C15.1046 0 16 0.895431 16 2V9.56626C16 10.6708 15.1046 11.5663 14 11.5663H2C0.895431 11.5663 0 10.6708 0 9.56627V2Z" fill="white"/>
</svg>
