<svg width="16" height="12" viewBox="0 0 16 12" fill="none" xmlns="http://www.w3.org/2000/svg">
<path fill-rule="evenodd" clip-rule="evenodd" d="M2 0.999939H14C14.071 0.999939 14.1403 1.00734 14.2071 1.02141L8.92049 5.54394C8.35913 6.02417 7.53169 6.02417 6.97032 5.54394L1.7089 1.04297C1.80101 1.01499 1.89875 0.999939 2 0.999939ZM1.02555 1.77437C1.00883 1.84686 1 1.92237 1 1.99994V9.5662C1 9.66941 1.01563 9.76896 1.04466 9.86263L5.04404 5.86325L5.75114 6.57036L1.77965 10.5418C1.85055 10.5578 1.92429 10.5662 2 10.5662H14C14.1032 10.5662 14.2028 10.5506 14.2964 10.5215L10.3452 6.57036L11.0523 5.86325L14.9756 9.78655C14.9916 9.71565 15 9.64191 15 9.5662V1.99994C15 1.89494 14.9838 1.79371 14.9538 1.69863L9.57055 6.30382C8.63494 7.1042 7.25587 7.1042 6.32027 6.30382L1.02555 1.77437ZM0 1.99994C0 0.895371 0.895431 -6.10352e-05 2 -6.10352e-05H14C15.1046 -6.10352e-05 16 0.895369 16 1.99994V9.5662C16 10.6708 15.1046 11.5662 14 11.5662H2C0.895431 11.5662 0 10.6708 0 9.5662V1.99994Z" fill="#0079C5"/>
</svg>
