<svg width="16" height="16" viewBox="0 0 16 16" fill="none" xmlns="http://www.w3.org/2000/svg">
<path d="M13.7863 7.0333C13.8056 4.76894 11.877 2.69311 9.48722 2.40606C9.43969 2.40043 9.38791 2.39185 9.3331 2.38277C9.21478 2.36317 9.09243 2.34302 8.96899 2.34302C8.47918 2.34302 8.34825 2.68708 8.31379 2.89227C8.28027 3.09179 8.31224 3.25933 8.40865 3.39046C8.57086 3.61102 8.85626 3.65017 9.0855 3.68155C9.15269 3.69082 9.21608 3.69945 9.26915 3.71137C11.4163 4.19115 12.1393 4.94546 12.4926 7.07435C12.5013 7.12638 12.5051 7.19047 12.5093 7.25845C12.5247 7.51293 12.5568 8.04239 13.126 8.04239H13.1261C13.1735 8.04239 13.2244 8.0383 13.2774 8.03022C13.8075 7.94966 13.7909 7.4657 13.7829 7.23316C13.7806 7.16767 13.7785 7.10573 13.784 7.06453C13.7855 7.05415 13.7863 7.04373 13.7863 7.0333Z" fill="white"/>
<path d="M8.82929 1.57521C8.89289 1.5798 8.95309 1.58419 9.00322 1.59187C12.5291 2.1341 14.1505 3.80462 14.5999 7.35803C14.6075 7.41844 14.6087 7.49211 14.61 7.57011C14.6145 7.84774 14.6237 8.42528 15.2439 8.43725L15.2632 8.43745C15.4577 8.43745 15.6124 8.37879 15.7231 8.26297C15.9162 8.06102 15.9027 7.761 15.8918 7.51989C15.8892 7.46073 15.8866 7.40502 15.8873 7.35624C15.9321 3.72202 12.7863 0.426521 9.15535 0.303971C9.14028 0.303472 9.12592 0.30427 9.1114 0.306315C9.10427 0.307363 9.09105 0.308659 9.06841 0.308659C9.0322 0.308659 8.98765 0.305517 8.94042 0.302325C8.88331 0.298434 8.81857 0.293945 8.75293 0.293945C8.17469 0.293945 8.06476 0.704941 8.05069 0.949942C8.01827 1.51616 8.56604 1.55601 8.82929 1.57521Z" fill="white"/>
<path d="M12.2715 15.214L12.2534 15.2139C12.2341 15.2138 12.2148 15.211 12.1961 15.206C12.1621 15.1967 12.1155 15.1864 12.0615 15.1744C11.903 15.1391 11.686 15.0909 11.4791 15.0024C9.18358 14.0199 7.20228 12.7123 5.59026 11.1159C3.94336 9.48507 2.6374 7.50886 1.70852 5.24223C1.3872 4.45826 1.37384 3.70462 1.66986 3.06278C1.97618 2.39852 2.5905 1.89617 3.44656 1.61013C3.78637 1.49649 4.11763 1.49757 4.43291 1.61281C5.17758 1.8849 6.94496 4.28052 6.98849 5.0767C7.02692 5.77782 6.4843 6.14394 6.19278 6.34061C5.67942 6.68723 5.58486 7.11312 5.87656 7.76467C6.47998 9.11273 7.5352 10.134 9.01296 10.8001C9.1961 10.8827 9.36384 10.9246 9.51147 10.9246C9.76113 10.9246 9.96371 10.8023 10.1307 10.5508C10.5076 9.98362 10.9642 9.69596 11.488 9.69596C11.8769 9.69596 12.2885 9.85129 12.7463 10.1709C12.8202 10.2225 12.8944 10.2739 12.9686 10.3252C13.326 10.5729 13.6955 10.8291 14.0429 11.1069C14.1084 11.1594 14.1783 11.2125 14.246 11.2639C14.7577 11.6526 15.3946 12.1365 15.0458 13.1154C14.6476 14.2334 13.3512 15.214 12.2715 15.214ZM12.2715 15.214C12.2716 15.214 12.2714 15.214 12.2715 15.214Z" stroke="white"/>
<path d="M9.35839 4.46137C9.15354 4.46656 8.72724 4.47714 8.57765 4.91132C8.50767 5.11423 8.51605 5.2904 8.60259 5.43494C8.72958 5.64703 8.97289 5.71202 9.19419 5.74768C9.99678 5.87647 10.409 6.32028 10.4914 7.14427C10.5297 7.52848 10.7884 7.79677 11.1206 7.79677C11.1452 7.79677 11.1703 7.79533 11.1953 7.79228C11.5948 7.74475 11.7885 7.45122 11.771 6.91992C11.7774 6.36542 11.4872 5.73591 10.9936 5.23448C10.4984 4.73151 9.90142 4.44826 9.35839 4.46137Z" fill="white"/>
</svg>
