<svg width="97" height="101" viewBox="0 0 97 101" fill="none" xmlns="http://www.w3.org/2000/svg">
<path d="M72.8661 0C80.8516 13.8629 88.9154 27.7259 96.9791 41.5888C96.1179 42.134 95.2568 42.6013 94.4739 43.1464C91.1857 45.405 88.1325 45.3271 84.8443 42.9128C82.2608 40.9657 79.2075 39.6418 76.5457 37.9284C73.5707 35.9813 70.9872 36.6044 68.5602 38.785C71.0655 45.3271 70.7523 46.1838 64.7241 50.5452C63.9412 51.0904 63.5497 52.7259 63.5497 53.8941C63.4714 66.5888 63.4714 79.2056 63.4714 91.9003C63.4714 93.0685 63.4714 94.2368 63.4714 95.5608C55.4077 97.1963 53.7636 88.9408 47.5005 86.1371C44.1341 89.7196 40.3762 93.5358 36.8532 97.5857C34.9743 99.7664 32.8605 100.467 29.8072 99.7664C29.8072 90.3427 29.8072 80.8411 29.8072 70.7944C25.423 71.4953 21.9 70.5608 20.1777 65.7321C16.0283 69.3925 12.4271 72.5078 8.74748 75.8567C6.08565 71.2617 3.73698 67.134 1.31003 63.0841C-1.11693 58.9564 -0.255751 56.1527 4.59816 56.0748C11.1744 55.919 15.4803 51.5576 20.6474 48.9097C29.0243 44.6262 37.0881 39.7975 45.3084 35.1246C51.1018 31.7757 56.8169 28.271 62.6103 24.8442C64.8024 23.5203 65.8201 21.8069 65.6635 19.2368C65.507 15.9657 65.5853 12.6947 65.5853 9.42368C65.507 3.34891 66.4464 2.1028 72.8661 0ZM9.92181 69.7819C11.5659 67.9128 12.5053 66.1994 13.9928 65.2648C31.6079 54.9066 49.3011 44.7041 67.0727 34.5016C70.5175 32.4766 74.1187 31.5421 77.8766 33.9564C80.8516 35.9034 83.9832 37.6947 87.1147 39.4081C88.289 40.0312 89.62 40.2648 90.9509 40.6542C91.0292 40.3427 91.1857 40.0312 91.264 39.7196C84.5312 28.271 77.7983 16.7446 71.1438 5.29595C70.7523 5.37383 70.4392 5.37383 70.126 5.45171C69.8911 6.38629 69.4997 7.32087 69.4997 8.25545C69.4214 12.3832 69.4214 16.5888 69.578 20.7165C69.6563 24.2212 67.6208 26.4798 65.0372 28.1931C61.7491 30.3738 58.1478 32.243 54.6248 34.2679C43.4295 40.7321 32.469 47.4299 21.0388 53.4268C16.0283 56.0748 11.8007 61.1371 4.3633 59.891C6.39881 63.5514 8.19945 66.6667 9.92181 69.7819ZM59.3221 53.5826C53.7636 58.0218 48.9097 62.4611 45.9347 68.2243C44.4472 71.1059 43.3512 70.6386 41.3157 69.7041C41.4723 68.458 41.6288 67.2897 41.7854 65.8879C40.2979 65.8879 39.1236 65.8879 37.9493 65.8879C35.1309 65.8879 33.7217 67.3676 33.6434 70.0935C33.6434 77.8816 33.6434 85.5919 33.6434 93.3801C33.6434 93.7695 33.9565 94.081 34.348 95.0935C39.2019 90.109 43.7426 85.4361 48.44 80.5296C51.963 83.8785 55.4077 87.1495 59.2438 90.81C59.3221 77.9595 59.3221 66.0436 59.3221 53.5826ZM53.1373 47.2742C47.6571 50.3894 42.1769 53.4268 36.7749 56.6199C36.1486 57.0093 35.5223 58.3333 35.8355 58.8785C36.3835 59.9689 37.3229 61.5265 38.2624 61.6044C42.0986 61.9159 46.013 62.5389 48.44 58.0218C49.4577 56.0748 51.6498 54.6729 53.5288 53.271C56.1123 51.324 55.9557 49.4548 53.1373 47.2742ZM31.2164 59.8131C28.7894 61.2928 26.3625 62.7726 23.8572 64.3302C26.1276 67.4455 27.2237 67.6012 30.5118 65.4985C32.7822 64.0187 33.3302 62.1495 31.2164 59.8131ZM58.9307 47.6636C60.9662 46.9626 62.9234 46.729 64.3326 45.7165C65.1155 45.1713 65.5853 43.3022 65.3504 42.134C64.9589 40.1869 63.7063 41.2773 62.7668 41.9003C61.7491 42.5234 60.7313 43.1464 59.7136 43.5358C56.2689 44.8598 57.6781 46.3396 58.9307 47.6636Z" fill="#0079C5"/>
</svg>
