<svg width="919" height="134" viewBox="0 0 919 134" fill="none" xmlns="http://www.w3.org/2000/svg">
<g clip-path="url(#clip0)">
<path d="M971.321 134C992.831 134 1012.32 129.625 1030.28 120.817C1049.64 111.319 1064.07 98.4243 1076.72 87.0263C1079.51 84.6086 1082.04 82.3059 1084.57 80.0609C1127.08 43.2188 1171.24 8.21875 1241.72 -14.8076C1256.4 -19.6431 1286.39 -28.2204 1321.18 -31.9622C1354.71 -35.5312 1382.8 -33.574 1404.95 -26.0905C1443.29 -13.1382 1439.24 11.2697 1436.08 30.7845L1435.82 32.2237H1436.08L1436.33 30.7845C1437.85 21.1135 1439.74 10.1184 1436.33 -0.128289C1432.41 -11.9293 1422.16 -20.449 1405.07 -26.2632C1393.43 -30.1776 1379.89 -32.653 1364.84 -33.5164C1351.42 -34.3224 1336.75 -33.8618 1321.06 -32.1924C1286.26 -28.4507 1256.27 -19.8158 1241.47 -15.0378C1208.82 -4.38816 1179.21 9.71546 1151 28.1365C1125.31 44.8306 1103.93 62.8487 1084.31 79.8882C1081.78 82.0757 1079.25 84.3783 1076.47 86.8536C1063.82 98.2517 1049.39 111.146 1030.03 120.587C1007.64 131.582 983.088 135.612 955.124 132.964C917.164 129.395 882.621 117.766 852.127 107.52L851.367 107.289C811.763 93.9342 773.297 79.2549 736.223 65.0362C724.455 60.5461 712.308 55.8832 700.414 51.3931C692.189 48.2845 683.585 45.0033 675.361 41.8372C634.111 26.0641 591.343 9.77303 545.791 -4.38816C494.166 -20.5066 446.716 -31.3289 400.785 -37.4885C383.45 -39.7911 366.494 -41 350.425 -41C334.861 -41 319.551 -39.9063 304.873 -37.7188C277.036 -33.574 250.97 -25.5148 225.41 -13.1382C219.843 -10.4901 214.275 -7.61184 208.834 -4.90625C177.581 10.8092 145.315 27.1003 96.9796 30.4391C28.0192 35.2171 -31.7042 17.7747 -89.4031 0.965462C-109.775 -5.02138 -129.134 -10.6628 -148.873 -15.3832L-149 -15.2681C-129.261 -10.5477 -110.028 -4.90625 -89.5296 1.02303C-38.2839 15.9326 14.3537 31.3026 73.6975 31.3026C81.2895 31.3026 89.1345 31.0724 96.9796 30.4967C145.315 27.1579 177.707 10.8668 208.961 -4.90625C214.402 -7.61184 219.969 -10.4326 225.537 -13.1382C278.427 -38.5822 334.102 -46.2961 400.658 -37.3158C503.276 -23.5 594.506 11.3273 675.107 42.0099C683.332 45.176 691.936 48.3997 700.161 51.5658C712.182 56.1135 724.329 60.7188 735.97 65.2089C773.17 79.4276 811.51 94.1645 851.114 107.462L851.874 107.692C882.368 117.939 917.038 129.567 954.998 133.194C960.692 133.712 966.006 134 971.321 134Z" fill="#E0E0E0"/>
<path d="M972.966 133.079C994.603 133.079 1014.09 128.762 1032.31 119.954C1051.54 110.628 1066.22 97.9639 1079 86.7962C1081.91 84.2633 1084.69 81.9031 1087.35 79.658C1104.69 65.1514 1125.06 48.3422 1148.47 33.0297C1174.03 16.3357 1200.09 3.32578 1228.18 -6.74823C1234 -8.8206 1239.95 -10.8354 1245.9 -12.6775C1262.98 -17.916 1297.52 -27.069 1335.61 -29.314C1363.7 -30.9834 1387.61 -28.4505 1406.85 -21.888C1417.73 -18.2038 1425.7 -13.4259 1431.27 -7.43902C1442.91 5.05276 1441.39 20.1926 1440 33.5478C1439.87 34.181 1439.87 34.8143 1439.74 35.4475H1440C1440 34.8143 1440.12 34.181 1440.25 33.5478C1441.64 20.1926 1443.16 5.05276 1431.52 -7.49659C1425.95 -13.541 1417.85 -18.319 1406.97 -22.0032C1387.74 -28.6232 1363.7 -31.0986 1335.48 -29.4291C1320.3 -28.5081 1304.1 -26.4357 1287.4 -23.1545C1273.23 -20.3913 1258.8 -16.8222 1245.64 -12.7351C1239.7 -10.893 1233.62 -8.87816 1227.93 -6.8058C1199.71 3.26822 1173.65 16.2781 1148.09 32.9722C1124.68 48.2847 1104.31 65.0363 1086.97 79.6005C1084.31 81.8455 1081.53 84.2633 1078.62 86.7386C1065.71 97.9064 1051.16 110.571 1031.93 119.839C1009.66 130.604 985.366 134.633 957.782 132.216C918.557 128.819 881.609 116.443 854.531 107.462C826.061 97.9639 798.857 87.6597 773.677 77.931C763.427 73.959 752.925 69.8718 742.929 65.9574C730.655 61.1794 718.002 56.2287 705.349 51.3932C701.933 50.0692 698.39 48.7452 694.847 47.3636C664.985 35.908 634.238 24.0495 601.719 13.112C555.281 -2.60349 513.272 -14.3469 473.541 -22.7515C451.145 -27.4719 428.748 -31.2137 406.985 -33.9193C390.535 -35.9916 374.466 -37.0278 359.282 -37.0278H359.155C344.225 -37.0278 329.547 -36.0492 315.502 -34.092C286.652 -30.0624 259.448 -22.0032 232.623 -9.45382C227.561 -7.09363 222.374 -4.61829 217.439 -2.2581C214.149 -0.646255 210.733 0.965583 207.316 2.57743C177.454 16.7386 147.213 29.5758 104.698 31.7057C66.3587 33.6054 31.0561 27.7912 -1.46285 21.2287C-30.5654 15.4146 -58.6556 8.73697 -79.7866 3.61361C-83.3295 2.75012 -86.7459 1.9442 -90.1623 1.13828C-109.775 -3.63968 -128.375 -8.12981 -146.849 -11.6413L-146.975 -11.5262C-128.502 -7.95711 -110.028 -3.52455 -90.2888 1.25341C-86.8724 2.05934 -83.456 2.92282 -79.9131 3.72874C-58.6556 8.8521 -30.5654 15.4722 -1.58938 21.3439C30.9295 27.9064 66.2321 33.7781 104.698 31.8784C124.311 30.8998 142.911 27.561 161.511 21.6317C178.593 16.163 193.651 9.31262 207.443 2.75012C210.859 1.13828 214.275 -0.531126 217.565 -2.0854C222.5 -4.4456 227.688 -6.92093 232.749 -9.28113C259.701 -21.8305 286.779 -29.8897 315.628 -33.8617C344.351 -37.8913 374.213 -37.8338 406.985 -33.7466C428.622 -31.041 451.018 -27.2992 473.414 -22.5788C513.146 -14.1742 555.155 -2.48836 601.592 13.2847C634.111 24.2222 664.985 36.0807 694.72 47.5363C698.263 48.8603 701.679 50.2419 705.222 51.5659C717.749 56.4014 730.529 61.3521 742.803 66.1301C752.925 70.0445 763.301 74.1317 773.55 78.1037C798.73 87.8324 826.061 98.1366 854.404 107.635C870.474 112.989 886.417 118.227 903.373 122.66C922.985 127.783 940.7 130.949 957.782 132.446C963.096 132.849 968.031 133.079 972.966 133.079Z" fill="#E0E0E0"/>
<path d="M974.61 132.158C996.247 132.158 1015.99 127.841 1034.33 119.148C1053.57 109.995 1068.37 97.6185 1081.28 86.6234C1084.31 84.033 1087.22 81.6152 1090.13 79.255C1107.6 64.9787 1128.35 48.4573 1152.14 33.4326C1177.95 17.1415 1204.27 4.5346 1232.48 -4.96375C1238.56 -7.03612 1244.38 -8.82066 1250.2 -10.4901C1267.15 -15.3832 1301.19 -23.8453 1338.77 -25.6299C1366.36 -26.9539 1389.89 -24.2483 1409 -17.6858C1419.75 -14.0016 1427.72 -9.28119 1433.42 -3.35191C1445.19 8.85204 1444.68 23.4162 1444.17 36.3109C1444.17 37.1169 1444.17 37.9228 1444.05 38.6711H1444.3C1444.3 37.8652 1444.3 37.1169 1444.43 36.3109C1444.93 23.4162 1445.44 8.79448 1433.67 -3.40947C1427.85 -9.39632 1419.88 -14.1167 1409.12 -17.8009C1390.02 -24.421 1366.36 -27.069 1338.77 -25.745C1301.06 -23.9605 1267.03 -15.4983 1250.07 -10.6052C1244.25 -8.93579 1238.43 -7.09369 1232.36 -5.07888C1204.14 4.41947 1177.82 17.0264 1152.01 33.3175C1128.22 48.3422 1107.6 64.8636 1090.01 79.1399C1087.1 81.4425 1084.19 83.9179 1081.15 86.5083C1068.12 97.4458 1053.44 109.88 1034.21 118.975C1011.94 129.51 987.896 133.597 960.692 131.41C923.365 128.474 889.454 117.997 857.947 107.577C829.351 98.1366 802.652 87.7748 777.852 77.9886C768.236 74.1892 758.366 70.2748 749.003 66.533C736.476 61.5248 723.443 56.3438 710.537 51.3356C681.308 39.9376 644.866 25.7188 607.159 13.5724C560.848 -1.3371 518.966 -12.3897 479.361 -20.2187C457.471 -24.5361 435.201 -27.9901 413.438 -30.4654C397.115 -32.3075 381.172 -33.2286 365.988 -33.1134C351.184 -32.9983 336.632 -31.9621 322.714 -29.9473C294.371 -25.9177 267.166 -17.9736 239.835 -5.71211C235.406 -3.75487 230.978 -1.74007 226.676 0.274734C222.627 2.11684 218.451 4.07408 214.275 5.91619C182.895 20.0198 153.54 31.8208 112.29 33.0297C74.3302 34.181 38.5215 26.9277 3.85153 19.9622C-16.1406 15.9326 -35.3736 12.1909 -54.1004 8.56421C-62.3251 6.95237 -70.1701 5.45566 -77.8886 3.95895C-81.1784 3.32572 -84.4683 2.6925 -87.6316 2.05928C-107.75 -1.6825 -126.477 -5.30915 -144.824 -7.95717L-144.951 -7.84204C-126.604 -5.25158 -107.877 -1.56737 -87.8847 2.28954C-84.7214 2.92276 -81.4315 3.55599 -78.1417 4.18921C-70.4232 5.68592 -62.5781 7.18263 -54.3535 8.79448C-35.6267 12.4211 -16.2672 16.1629 3.59846 20.1925C21.06 23.704 39.0276 27.3307 57.1218 29.8636C77.114 32.6843 95.0816 33.778 112.164 33.2599C131.523 32.6843 149.87 29.6909 168.344 24.107C184.92 19.0988 200.23 12.4787 214.402 6.08889C218.578 4.24678 222.753 2.28954 226.802 0.447433C231.104 -1.5098 235.533 -3.58217 239.962 -5.53941C267.293 -17.8009 294.371 -25.6874 322.714 -29.717C351.184 -33.7467 380.792 -33.9194 413.311 -30.2351C435.201 -27.7598 457.345 -24.3059 479.235 -19.9884C518.84 -12.1595 560.722 -1.10684 607.033 13.8027C644.74 25.9491 681.181 40.1103 710.41 51.5083C723.316 56.5165 736.349 61.6975 748.876 66.7057C758.366 70.4475 768.109 74.3619 777.726 78.1613C802.526 87.9475 829.224 98.2517 857.821 107.75C889.327 118.17 923.365 128.646 960.692 131.582C965.373 131.985 970.055 132.158 974.61 132.158Z" fill="#E0E0E0"/>
<path d="M976.256 131.237C998.019 131.237 1017.88 126.977 1036.49 118.285C1055.72 109.305 1070.65 97.1581 1083.68 86.3933C1086.97 83.7453 1090.01 81.2124 1093.05 78.8522C1110.76 64.8062 1131.76 48.5726 1155.93 33.8358C1182.12 17.89 1208.57 5.80123 1236.91 -3.17904C1243.11 -5.13627 1248.81 -6.86325 1254.5 -8.35996C1271.33 -12.8501 1304.99 -20.6215 1341.94 -22.003C1369.01 -22.9817 1392.3 -20.1034 1411.02 -13.5409C1421.65 -9.85667 1429.62 -5.19384 1435.44 0.677873C1447.34 12.5364 1447.72 26.64 1448.1 39.0743C1448.1 40.0529 1448.1 40.9739 1448.22 41.895H1448.48C1448.48 40.9739 1448.48 39.9953 1448.35 39.0743C1447.97 26.64 1447.59 12.5364 1435.7 0.620308C1429.75 -5.30897 1421.78 -9.9718 1411.15 -13.656C1392.3 -20.2185 1369.01 -23.0968 1341.81 -22.1182C1304.86 -20.7942 1271.08 -13.0228 1254.25 -8.47509C1248.55 -6.97838 1242.86 -5.2514 1236.66 -3.29417C1208.32 5.6861 1181.87 17.7749 1155.68 33.7206C1131.51 48.4575 1110.51 64.691 1092.79 78.7371C1089.76 81.0973 1086.72 83.6302 1083.43 86.2782C1070.27 97.043 1055.34 109.189 1036.23 118.112C1014.09 128.416 990.301 132.504 963.476 130.546C926.908 127.956 892.744 117.997 861.237 107.635C833.527 98.5397 807.967 88.4657 782.028 78.0463C772.917 74.3621 763.554 70.6203 754.57 66.9361C741.79 61.7552 728.631 56.4016 715.598 51.2206C685.357 39.247 649.928 25.5463 612.347 14.0331C566.669 0.0446498 525.04 -10.3172 484.929 -17.6856C463.418 -21.6001 441.402 -24.7662 419.512 -27.0113C403.442 -28.6807 387.625 -29.429 372.568 -29.1988C357.89 -28.9685 343.465 -27.8748 329.547 -25.8024C301.583 -21.7152 274.505 -13.9438 246.794 -1.97015C243.251 -0.415876 239.582 1.1384 236.166 2.69268C231.231 4.82261 226.17 7.06767 221.108 9.19761C188.21 23.1861 159.866 33.9509 119.756 34.3539C86.7305 34.6993 56.3626 28.4821 24.3499 21.8621C19.4151 20.8259 14.2272 19.7897 9.16593 18.7535C-19.8101 13.0545 -47.7738 8.79465 -76.1171 4.53478L-78.1417 4.24695C-101.93 0.677871 -122.555 -2.37311 -142.673 -4.21522V-4.10009C-122.555 -2.25798 -101.93 0.793005 -78.1417 4.36208L-76.1171 4.64991C-47.6473 8.90978 -19.8101 13.1696 9.16593 18.9838C14.2272 20.02 19.4151 21.0562 24.3499 22.0923C56.4892 28.7124 86.857 34.9871 119.882 34.6417C138.862 34.4114 156.956 31.7634 175.43 26.5249C191.626 21.9197 206.43 15.8177 221.488 9.42787C226.549 7.29794 231.61 5.05287 236.545 2.92294C240.088 1.36866 243.631 -0.185617 247.174 -1.73989C274.885 -13.656 301.963 -21.485 329.8 -25.5146C358.017 -29.6593 387.372 -30.0047 419.512 -26.7234C441.402 -24.4784 463.418 -21.3123 484.929 -17.3978C525.04 -10.0294 566.669 0.332479 612.347 14.2634C649.801 25.719 685.23 39.4772 715.472 51.4509C728.631 56.6318 741.79 61.9854 754.444 67.1664C763.427 70.793 772.664 74.5923 781.901 78.2766C807.84 88.696 833.4 98.77 861.237 107.865C892.744 118.227 927.034 128.129 963.602 130.777C967.778 131.122 972.08 131.237 976.256 131.237Z" fill="#E0E0E0"/>
<path d="M977.774 130.373C999.791 130.373 1019.78 126.113 1038.64 117.363C1057.87 108.498 1072.93 96.5245 1086.21 85.99C1089.5 83.342 1092.67 80.8666 1095.83 78.4489C1115.06 63.7696 1135.81 48.2844 1159.6 34.2383C1185.92 18.7531 1212.62 7.12486 1241.09 -1.39488C1247.67 -3.35211 1253.24 -4.84882 1258.55 -6.2304C1275.25 -10.3751 1308.53 -17.4557 1344.85 -18.3192C1371.42 -18.9524 1394.32 -15.959 1412.92 -9.33896C1423.3 -5.65475 1431.39 -1.04948 1437.34 4.76466C1449.36 16.2778 1450.63 29.8633 1451.89 41.8946C1452.02 42.9883 1452.15 44.0821 1452.27 45.1758H1452.52C1452.4 44.0821 1452.27 42.9883 1452.15 41.8946C1451.01 29.9209 1449.61 16.2778 1437.59 4.76466C1431.52 -1.04948 1423.55 -5.71231 1413.05 -9.39652C1394.45 -15.959 1371.42 -19.01 1344.85 -18.3768C1308.53 -17.5133 1275.13 -10.4327 1258.42 -6.28797C1252.98 -4.96396 1247.42 -3.40968 1240.84 -1.45244C1212.24 7.00973 1185.54 18.6956 1159.22 34.1808C1135.43 48.1693 1114.68 63.712 1095.45 78.3913C1092.29 80.7515 1089.25 83.2844 1085.83 85.9324C1072.55 96.467 1057.49 108.441 1038.26 117.306C1016.11 127.495 992.452 131.582 966.006 129.855C928.426 127.437 893.503 117.421 864.274 107.923C837.196 99.115 812.775 89.2712 785.824 78.2762C777.093 74.7071 768.236 71.0229 759.632 67.4538C746.852 62.1577 733.566 56.6314 720.28 51.3354C688.9 38.7285 654.736 25.5459 617.282 14.7235C572.363 1.65611 530.86 -8.01494 490.243 -14.8653C469.112 -18.4343 447.222 -21.2551 425.332 -23.2699C409.389 -24.7666 393.699 -25.3422 378.895 -24.9969C364.343 -24.6515 350.045 -23.5001 336.253 -21.4278C308.795 -17.3406 281.717 -9.68435 253.501 2.0015C250.97 3.03769 248.439 4.13144 245.782 5.16762C239.835 7.64295 233.635 10.2334 227.561 12.7087C200.483 23.5887 169.862 35.9653 128.486 35.9653C127.854 35.9653 127.347 35.9653 126.715 35.9653C96.7265 35.7351 69.1423 29.6906 40.0398 23.3008C31.5621 21.4587 22.7048 19.5015 13.8475 17.717C-18.1653 11.3272 -48.7862 7.81565 -74.8519 5.05249C-98.8931 2.5196 -120.53 0.332098 -141.282 -0.473823V-0.358694C-120.657 0.447227 -99.0197 2.63473 -74.8519 5.16762C-48.6596 7.93078 -18.1653 11.4423 13.8475 17.8321C22.7048 19.6166 31.5621 21.5163 40.0398 23.416C69.2689 29.8058 96.853 35.7926 126.841 36.0804C145.442 36.2531 163.283 33.9505 181.63 29.0574C197.573 24.7976 211.871 19.2137 227.688 12.8239C233.761 10.3485 239.962 7.81565 245.909 5.28276C248.439 4.24657 250.97 3.15282 253.627 2.11664C281.717 -9.51165 308.795 -17.1679 336.253 -21.2551C364.343 -25.4574 393.446 -26.033 425.205 -23.0972C447.096 -21.0824 468.859 -18.2617 489.99 -14.6926C530.481 -7.84225 571.983 1.82881 616.903 14.8962C654.23 25.7762 688.394 38.9012 719.9 51.5081C733.186 56.8041 746.346 62.3304 759.252 67.6265C767.856 71.1956 776.713 74.8798 785.444 78.4489C812.396 89.4439 836.817 99.2877 863.895 108.095C893.124 117.594 928.047 127.668 965.753 130.085C970.182 130.258 973.978 130.373 977.774 130.373Z" fill="#E0E0E0"/>
<path d="M979.292 129.452C1031.93 129.452 1063.18 105.332 1088.62 85.7025C1092.16 82.9969 1095.45 80.464 1098.61 78.0462C1118.1 63.5972 1139.23 48.2847 1163.27 34.6416C1189.97 19.5018 1216.79 8.33406 1245.39 0.389986C1252.1 -1.45212 1257.66 -2.89127 1262.85 -4.10015C1279.3 -7.89949 1312.33 -14.2893 1348.01 -14.6923C1374.07 -14.9801 1396.6 -11.814 1415.07 -5.25146C1425.32 -1.56725 1433.42 2.98045 1439.62 8.73703C1451.77 19.9624 1453.92 33.0298 1455.94 44.5429C1456.19 45.8094 1456.32 47.0758 1456.57 48.2847H1456.83C1456.57 47.0758 1456.45 45.867 1456.19 44.5429C1454.17 32.9722 1452.02 19.9048 1439.87 8.67946C1433.67 2.92288 1425.57 -1.68238 1415.32 -5.36659C1396.85 -11.9291 1374.33 -15.1528 1348.14 -14.8649C1312.45 -14.462 1279.43 -8.07219 1262.85 -4.27284C1257.66 -3.06396 1252.1 -1.68238 1245.39 0.217287C1216.79 8.16137 1189.84 19.3291 1163.14 34.4689C1139.1 48.112 1117.97 63.4245 1098.49 77.8735C1095.2 80.2913 1091.91 82.8242 1088.36 85.5298C1061.41 106.369 1027.75 132.331 968.917 128.934C930.198 126.747 894.516 116.558 867.691 107.923C839.094 98.6548 811.89 87.3719 790.126 78.2189C781.775 74.7074 773.297 71.1383 765.073 67.6268C752.293 62.2156 739.007 56.5742 725.721 51.163C696.618 39.3045 661.695 25.7189 622.976 15.0693C578.943 2.92288 537.44 -6.05738 496.444 -12.4472C475.692 -15.6709 454.055 -18.2038 432.165 -19.9883C400.658 -22.5788 371.809 -21.7153 343.845 -17.4554C316.894 -13.3682 289.816 -5.82712 261.219 5.57091C259.954 6.089 258.689 6.60709 257.297 7.12518C250.084 10.0035 242.492 12.9969 235.027 15.8176C207.443 26.2946 176.063 38.2107 134.94 37.0594C106.976 36.311 81.4162 30.3242 54.2116 23.9344C43.0768 21.3439 31.5623 18.6383 19.6682 16.2781C-13.2303 9.71564 -45.4962 7.01005 -72.5742 5.28308C-94.3378 3.84393 -117.367 2.63505 -138.877 2.98045V3.09558C-117.493 2.69262 -94.4643 3.95906 -72.7007 5.39821C-45.6227 7.18275 -13.4834 9.83077 19.5417 16.3933C31.4357 18.7535 42.9502 21.4591 54.0851 24.0495C81.1631 30.3818 106.849 36.4262 134.813 37.1745C153.034 37.6926 170.748 35.6778 188.969 31.1877C204.659 27.2732 219.21 21.9772 235.153 15.8752C242.619 13.0545 250.084 10.061 257.423 7.18275C258.689 6.66465 259.954 6.14656 261.346 5.62847C289.942 -5.71199 316.894 -13.2531 343.845 -17.3403C371.682 -21.6001 400.532 -22.4061 432.038 -19.8156C453.929 -18.0311 475.566 -15.4982 496.317 -12.3321C537.44 -5.99982 578.816 3.03801 622.85 15.1844C661.442 25.8341 696.492 39.362 725.594 51.2781C738.88 56.6893 752.166 62.3308 764.946 67.7419C773.171 71.2535 781.648 74.8225 789.999 78.3341C811.763 87.4295 838.968 98.7699 867.691 108.038C894.516 116.673 930.198 126.92 969.043 129.05C972.46 129.395 976.003 129.452 979.292 129.452Z" fill="#E0E0E0"/>
<path d="M980.558 128.589C1033.32 128.589 1065.21 104.757 1091.02 85.4146C1094.69 82.709 1098.11 80.1186 1101.52 77.6432C1121.39 63.4245 1142.77 48.3998 1167.07 35.0446C1194.02 20.3077 1221.1 9.5429 1249.82 2.23205C1256.65 0.447509 1262.09 -0.818939 1267.15 -1.85512C1295.37 -7.7844 1325.11 -10.9505 1351.05 -10.893C1376.61 -10.8354 1398.87 -7.49657 1416.97 -0.934071C1427.09 2.75014 1435.19 7.29784 1441.52 12.9393C1453.66 23.8192 1456.83 36.4261 1459.48 47.4788C1459.86 48.9179 1460.12 50.2995 1460.5 51.6235H1460.75C1460.37 50.2419 1460.12 48.9179 1459.74 47.4788C1456.95 36.3686 1453.92 23.7617 1441.77 12.8817C1435.44 7.18271 1427.34 2.63501 1417.22 -1.0492C1399 -7.6117 1376.73 -11.0081 1351.05 -11.0656C1325.11 -11.1232 1295.24 -7.89953 1267.03 -1.97025C1261.84 -0.876503 1256.53 0.389945 1249.69 2.11692C1234.89 5.91626 1220.08 10.7518 1205.91 16.5084C1192.88 21.8044 1179.72 28.0215 1166.94 34.987C1142.65 48.3422 1121.26 63.3669 1101.4 77.5857C1097.98 80.061 1094.56 82.5939 1090.89 85.3571C1063.69 105.735 1029.78 131.064 971.827 128.244C941.206 126.747 909.32 120.357 871.233 108.153C843.017 99.1153 817.204 88.1202 794.428 78.4492C786.33 75.0528 778.232 71.4837 770.26 68.0873C757.48 62.561 744.195 56.8044 730.909 51.3357C702.439 39.5347 668.022 26.1219 628.417 15.8176C585.143 4.59224 543.893 -3.75479 502.264 -9.56894C481.892 -12.3897 460.508 -14.6347 438.491 -16.189C407.364 -18.3765 378.768 -17.3403 351.057 -13.0229C324.612 -8.93572 297.661 -1.50973 268.431 9.54291C260.333 12.5939 251.223 16.1054 242.113 19.3291C214.402 29.2304 182.895 40.4557 142.658 38.6136C116.086 37.4047 91.9183 31.3028 66.3587 24.8554C53.1993 21.5166 39.5338 18.1202 25.2356 15.2419C-10.1936 8.21889 -44.484 6.54948 -70.5497 5.85869C-98.893 5.16791 -118.632 5.45573 -136.726 6.89488V7.01001C-118.632 5.62843 -98.893 5.3406 -70.6762 6.03139C-44.737 6.72218 -10.3201 8.39159 24.9825 15.3571C39.4072 18.2353 52.9463 21.6317 66.1057 24.9705C91.6653 31.4179 115.96 37.5199 142.531 38.7288C160.373 39.5347 177.834 37.9228 195.928 33.7781C211.492 30.209 225.537 25.3735 242.113 19.4442C251.223 16.2205 260.333 12.709 268.431 9.65804C297.534 -1.45216 324.485 -8.82058 350.931 -12.9078C378.641 -17.2252 407.238 -18.2614 438.238 -16.0739C460.255 -14.5196 481.639 -12.3321 502.011 -9.45381C543.64 -3.5821 584.89 4.70738 628.164 15.9327C667.769 26.237 702.186 39.6498 730.656 51.4508C743.942 56.9771 757.227 62.6761 770.007 68.2024C777.979 71.5988 786.077 75.1679 794.175 78.5643C816.951 88.2929 842.764 99.288 870.98 108.268C909.067 120.472 941.206 126.862 971.7 128.359C974.737 128.531 977.647 128.589 980.558 128.589Z" fill="#E0E0E0"/>
<path d="M981.949 127.725C1004.47 127.725 1025.22 123.465 1044.96 114.773C1064.07 106.368 1079.63 95.0855 1093.3 85.1266C1097.09 82.3635 1100.64 79.773 1104.31 77.2401C1124.42 63.2516 1146.19 48.4572 1170.74 35.4474C1197.69 21.2862 1225.65 10.6941 1254.12 4.01645C1259.18 2.86514 1265.13 1.48356 1271.46 0.274679C1299.29 -5.02137 1328.78 -7.6694 1354.21 -7.26644C1379.39 -6.86348 1401.15 -3.35196 1419.12 3.21054C1429.12 6.89475 1437.21 11.3849 1443.67 16.9688C1455.94 27.5033 1459.86 39.5921 1463.28 50.2418C1463.79 51.8536 1464.29 53.3503 1464.8 54.847H1465.05C1464.54 53.3503 1464.04 51.8536 1463.53 50.2418C1460.12 39.5921 1456.19 27.5033 1443.92 16.9112C1437.47 11.3273 1429.37 6.77961 1419.37 3.0954C1401.41 -3.4671 1379.51 -7.03617 1354.33 -7.43913C1340.54 -7.6694 1325.87 -7.03617 1310.68 -5.53946C1297.52 -4.21545 1284.24 -2.37334 1271.33 0.101984C1265 1.31087 1259.06 2.69244 1253.99 3.84376C1239.19 7.35527 1224.39 11.903 1209.96 17.4293C1196.8 22.4951 1183.52 28.5395 1170.61 35.3322C1146.06 48.3421 1124.3 63.1365 1104.18 77.125C1100.64 79.6003 1096.97 82.2483 1093.17 85.0115C1065.71 104.929 1031.68 129.74 974.61 127.38C943.863 126.113 911.091 119.896 874.523 108.268C846.686 99.4605 822.265 88.8109 798.603 78.5066C790.885 75.1678 782.913 71.6562 775.321 68.3174C762.541 62.676 749.382 56.8618 735.97 51.278C709.651 40.2253 674.222 26.2368 633.731 16.278C591.469 5.91613 550.22 -1.74012 507.958 -7.03617C488.092 -9.5115 466.835 -11.4112 444.691 -12.7352C413.944 -14.5197 385.601 -13.3108 358.016 -8.93584C344.098 -6.74834 330.306 -3.69736 315.755 0.274679C302.848 3.78619 289.689 8.04606 275.517 13.227C267.166 16.278 258.182 19.5592 248.945 22.5526C221.108 31.8783 189.601 42.4128 150.123 39.8799C124.564 38.2681 101.535 31.9934 77.1139 25.4309C62.3096 21.4013 46.9991 17.2566 30.4233 13.9753C-7.53648 6.49178 -44.3575 5.97369 -68.7783 6.26152C-95.7298 6.60692 -116.102 7.87336 -134.575 10.4638L-134.449 10.579C-115.975 7.98849 -95.6032 6.72205 -68.6518 6.37666C-44.231 6.08883 -7.40996 6.54935 30.5499 14.0905C47.1256 17.3717 62.4361 21.5165 77.2404 25.4885C101.661 32.1086 124.817 38.3257 150.376 39.9951C167.838 41.0888 185.046 39.8224 203.014 36.023C218.577 32.7418 233.255 28.0214 249.325 22.6102C258.435 19.5592 267.419 16.3355 275.897 13.227C305.632 2.40461 331.824 -4.61841 358.016 -8.76315C385.474 -13.1381 413.817 -14.4046 444.565 -12.5625C466.582 -11.296 487.839 -9.3388 507.705 -6.86348C549.967 -1.56742 591.09 6.08883 633.352 16.4507C673.842 26.4095 709.271 40.3405 735.59 51.3931C748.876 56.977 762.162 62.7911 774.942 68.4326C782.534 71.8289 790.505 75.2829 798.224 78.6217C821.885 88.926 846.433 99.5756 874.27 108.383C910.964 120.012 943.736 126.286 974.484 127.553C977.014 127.668 979.545 127.725 981.949 127.725Z" fill="#E0E0E0"/>
<path d="M983.341 126.862C1006.12 126.862 1027 122.602 1047.24 113.91C1066.35 105.678 1081.91 94.6251 1095.83 84.8389C1099.75 82.0182 1103.55 79.3702 1107.34 76.8949C1127.72 63.1366 1149.73 48.6301 1174.66 35.908C1201.86 22.0922 1230.21 11.9607 1258.55 5.8587C1263.61 4.76495 1269.56 3.4985 1275.76 2.46231C1295.24 -0.818934 1325.11 -4.56071 1357.37 -3.58209C1382.05 -2.83374 1403.43 0.850473 1421.27 7.41297C1431.14 11.0396 1439.11 15.5297 1445.82 21.0561C1458.09 31.3028 1462.77 42.8735 1466.95 53.0626C1467.71 54.7896 1468.34 56.459 1468.97 58.1284H1469.23C1468.47 56.5166 1467.84 54.8472 1467.2 53.1202C1463.03 42.8735 1458.35 31.3028 1446.07 21.0561C1439.37 15.5297 1431.39 11.0396 1421.52 7.41297C1403.68 0.850473 1382.17 -2.8913 1357.5 -3.63966C1325.23 -4.61827 1295.24 -0.876499 1275.76 2.40475C1269.56 3.44093 1263.61 4.70738 1258.55 5.80113C1230.08 11.9031 1201.86 22.0347 1174.53 35.908C1149.61 48.6301 1127.59 63.1366 1107.22 76.8949C1103.55 79.4278 1099.75 82.0758 1095.7 84.8389C1068.12 104.296 1033.83 128.531 977.521 126.689C946.647 125.711 913.116 119.551 877.94 108.498C850.482 99.8636 826.188 89.0988 802.779 78.6794C795.314 75.3981 787.722 71.9442 780.383 68.6054C767.73 62.8488 754.57 56.9195 741.284 51.2781C715.345 40.2255 680.422 26.3521 639.172 16.8538C597.796 7.29784 556.8 0.389947 513.905 -4.38801C494.166 -6.57551 473.668 -8.12979 451.271 -9.16597C420.903 -10.6051 392.813 -9.10841 365.482 -4.67584C340.049 -0.531106 313.857 6.37679 283.109 17.084C272.354 20.8258 264.129 23.589 256.411 26.0067C228.574 34.6991 196.94 44.6005 158.221 41.3768C133.421 39.362 111.278 32.9146 87.7427 26.1218C71.5465 21.4015 54.7177 16.5659 36.2439 12.9393C19.2885 9.60047 0.94128 7.47054 -18.2917 6.60705C-33.3491 5.97383 -49.0391 6.03139 -66.5007 6.83731C-93.0725 8.10376 -113.318 10.4064 -132.171 14.3209L-132.045 14.436C-113.191 10.5791 -92.946 8.27646 -66.5007 7.01001C-27.5286 5.16791 6.00259 7.12514 36.1174 13.0544C54.5912 16.6811 71.42 21.5742 87.6162 26.237C111.151 33.0297 133.421 39.4771 158.221 41.5495C175.303 42.931 192.259 41.9524 210.226 38.5561C225.916 35.5626 240.468 31.1876 256.664 26.1218C264.509 23.7041 272.734 20.9409 283.362 17.1992C314.11 6.49192 340.302 -0.415974 365.735 -4.56071C393.066 -8.99327 421.156 -10.4324 451.524 -9.05084C473.921 -8.01466 494.419 -6.46038 514.158 -4.27288C557.053 0.447513 598.049 7.41297 639.425 16.9113C680.549 26.4097 715.598 40.283 741.411 51.3357C754.697 56.9771 767.856 62.9064 780.509 68.663C787.848 72.0018 795.44 75.3982 802.906 78.737C826.314 89.1564 850.609 99.9212 878.066 108.556C894.515 113.737 910.585 117.824 925.895 120.818C943.737 124.214 961.072 126.229 977.774 126.804C979.292 126.804 981.317 126.862 983.341 126.862Z" fill="#E0E0E0"/>
<path d="M984.48 125.998C1007.51 125.998 1028.64 121.739 1049.14 112.989C1068.12 104.872 1083.93 94.0495 1097.85 84.4935C1102.03 81.6728 1105.95 78.9672 1109.75 76.4343C1130.37 62.9064 1152.77 48.63 1177.95 36.2534C1205.53 22.783 1234 13.112 1262.47 7.58564C1267.79 6.54946 1273.61 5.45571 1279.55 4.59222C1298.79 1.7715 1328.27 -1.33705 1360.03 0.102091C1384.2 1.19584 1405.33 5.05275 1422.79 11.6152C1432.53 15.2419 1440.5 19.6745 1447.34 25.1432C1459.61 35.0445 1465.05 46.0972 1469.86 55.8833C1470.75 57.783 1471.63 59.5675 1472.64 61.3521L1472.9 61.2945C1472.01 59.51 1471.13 57.7254 1470.11 55.8258C1465.3 46.0396 1459.86 34.9294 1447.46 25.0856C1440.63 19.6169 1432.66 15.1843 1422.92 11.5577C1405.33 4.99518 1384.2 1.08071 1359.9 0.0445257C1328.14 -1.39462 1298.53 1.71393 1279.3 4.59222C1273.35 5.45571 1267.53 6.54946 1262.09 7.58564C1233.62 13.112 1205.15 22.783 1177.44 36.311C1152.26 48.6876 1129.87 62.9639 1109.24 76.4919C1105.32 79.0248 1101.4 81.7304 1097.35 84.5511C1069.51 103.548 1034.97 127.265 979.672 125.941C948.165 125.193 914.887 119.378 880.597 108.671C853.392 100.209 829.731 89.4442 806.702 79.0248L806.196 78.7945C798.983 75.5133 791.644 72.1169 784.558 68.8356C771.905 63.0215 758.872 56.9771 745.586 51.2781C728.251 43.7945 712.561 37.635 697.63 32.5116C679.283 26.1794 661.569 21.2863 643.728 17.4294C603.364 8.73696 562.493 2.46229 518.84 -1.68245C499.607 -3.52455 479.235 -4.73344 456.712 -5.53936C426.724 -6.57554 398.887 -4.90613 371.682 -0.416002C346.755 3.72873 321.322 10.2912 289.309 20.9409C279.06 24.3373 270.456 27.0429 262.358 29.4031C228.7 39.1893 200.23 46.385 164.801 42.8159C140.633 40.3981 119.123 33.7205 96.3469 26.6975C78.8853 21.3439 60.9177 15.76 40.6725 11.7879C23.0844 8.334 3.97797 6.3192 -16.0142 5.8011C-31.8308 5.39814 -48.027 5.91623 -65.615 7.35538C-91.9339 9.54288 -112.053 12.8241 -131.032 18.0626L-130.906 18.1777C-111.926 12.9393 -91.8073 9.65801 -65.4885 7.47051C-25.7572 4.18926 8.91274 5.62841 40.6725 11.8455C60.9177 15.8176 79.0119 21.4014 96.3469 26.755C119.123 33.7781 140.633 40.4557 164.928 42.8735C181.63 44.5429 198.332 43.9097 216.173 40.8587C231.99 38.1531 247.174 33.8932 262.737 29.4031C270.836 27.0429 279.44 24.3948 289.689 20.9409C321.702 10.2912 347.008 3.72873 371.935 -0.416002C399.14 -4.90613 426.85 -6.57554 456.839 -5.53936C479.361 -4.73344 499.733 -3.46699 518.966 -1.68245C562.62 2.46229 603.364 8.73696 643.854 17.4294C685.61 26.4097 720.153 40.2254 745.586 51.2781C758.872 57.0347 771.905 63.0215 784.558 68.8356C791.644 72.1169 798.983 75.5133 806.196 78.7945L806.702 79.0248C829.604 89.4442 853.392 100.151 880.597 108.671C914.887 119.378 948.292 125.193 979.798 125.941C981.57 125.941 983.088 125.998 984.48 125.998Z" fill="#E0E0E0"/>
<path d="M985.745 125.135C1009.03 125.135 1030.54 120.875 1051.42 112.125C1070.4 104.181 1086.34 93.5887 1100.38 84.2055C1104.69 81.3272 1108.73 78.6216 1112.91 76.0312C1133.91 62.7335 1156.44 48.745 1182 36.6561C1209.96 23.4736 1238.56 14.3206 1267.15 9.36995C1272.59 8.4489 1278.42 7.47028 1284.24 6.72192C1303.09 4.30416 1332.19 1.82883 1363.57 3.7285C1387.23 5.16764 1407.98 9.19725 1425.32 15.7598C1434.94 19.3864 1442.91 23.7614 1449.87 29.115C1462.14 38.6709 1468.34 49.2055 1473.78 58.5311C1474.92 60.6035 1476.06 62.5608 1477.32 64.4604L1477.58 64.4029C1476.44 62.5032 1475.3 60.546 1474.03 58.4736C1468.59 49.1479 1462.39 38.5558 1450.12 28.9999C1443.16 23.5887 1435.06 19.2137 1425.57 15.5871C1407.86 9.08212 1387.11 5.05251 1363.45 3.61337C1332.06 1.7137 1302.96 4.18902 1283.98 6.60679C1278.16 7.35514 1272.34 8.33377 1266.9 9.25482C1238.3 14.2055 1209.71 23.416 1181.62 36.5986C1156.06 48.6874 1133.41 62.6759 1112.53 75.9736C1108.48 78.5641 1104.43 81.2696 1100 84.1479C1072.04 102.742 1037.24 125.826 982.708 125.02C950.695 124.559 917.544 119.033 884.139 108.729C857.188 100.381 833.906 89.6742 811.509 79.2548L810.624 78.8519C803.665 75.6282 796.579 72.2894 789.619 69.0657C777.093 63.1364 764.186 57.0344 750.9 51.2203C733.818 43.7367 718.255 37.5772 703.324 32.5114C684.977 26.2943 667.389 21.5163 649.295 17.8897C609.816 9.94561 569.199 4.41929 524.786 0.850207C506.06 -0.646504 485.941 -1.56756 463.165 -2.08565C433.556 -2.71887 405.972 -0.876767 378.894 3.7285C348.147 8.90942 318.791 17.6594 296.648 24.6825C286.652 27.8486 277.795 30.439 269.57 32.6841C237.178 41.4341 207.569 48.2844 172.646 44.1397C148.858 41.319 127.98 34.4686 105.71 27.1578C87.2364 21.1134 68.13 14.8387 46.1133 10.5213C13.2148 4.07389 -23.6062 3.15284 -63.717 7.7581C-89.6562 10.8091 -109.775 15.069 -128.628 21.689L-128.502 21.8042C-109.648 15.1841 -89.5297 10.9242 -63.3374 7.87324C-23.3531 3.26797 13.4679 4.18903 46.2399 10.5788C68.2565 14.8963 87.363 21.1709 105.837 27.2153C128.106 34.4686 148.984 41.3765 172.773 44.1973C189.095 46.1545 205.545 45.8091 223.259 43.1611C239.329 40.7433 255.145 36.7137 269.823 32.6841C278.174 30.439 287.032 27.8486 297.028 24.6825C319.171 17.6594 348.526 8.90942 379.274 3.7285C406.225 -0.819201 433.809 -2.71887 463.418 -2.08565C486.067 -1.56756 506.313 -0.588938 525.04 0.850207C569.326 4.36172 610.069 9.94561 649.421 17.8897C682.32 24.5098 713.7 34.7565 750.9 51.2203C764.186 57.0344 777.093 63.1364 789.619 69.0657C796.452 72.2894 803.538 75.6858 810.624 78.8519L811.509 79.2548C833.906 89.6742 857.188 100.381 884.139 108.729C899.956 113.622 915.899 117.479 931.716 120.184C949.05 123.178 966.259 124.789 982.835 125.077C983.72 125.135 984.733 125.135 985.745 125.135Z" fill="#E0E0E0"/>
<path d="M986.758 124.329C1010.29 124.329 1032.06 120.069 1053.44 111.262C1072.29 103.433 1088.49 93.0709 1102.66 83.9179C1107.22 81.0396 1111.39 78.2765 1115.69 75.686C1136.95 62.6186 1159.73 48.9179 1185.67 37.1169C1214.01 24.2797 1242.86 15.5873 1271.33 11.2123C1277.66 10.2337 1282.84 9.48534 1288.29 8.90968C1306.89 6.95244 1335.48 5.11034 1366.48 7.41297C1389.64 9.19751 1410.01 13.3998 1427.22 19.9623C1436.71 23.589 1444.68 27.9064 1451.77 33.2024C1464.04 42.3554 1470.87 52.4294 1476.82 61.3521C1478.34 63.5972 1479.73 65.6695 1481.25 67.7419L1481.5 67.6844C1479.98 65.612 1478.59 63.5396 1477.07 61.2945C1471 52.4294 1464.29 42.2978 1451.89 33.1449C1444.81 27.7913 1436.71 23.4738 1427.22 19.8472C1410.01 13.2847 1389.51 9.02481 1366.36 7.29784C1335.36 4.93764 1306.63 6.77975 1288.16 8.79455C1282.72 9.37021 1277.4 10.1186 1271.2 11.0972C1242.61 15.4722 1213.76 24.2222 1185.41 37.0018C1159.47 48.8028 1136.57 62.561 1115.44 75.5709C1111.14 78.1613 1106.96 80.9245 1102.41 83.8028C1073.05 102.742 1039.78 124.156 986.884 124.156C986.505 124.156 986.125 124.156 985.619 124.156C953.606 123.984 919.695 118.63 887.556 108.786C860.731 100.554 838.082 89.8472 816.065 79.4278L814.926 78.9097C808.22 75.7436 801.261 72.4047 794.681 69.2386C782.281 63.2518 769.375 57.0347 756.215 51.163C739.386 43.6219 723.949 37.5199 709.018 32.5117C690.798 26.4097 673.083 21.7468 654.862 18.408C616.397 11.2699 575.78 6.37679 530.734 3.4985C512.513 2.34718 492.521 1.71396 469.619 1.48369C440.39 1.19587 413.058 3.3258 386.234 7.93106C357.384 12.8817 329.673 20.7107 303.987 28.482C294.118 31.4755 285.134 33.9508 276.656 36.0232C244.39 44.0248 214.908 50.2419 180.365 45.5215C156.956 42.2978 136.458 35.2172 114.821 27.6761C95.3349 20.9409 75.3427 13.9755 51.6811 9.31264C32.7012 5.57086 12.2029 3.78632 -9.05464 4.01659C-26.01 4.18928 -43.7246 5.57086 -61.5657 8.21889C-87.8845 12.0758 -108.003 17.4294 -126.604 25.4311L-126.477 25.5462C-107.75 17.5445 -87.758 12.2485 -61.4392 8.39159C-20.8222 2.40475 17.2642 2.75014 51.6811 9.48534C75.3427 14.0906 95.3349 21.0561 114.821 27.7913C136.585 35.3324 157.083 42.413 180.491 45.6367C196.434 47.8242 212.757 47.7666 230.219 45.5791C246.668 43.5067 262.358 39.7649 276.909 36.1383C285.514 34.0084 294.371 31.533 304.24 28.5972C329.8 20.8834 357.511 13.0544 386.36 8.10376C413.185 3.4985 440.39 1.36856 469.619 1.65639C492.521 1.88665 512.387 2.51988 530.607 3.67119C575.653 6.54948 616.143 11.4426 654.609 18.5807C697.757 26.6399 733.06 41.1465 755.836 51.3357C768.995 57.2074 781.901 63.4245 794.302 69.4113C801.008 72.635 807.841 75.9163 814.547 79.0824L815.686 79.6005C837.702 90.0199 860.478 100.785 887.177 108.959C902.74 113.737 918.683 117.421 934.626 120.012C951.708 122.775 968.79 124.214 985.366 124.329C985.999 124.329 986.378 124.329 986.758 124.329Z" fill="#E0E0E0"/>
<path d="M987.517 123.523C987.77 123.523 988.15 123.523 988.403 123.523C1012.06 123.465 1033.95 119.148 1055.59 110.398C1074.44 102.742 1090.64 92.5526 1104.94 83.6299C1109.62 80.694 1114.05 77.9309 1118.48 75.2828C1139.86 62.5032 1163.02 49.0328 1189.34 37.5197C1218.06 25.0279 1247.04 16.796 1275.63 12.9966C1280.69 12.3058 1286.64 11.5575 1292.59 11.0394C1310.81 9.48511 1338.9 8.21866 1369.52 11.097C1392.17 13.1693 1412.16 17.6019 1429.12 24.1644C1438.35 27.7335 1446.45 32.0509 1453.66 37.2894C1465.81 46.097 1473.28 55.6529 1479.86 64.1151C1481.75 66.5328 1483.53 68.7779 1485.3 71.023L1485.55 70.9654C1483.78 68.7203 1482.01 66.4753 1480.11 64.0575C1473.53 55.5953 1466.19 46.0394 1453.92 37.2318C1446.7 31.9358 1438.61 27.6759 1429.24 24.0493C1412.29 17.4868 1392.17 13.0542 1369.52 10.9818C1338.77 8.1611 1310.68 9.36997 1292.46 10.9243C1286.51 11.4423 1280.57 12.1907 1275.51 12.8815C1246.91 16.6808 1217.81 24.9127 1189.08 37.4045C1162.76 48.9177 1139.61 62.3881 1118.23 75.1677C1113.8 77.8157 1109.37 80.5789 1104.69 83.5148C1074.95 102.109 1041.17 123.235 988.403 123.408C988.15 123.408 987.77 123.408 987.517 123.408C955.378 123.408 921.973 118.4 890.846 108.959C864.147 100.9 841.878 90.0773 820.367 79.6578L818.975 79.0246C812.522 75.9161 805.816 72.6348 799.363 69.4687C787.089 63.3667 774.309 57.092 761.15 51.1628C744.574 43.6216 729.264 37.5197 714.206 32.569C695.985 26.5246 678.271 22.092 659.924 18.9259C621.964 12.421 582.612 8.33379 536.301 6.08873C518.333 5.22524 499.1 4.87984 475.818 4.99497C446.969 5.11011 419.891 7.41274 393.193 12.1331C364.976 17.0838 337.139 24.7976 311.073 32.2812C301.33 35.1019 292.219 37.4045 283.489 39.3618C252.615 46.3848 222.12 52.1989 187.83 46.9029C164.675 43.3338 144.682 35.9654 123.425 28.194C103.053 20.768 82.0486 13.1118 56.8686 8.16109C37.1295 4.30418 15.9985 2.63478 -6.01816 3.21043C-23.7327 3.67096 -41.8269 5.51307 -59.9211 8.73675C-86.3664 13.4571 -106.359 19.7894 -124.832 29.1726L-124.579 29.2302C-105.979 19.7894 -85.9868 13.5147 -59.668 8.79432C-31.1982 3.72853 12.2025 -0.531345 56.8686 8.21866C82.0486 13.1693 103.053 20.8256 123.298 28.2516C144.556 36.023 164.675 43.3914 187.83 46.9605C197.193 48.3996 206.177 49.0328 215.035 49.0328C238.823 49.0328 261.219 44.5427 283.742 39.4193C292.473 37.4621 301.583 35.1019 311.326 32.3387C337.392 24.8552 365.229 17.1414 393.446 12.2483C420.144 7.52787 447.096 5.22524 475.945 5.1101C499.354 5.05254 518.587 5.39793 536.428 6.20386C582.739 8.44892 622.09 12.4785 660.05 19.041C703.577 26.5246 738.627 41.0312 761.15 51.2203C774.309 57.1496 786.963 63.4243 799.363 69.5263C805.816 72.6924 812.396 75.9736 818.975 79.0822L820.367 79.7154C841.878 90.1348 864.274 100.9 890.846 109.016C921.846 118.515 955.251 123.523 987.517 123.523Z" fill="#E0E0E0"/>
<path d="M987.264 122.717C988.529 122.717 989.794 122.717 991.186 122.717C1014.47 122.429 1036.23 118.112 1057.62 109.477C1076.34 101.936 1092.03 92.4375 1107.22 83.227C1112.15 80.2911 1116.71 77.4704 1121.26 74.8224C1142.9 62.273 1166.31 49.0905 1193.01 37.8651C1222.11 25.7188 1251.34 17.8898 1279.93 14.7237C1285 14.148 1290.94 13.5148 1296.76 13.1694C1322.32 11.5576 1348.51 12.0757 1372.56 14.7237C1394.7 17.1415 1414.31 21.6892 1431.14 28.3092C1440.25 31.8783 1448.35 36.1382 1455.69 41.3191C1467.71 49.7237 1475.68 58.7615 1482.77 66.7632C1485.04 69.3536 1487.19 71.829 1489.47 74.1892L1489.73 74.1316C1487.45 71.7714 1485.3 69.2961 1483.02 66.7056C1476.06 58.704 1468.09 49.6661 1455.94 41.2615C1448.48 36.0806 1440.5 31.7632 1431.27 28.1941C1414.44 21.6316 1394.7 17.0263 1372.56 14.6086C1348.39 11.9605 1322.2 11.4424 1296.64 13.0543C1290.82 13.3997 1284.87 14.0329 1279.81 14.6086C1251.21 17.7747 1221.86 25.6036 1192.75 37.75C1166.05 48.9753 1142.65 62.1579 1120.88 74.7073C1116.33 77.3553 1111.65 80.176 1106.84 83.1119C1076.98 101.303 1043.06 121.854 991.06 122.487C958.288 122.89 924.757 118.227 894.009 109.016C867.564 101.072 845.674 90.25 824.543 79.773L823.024 79.0247C816.698 75.9161 810.371 72.6925 804.171 69.5263C792.024 63.3668 779.371 56.977 766.338 50.9901C750.015 43.449 734.705 37.3471 719.774 32.454C701.679 26.5247 683.838 22.2072 665.365 19.329C628.291 13.5148 589.192 10.0609 542.122 8.56415C524.787 8.04606 505.807 7.98849 482.145 8.33389C453.675 8.79441 426.977 11.3273 400.405 16.1053C372.948 20.9984 345.743 28.3668 319.551 35.5049L318.412 35.7928C308.795 38.3832 299.432 40.6283 290.701 42.4704C261.346 48.5148 229.839 53.9836 195.675 48.0543C172.773 44.0822 153.034 36.4836 132.156 28.4819C111.025 20.3651 89.1346 11.9605 62.4362 6.72205C42.0644 2.75001 20.1743 1.19573 -2.47508 2.11678C-20.8223 2.86514 -39.4226 5.16777 -57.7699 8.96712C-72.1946 11.9605 -84.5948 15.472 -95.6032 19.6744C-105.093 23.301 -113.95 27.5609 -122.428 32.6842L-122.175 32.7418C-104.207 21.9194 -84.2152 14.6086 -57.6434 9.08225C-28.6674 3.03784 15.7456 -2.25822 62.4362 6.83718C89.1346 12.0757 111.025 20.4227 132.156 28.5395C153.034 36.5987 172.899 44.1398 195.675 48.1119C206.051 49.8964 216.3 50.6447 226.17 50.6447C248.819 50.6447 270.329 46.7303 290.828 42.4704C299.685 40.6859 308.922 38.4408 318.665 35.7928L319.804 35.5049C345.996 28.3668 373.201 20.9984 400.658 16.1053C427.23 11.3273 453.928 8.79441 482.398 8.33389C505.933 7.93093 525.04 7.98849 542.375 8.56415C589.445 10.0609 628.544 13.4572 665.491 19.2714C709.398 26.1793 744.068 40.6283 766.338 50.9326C779.371 56.9194 792.024 63.3092 804.171 69.4688C810.371 72.6349 816.824 75.8586 823.024 78.9671L824.543 79.7155C845.674 90.1924 867.564 101.015 894.136 108.959C923.491 118.054 955.631 122.717 987.264 122.717Z" fill="#E0E0E0"/>
<path d="M986.758 121.969C989.162 121.969 991.439 121.969 993.844 121.911C1045.09 120.817 1079.25 100.669 1109.37 82.9391C1114.43 79.9456 1119.24 77.1249 1124.05 74.4193C1145.94 62.1578 1169.6 49.2055 1196.68 38.268C1226.16 26.4095 1255.64 19.0986 1284.24 16.5082C1289.3 16.0476 1295.12 15.5295 1300.94 15.2993C1325.87 14.2631 1351.68 15.2993 1375.59 18.3503C1397.1 21.1134 1416.46 25.8338 1433.17 32.3963C1442.15 35.9654 1450.12 40.1677 1457.71 45.291C1469.61 53.2927 1477.7 61.4095 1485.42 69.296C1488.21 72.1167 1490.86 74.7647 1493.52 77.2976L1493.77 77.24C1491.12 74.7071 1488.46 72.0016 1485.68 69.2384C1478.21 61.7549 1469.86 53.2351 1457.97 45.2335C1450.37 40.1101 1442.28 35.8503 1433.29 32.3387C1416.72 25.7187 1397.23 20.9983 1375.59 18.2351C1351.55 15.1841 1325.74 14.148 1300.81 15.1841C1294.99 15.4144 1289.04 15.9325 1283.98 16.393C1255.39 18.9835 1225.9 26.2943 1196.3 38.1529C1169.09 49.148 1145.43 62.0427 1123.54 74.3042C1118.73 77.0098 1113.92 79.8305 1108.86 82.8239C1078.75 100.554 1044.71 120.645 993.59 121.738C960.692 122.487 927.287 118.169 897.426 109.247C870.98 101.418 849.596 90.5377 828.845 80.0608L827.2 79.2548C821.126 76.2039 814.926 72.9802 808.979 69.8716C796.959 63.6545 784.432 57.2072 771.399 51.1052C755.203 43.5065 740.145 37.4621 725.215 32.6266C707.12 26.7549 689.406 22.6101 670.679 19.9621C634.111 14.7236 596.278 12.0756 547.816 11.3272C530.86 11.097 512.513 11.3272 488.345 12.018C460.255 12.8815 433.81 15.6447 407.364 20.4802C383.07 24.9128 358.902 31.1299 335.62 37.1743C332.204 38.0378 328.788 38.9012 325.371 39.8223C315.755 42.2976 306.391 44.37 297.407 46.0394C269.57 51.2203 237.051 56.2285 203.014 49.666C180.365 45.3486 161.005 37.5197 140.38 29.2302C118.49 20.4226 95.7144 11.2697 67.4976 5.80092C46.3666 1.71375 23.8437 0.274609 0.435194 1.48349C-18.5447 2.51967 -37.6511 5.28283 -56.2515 9.65783C-70.9293 13.1118 -83.3295 17.1414 -94.3378 21.9193C-103.828 26.0641 -112.305 30.7269 -120.657 36.5986L-120.404 36.6562C-102.816 24.3947 -82.9499 16.1052 -55.9984 9.71539C-31.8306 4.01638 16.3783 -4.10039 67.4976 5.85849C95.7144 11.3848 118.364 20.4802 140.254 29.2878C160.879 37.5772 180.365 45.4062 203.014 49.7236C214.022 51.8535 225.284 52.8897 237.178 52.8897C241.48 52.8897 246.035 52.7746 250.59 52.4868C267.419 51.4506 283.742 48.6874 297.534 46.1545C306.518 44.4851 315.881 42.4128 325.498 39.9374C328.914 39.0739 332.331 38.2105 335.747 37.2894C359.155 31.245 383.323 25.0279 407.491 20.5953C433.936 15.7598 460.382 12.9966 488.345 12.1907C512.513 11.4424 530.86 11.2697 547.689 11.4999C596.025 12.2483 633.858 14.8963 670.426 20.1348C704.21 24.9703 736.096 34.8716 771.019 51.2203C784.052 57.2647 796.453 63.7121 808.6 69.9868C814.547 73.0953 820.747 76.319 826.82 79.37L828.465 80.1759C849.217 90.6529 870.727 101.533 897.046 109.419C925.136 117.651 955.884 121.969 986.758 121.969Z" fill="#E0E0E0"/>
<path d="M986.125 121.22C989.668 121.22 993.084 121.163 996.627 121.047C1047.11 119.493 1081.4 99.8633 1111.65 82.5935C1116.96 79.6001 1121.89 76.7218 1126.96 74.0162C1149.1 61.985 1172.89 49.3781 1200.47 38.6708C1230.33 27.1577 1259.94 20.3074 1288.54 18.2926C1293.6 17.9472 1299.42 17.5442 1305.24 17.4291C1329.54 16.9685 1354.84 18.5228 1378.76 22.0343C1399.76 25.0853 1418.74 30.036 1435.19 36.5985C1443.92 40.11 1452.02 44.3123 1459.74 49.3781C1471.38 56.9192 1479.73 64.5179 1487.83 71.8863C1491.24 74.9373 1494.41 77.8156 1497.7 80.5787L1497.95 80.5212C1494.66 77.758 1491.5 74.8797 1488.21 71.8287C1480.11 64.4603 1471.76 56.8616 1460.12 49.3205C1452.27 44.2547 1444.3 40.0524 1435.44 36.5409C1418.99 29.9208 1399.89 25.0277 1378.88 21.9192C1354.97 18.4077 1329.54 16.8534 1305.24 17.3139C1299.42 17.4291 1293.6 17.832 1288.54 18.1774C1259.94 20.1922 1230.21 27.0425 1200.35 38.5557C1172.76 49.2629 1148.85 61.8699 1126.7 73.9011C1121.64 76.6067 1116.71 79.485 1111.39 82.4784C1081.15 99.7481 1046.99 119.321 996.627 120.875C963.096 121.911 929.945 117.939 900.715 109.246C874.397 101.475 853.392 90.5952 833.02 80.0606L831.376 79.1971C825.555 76.2037 819.481 72.98 813.661 69.9291C801.767 63.5968 789.367 57.0919 776.46 50.9323C760.517 43.3337 745.46 37.2893 730.655 32.5113C712.688 26.7547 694.847 22.7827 676.12 20.3649C630.442 14.4356 586.788 13.7449 553.763 13.8024C533.138 13.86 512.387 14.6659 494.925 15.4143C467.341 16.6231 441.022 19.6166 414.83 24.5097C393.572 28.4817 372.188 33.7202 351.563 38.8435C345.49 40.3402 339.163 41.8945 332.963 43.3912C323.347 45.6939 313.857 47.6511 304.746 49.1478C275.264 54.0409 243.504 57.6675 210.986 50.8172C188.589 46.0968 169.483 38.0376 149.111 29.5179C126.462 19.962 102.927 10.1182 73.1914 4.36164C19.9211 -6.0002 -29.4266 3.38302 -54.1005 9.88795C-69.0314 13.8024 -81.5581 18.3501 -92.5665 23.7037C-102.056 28.309 -110.281 33.5475 -118.379 40.0524L-118.126 40.11C-106.612 30.8995 -88.897 19.156 -53.974 9.94551C-29.3001 3.44058 19.9211 -5.94264 73.0649 4.4192C102.8 10.1758 126.209 20.0195 148.858 29.5754C169.103 38.0952 188.336 46.1544 210.732 50.8748C225.41 53.9833 240.721 55.1346 257.55 54.5014C271.089 53.9833 285.64 52.3715 304.62 49.2054C313.73 47.7087 323.22 45.7514 332.837 43.4488C339.037 41.9521 345.363 40.3978 351.437 38.9011C372.062 33.7777 393.446 28.5393 414.703 24.5672C441.022 19.6741 467.214 16.6807 494.798 15.4718C512.26 14.7235 533.011 13.9176 553.636 13.86C586.661 13.8024 630.315 14.4932 675.993 20.4225C710.031 24.7975 741.917 34.5261 776.334 50.9899C789.24 57.0919 801.64 63.6544 813.534 69.9866C819.355 73.0376 825.302 76.2613 831.249 79.2547L832.894 80.1182C853.266 90.6527 874.27 101.59 900.589 109.304C926.781 117.191 956.263 121.22 986.125 121.22Z" fill="#E0E0E0"/>
<path d="M985.492 120.587C990.174 120.587 994.729 120.472 999.411 120.299C1049.01 118.227 1083.43 99.1727 1113.8 82.306C1119.24 79.255 1124.43 76.3767 1129.74 73.6136C1152.01 61.8701 1176.18 49.4935 1204.27 39.0741C1234.51 27.8488 1264.37 21.5165 1292.97 20.0774C1299.17 19.7895 1304.35 19.5593 1309.54 19.6168C1333.08 19.6744 1358.13 21.8043 1381.92 25.7188C1402.42 29.1152 1421.02 34.181 1437.34 40.8011C1445.95 44.3126 1453.92 48.3997 1462.01 53.4655C1473.28 60.5461 1481.88 67.5691 1490.11 74.3619C1494.15 77.7007 1497.95 80.8093 1502 83.8027L1502.25 83.7451C1498.33 80.7517 1494.41 77.5856 1490.36 74.3043C1482.01 67.5116 1473.53 60.4885 1462.14 53.408C1454.17 48.3422 1446.07 44.1974 1437.47 40.7435C1421.14 34.1234 1402.42 29.0001 1381.92 25.6037C1358.13 21.6892 1333.08 19.5593 1309.42 19.5017C1304.23 19.5017 1298.91 19.6744 1292.84 19.9622C1264.24 21.3438 1234.38 27.7336 1204.01 38.9589C1175.92 49.3783 1151.88 61.755 1129.49 73.4984C1124.3 76.2616 1119.11 79.1399 1113.54 82.1908C1083.18 99.0001 1048.76 118.112 999.285 120.127C965.5 121.508 932.475 117.824 903.879 109.477C877.687 101.821 857.062 90.8833 837.07 80.2912L835.298 79.3701C829.604 76.3767 823.91 73.2681 818.216 70.2172C806.449 63.8274 794.175 57.2073 781.395 50.9902C765.579 43.3339 750.774 37.3471 735.843 32.6267C717.876 26.9277 700.035 23.1284 681.181 20.9409C636.895 15.8175 594.633 15.8175 559.204 16.5083C539.465 16.9113 519.472 17.9474 500.872 19.0412C473.668 20.5955 447.728 23.8191 421.536 28.7698C403.062 32.2813 384.336 36.7139 366.241 41.0313C357.511 43.1037 348.527 45.2336 339.796 47.2484C330.179 49.4359 320.563 51.2205 311.453 52.5445C283.742 56.6316 250.97 59.7402 218.325 52.2566C196.181 47.1909 177.328 38.9014 157.209 30.1514C133.801 19.9047 109.506 9.31258 78.2528 3.2106C55.73 -1.16439 31.8153 -2.37328 7.01493 -0.416041C-13.1038 1.1958 -33.7286 4.93758 -52.582 10.4063C-67.7659 14.7813 -80.4192 19.8471 -91.301 25.834C-100.664 30.9573 -108.763 36.6563 -116.608 43.852L-116.354 43.9096C-95.097 24.6251 -70.9292 15.9326 -52.3289 10.5215C-27.1489 3.32573 23.0846 -7.26637 78.2528 3.44086C109.506 9.48527 133.674 20.0774 157.083 30.3241C177.075 39.0741 196.055 47.3636 218.198 52.4293C232.623 55.7106 247.68 57.2073 264.382 56.977C278.048 56.8043 292.979 55.4228 311.579 52.7172C320.816 51.3932 330.306 49.6086 339.922 47.4211C348.78 45.4063 357.764 43.2764 366.368 41.204C384.462 36.8866 403.189 32.454 421.663 28.9425C447.855 23.9343 473.794 20.7682 500.872 19.2139C519.472 18.1201 539.465 17.084 559.204 16.681C594.633 15.9902 636.895 16.0478 681.055 21.1136C715.345 25.0856 747.105 34.5839 781.142 51.1053C793.922 57.2649 806.196 63.8849 817.963 70.2747C823.531 73.3257 829.351 76.4343 835.045 79.4277L836.817 80.3487C856.809 90.9408 877.434 101.878 903.752 109.535C928.553 116.845 956.516 120.587 985.492 120.587Z" fill="#E0E0E0"/>
<path d="M984.607 119.896C990.427 119.896 996.248 119.724 1002.07 119.436C1050.78 116.903 1085.33 98.3093 1115.95 81.9606C1121.64 78.9096 1127.08 75.9737 1132.52 73.2106C1154.03 62.2155 1179.34 49.6086 1207.94 39.477C1238.68 28.5971 1268.67 22.6678 1297.27 21.9195C1302.58 21.7468 1308.28 21.6316 1313.84 21.8043C1337 22.38 1360.92 24.9704 1385.08 29.403C1405.08 33.0872 1423.3 38.3833 1439.49 45.0033C1447.97 48.5149 1455.81 52.4869 1464.17 57.5527C1474.92 64.0576 1483.53 70.505 1491.88 76.6645C1496.81 80.3487 1501.49 83.8027 1506.3 87.0264L1506.55 86.9688C1501.75 83.6876 1497.06 80.2336 1492.13 76.607C1483.78 70.3899 1475.17 64.0001 1464.42 57.4376C1456.07 52.3718 1448.22 48.3997 1439.74 44.8882C1423.55 38.2106 1405.2 32.9721 1385.34 29.2303C1361.17 24.7402 1337.25 22.1497 1314.1 21.5741C1308.53 21.4589 1302.84 21.5741 1297.52 21.6892C1268.93 22.4951 1238.81 28.4244 1208.06 39.3043C1179.59 49.4935 1154.16 62.0428 1132.65 73.0379C1127.21 75.8011 1121.77 78.7369 1116.07 81.7879C1085.58 98.1942 1051.04 116.73 1002.45 119.263C968.411 120.99 935.512 117.651 907.548 109.535C881.483 101.993 861.111 90.9984 841.498 80.3488L839.727 79.4277C834.286 76.4918 828.718 73.3833 823.278 70.3899C811.637 63.8849 799.616 57.2073 786.836 50.9902C771.273 43.2764 756.468 37.2895 741.664 32.6843C723.823 27.1004 705.855 23.4162 686.875 21.5165C643.728 17.1415 602.984 17.7747 565.277 19.1563C545.665 19.9047 525.926 21.2862 507.452 22.6103C480.753 24.5675 455.067 27.9639 428.875 33.0297C412.932 36.0807 396.736 39.88 380.919 43.5066C369.784 46.0971 358.27 48.7451 347.135 51.1053C337.392 53.1777 327.775 54.7895 318.538 55.9408C279.819 60.8339 252.235 60.2007 226.043 53.6958C204.153 48.227 185.552 39.7649 165.687 30.7846C141.519 19.7895 116.466 8.44906 83.6936 2.05926C60.5381 -2.43087 35.8642 -3.52463 10.4312 -1.22199C-10.3202 0.677678 -31.4512 4.87998 -50.5576 10.9244C-65.9946 15.7599 -78.6479 21.3438 -89.6562 27.9063C-98.8931 33.4902 -106.865 39.7649 -114.457 47.5938L-114.204 47.6514C-97.8809 30.9573 -78.7744 19.9622 -50.4311 10.982C-29.9328 4.47702 24.2232 -9.33877 83.5671 2.11683C116.339 8.44906 141.266 19.7895 165.434 30.7846C185.173 39.7649 203.9 48.227 225.79 53.6958C239.962 57.2073 254.766 58.9918 271.215 59.1645C285.134 59.2797 300.191 58.301 318.412 55.9408C327.649 54.7895 337.265 53.1201 347.008 51.1053C358.27 48.7451 369.784 46.0395 380.919 43.5066C396.609 39.88 412.932 36.1382 428.748 33.0297C454.814 27.9639 480.5 24.5675 507.199 22.6103C525.672 21.2862 545.412 19.9047 565.024 19.1563C602.731 17.7747 643.474 17.1415 686.496 21.5165C721.039 25.028 752.672 34.3537 786.33 50.9326C799.11 57.1497 811.13 63.8849 822.771 70.3323C828.212 73.3257 833.78 76.4343 839.221 79.3701L840.992 80.2912C860.605 90.9409 880.85 101.936 907.042 109.535C930.324 116.443 956.896 119.896 984.607 119.896Z" fill="#E0E0E0"/>
<path d="M983.847 119.321C990.806 119.321 997.892 119.091 1004.98 118.688C1026.36 117.364 1046.99 112.931 1067.86 105.102C1086.34 98.2518 1102.53 89.7896 1118.1 81.6728C1124.05 78.5643 1129.61 75.6284 1135.31 72.8652C1157.07 62.1004 1182.63 49.8389 1211.61 39.9376C1242.73 29.4031 1272.97 23.9343 1301.44 23.7616C1306.63 23.704 1312.33 23.704 1317.89 23.9919C1340.16 25.0281 1363.82 28.1366 1387.87 33.1448C1407.23 37.1744 1425.19 42.5856 1441.14 49.2633C1449.36 52.7172 1457.21 56.6317 1465.81 61.6975C1475.81 67.5692 1484.28 73.2682 1492.38 78.8521C1498.46 82.9393 1504.02 86.7962 1509.97 90.4228L1510.22 90.3652C1504.4 86.7386 1498.71 82.8817 1492.64 78.7945C1484.41 73.2682 1476.06 67.5116 1466.06 61.6399C1457.46 56.6317 1449.61 52.6596 1441.39 49.2057C1425.32 42.5281 1407.35 37.0593 1387.99 33.0873C1363.82 28.079 1340.29 25.0281 1317.89 23.9343C1312.33 23.6465 1306.63 23.6465 1301.44 23.704C1272.85 23.8767 1242.61 29.3455 1211.35 39.9376C1182.38 49.8389 1156.82 62.158 1135.05 72.9228C1129.36 75.7435 1123.79 78.6794 1117.85 81.7304C1087.22 97.6761 1052.55 115.752 1004.85 118.688C970.561 120.818 937.916 117.767 910.458 109.88C884.392 102.396 864.527 91.3439 845.294 80.6366L843.522 79.658C838.208 76.7222 832.894 73.6712 827.706 70.6777C816.191 64.1152 804.297 57.3225 791.644 51.0478C776.207 43.334 761.529 37.3471 746.851 32.7994C729.01 27.2731 711.043 23.8192 691.936 22.1498C672.703 20.4804 652.458 19.732 630.315 19.8471C608.425 19.9623 587.041 20.9985 570.844 21.8619C552.371 22.8981 533.897 24.4524 513.652 26.2369C487.459 28.5396 462.026 32.1662 435.961 37.2896C422.422 39.9376 408.503 43.1037 395.091 46.1547C381.678 49.1481 367.886 52.3142 354.347 54.9623C344.604 56.8619 334.988 58.3587 325.624 59.3373C288.044 63.3669 259.701 62.1004 233.888 55.135C212.251 49.3208 193.904 40.686 174.418 31.4754C149.491 19.732 123.678 7.58562 89.3876 0.965555C65.5994 -3.63971 40.1663 -4.61833 14.1006 -1.9703C-13.357 0.735293 -35.1206 6.83727 -48.6596 11.4425C-64.2231 16.7961 -77.1295 22.8406 -88.0113 30.0363C-97.2482 36.0807 -104.967 42.8735 -112.306 51.3932L-112.052 51.4508C-96.3624 33.3175 -77.256 21.4014 -48.4065 11.5577C-27.6552 4.4195 27.5131 -10.8354 88.8814 1.02312C123.172 7.64319 148.858 19.7896 173.785 31.533C193.271 40.686 211.745 49.3784 233.382 55.1925C247.3 58.9343 261.978 61.0067 278.174 61.5248C292.219 61.9853 307.656 61.2945 325.371 59.3948C334.734 58.4162 344.477 56.9195 354.22 54.9623C367.759 52.2567 381.678 49.1481 394.964 46.1547C408.376 43.1037 422.295 39.9952 435.834 37.3471C461.9 32.1662 487.333 28.5971 513.525 26.2945C533.897 24.51 552.244 22.9557 570.718 21.9195C608.678 19.8471 649.674 18.4656 691.81 22.1498C726.606 25.2008 758.239 34.4113 791.517 51.0478C804.171 57.3225 816.065 64.1152 827.579 70.6777C832.767 73.6712 838.208 76.7222 843.396 79.658L845.167 80.6366C864.4 91.3439 884.392 102.396 910.458 109.88C932.222 116.097 957.275 119.321 983.847 119.321Z" fill="#E0E0E0"/>
<path d="M982.962 118.745C991.06 118.745 999.411 118.457 1007.76 117.824C1028.77 116.327 1049.14 111.837 1069.89 104.181C1088.24 97.4456 1104.56 89.2137 1120.25 81.2696C1126.45 78.1611 1132.27 75.2252 1138.22 72.3469C1160.11 61.8124 1185.92 49.8387 1215.4 40.2252C1246.91 29.9785 1277.4 25.0279 1305.87 25.4308C1310.81 25.4884 1316.63 25.6035 1322.2 26.0065C1343.71 27.5032 1366.86 31.1298 1391.03 36.6562C1409.76 40.9736 1427.35 46.5575 1443.29 53.2927C1451.26 56.6891 1459.1 60.6035 1467.96 65.6117C1476.95 70.6775 1484.79 75.5706 1492.38 80.3486C1499.85 85.0114 1506.93 89.3864 1514.15 93.4736L1514.4 93.416C1507.06 89.3288 1500.1 84.9538 1492.64 80.291C1485.04 75.5131 1477.07 70.62 1468.09 65.5542C1459.23 60.546 1451.39 56.6315 1443.41 53.2351C1427.47 46.4999 1409.88 40.916 1391.03 36.5986C1366.86 31.0147 1343.58 27.4456 1322.07 25.9489C1316.38 25.546 1310.56 25.4308 1305.62 25.3733C1277.02 24.9703 1246.53 29.921 1215.02 40.2252C1185.54 49.8387 1159.73 61.87 1137.84 72.4045C1131.89 75.2252 1126.07 78.1611 1119.87 81.3272C1089.12 96.8124 1054.45 114.428 1007.51 117.824C972.966 120.299 940.574 117.594 913.622 109.995C887.683 102.627 868.07 91.5163 849.217 80.7515L847.572 79.7729C842.511 76.8946 837.576 74.0163 832.262 70.9078C820.874 64.2877 809.106 57.3798 796.579 51.0476C781.395 43.2762 766.844 37.347 752.166 32.8568C734.452 27.4456 716.358 24.1068 697.125 22.6677C653.85 19.444 612.095 21.9193 576.412 24.5098C557.685 25.8914 539.338 27.791 519.852 29.7483H519.726C494.04 32.3963 468.86 36.1956 442.794 41.4917C431.406 43.7943 419.765 46.3272 408.503 48.8601C392.94 52.3141 376.997 55.8256 361.18 58.7614C351.437 60.546 341.568 61.87 332.204 62.7335C295.763 65.9571 266.787 63.9999 241.101 56.5739C219.843 50.4144 201.622 41.6068 182.389 32.2236C156.703 19.7318 130.131 6.77953 94.3225 -0.18593C69.7752 -4.90632 43.7094 -5.82738 16.8844 -2.77639C-10.9528 0.332162 -33.2225 6.95223 -47.0146 11.9604C-62.8312 17.7746 -75.8641 24.3371 -86.7459 32.1085C-95.8563 38.671 -103.448 45.9818 -110.534 55.1348L-110.281 55.1923C-95.0971 35.62 -76.1172 22.7252 -46.8881 12.0756C-25.504 4.24663 30.6765 -12.4474 94.196 -0.18593C130.005 6.72196 156.577 19.6743 182.263 32.166C201.496 41.5493 219.59 50.3568 240.974 56.5164C266.787 63.9423 295.889 65.9571 332.331 62.6759C341.821 61.87 351.564 60.546 361.307 58.7039C377.123 55.8256 393.193 52.2565 408.63 48.8025C419.891 46.3272 431.532 43.7368 442.92 41.4341C468.986 36.1956 494.166 32.3387 519.726 29.6907H519.852C539.338 27.6759 557.685 25.8338 576.412 24.4522C612.095 21.8618 653.85 19.3864 696.998 22.6101C731.921 25.2006 763.554 34.1808 796.326 50.9325C808.853 57.3223 820.621 64.1726 832.008 70.7927C837.323 73.8437 842.258 76.7795 847.319 79.6578L848.964 80.6364C867.817 91.4012 887.43 102.569 913.369 109.937C927.414 113.909 942.978 116.615 959.554 117.881C967.399 118.457 975.117 118.745 982.962 118.745Z" fill="#E0E0E0"/>
<path d="M982.076 118.227C991.313 118.227 1000.8 117.824 1010.55 117.018C1031.17 115.291 1051.29 110.801 1072.04 103.317C1090.26 96.6972 1106.58 88.6956 1122.4 80.9817C1128.85 77.8156 1134.93 74.8798 1141 72.0015C1168.33 59.2794 1192.12 49.0903 1219.07 40.6857C1251.08 30.7844 1281.71 26.2367 1310.18 27.2728C1314.73 27.4455 1320.68 27.6758 1326.5 28.2515C1347.38 30.2087 1369.52 34.1807 1394.19 40.3978C1412.29 45.0031 1429.5 50.7597 1445.44 57.5525C1455.44 61.8123 1463.91 66.3025 1470.11 69.6988C1477.45 73.7284 1484.28 77.6429 1490.86 81.3847C1500.35 86.8535 1509.34 91.9768 1518.58 96.6972L1518.83 96.6396C1509.59 91.9768 1500.61 86.7959 1491.12 81.3271C1484.54 77.5278 1477.83 73.6709 1470.37 69.6413C1464.17 66.2449 1455.69 61.7548 1445.69 57.4373C1429.88 50.6446 1412.54 44.888 1394.45 40.2827C1369.77 34.0656 1347.63 30.036 1326.62 28.0788C1320.8 27.5607 1314.86 27.2729 1310.3 27.1002C1281.83 26.064 1251.08 30.6117 1219.07 40.5705C1192.12 48.9752 1168.33 59.1643 1141 71.9439C1134.8 74.8222 1128.73 77.7581 1122.4 80.9242C1091.65 96.0064 1056.73 113.103 1010.67 116.903C975.497 119.839 944.116 117.536 917.292 109.995C891.352 102.742 872.246 91.5163 853.646 80.6939L852.001 79.7729C847.066 76.9521 842.384 74.0738 837.323 71.0229C826.061 64.2877 814.547 57.3222 802.02 50.9324C786.963 43.1034 772.538 37.1742 757.86 32.7992C740.146 27.4455 722.051 24.2794 702.692 23.1281C660.303 20.5377 620.066 23.6462 582.359 27.0426C565.024 28.6544 547.942 30.6692 529.848 32.7992L526.179 33.2597C501.125 36.1955 476.198 40.2827 450.133 45.6363C440.896 47.536 431.406 49.6084 422.169 51.6232C404.707 55.4801 386.487 59.4521 368.645 62.4456C358.776 64.115 348.906 65.2663 339.416 65.9571C304.24 68.4324 274.632 65.7844 248.945 57.8403C227.941 51.3929 210.1 42.3551 191.247 32.8567C164.801 19.559 137.47 5.8008 100.016 -1.45249C74.8364 -6.34558 48.0115 -7.09393 20.5539 -3.69755C-8.54865 -0.243603 -31.0715 6.95212 -44.9901 12.3633C-61.1863 18.638 -74.2192 25.7186 -84.9744 34.0656C-94.0848 41.0886 -101.424 48.9752 -108.256 58.8189L-108.003 58.8765C-97.7542 44.0821 -82.0642 26.985 -44.737 12.4784C-23.2265 4.1314 34.0929 -14.0018 99.7634 -1.33735C137.217 5.91594 164.548 19.6166 190.994 32.9143C209.973 42.4702 227.815 51.4505 248.819 57.8979C262.358 62.1002 276.53 64.7482 292.22 66.0722C306.771 67.2811 322.208 67.2811 339.543 66.0722C349.033 65.439 358.902 64.2301 368.772 62.5607C386.74 59.5097 404.834 55.5377 422.295 51.7383C431.532 49.7235 441.022 47.6511 450.259 45.7515C476.451 40.3979 501.252 36.3107 526.305 33.3748L529.975 32.9143C548.069 30.7844 565.024 28.7696 582.359 27.1577C619.94 23.7613 660.303 20.6528 702.565 23.2432C737.742 25.3732 769.248 34.1807 801.767 51.0475C814.294 57.4949 825.808 64.4028 837.07 71.138C842.131 74.189 846.939 77.0673 851.748 79.888L853.392 80.809C871.993 91.6314 891.099 102.857 917.038 110.11C930.957 114.025 946.521 116.557 963.096 117.651C969.17 118.054 975.623 118.227 982.076 118.227Z" fill="#E0E0E0"/>
<path d="M981.317 117.766C991.566 117.766 1002.32 117.248 1013.2 116.212C1033.45 114.312 1053.31 109.822 1073.81 102.454C1091.91 96.0065 1108.36 88.1776 1124.3 80.6364C1131.01 77.4703 1137.33 74.4769 1143.78 71.541C1167.57 60.7762 1193.64 49.666 1222.74 41.0312C1255.13 31.4177 1286.01 27.3881 1314.48 28.9999C1321.18 29.4029 1326.12 29.8058 1330.67 30.3239C1351.05 32.6841 1372.18 37.0591 1397.23 44.0246C1414.69 48.8601 1431.52 54.7894 1447.34 61.6973C1456.83 65.7845 1465.05 70.1019 1472.01 73.7285C1476.82 76.2614 1481.5 78.7368 1485.93 81.1545C1498.46 87.8897 1510.35 94.2795 1522.5 99.921L1522.75 99.8058C1510.6 94.1644 1498.71 87.8322 1486.18 81.097C1481.75 78.6792 1477.07 76.2039 1472.26 73.671C1465.3 69.9868 1456.95 65.7269 1447.59 61.6397C1431.77 54.7318 1414.82 48.8025 1397.36 43.967C1372.3 37.0016 1351.05 32.6266 1330.67 30.2664C1326.12 29.7483 1321.06 29.3453 1314.35 28.9423C1285.88 27.3305 1255.01 31.3601 1222.49 40.9736C1193.39 49.6085 1167.32 60.7762 1143.53 71.541C1137.08 74.4193 1130.75 77.4703 1124.05 80.6364C1091.65 96.0065 1058.25 111.837 1013.08 116.155C977.774 119.493 946.52 117.479 920.202 110.168C894.262 102.972 875.535 91.6891 857.315 80.8091L855.796 79.8881C851.115 77.0674 846.56 74.2466 841.625 71.2532C830.616 64.4604 819.102 57.4374 806.702 50.9325C791.897 43.1035 777.473 37.1743 762.921 32.8568C745.207 27.6183 727.113 24.6249 707.627 23.7039C665.997 21.7466 627.152 25.4308 587.674 29.7483C571.477 31.5328 555.534 33.6627 538.705 35.9654C536.428 36.2532 534.277 36.541 531.999 36.8864C507.705 40.1677 483.031 44.4275 456.712 49.9539C449.5 51.4506 442.034 53.0624 434.822 54.6743C415.336 58.9341 395.217 63.3091 375.352 66.4177C365.356 67.972 355.486 69.0081 345.996 69.4687C311.453 71.2532 282.097 67.9144 256.158 59.3946C235.533 52.6019 217.945 43.5065 199.345 33.8354C172.14 19.7318 144.05 5.1101 104.825 -2.43102C78.8855 -7.43924 51.4279 -8.07247 23.3377 -4.38826C-6.01791 -0.704045 -29.0469 7.00977 -43.2185 12.8239C-59.6678 19.5591 -72.8272 27.1578 -83.4559 36.1381C-92.4397 43.6216 -99.6521 52.0262 -106.232 62.5608L-105.979 62.6183C-96.1092 46.7877 -80.7987 28.5394 -42.9655 12.9966C2.71285 -5.71227 58.0076 -11.5264 104.951 -2.43102C144.05 5.1101 172.14 19.7318 199.345 33.8354C217.945 43.5065 235.533 52.6595 256.158 59.4522C282.224 68.0295 311.706 71.3108 346.249 69.5838C355.866 69.1233 365.735 68.0871 375.731 66.5328C395.723 63.4243 415.842 59.0493 435.328 54.7894C442.541 53.2351 450.006 51.5657 457.218 50.069C483.537 44.5427 508.084 40.2828 532.505 37.0016C534.783 36.7137 536.934 36.4259 539.212 36.0805C556.04 33.8354 571.857 31.6479 588.18 29.8634C627.658 25.546 666.377 21.8617 708.006 23.819C743.435 25.4884 774.815 34.1233 806.955 51.0476C819.355 57.5525 830.743 64.5756 841.878 71.3683C846.813 74.3618 851.368 77.1825 856.049 80.0032L857.568 80.9243C875.789 91.8042 894.515 103.087 920.455 110.283C934.247 114.14 949.81 116.5 966.386 117.421C971.068 117.651 976.129 117.766 981.317 117.766Z" fill="#E0E0E0"/>
<path d="M980.811 117.364C991.945 117.364 1003.71 116.73 1015.99 115.406C1035.85 113.276 1055.46 108.786 1075.84 101.591C1093.93 95.2583 1110.38 87.6596 1126.32 80.3488C1133.28 77.1251 1139.86 74.1317 1146.57 71.1958C1170.61 60.7188 1196.93 49.8389 1226.41 41.4919C1259.31 32.2238 1290.31 28.6547 1318.65 30.8422C1325.11 31.3603 1330.29 31.8784 1334.85 32.5116C1354.59 35.2747 1374.71 39.9951 1400.27 47.709C1416.97 52.7748 1433.42 58.8767 1449.36 65.8998C1458.47 69.8718 1466.82 74.1317 1474.04 77.8159L1474.92 78.2764C1493.52 87.7748 1509.46 95.9491 1526.67 103.145L1526.8 103.03C1509.72 95.834 1493.65 87.6596 1475.17 78.1613L1474.29 77.7008C1467.08 74.0165 1458.72 69.7567 1449.61 65.7846C1433.67 58.7616 1417.1 52.6596 1400.52 47.5938C1374.96 39.88 1354.84 35.1596 1335.1 32.3965C1330.55 31.7632 1325.36 31.1876 1318.91 30.727C1304.1 29.5757 1288.41 30.0363 1272.22 31.9935C1257.41 33.8356 1241.97 37.0017 1226.41 41.3767C1196.8 49.7813 1170.61 60.6037 1146.57 71.1383C1139.86 74.0741 1133.28 77.1251 1126.32 80.2912C1093.93 95.2008 1060.4 110.571 1016.11 115.291C980.684 119.033 949.557 117.364 923.744 110.283C897.932 103.202 878.572 91.3439 861.617 80.8669L860.098 79.9458C855.543 77.1827 851.115 74.4195 846.433 71.4261C835.551 64.5182 824.29 57.4376 812.016 50.8751C797.338 42.9886 783.166 37.1168 768.615 32.7994C751.027 27.6185 732.933 24.7978 713.194 24.107C694.214 23.4738 674.095 24.0494 651.825 25.834C631.707 27.4458 612.094 29.8636 593.747 32.2238C578.563 34.181 563.632 36.4261 547.942 38.8438C544.905 39.3044 541.742 39.7649 538.705 40.2254C515.297 43.7369 490.876 48.2271 464.304 53.9261C458.99 55.0774 453.549 56.2287 448.234 57.4376C426.977 62.0429 404.96 66.8784 382.943 69.9869C372.947 71.4261 362.951 72.2896 353.335 72.5774C319.551 73.6711 290.322 69.7567 264.129 60.5461C244.011 53.4655 226.676 44.255 208.455 34.4688C180.491 19.5017 151.515 4.01651 110.645 -3.87001C96.853 -6.51804 82.4282 -7.95719 67.877 -8.12988C54.4645 -8.30258 40.799 -7.38153 27.1334 -5.48185C-3.48748 -1.16442 -27.0226 7.0675 -41.3208 13.2846C-57.8965 20.4803 -71.1825 28.6547 -81.9378 38.153C-90.9216 46.1547 -98.0074 55.0774 -104.208 66.1876L-103.954 66.2452C-90.542 42.4705 -71.8151 26.6399 -41.1942 13.3422C-23.7327 5.85861 38.6479 -17.5131 110.265 -3.75488C151.136 4.07407 179.985 19.5593 207.949 34.5264C226.296 44.3126 243.504 53.5807 263.75 60.6613C276.783 65.2665 291.081 68.6054 305.885 70.5626C320.563 72.5198 336.506 73.2682 353.208 72.6925C362.825 72.4047 372.821 71.4836 382.817 70.1021C404.834 66.9935 426.85 62.2155 448.108 57.5527C453.422 56.4014 458.863 55.1925 464.177 54.0412C490.876 48.3422 515.17 43.8521 538.579 40.3405C541.742 39.88 544.779 39.4195 547.816 38.959C563.506 36.5988 578.437 34.2961 593.62 32.3389C633.225 27.2731 672.197 22.8405 712.941 24.2221C748.623 25.431 780.003 33.8932 811.636 50.8751C823.91 57.4376 835.171 64.5757 846.053 71.4261C850.735 74.3619 855.164 77.1827 859.719 79.9458L861.237 80.8669C878.193 91.3439 897.552 103.202 923.365 110.283C940.447 115.061 959.68 117.364 980.811 117.364Z" fill="#E0E0E0"/>
<path d="M980.557 116.96C992.578 116.96 1005.36 116.154 1018.77 114.6C1038.26 112.298 1057.49 107.75 1077.86 100.784C1095.83 94.5673 1112.28 87.1988 1128.35 80.1183C1135.69 76.8946 1142.52 73.786 1149.61 70.8502C1173.77 60.6035 1200.34 50.0689 1230.33 41.9522C1263.61 32.9719 1294.86 29.8633 1323.21 32.6841C1329.53 33.3173 1334.6 33.9505 1339.28 34.7564C1363.32 38.7285 1385.21 45.4061 1403.56 51.5081C1419.37 56.7465 1435.44 63.0212 1451.64 70.2169C1460.12 73.9587 1467.96 77.8732 1475.55 81.615L1476.31 82.0179C1498.58 93.013 1514.9 100.324 1530.97 106.541L1531.1 106.426C1515.03 100.266 1498.71 92.8979 1476.44 81.9604L1475.68 81.5574C1468.09 77.7581 1460.24 73.9012 1451.77 70.1018C1435.7 62.9061 1419.5 56.6314 1403.68 51.3929C1385.34 45.3485 1363.45 38.6133 1339.4 34.6413C1334.72 33.8929 1329.66 33.2022 1323.33 32.5689C1308.53 31.1298 1292.84 31.2449 1276.52 33.0295C1261.59 34.6413 1246.02 37.6347 1230.33 41.837C1200.22 49.9538 1173.77 60.5459 1149.61 70.7926C1142.52 73.786 1135.69 76.837 1128.35 80.0607C1095.96 94.5097 1062.42 109.419 1019.02 114.543C983.468 118.745 952.594 117.363 927.161 110.455C901.348 103.432 882.495 91.5163 865.792 80.9817L864.4 80.1183C860.098 77.4127 855.796 74.6495 851.367 71.7137C840.612 64.7482 829.477 57.5525 817.33 50.9324C802.779 42.9883 788.734 37.1166 774.309 32.9143C756.721 27.8485 738.627 25.1429 718.761 24.74C675.234 23.8189 633.352 30.036 599.694 34.9867C585.396 37.1166 571.351 39.4768 556.673 41.9522C552.877 42.5854 549.081 43.2186 545.158 43.9094C522.636 47.7087 499.227 52.2564 471.516 58.2433C467.973 58.9916 464.431 59.7975 461.014 60.5459C437.985 65.5541 414.197 70.7926 390.282 73.8436C380.16 75.11 370.164 75.8584 360.547 75.9735C327.902 76.434 298.167 71.7712 271.974 61.985C252.362 54.6742 235.406 45.3485 217.439 35.4472C188.589 19.5591 158.728 3.15282 116.213 -5.02152C102.041 -7.72711 87.3631 -9.16626 72.3057 -9.28139C58.5136 -9.39652 44.4685 -8.36034 30.5499 -6.28797C-0.577143 -1.62514 -24.4918 7.18242 -39.0431 13.7449C-55.9985 21.4012 -69.2844 30.0936 -79.9131 40.2252C-88.7704 48.6873 -95.7297 58.1857 -101.677 69.9291H-101.424C-92.4399 52.1413 -77.8886 31.5327 -38.79 13.8025C-21.0754 5.80084 42.3175 -19.1251 116.086 -4.96396C158.601 3.21038 188.463 19.6166 217.312 35.4472C235.28 45.3485 252.235 54.6742 271.848 61.985C284.881 66.8206 298.799 70.4472 313.35 72.8074C328.155 75.1676 344.098 76.2613 360.674 76.0311C370.417 75.916 380.413 75.1676 390.535 73.9012C414.577 70.8502 438.365 65.6117 461.394 60.6035C464.81 59.8551 468.48 59.0492 471.896 58.3008C499.607 52.314 523.015 47.7087 545.538 43.967C549.334 43.3337 553.256 42.7005 557.052 42.0097C571.857 39.5344 585.775 37.1742 600.074 35.0443C633.731 30.0936 675.487 23.9341 719.014 24.7976C754.823 25.5459 786.203 33.8354 817.457 50.9324C829.604 57.5525 840.739 64.7482 851.494 71.7137C856.049 74.6495 860.225 77.4127 864.527 80.1183L865.919 80.9817C882.621 91.5163 901.474 103.49 927.414 110.513C942.598 114.83 960.692 116.96 980.557 116.96Z" fill="#E0E0E0"/>
<path d="M980.304 116.673C993.084 116.673 1007 115.694 1021.55 113.795C1064.07 108.268 1097.6 93.7618 1130.12 79.7733C1137.71 76.492 1144.92 73.3835 1152.26 70.39C1176.56 60.4312 1203.38 50.1269 1233.88 42.2979C1267.66 33.6631 1299.17 31.015 1327.38 34.4114C1333.46 35.1598 1338.77 35.9081 1343.33 36.8292C1366.1 41.1466 1387.11 48.1696 1406.34 55.0775C1421.14 60.4312 1436.58 66.7058 1453.28 74.3045C1459.86 77.2979 1466.19 80.3489 1472.39 83.2848C1474.29 84.2058 1476.19 85.0693 1477.96 85.9904C1498.08 95.6039 1516.17 103.145 1534.77 109.65L1534.9 109.535C1516.3 103.03 1498.33 95.4887 1478.21 85.8752C1476.31 84.9542 1474.41 84.0907 1472.64 83.1697C1466.44 80.2338 1460.12 77.1828 1453.54 74.1894C1436.71 66.5907 1421.4 60.316 1406.47 54.9624C1387.23 48.0545 1366.23 41.0315 1343.33 36.7141C1338.64 35.8506 1333.46 35.0447 1327.26 34.2963C1312.58 32.5118 1296.76 32.3966 1280.19 33.9509C1265.26 35.3325 1249.57 38.0956 1233.5 42.1828C1202.88 50.0118 1176.18 60.3736 1151.88 70.3325C1144.54 73.3259 1137.33 76.4345 1129.74 79.7157C1097.35 93.7042 1063.82 108.153 1021.3 113.68C985.745 118.285 954.998 117.249 930.071 110.513C904.258 103.606 885.784 91.5743 869.462 80.9821L868.196 80.1187C864.021 77.4706 859.972 74.7075 855.67 71.8292C845.041 64.7486 834.159 57.4953 822.012 50.7601C807.714 42.816 793.669 36.9443 779.244 32.7996C761.782 27.7914 743.562 25.316 723.569 25.1433C680.675 24.7979 640.437 31.5331 604.882 37.4624C591.343 39.765 578.183 42.1828 564.265 44.8308C559.963 45.6368 555.407 46.5002 550.852 47.3062C524.027 52.2568 497.835 57.9558 477.969 62.3308C476.325 62.6762 474.553 63.0792 472.908 63.4246C448.234 68.8933 422.675 74.5348 396.735 77.4706C386.486 78.622 376.49 79.1976 366.747 79.1976C334.861 79.0825 305.252 73.7289 278.807 63.2519C259.701 55.7108 243.125 46.3275 225.537 36.3687C195.802 19.5595 165.181 2.23215 120.768 -6.34515C106.469 -9.05074 91.4121 -10.4899 75.9751 -10.4899C61.93 -10.5475 47.5052 -9.39614 33.207 -7.15107C1.32078 -2.14285 -22.9735 7.24038 -37.7778 14.2058C-54.9863 22.3226 -68.3987 31.5331 -78.901 42.2404C-87.7582 51.2206 -94.4645 61.1795 -100.158 73.6713H-99.9054C-91.3012 54.8473 -77.1295 33.0874 -37.5248 14.321C-19.5571 5.8588 44.9746 -20.679 120.894 -6.11489C165.307 2.40485 195.928 19.7321 225.663 36.5414C243.251 46.5002 259.827 55.8835 278.934 63.4246C291.84 68.5479 305.632 72.4624 319.804 75.1104C334.734 77.9312 350.678 79.3703 367.127 79.3703C376.87 79.4279 386.992 78.8522 397.242 77.6433C423.181 74.6499 448.74 69.0085 473.414 63.5397C475.059 63.1368 476.831 62.7914 478.476 62.446C498.215 58.071 524.407 52.372 551.232 47.4213C555.661 46.6154 560.216 45.7519 564.644 44.946C578.563 42.3555 591.722 39.8802 605.261 37.5775C639.931 31.7634 679.03 25.2585 720.786 25.2585C721.798 25.2585 722.81 25.2585 723.822 25.2585C759.884 25.5463 791.138 33.6631 822.012 50.8177C834.159 57.4953 845.041 64.8062 855.67 71.8292C859.972 74.7075 864.021 77.4131 868.196 80.1187L869.462 80.9821C885.784 91.5743 904.385 103.606 930.197 110.571C943.736 114.198 959.047 116.212 975.623 116.558C977.141 116.673 978.659 116.673 980.304 116.673Z" fill="#E0E0E0"/>
<path d="M980.431 116.385C993.843 116.385 1008.65 115.234 1024.34 112.989C1065.97 107.059 1099.5 93.0709 1131.89 79.543C1139.48 76.3769 1147.45 73.0381 1155.17 69.9871C1179.72 60.2584 1206.54 50.242 1237.67 42.6433C1271.96 34.3538 1303.6 32.1663 1331.69 36.1384C1337.63 37.0019 1342.95 37.8654 1347.63 38.9015C1370.53 43.7946 1390.78 51.3358 1409.5 58.6466C1422.92 63.8275 1437.47 70.1022 1455.43 78.3341C1460.12 80.464 1464.67 82.594 1468.97 84.6663C1472.64 86.3933 1476.44 88.1778 1480.11 89.9048C1498.96 98.5973 1518.19 106.081 1538.95 112.758L1539.07 112.643C1518.32 105.966 1499.09 98.5397 1480.23 89.8473C1476.57 88.1203 1472.77 86.3357 1469.1 84.6088C1464.67 82.5364 1460.12 80.3489 1455.56 78.2765C1437.59 70.0446 1422.92 63.77 1409.63 58.5315C1390.78 51.2206 1370.53 43.6795 1347.63 38.7288C1342.95 37.6927 1337.63 36.8292 1331.69 35.9657C1317.01 33.8933 1301.06 33.4904 1284.49 34.7568C1269.43 35.9657 1253.61 38.4986 1237.42 42.4706C1206.29 50.0693 1179.34 60.0857 1154.92 69.8144C1147.2 72.8654 1139.23 76.2042 1131.64 79.3703C1099.24 92.8983 1065.84 106.887 1024.21 112.816C988.023 117.939 958.414 117.249 933.487 110.629C907.674 103.778 889.58 91.6894 873.511 80.9821L872.245 80.1762C868.323 77.5282 864.4 74.8802 860.225 72.0019C849.849 64.8637 839.094 57.4377 827.073 50.7025C812.902 42.7009 799.109 36.8292 784.685 32.7996C767.223 27.8489 749.002 25.5463 728.884 25.6614C686.495 25.8917 646.131 33.4328 610.702 40.0529C597.922 42.4706 584.763 45.1762 572.236 47.7667C567.302 48.7453 562.24 49.7815 557.305 50.8177C532.632 55.8259 507.452 61.4673 485.308 66.4755C460.381 72.0594 432.038 78.4492 404.201 81.27C393.952 82.3061 383.703 82.7091 373.96 82.5364C342.833 81.9032 313.477 75.8588 286.652 64.6334C268.178 56.8621 251.982 47.4788 234.774 37.52C204.153 19.7321 172.646 1.36865 126.335 -7.49648C111.531 -10.3172 95.9672 -11.7563 80.2772 -11.7563C65.8525 -11.7563 51.1747 -10.4899 36.4969 -8.07214C23.0844 -5.88464 9.92502 -2.66095 -2.85479 1.42622C-14.6223 5.16799 -25.7572 9.60056 -35.8798 14.6088C-53.3413 23.2436 -66.8803 32.9147 -77.3826 44.1976C-86.1133 53.6384 -92.8195 64.1729 -98.1339 77.2979H-97.8808C-89.6562 57.4953 -75.8642 34.5265 -35.6268 14.6663C-17.4061 5.68608 48.1379 -22.3485 126.209 -7.38135C172.52 1.48378 204.026 19.8473 234.647 37.5775C251.856 47.5364 268.052 56.9772 286.525 64.691C299.432 70.1022 312.971 74.3045 326.763 77.2979C341.82 80.5216 357.763 82.3061 373.96 82.6515C383.703 82.8818 393.952 82.4213 404.201 81.3851C432.165 78.5644 460.381 72.1746 485.435 66.5907C507.705 61.5825 532.885 55.941 557.432 50.9328C562.493 49.8966 567.555 48.8604 572.363 47.8818C585.016 45.2913 598.049 42.5858 610.829 40.168C646.384 33.5479 686.622 26.0068 729.01 25.7765C765.325 25.5463 796.452 33.5479 826.947 50.8177C838.967 57.5529 849.723 64.9788 860.098 72.117C864.274 74.9377 868.196 77.6433 872.119 80.2913L873.384 81.0973C889.454 91.8045 907.548 103.893 933.361 110.744C946.773 114.313 962.084 116.212 978.659 116.328C979.292 116.385 979.798 116.385 980.431 116.385Z" fill="#E0E0E0"/>
<path d="M980.81 116.097C981.19 116.097 981.443 116.097 981.823 116.097C995.741 116.039 1010.55 114.773 1027.12 112.183C1067.74 105.85 1101.14 92.3799 1133.54 79.3124C1141.51 76.0888 1149.86 72.6924 1157.96 69.5838C1181.36 60.6036 1209.71 50.4144 1241.34 43.046C1276.01 35.0444 1307.9 33.375 1335.99 37.9226C1341.81 38.9013 1347 39.8799 1351.8 41.0312C1373.69 46.2697 1392.29 53.7532 1412.54 62.3305C1427.47 68.6052 1442.65 75.6858 1457.46 82.5361C1459.86 83.6874 1462.39 84.8388 1464.8 85.9901C1470.49 88.6381 1476.31 91.4013 1482.13 93.9917C1500.35 102.051 1520.22 109.247 1543.12 115.982L1543.25 115.867C1520.35 109.132 1500.48 101.993 1482.26 93.8766C1476.44 91.2861 1470.49 88.523 1464.92 85.8749C1462.52 84.7236 1459.99 83.5723 1457.59 82.421C1442.78 75.5707 1427.6 68.4901 1412.67 62.2154C1392.29 53.6381 1373.69 46.1546 1351.8 40.9161C1347 39.7647 1341.81 38.7286 1335.86 37.8075C1321.18 35.3897 1305.24 34.7565 1288.41 35.7927C1273.23 36.7713 1257.28 39.1315 1240.96 42.9309C1209.2 50.2417 1180.99 60.4309 1157.45 69.4687C1149.35 72.5772 1141 75.9736 1133.03 79.1973C1100.76 92.2647 1067.36 105.735 1026.74 112.067C990.553 117.709 961.071 117.248 936.524 110.801C910.838 104.066 892.997 91.8618 877.307 81.097L876.168 80.3486C872.372 77.7582 868.576 75.1101 864.653 72.347C854.404 65.0937 843.775 57.6101 831.881 50.8174C817.963 42.7582 804.171 36.944 789.873 32.972C772.411 28.1365 754.19 25.949 733.945 26.3519C715.218 26.6973 695.226 28.5394 673.209 31.9934C653.723 35.0444 634.87 38.9588 616.776 42.7006L616.143 42.8157C603.87 45.3486 591.596 48.1694 579.575 50.8174C574.261 52.0263 568.693 53.2351 563.253 54.444C547.563 57.898 531.493 61.6397 516.056 65.2664C508.211 67.1085 500.113 68.9506 492.141 70.7927C465.063 77.0098 438.491 82.7664 411.034 85.1841C400.658 86.1052 390.409 86.3355 380.666 85.9901C349.918 84.8388 321.449 78.3338 293.991 66.1299C276.15 58.2434 260.46 48.8026 243.758 38.9013C212.504 20.0197 179.985 0.620017 131.65 -8.64807C116.466 -11.5839 100.649 -12.9655 84.4529 -12.9079C69.6485 -12.8504 54.5912 -11.4688 39.6603 -8.87834C25.9948 -6.51814 12.4558 -3.12176 -0.577084 1.19568C-12.5977 5.16771 -23.8591 9.88811 -34.1082 15.1266C-51.8228 24.222 -65.4883 34.4111 -75.864 46.3272C-84.5948 56.2861 -91.0479 67.3388 -96.1093 81.097H-95.8562C-88.1377 60.2582 -74.5987 36.1957 -33.8552 15.2417C4.23116 -4.21551 67.7506 -20.6793 131.523 -8.47538C179.732 0.735148 212.251 20.1924 243.758 38.9588C260.46 48.9177 276.15 58.3009 294.118 66.245C307.024 71.944 320.31 76.4917 333.849 79.7154C349.033 83.342 364.849 85.5295 381.045 86.1628C390.915 86.5657 401.164 86.2779 411.54 85.3568C438.997 82.9391 465.569 77.1825 492.647 70.9654C500.745 69.1233 508.843 67.2236 516.562 65.4391C531.999 61.87 548.069 58.1282 563.759 54.6743C569.2 53.4654 574.767 52.199 580.081 51.0476C592.102 48.342 604.502 45.5789 616.649 43.046L617.282 42.9309C654.229 35.2746 692.442 27.3305 734.325 26.5246C782.281 25.6611 813.028 40.0526 832.008 50.9901C843.902 57.7828 854.531 65.2664 864.78 72.5197C868.702 75.3404 872.498 77.9309 876.294 80.5213L877.433 81.2697C893.123 92.0345 910.964 104.238 936.777 111.031C949.683 114.37 964.614 116.097 980.81 116.097Z" fill="#E0E0E0"/>
<path d="M1547.3 119.263L1547.42 119.148C1522.24 112.413 1502.25 105.678 1484.41 98.0215C1476.06 94.4524 1467.83 90.5955 1459.99 86.8537L1459.74 86.7386C1454.3 84.1481 1448.86 81.5577 1443.54 79.0248C1434.05 74.4771 1424.94 70.1596 1415.83 65.9573C1398.5 58.0708 1378.88 49.1481 1356.23 43.1613C1351.3 41.8948 1346.24 40.7435 1340.42 39.6498C1325.74 36.9442 1309.8 35.9655 1292.84 36.829C1277.66 37.5774 1261.46 39.7649 1244.88 43.3915C1212.62 50.4146 1184.15 60.3735 1160.49 69.1235C1151.88 72.3471 1143.15 75.7435 1134.67 79.0248C1102.53 91.5741 1069.26 104.584 1029.65 111.262C993.59 117.364 964.235 117.248 939.94 110.916C914.254 104.239 896.793 91.9771 881.482 81.0971L880.47 80.4063C876.801 77.8735 873.258 75.283 869.462 72.5198C859.339 65.209 848.963 57.6103 837.196 50.7024C823.404 42.6432 809.738 36.7715 795.44 32.857C778.105 28.079 759.758 26.0642 739.386 26.6975C720.786 27.2731 701.047 29.403 679.283 33.26C660.05 36.6563 641.576 40.8586 623.609 44.9458L621.964 45.2912C610.323 47.9392 598.429 50.8175 587.041 53.6382C581.347 55.0198 575.4 56.459 569.579 57.8981C560.848 59.9705 552.118 62.158 543.513 64.2304C529.089 67.7419 514.158 71.3685 499.227 74.88C475.059 80.5215 446.842 86.681 418.246 88.8685C407.744 89.6745 397.495 89.7896 387.625 89.2139C357.637 87.5445 329.42 80.4064 301.583 67.3965C284.501 59.3948 269.191 50.0116 252.994 40.1103C220.602 20.2501 187.071 -0.243347 136.711 -9.9144C121.147 -12.9078 104.951 -14.2894 88.5019 -14.1743C73.4445 -14.0591 58.0075 -12.5624 42.697 -9.79927C28.6519 -7.26637 14.8598 -3.6973 1.70043 0.850403C-10.5732 5.05271 -22.0877 10.0034 -32.4634 15.5297C-50.431 25.0856 -64.2231 35.7929 -74.5988 48.2846C-83.203 58.704 -89.5296 70.2748 -94.3379 84.7238H-94.0848C-86.7459 62.9063 -73.7131 37.635 -32.2103 15.5873C6.50868 -4.90617 71.1669 -22.3486 136.711 -9.79927C186.944 -0.185779 220.475 20.3076 252.868 40.1679C269.064 50.0692 284.374 59.3948 301.456 67.454C329.42 80.5215 357.637 87.6596 387.752 89.329C397.621 89.9047 407.87 89.7896 418.373 88.9837C447.096 86.8537 475.312 80.6366 499.48 74.9952C514.411 71.4837 529.342 67.857 543.767 64.3455C552.371 62.2731 561.101 60.0856 569.832 58.0133C575.653 56.6317 581.6 55.1925 587.294 53.7534C598.682 50.9902 610.576 48.1119 622.217 45.4063L623.862 45.0609C660.303 36.7139 697.883 28.1366 739.513 26.8126C787.722 25.3159 818.216 39.7649 836.943 50.76C848.71 57.6679 859.086 65.209 869.209 72.5198C873.005 75.283 876.548 77.8735 880.217 80.4063L881.229 81.0971C896.666 91.9771 914.001 104.239 939.814 110.974C964.108 117.306 993.59 117.421 1029.78 111.319C1069.38 104.642 1102.66 91.6317 1134.8 79.0823C1143.28 75.8011 1152.01 72.3471 1160.61 69.181C1184.15 60.431 1212.62 50.5297 1244.88 43.4491C1280.06 35.7928 1312.07 34.5264 1340.16 39.7073C1345.86 40.7435 1351.05 41.8948 1355.98 43.2188C1378.63 49.2057 1398.24 58.1284 1415.58 66.0149C1424.69 70.1596 1433.8 74.4771 1443.29 79.0823C1448.48 81.6152 1453.92 84.2057 1459.48 86.7962L1459.74 86.9113C1467.71 90.6531 1475.93 94.51 1484.16 98.0791C1502.13 105.793 1522.12 112.528 1547.3 119.263Z" fill="#E0E0E0"/>
<path d="M1551.47 122.487L1551.6 122.372C1524.27 115.694 1504.15 109.42 1486.44 102.051C1477.45 98.3095 1468.85 94.2799 1461.64 90.8835C1452.78 86.6237 1444.17 82.3638 1435.95 78.1615C1430.13 75.2256 1424.56 72.4049 1418.87 69.6418L1417.98 69.2388C1400.27 60.5464 1382.05 51.6237 1360.28 45.2914C1355.35 43.8523 1350.16 42.5858 1344.59 41.4345C1329.91 38.4411 1313.84 37.1747 1296.89 37.7503C1281.58 38.2684 1265.26 40.2832 1248.55 43.7372C1215.78 50.4724 1187.06 60.1434 1163.27 68.6631C1154.03 71.9444 1144.8 75.5135 1135.69 78.9099C1103.8 90.9987 1070.9 103.49 1032.31 110.398C996.248 116.961 967.145 117.191 943.104 111.032C917.418 104.412 900.336 92.0349 885.278 81.0974L884.393 80.4641C880.976 77.9888 877.56 75.3983 873.891 72.6928C864.021 65.2668 853.772 57.6105 842.004 50.6451C828.339 42.5283 814.8 36.7141 800.628 32.8572C783.293 28.1944 764.946 26.3523 744.447 27.2158C725.974 28.0217 706.488 30.497 684.851 34.6418C665.744 38.326 647.523 42.8737 629.935 47.3062L627.531 47.9395C616.396 50.7602 605.008 53.696 594.127 56.6319C588.18 58.2437 581.853 59.8556 575.779 61.4674C572.616 62.2733 569.453 63.1368 566.163 63.9428C546.677 69.0085 526.558 74.247 506.186 79.0826C482.145 84.7816 453.675 90.8835 425.332 92.6105C414.703 93.2437 404.454 93.2437 394.584 92.4954C364.849 90.3654 337.771 82.7668 309.175 68.7207C292.726 60.6615 278.048 51.3934 262.484 41.5497C229.08 20.5957 194.536 -1.10658 142.152 -11.123C126.208 -14.174 109.633 -15.6132 92.8038 -15.3829C77.3669 -15.2102 61.6768 -13.5984 46.1133 -10.7201C31.9416 -7.89935 17.8965 -4.15757 4.35746 0.620391C-8.16928 5.05296 -19.8103 10.2339 -30.3125 16.048C-48.5332 26.0645 -62.4518 37.2898 -72.701 50.3572C-81.3052 61.2947 -87.3788 73.3835 -91.934 88.4658H-91.6809C-84.8481 65.6122 -72.0683 39.1895 -30.0594 16.1056C9.16571 -5.36645 75.0893 -23.7875 142.278 -10.8928C194.663 -0.876322 229.08 20.7684 262.484 41.7799C278.048 51.5661 292.852 60.8342 309.301 68.951C322.461 75.3983 334.988 80.4066 347.767 84.2059C363.204 88.8112 378.641 91.5743 394.837 92.7832C404.707 93.474 415.083 93.5316 425.712 92.8983C454.055 91.1714 482.651 85.0694 506.692 79.3128C527.191 74.4197 547.309 69.2388 566.669 64.173C569.832 63.3671 572.996 62.5036 576.286 61.6977C582.486 60.0858 588.686 58.474 594.633 56.8622C605.515 53.9839 616.902 50.9904 628.037 48.1697L630.442 47.5365C664.732 38.9592 703.577 29.2882 744.827 27.446C793.289 25.3161 823.53 39.7651 842.131 50.8178C853.772 57.7832 864.021 65.4395 873.891 72.8655C877.433 75.571 880.85 78.1039 884.393 80.6368L885.278 81.27C900.336 92.2075 917.418 104.584 943.104 111.204C967.145 117.421 996.501 117.191 1032.56 110.571C1071.03 103.606 1104.05 91.1138 1135.94 79.025C1144.92 75.6286 1154.29 72.0595 1163.52 68.7783C1187.31 60.2585 1215.91 50.6451 1248.68 43.8523C1284.36 36.5414 1316.5 35.7355 1344.59 41.4921C1350.16 42.6434 1355.47 43.9099 1360.28 45.349C1381.92 51.6237 1400.27 60.6039 1417.85 69.2388L1418.74 69.6418C1424.43 72.4049 1430 75.2256 1435.82 78.1615C1444.05 82.3062 1452.65 86.6237 1461.51 90.8835C1468.72 94.3375 1477.33 98.3671 1486.31 102.109C1504.02 109.535 1524.14 115.81 1551.47 122.487Z" fill="#E0E0E0"/>
<path d="M1555.52 125.711L1555.65 125.595C1534.9 120.933 1510.6 115.003 1488.46 106.138C1480.87 103.087 1473.02 99.5757 1463.66 95.0855C1452.65 89.7319 1442.28 84.2056 1432.28 78.7944C1428.86 77.0099 1425.45 75.1102 1422.03 73.3257L1419.75 72.1168C1403.05 63.2516 1385.72 54.0987 1364.71 47.4786C1359.65 45.9243 1354.46 44.4852 1349.02 43.2763C1334.47 39.9375 1318.27 38.4408 1301.06 38.7862C1285.63 39.1316 1269.3 40.9161 1252.22 44.1974C1218.31 50.7599 1188.45 60.546 1166.05 68.3174C1156.06 71.7714 1145.94 75.4556 1136.19 79.0247C1104.81 90.5378 1072.29 102.396 1035.22 109.65C999.284 116.73 970.308 117.248 946.52 111.204C920.834 104.699 904.132 92.2072 889.454 81.2122L888.695 80.6365C885.405 78.1612 882.115 75.6859 878.698 73.0378C868.955 65.5543 858.959 57.7829 847.318 50.7023C833.906 42.528 820.493 36.7138 806.322 32.972C788.987 28.3668 770.64 26.6974 750.141 27.8487C731.794 28.8849 712.308 31.648 690.924 36.1957C672.071 40.2253 654.103 45.1184 636.641 49.8388L633.605 50.6447C622.849 53.5806 611.968 56.6316 601.465 59.625C595.265 61.4095 588.686 63.2516 582.359 65.0362C558.191 71.7714 536.301 77.8158 513.652 83.3421C491.508 88.6957 462.279 95.028 432.797 96.4671C422.168 96.9852 411.666 96.8125 401.797 95.8914C363.71 92.4951 335.114 79.5428 317.02 70.102C301.456 61.9852 287.285 52.8898 272.227 43.2187C237.81 21.0559 202.255 -1.85527 147.593 -12.2747C131.396 -15.3832 114.441 -16.8224 97.2325 -16.5345C81.4159 -16.3043 65.3463 -14.5773 49.5297 -11.5263C34.8519 -8.7056 20.5537 -4.73356 6.76163 0.274664C-6.01818 4.93749 -17.9123 10.3487 -28.541 16.3931C-47.0148 26.8701 -60.9334 38.6135 -71.309 52.3141C-79.7867 63.7697 -85.7338 76.4342 -90.0359 92.1497H-89.7828C-83.3297 68.3174 -70.9294 40.6859 -28.2879 16.5658C11.4433 -5.94244 78.6322 -25.2845 147.593 -12.102C202.128 -1.68257 237.684 21.2286 272.101 43.3914C287.158 53.0625 301.33 62.2155 316.893 70.2747C330.053 77.125 342.453 82.421 354.853 86.4507C370.29 91.5164 385.727 94.625 401.923 96.0641C411.793 96.9276 422.295 97.1579 433.05 96.6398C462.532 95.2007 491.761 88.8684 514.031 83.4572C536.807 77.9309 558.697 71.8865 582.865 65.1513C589.318 63.3668 595.771 61.5247 601.971 59.7401C612.474 56.7467 623.356 53.6957 634.111 50.7599L637.148 49.9539C671.058 40.7434 709.398 30.324 750.521 28.0214C787.595 25.8914 818.469 33.1447 847.571 50.8174C859.212 57.8405 869.209 65.6118 878.952 73.0954C882.368 75.7434 885.658 78.2763 888.948 80.6941L889.707 81.2697C904.385 92.3224 921.087 104.814 946.9 111.319C960.059 114.658 975.116 115.982 991.692 115.349C1005.1 114.831 1019.53 112.988 1035.85 109.765C1073.05 102.512 1105.57 90.653 1136.95 79.1398C1146.69 75.5707 1156.82 71.8865 1166.81 68.4326C1189.08 60.6612 1219.07 50.875 1252.86 44.3125C1289.04 37.2895 1321.44 37.0016 1349.27 43.3914C1354.71 44.6003 1359.9 46.0395 1364.96 47.5937C1385.97 54.2138 1403.18 63.3668 1419.88 72.2319L1422.16 73.4408C1425.57 75.2829 1429.12 77.125 1432.41 78.9095C1442.4 84.2632 1452.78 89.847 1463.79 95.2007C1473.02 99.6908 1480.87 103.202 1488.59 106.253C1510.48 115.118 1534.77 121.048 1555.52 125.711Z" fill="#E0E0E0"/>
<path d="M1559.7 128.934L1559.82 128.819C1536.67 124.099 1512.37 118.63 1490.48 110.226C1482.51 107.117 1474.41 103.548 1465.68 99.288C1453.28 93.1861 1441.9 86.6236 1430.76 80.2913C1428.86 79.1976 1426.96 78.1038 1425.07 77.0101C1424.05 76.4344 1423.04 75.8588 1422.03 75.2831C1405.96 66.1301 1389.38 56.6894 1368.89 49.6663C1363.83 47.9394 1358.51 46.3851 1353.32 45.0611C1338.77 41.4344 1322.58 39.6499 1305.24 39.765C1289.68 39.8801 1273.23 41.492 1256.02 44.6581C1221.73 50.8752 1191.49 60.3736 1168.96 67.9722C1158.21 71.5413 1147.45 75.3407 1137.08 79.0249C1106.08 90.0199 1073.94 101.36 1038 108.902C1002.07 116.443 973.219 117.249 949.81 111.377C924.124 104.929 907.801 92.3801 893.503 81.2699L892.87 80.7519C889.707 78.3341 886.67 75.9163 883.38 73.2683C873.89 65.6696 864.021 57.7831 852.506 50.7025C839.22 42.4706 825.935 36.714 811.763 32.9722C803.538 30.8423 794.808 29.3456 785.95 28.5397C776.334 27.6762 766.085 27.6186 755.456 28.367C714.459 31.1877 676.373 42.3555 642.842 52.2568L639.299 53.293C628.923 56.344 618.421 59.5676 608.298 62.6186C601.845 64.5759 595.265 66.5907 588.559 68.6055C563.759 76.0315 542.754 82.1334 520.611 87.5446C498.848 92.8982 470.125 99.1729 439.883 100.267C429.001 100.67 418.499 100.324 408.63 99.288C371.935 95.4311 344.351 82.4213 324.485 71.5413C309.681 63.4821 296.142 54.5019 281.844 45.0611C246.415 21.6318 209.847 -2.54585 152.907 -13.4258C136.331 -16.5919 118.996 -18.031 101.408 -17.6856C85.3387 -17.3978 68.8894 -15.5557 52.6932 -12.332C37.7624 -9.33861 23.0846 -5.19387 9.16601 0.0446151C-3.86686 4.93771 -15.8875 10.5792 -26.7693 16.9114C-45.4961 27.8489 -59.5413 40.1104 -69.7904 54.3867C-78.2681 66.2453 -84.0886 79.4278 -88.0111 95.8341H-87.758C-82.0641 72.4624 -70.0435 42.3555 -26.5162 16.969C13.8477 -6.51789 82.1754 -26.8386 152.781 -13.3682C209.594 -2.54585 246.162 21.6894 281.591 45.0611C295.889 54.5594 309.428 63.4821 324.232 71.5413C344.098 82.4213 371.682 95.4311 408.503 99.288C418.373 100.324 428.875 100.67 439.757 100.267C452.916 99.8061 466.455 98.3094 481.513 95.7765C493.407 93.7617 506.186 91.0561 520.611 87.487C542.754 82.0183 563.885 75.9739 588.559 68.4903C595.139 66.5331 601.845 64.4607 608.298 62.5035C618.421 59.3949 628.923 56.2288 639.299 53.1778L642.842 52.1417C676.373 42.2979 714.333 31.1301 755.329 28.3094C792.656 25.719 823.404 32.7996 852.127 50.5874C863.641 57.668 873.511 65.5545 883.001 73.1532C886.291 75.7436 889.327 78.219 892.491 80.6367L893.123 81.1548C907.548 92.265 923.871 104.872 949.557 111.319C962.59 114.601 977.647 115.809 994.097 114.946C1007.26 114.255 1021.68 112.24 1037.88 108.844C1073.81 101.303 1105.95 89.9624 1137.08 78.9673C1147.45 75.2831 1158.21 71.4838 1168.96 67.9147C1191.49 60.316 1221.73 50.8752 1255.89 44.6005C1292.46 37.9229 1325.11 38.0956 1352.94 45.0611C1358.13 46.3851 1363.45 47.8818 1368.51 49.6088C1389.01 56.6318 1405.58 66.0726 1421.52 75.2255C1422.54 75.8012 1423.55 76.3768 1424.56 76.9525C1426.46 78.0463 1428.36 79.14 1430.25 80.2338C1441.39 86.566 1452.78 93.1285 1465.18 99.2305C1473.91 103.49 1482.01 107.117 1489.98 110.168C1512.12 118.688 1536.54 124.214 1559.7 128.934Z" fill="#E0E0E0"/>
<path d="M1563.87 132.158L1564 132.043C1535.91 126.862 1512.88 121.853 1492.64 114.255C1468.34 105.217 1449.23 93.531 1430.89 82.2481L1428.23 80.6363C1426.84 79.8304 1425.57 78.9669 1424.18 78.161C1405.08 66.4175 1385.34 54.2712 1357.75 46.7876C1343.2 42.8156 1326.88 40.8008 1309.54 40.6281C1293.98 40.5129 1277.28 41.9521 1259.94 44.9455C1214.64 52.6593 1175.54 66.0721 1137.58 79.0244C1107.09 89.4439 1075.46 100.266 1040.91 108.038C1004.6 116.212 976.762 117.306 953.227 111.492C927.54 105.159 911.597 92.4373 897.552 81.2695L897.046 80.8665C894.136 78.5064 891.226 76.0886 888.062 73.5557C874.397 62.3304 858.96 49.5508 838.968 40.6281C816.065 30.3814 790.506 26.5245 760.897 28.9422C719.9 32.281 682.32 44.1972 649.042 54.7317C647.777 55.1346 646.511 55.5376 645.119 55.9406C634.997 59.1067 624.874 62.4455 615.005 65.6692C587.167 74.7646 558.318 84.1478 527.824 91.804C499.607 98.8846 457.218 107.75 415.716 102.684C380.033 98.309 353.461 85.2415 332.204 72.98C318.285 65.036 305.506 56.286 291.84 47.0754C255.399 22.3222 217.692 -3.23705 158.348 -14.5775C141.393 -17.8012 123.805 -19.2403 105.837 -18.8374C89.3876 -18.492 72.6853 -16.5347 56.1095 -13.1384C40.9256 -9.97225 25.9947 -5.65482 11.6965 -0.1285C-1.58942 4.99485 -13.8631 10.9241 -24.8715 17.4866C-43.8514 28.8847 -58.023 41.6643 -68.1456 56.5162C-76.6233 68.8929 -82.1908 82.5935 -85.8602 99.633H-85.6072C-80.2928 75.2827 -68.6518 43.9669 -24.6184 17.5442C16.2517 -7.0364 85.7182 -28.3357 158.221 -14.5199C217.439 -3.23705 255.146 22.3222 291.587 47.0754C305.253 56.286 318.032 65.036 331.951 72.98C353.335 85.2415 379.907 98.3666 415.589 102.684C433.557 104.871 452.537 104.699 473.668 102.223C490.243 100.266 507.452 96.9274 527.824 91.804C558.318 84.1478 587.167 74.7646 615.005 65.6692C624.874 62.4455 634.997 59.1642 645.119 55.9406C646.385 55.5376 647.65 55.1346 649.042 54.7317C682.194 44.2547 719.9 32.3386 760.77 28.9998C790.252 26.582 815.686 30.3814 838.588 40.6281C858.58 49.5508 874.017 62.3304 887.683 73.5557C890.719 76.0886 893.756 78.5064 896.667 80.8665L897.173 81.2695C911.344 92.4948 927.287 105.217 953.1 111.549C966.133 114.773 981.064 115.867 997.513 114.773C1010.55 113.909 1024.72 111.722 1040.91 108.095C1075.46 100.324 1107.09 89.5014 1137.58 79.082C1175.42 66.1297 1214.64 52.7745 1259.82 45.0606C1296.89 38.7284 1329.66 39.3616 1357.5 46.9027C1385.08 54.3863 1404.82 66.5327 1423.93 78.2185C1425.32 79.0244 1426.59 79.8879 1427.98 80.6938L1430.63 82.3057C1449.11 93.5886 1468.09 105.274 1492.38 114.312C1512.75 121.911 1535.66 126.919 1563.87 132.158Z" fill="#E0E0E0"/>
</g>
<defs>
<clipPath id="clip0">
<rect width="919" height="134" fill="white"/>
</clipPath>
</defs>
</svg>
