<svg width="27" height="27" viewBox="0 0 27 27" fill="none" xmlns="http://www.w3.org/2000/svg">
<path d="M14.0104 0.00121909C21.1195 -0.0209274 26.9772 5.77038 26.9994 12.8683C27.0215 20.077 21.2856 25.9016 14.2097 26.0012C7.00106 26.1009 1.11009 20.1878 0.999355 13.2005C0.877549 5.92541 6.96784 -0.0984402 14.0104 0.00121909ZM1.96273 13.0344C1.9738 19.6562 7.38862 25.0489 14.0436 25.0378C20.6655 25.0378 26.0692 19.612 26.0581 12.9569C26.0471 6.32405 20.6433 0.942446 13.9772 0.942446C7.3554 0.942446 1.95165 6.37941 1.96273 13.0344Z" fill="#0079C5"/>
<path d="M17.2334 9.94538C19.0273 9.61319 20.644 9.33635 22.2607 9.01523C22.5707 8.95986 22.8143 8.93772 22.9694 9.24777C23.1355 9.59104 22.9251 9.77928 22.6593 9.96753C21.3416 10.8534 20.046 11.7725 18.7394 12.6583C18.3629 12.913 18.3629 13.068 18.7394 13.3227C20.0682 14.2197 21.3859 15.1498 22.7036 16.0467C22.9472 16.2128 23.0912 16.39 22.9804 16.689C22.8697 16.9769 22.6372 17.0212 22.3493 16.9658C20.7547 16.6668 19.1491 16.4011 17.5545 16.091C17.1227 16.0135 17.0452 16.091 17.1227 16.5229C17.4217 18.0953 17.6874 19.6788 17.9864 21.2622C18.0418 21.5723 18.0307 21.8159 17.7206 21.9599C17.3884 22.1038 17.2334 21.8934 17.0562 21.6498C16.1482 20.3099 15.207 18.9812 14.299 17.6413C14.0775 17.3202 13.9225 17.3866 13.7343 17.6634C12.8373 18.9701 11.9182 20.2657 11.0324 21.5834C10.8552 21.8381 10.7002 22.1038 10.3458 21.9709C10.0026 21.8381 10.0136 21.5612 10.0801 21.2401C10.3791 19.6677 10.6337 18.0842 10.9327 16.5008C10.9992 16.1353 10.9217 16.0467 10.5452 16.1132C8.97276 16.4011 7.38929 16.6668 5.80581 16.9658C5.48469 17.0323 5.20786 17.0544 5.0639 16.7111C4.93103 16.39 5.14142 16.2128 5.3961 16.0467C6.70275 15.1498 7.99832 14.2307 9.31603 13.3449C9.7036 13.0791 9.67038 12.9241 9.30496 12.6805C7.97617 11.7835 6.65845 10.8645 5.34074 9.95646C5.09712 9.79036 4.95317 9.60211 5.07498 9.31421C5.18571 9.0263 5.41825 8.98201 5.70615 9.03738C7.3007 9.33635 8.90632 9.61319 10.4898 9.92324C10.9106 10.0007 11.0102 9.91216 10.9217 9.49138C10.6116 7.89683 10.3458 6.30228 10.0358 4.70773C9.98043 4.40876 10.0247 4.18729 10.3126 4.07656C10.6005 3.96583 10.7888 4.09871 10.9549 4.34232C11.8629 5.67111 12.782 6.97775 13.6789 8.30654C13.9225 8.67196 14.0775 8.70518 14.3433 8.31761C15.2402 6.98882 16.1593 5.67111 17.0673 4.34232C17.2445 4.07656 17.4549 3.94368 17.7539 4.07656C18.0307 4.20944 18.0528 4.41983 17.9975 4.71881C17.6874 6.32443 17.4106 7.9522 17.1116 9.55782C17.0673 9.80143 17.0452 10.0008 17.2334 9.94538ZM16.9012 13.0237C17.0009 11.4513 15.661 10.0783 14.0443 10.0672C12.3833 10.045 11.0545 11.4071 11.0656 13.057C11.0767 14.5851 12.4719 15.9582 13.9889 15.936C15.6499 15.9139 16.9012 14.6515 16.9012 13.0237ZM7.88758 10.4105C7.87651 10.4437 7.86544 10.4658 7.86544 10.499C8.4191 10.8866 8.97276 11.2742 9.52643 11.6617C10.1908 12.1268 10.1687 12.1157 10.5009 11.3628C10.6559 11.0084 10.5784 10.8645 10.213 10.8091C9.42677 10.6873 8.66271 10.5433 7.88758 10.4105ZM20.1457 15.5817C20.1567 15.5595 20.1678 15.5263 20.1789 15.5042C19.6252 15.1166 19.0716 14.7401 18.529 14.3525C17.8424 13.8653 17.8535 13.8764 17.5102 14.6404C17.3663 14.9726 17.4327 15.1166 17.776 15.172C18.5733 15.3048 19.3595 15.4377 20.1457 15.5817ZM11.5085 6.82273C11.4864 6.84487 11.4532 6.85595 11.431 6.87809C11.4975 7.24351 11.5528 7.59785 11.6193 7.96327C11.6636 8.22903 11.7189 8.50586 11.7743 8.77162C11.9625 9.72392 11.9515 9.71284 12.8152 9.30313C13.0809 9.17026 13.0699 9.04845 12.9259 8.83806C12.4498 8.17366 11.9736 7.49819 11.5085 6.82273ZM16.5912 6.87809C16.569 6.85595 16.5469 6.84487 16.5136 6.82273C16.0375 7.49819 15.5724 8.16259 15.0963 8.83806C14.908 9.09274 14.9855 9.23669 15.2624 9.31421C15.3842 9.34743 15.506 9.39172 15.6167 9.45816C15.9932 9.70177 16.1261 9.5246 16.1925 9.14811C16.3143 8.39513 16.4583 7.64215 16.5912 6.87809ZM20.1789 10.488C20.1567 10.4658 20.1457 10.4326 20.1235 10.4105C19.4924 10.5212 18.8612 10.6209 18.23 10.7316C17.2777 10.9088 17.2888 10.9088 17.6985 11.7835C17.8203 12.0493 17.9532 12.0382 18.1636 11.8943C18.828 11.4292 19.5034 10.9641 20.1789 10.488ZM16.5136 19.1583C16.5358 19.1362 16.5579 19.1251 16.5912 19.103C16.4804 18.4718 16.3808 17.8406 16.27 17.2094C16.0929 16.2571 16.0929 16.2571 15.2181 16.6779C15.0077 16.7776 14.9302 16.8883 15.0741 17.0876C15.5613 17.7852 16.0375 18.4718 16.5136 19.1583ZM7.85436 15.4931C7.86544 15.5152 7.87651 15.5485 7.88758 15.5706C8.51876 15.4599 9.14993 15.3602 9.78111 15.2495C10.7445 15.0723 10.7334 15.0723 10.3348 14.2086C10.213 13.9539 10.1133 13.9207 9.88077 14.0757C9.2053 14.5629 8.52983 15.028 7.85436 15.4931ZM11.431 19.0919C11.5861 18.9922 11.6303 18.9812 11.6414 18.9479C11.9736 18.4829 12.2837 18.0067 12.6269 17.5527C13.2803 16.6668 13.1474 16.8772 12.2615 16.4565C12.029 16.3457 11.9072 16.4454 11.874 16.6668C11.7189 17.442 11.5861 18.206 11.431 19.0919Z" fill="#0079C5"/>
<path d="M13.7674 1.55189C14.011 1.55189 14.2435 1.54081 14.4871 1.55189C14.8304 1.56296 15.1515 1.64047 15.1294 2.06126C15.1183 2.45989 14.7861 2.50419 14.4761 2.49311C13.3244 2.45989 12.195 2.60385 11.0876 2.90283C3.86787 4.89601 1.07741 14.0757 5.97179 19.7342C8.14215 22.2367 10.8772 23.4991 14.1881 23.4991C14.5646 23.4991 15.1183 23.3551 15.1183 23.9752C15.1183 24.54 14.5868 24.4403 14.2214 24.4403C9.54845 24.54 5.29632 21.7827 3.45816 17.4752C1.64215 13.212 2.60552 8.21799 5.87213 4.91816C7.9539 2.82531 10.7997 1.60725 13.7674 1.55189Z" fill="#0079C5"/>
<path d="M22.7255 5.73754C22.7255 5.91472 22.648 6.05867 22.493 6.14725C22.3158 6.24691 22.1165 6.23584 21.9725 6.10296C21.596 5.74862 21.2417 5.3832 20.8874 5.00671C20.7655 4.8849 20.7545 4.70773 20.832 4.54163C20.9095 4.37553 21.0535 4.29802 21.2306 4.28695C21.585 4.2648 22.7144 5.37213 22.7255 5.73754Z" fill="#0079C5"/>
<path d="M21.2419 21.7274C21.0647 21.7163 20.9207 21.6388 20.8322 21.4838C20.7325 21.2955 20.7546 21.1184 20.8986 20.9744C21.2419 20.609 21.5962 20.2657 21.9506 19.9114C22.0945 19.7674 22.2827 19.7564 22.4599 19.845C22.6149 19.9335 22.7035 20.0664 22.7146 20.2436C22.7257 20.5979 21.6073 21.7163 21.2419 21.7274Z" fill="#0079C5"/>
<path d="M17.6098 23.8644C17.344 23.8533 17.1779 23.7758 17.1004 23.5876C17.0118 23.3772 17.0672 23.1668 17.2554 23.0561C17.7316 22.7682 18.252 22.5799 18.7725 22.4249C18.9829 22.3584 19.1711 22.4803 19.2597 22.6906C19.3483 22.8789 19.304 23.0671 19.1379 23.1889C18.6728 23.5322 18.1081 23.7205 17.6098 23.8644Z" fill="#0079C5"/>
<path d="M24.5084 12.9683C24.5084 12.7469 24.4973 12.5254 24.5084 12.3039C24.5194 12.0382 24.6634 11.8499 24.9402 11.8278C25.2281 11.8167 25.3942 11.9828 25.4164 12.2596C25.4607 12.7358 25.5049 13.2119 25.4274 13.6881C25.3831 13.976 25.2503 14.1864 24.9291 14.1642C24.6191 14.1421 24.4973 13.9206 24.4862 13.6327C24.5084 13.4112 24.5084 13.1898 24.5084 12.9683Z" fill="#0079C5"/>
<path d="M17.6318 2.12773C18.1412 2.28276 18.6616 2.471 19.1156 2.76998C19.2928 2.89179 19.3703 3.0911 19.2707 3.3015C19.1599 3.52296 18.9717 3.64477 18.7281 3.55618C18.2519 3.37901 17.7758 3.17969 17.3107 2.9693C17.1114 2.88071 17.0339 2.68139 17.1003 2.45993C17.1778 2.21632 17.3771 2.1388 17.6318 2.12773Z" fill="#0079C5"/>
<path d="M24.8737 9.36957C24.8627 9.6464 24.763 9.82357 24.5526 9.89001C24.3312 9.96753 24.1318 9.87894 24.0322 9.67962C23.8107 9.21455 23.6114 8.7384 23.4342 8.25117C23.3567 8.04078 23.4785 7.85254 23.6668 7.7418C23.8771 7.62 24.0765 7.67536 24.2093 7.85254C24.5526 8.31761 24.7076 8.87127 24.8737 9.36957Z" fill="#0079C5"/>
<path d="M24.8517 16.6557C24.7188 17.154 24.5195 17.6301 24.2648 18.0841C24.143 18.2945 23.9326 18.3831 23.689 18.2724C23.4565 18.1727 23.3347 17.9734 23.4233 17.7298C23.5894 17.2647 23.7887 16.7996 23.988 16.3456C24.0877 16.1242 24.2981 16.0134 24.5417 16.1131C24.7964 16.2128 24.8849 16.401 24.8517 16.6557Z" fill="#0079C5"/>
<path d="M11.9072 13.0238C11.8961 11.9275 12.9038 10.9088 13.8672 10.8866C14.1551 10.8755 14.3876 10.9752 14.454 11.2742C14.5094 11.5842 14.3212 11.7725 14.0443 11.8168C13.3356 11.9386 12.9259 12.304 12.8484 13.0459C12.8152 13.3227 12.6048 13.4667 12.3391 13.4335C12.0179 13.3892 11.9072 13.1566 11.9072 13.0238Z" fill="#0079C5"/>
</svg>
