<svg width="29" height="28" viewBox="0 0 29 28" fill="none" xmlns="http://www.w3.org/2000/svg">
<g clip-path="url(#clip0)">
<mask id="path-2-inside-1" fill="white">
<path d="M15.0744 27.9999C10.7629 27.9999 6.44363 27.9999 2.13219 27.9999C1.9591 27.9999 1.78601 28.0077 1.62079 27.9687C1.33756 27.9063 1.12513 27.7503 1.14874 27.4382C1.17234 27.1183 1.39263 26.9545 1.70734 26.9467C2.21873 26.9311 2.73012 26.9311 3.24152 26.9467C3.54049 26.9545 3.6585 26.8765 3.6585 26.5566C3.65063 22.1331 3.65063 17.7174 3.6585 13.2939C3.6585 12.9662 3.54049 12.8492 3.22578 12.8726C3.02909 12.8804 2.8324 12.8414 2.64358 12.818C2.36821 12.7868 2.12432 12.7868 1.87255 12.9818C1.43984 13.3095 0.857634 13.2549 0.456386 12.9194C0.00793236 12.5449 -0.125817 11.991 0.133814 11.4371C0.613738 10.4151 1.10153 9.39308 1.60506 8.37887C1.75454 8.08241 1.75454 7.87176 1.54212 7.61431C1.24315 7.24763 1.03072 6.82635 0.991383 6.34265C0.904839 5.24262 1.54212 4.45465 2.65932 4.25181C2.80093 4.22841 2.95042 4.166 3.08417 4.1894C3.55622 4.25181 3.73718 3.98656 3.9024 3.60428C4.33512 2.64468 4.80717 1.70068 5.27136 0.748888C5.54673 0.17937 6.00305 -0.0702818 6.56165 0.00773432C7.15959 0.0935521 7.51363 0.405617 7.60017 1.05315C7.64738 1.43543 7.88341 1.66168 8.1037 1.90353C9.21303 3.13618 10.3381 4.34543 11.4553 5.57029C11.6205 5.74972 11.8172 5.85895 12.0532 5.92916C13.4615 6.32704 14.8698 6.73273 16.2703 7.14621C16.4984 7.21643 16.6637 7.21643 16.8131 7.00578C16.9862 6.77173 17.238 6.76393 17.4819 6.88096C18.7722 7.48168 20.0625 8.09021 21.3449 8.70653C21.5494 8.80015 21.7147 8.97179 21.6911 9.19024C21.6517 9.45549 21.7933 9.53351 21.9822 9.61152C22.1867 9.70514 22.3755 9.82997 22.588 9.89238C23.6973 10.2278 24.4447 11.008 25.1213 11.8818C25.4832 12.3421 25.8609 12.7868 26.2621 13.2237C26.5532 13.5435 26.6555 13.8712 26.4195 14.2457C26.2307 14.5421 26.2307 14.7606 26.4982 15.057C27.2535 15.8996 27.9615 16.789 28.6854 17.655C28.7876 17.772 28.8899 17.8968 28.9607 18.0373C29.1102 18.3415 28.9686 18.6458 28.6303 18.7316C28.4651 18.7706 28.292 18.7862 28.1268 18.7784C26.9624 18.6848 25.7979 18.7628 24.6257 18.7238C24.3582 18.716 24.193 18.8018 24.1221 19.0515C23.9727 19.5586 23.6344 19.7614 23.1151 19.6678C23.0128 19.6522 22.9027 19.6756 22.8004 19.66C22.525 19.6366 22.4306 19.7536 22.4306 20.0267C22.4385 20.7444 22.4306 21.4544 22.4306 22.1721C22.4306 23.6154 22.4385 25.0587 22.4227 26.502C22.4227 26.8375 22.5172 26.9545 22.8712 26.9545C24.6414 26.9389 26.4116 26.9467 28.1818 26.9467C28.3156 26.9467 28.4493 26.9389 28.5752 26.9623C28.827 27.0169 29.0001 27.1808 29.0079 27.446C29.0158 27.7113 28.882 27.8985 28.6145 27.9531C28.4336 27.9843 28.2526 27.9999 28.0717 27.9999C23.7288 27.9999 19.4016 27.9999 15.0744 27.9999ZM4.65769 22.1331C4.65769 23.592 4.66556 25.0431 4.64982 26.502C4.64982 26.8375 4.7285 26.9545 5.09041 26.9545C7.93061 26.9389 10.7787 26.9467 13.6189 26.9545C13.9415 26.9545 14.0516 26.8609 14.0516 26.5332C14.0359 24.9339 14.0437 23.3346 14.0516 21.7352C14.0516 21.47 13.9572 21.3139 13.7526 21.1501C12.7928 20.3856 11.8487 19.6054 10.8967 18.833C9.84244 17.9749 8.78818 17.1245 7.74179 16.2663C7.55297 16.1103 7.38775 16.0713 7.14385 16.1961C6.45937 16.5472 5.75915 16.8748 5.05107 17.1869C4.75997 17.3117 4.64982 17.4834 4.64982 17.8032C4.66556 19.2465 4.65769 20.6898 4.65769 22.1331ZM7.8126 12.0924C7.98569 12.147 8.06436 12.0066 8.1273 11.8584C8.96914 10.1108 9.8031 8.37107 10.6449 6.6235C10.7315 6.45187 10.7236 6.31144 10.5899 6.16321C10.3224 5.87455 10.0627 5.58589 9.8031 5.29723C9.00061 4.40785 8.19024 3.52626 7.38775 2.63688C7.23826 2.46524 7.13598 2.43404 7.0337 2.68369C6.86848 3.06597 6.67966 3.43264 6.49871 3.80712C5.27923 6.35045 4.05975 8.88597 2.82454 11.4293C2.69865 11.6946 2.67505 11.8038 3.03696 11.8194C4.61835 11.8896 6.19974 11.9988 7.8126 12.0924ZM20.4322 9.54131C20.448 9.38528 20.3457 9.36187 20.267 9.33066C19.4016 8.92498 18.5361 8.5271 17.6786 8.11361C17.4819 8.01999 17.3953 8.10581 17.3167 8.26964C17.1514 8.62072 16.9784 8.97179 16.8131 9.32286C15.7903 11.4527 14.7597 13.5825 13.7369 15.7124C13.5009 16.2117 13.5009 16.2195 13.9887 16.4535C14.7282 16.8046 15.4835 17.1401 16.2152 17.5146C16.4906 17.655 16.5928 17.5848 16.7109 17.3351C17.9146 14.8152 19.1262 12.3031 20.33 9.78316C20.3693 9.68174 20.4086 9.59592 20.4322 9.54131ZM18.2214 26.9467C19.1341 26.9467 20.0546 26.9389 20.9672 26.9545C21.2505 26.9623 21.3606 26.8765 21.3606 26.58C21.3449 25.5268 21.3527 24.4814 21.3606 23.4282C21.3606 23.2097 21.3055 23.0693 21.101 22.9523C20.2277 22.4608 19.3622 21.9537 18.4968 21.4388C18.2922 21.3139 18.1428 21.3061 17.9382 21.47C17.0885 22.1565 16.2231 22.8275 15.3498 23.4906C15.1688 23.6232 15.1059 23.7637 15.1059 23.9821C15.1137 24.8403 15.1216 25.6985 15.1059 26.5488C15.098 26.8531 15.1924 26.9623 15.5071 26.9545C16.4198 26.9311 17.3167 26.9467 18.2214 26.9467ZM10.6449 9.0108C10.1099 10.1264 9.59854 11.1952 9.08715 12.2563C8.977 12.4825 9.13436 12.5605 9.27597 12.6542C10.3932 13.4187 11.5182 14.1755 12.6276 14.9556C12.8715 15.1273 12.9265 15.0102 13.021 14.823C13.6582 13.4889 14.2955 12.1548 14.9564 10.8286C15.098 10.5321 15.0272 10.4151 14.7518 10.3059C14.1382 10.0484 13.5009 9.91578 12.84 9.93919C11.9746 9.95479 11.1957 9.82217 10.6449 9.0108ZM22.8948 11.3045C22.9027 11.1484 22.7925 11.125 22.6981 11.0782C22.2733 10.8754 21.8484 10.6803 21.4236 10.4775C21.2347 10.3839 21.1482 10.4541 21.0695 10.6257C19.9995 12.8648 18.9295 15.0961 17.8438 17.3273C17.7336 17.5614 17.8123 17.6472 18.009 17.733C18.4181 17.9124 18.8194 18.0919 19.2128 18.3025C19.4409 18.4195 19.5275 18.3493 19.6219 18.1465C20.6761 15.9464 21.7304 13.7464 22.7925 11.5463C22.8319 11.4605 22.8633 11.3747 22.8948 11.3045ZM22.4385 18.677C22.706 18.6068 23.0758 18.8252 23.2724 18.4039C23.9491 16.9606 24.6493 15.5251 25.3416 14.0818C25.4203 13.918 25.4046 13.801 25.2787 13.6606C24.8696 13.1925 24.4683 12.7166 24.0671 12.2329C23.7996 11.913 23.7602 11.913 23.5871 12.2797C23.0758 13.3407 22.5644 14.4017 22.053 15.4705C21.6045 16.4067 21.1561 17.3429 20.6997 18.2791C20.5896 18.5132 20.6053 18.599 20.8886 18.599C21.3921 18.6146 21.9035 18.6536 22.4385 18.677ZM14.0437 20.0579C14.0437 19.2621 14.0359 18.56 14.0437 17.8656C14.0437 17.6628 13.9493 17.5614 13.7762 17.4834C13.4065 17.3117 13.0446 17.1323 12.6826 16.9606C12.3758 16.8202 12.2421 16.5862 12.3365 16.2663C12.3837 16.0869 12.3286 16.001 12.2027 15.9152C11.6756 15.5564 11.1485 15.1975 10.6292 14.8308C10.4876 14.7294 10.3538 14.7138 10.1965 14.7918C9.79523 14.9868 9.39399 15.1585 8.99274 15.3457C8.49708 15.5798 8.49708 15.5798 8.90619 15.9152C9.76376 16.6096 10.6213 17.3117 11.4868 18.0061C12.305 18.6692 13.139 19.3323 14.0437 20.0579ZM9.38612 14.0038C8.90619 13.6684 8.54428 13.2081 8.05649 13.1457C7.02584 13.013 5.97158 13.013 4.92519 12.9584C4.71276 12.9506 4.65769 13.0598 4.65769 13.2471C4.65769 14.1599 4.65769 15.0649 4.65769 15.9776C4.65769 16.1571 4.69703 16.2195 4.88585 16.1259C6.36496 15.4315 7.8362 14.7372 9.38612 14.0038ZM15.1137 20.1983C15.1137 20.8068 15.1137 21.4154 15.1137 22.0317C15.1137 22.1175 15.0744 22.2345 15.1845 22.2657C15.2632 22.2891 15.3183 22.2033 15.3812 22.1565C16.0736 21.6182 16.7581 21.0799 17.4504 20.5494C17.6156 20.4168 17.6943 20.2529 17.7258 20.0579C17.773 19.7536 17.8202 19.4416 17.8674 19.1373C17.8989 18.9735 17.891 18.8174 17.71 18.7472C17.5291 18.677 17.3639 18.482 17.1436 18.6926C16.9312 18.8954 16.6873 18.8564 16.4512 18.7472C16.1287 18.599 15.814 18.4508 15.4914 18.3025C15.1059 18.1231 15.1059 18.1309 15.1059 18.5678C15.1137 19.1061 15.1137 19.6522 15.1137 20.1983ZM11.8723 6.94337C11.6599 6.91997 11.6756 6.92777 11.5497 7.11501C11.0383 7.89517 11.5261 9.0264 12.6197 8.92498C13.3042 8.86257 13.9729 8.95619 14.6338 9.15123C14.9485 9.24485 15.2947 9.59592 15.5543 9.41648C15.8061 9.24485 15.8769 8.81576 16.0421 8.50369C16.1601 8.27745 16.1444 8.16042 15.8612 8.09021C15.3812 7.97318 14.9092 7.80935 14.4293 7.67672C13.5796 7.43487 12.7062 7.18522 11.8723 6.94337ZM6.55378 1.2794C6.56165 1.15457 6.53805 1.09996 6.4751 1.06095C6.38856 1.01414 6.31775 1.05315 6.27055 1.11556C6.21547 1.18578 6.17614 1.2716 6.1368 1.34961C4.62622 4.47806 3.11564 7.60651 1.61292 10.735C1.43984 11.086 1.27462 11.4371 1.1094 11.7882C1.05432 11.8974 0.999251 12.0144 1.14874 12.0924C1.29035 12.1626 1.36903 12.0534 1.4241 11.952C1.47917 11.8662 1.51851 11.7648 1.56572 11.6711C1.91189 10.9456 2.25807 10.2122 2.60424 9.4867C3.84732 6.91216 5.09041 4.32983 6.32562 1.7553C6.42003 1.58366 6.49084 1.40422 6.55378 1.2794ZM21.3606 20.7678C21.3606 20.5728 21.3606 20.3778 21.3606 20.1827C21.3606 19.6678 21.3606 19.6756 20.8492 19.66C20.3457 19.6444 19.8264 19.7224 19.3386 19.504C18.8745 19.2933 18.8745 19.3011 18.8115 19.7926C18.8036 19.8784 18.7722 19.9721 18.7564 20.0579C18.7092 20.2529 18.7564 20.4012 18.9531 20.5104C19.6691 20.9161 20.3772 21.3295 21.0852 21.7508C21.2977 21.8757 21.3606 21.8054 21.3606 21.587C21.3527 21.3139 21.3606 21.0409 21.3606 20.7678ZM27.3715 17.733C26.8129 17.0621 26.3329 16.4769 25.8451 15.884C25.7193 15.728 25.6485 15.8294 25.5934 15.9464C25.3495 16.4457 25.1135 16.9528 24.8696 17.4521C24.783 17.6238 24.8145 17.7252 25.0269 17.7252C25.7665 17.733 26.5139 17.733 27.3715 17.733ZM2.31314 6.86535C2.55704 6.37385 2.7852 5.92136 3.00549 5.47667C3.03696 5.41425 3.09203 5.32063 3.00549 5.26602C2.96615 5.23482 2.87961 5.25822 2.82454 5.26602C2.0063 5.44546 1.77028 6.1008 2.31314 6.86535Z"/>
</mask>
<path d="M15.0744 27.9999C10.7629 27.9999 6.44363 27.9999 2.13219 27.9999C1.9591 27.9999 1.78601 28.0077 1.62079 27.9687C1.33756 27.9063 1.12513 27.7503 1.14874 27.4382C1.17234 27.1183 1.39263 26.9545 1.70734 26.9467C2.21873 26.9311 2.73012 26.9311 3.24152 26.9467C3.54049 26.9545 3.6585 26.8765 3.6585 26.5566C3.65063 22.1331 3.65063 17.7174 3.6585 13.2939C3.6585 12.9662 3.54049 12.8492 3.22578 12.8726C3.02909 12.8804 2.8324 12.8414 2.64358 12.818C2.36821 12.7868 2.12432 12.7868 1.87255 12.9818C1.43984 13.3095 0.857634 13.2549 0.456386 12.9194C0.00793236 12.5449 -0.125817 11.991 0.133814 11.4371C0.613738 10.4151 1.10153 9.39308 1.60506 8.37887C1.75454 8.08241 1.75454 7.87176 1.54212 7.61431C1.24315 7.24763 1.03072 6.82635 0.991383 6.34265C0.904839 5.24262 1.54212 4.45465 2.65932 4.25181C2.80093 4.22841 2.95042 4.166 3.08417 4.1894C3.55622 4.25181 3.73718 3.98656 3.9024 3.60428C4.33512 2.64468 4.80717 1.70068 5.27136 0.748888C5.54673 0.17937 6.00305 -0.0702818 6.56165 0.00773432C7.15959 0.0935521 7.51363 0.405617 7.60017 1.05315C7.64738 1.43543 7.88341 1.66168 8.1037 1.90353C9.21303 3.13618 10.3381 4.34543 11.4553 5.57029C11.6205 5.74972 11.8172 5.85895 12.0532 5.92916C13.4615 6.32704 14.8698 6.73273 16.2703 7.14621C16.4984 7.21643 16.6637 7.21643 16.8131 7.00578C16.9862 6.77173 17.238 6.76393 17.4819 6.88096C18.7722 7.48168 20.0625 8.09021 21.3449 8.70653C21.5494 8.80015 21.7147 8.97179 21.6911 9.19024C21.6517 9.45549 21.7933 9.53351 21.9822 9.61152C22.1867 9.70514 22.3755 9.82997 22.588 9.89238C23.6973 10.2278 24.4447 11.008 25.1213 11.8818C25.4832 12.3421 25.8609 12.7868 26.2621 13.2237C26.5532 13.5435 26.6555 13.8712 26.4195 14.2457C26.2307 14.5421 26.2307 14.7606 26.4982 15.057C27.2535 15.8996 27.9615 16.789 28.6854 17.655C28.7876 17.772 28.8899 17.8968 28.9607 18.0373C29.1102 18.3415 28.9686 18.6458 28.6303 18.7316C28.4651 18.7706 28.292 18.7862 28.1268 18.7784C26.9624 18.6848 25.7979 18.7628 24.6257 18.7238C24.3582 18.716 24.193 18.8018 24.1221 19.0515C23.9727 19.5586 23.6344 19.7614 23.1151 19.6678C23.0128 19.6522 22.9027 19.6756 22.8004 19.66C22.525 19.6366 22.4306 19.7536 22.4306 20.0267C22.4385 20.7444 22.4306 21.4544 22.4306 22.1721C22.4306 23.6154 22.4385 25.0587 22.4227 26.502C22.4227 26.8375 22.5172 26.9545 22.8712 26.9545C24.6414 26.9389 26.4116 26.9467 28.1818 26.9467C28.3156 26.9467 28.4493 26.9389 28.5752 26.9623C28.827 27.0169 29.0001 27.1808 29.0079 27.446C29.0158 27.7113 28.882 27.8985 28.6145 27.9531C28.4336 27.9843 28.2526 27.9999 28.0717 27.9999C23.7288 27.9999 19.4016 27.9999 15.0744 27.9999ZM4.65769 22.1331C4.65769 23.592 4.66556 25.0431 4.64982 26.502C4.64982 26.8375 4.7285 26.9545 5.09041 26.9545C7.93061 26.9389 10.7787 26.9467 13.6189 26.9545C13.9415 26.9545 14.0516 26.8609 14.0516 26.5332C14.0359 24.9339 14.0437 23.3346 14.0516 21.7352C14.0516 21.47 13.9572 21.3139 13.7526 21.1501C12.7928 20.3856 11.8487 19.6054 10.8967 18.833C9.84244 17.9749 8.78818 17.1245 7.74179 16.2663C7.55297 16.1103 7.38775 16.0713 7.14385 16.1961C6.45937 16.5472 5.75915 16.8748 5.05107 17.1869C4.75997 17.3117 4.64982 17.4834 4.64982 17.8032C4.66556 19.2465 4.65769 20.6898 4.65769 22.1331ZM7.8126 12.0924C7.98569 12.147 8.06436 12.0066 8.1273 11.8584C8.96914 10.1108 9.8031 8.37107 10.6449 6.6235C10.7315 6.45187 10.7236 6.31144 10.5899 6.16321C10.3224 5.87455 10.0627 5.58589 9.8031 5.29723C9.00061 4.40785 8.19024 3.52626 7.38775 2.63688C7.23826 2.46524 7.13598 2.43404 7.0337 2.68369C6.86848 3.06597 6.67966 3.43264 6.49871 3.80712C5.27923 6.35045 4.05975 8.88597 2.82454 11.4293C2.69865 11.6946 2.67505 11.8038 3.03696 11.8194C4.61835 11.8896 6.19974 11.9988 7.8126 12.0924ZM20.4322 9.54131C20.448 9.38528 20.3457 9.36187 20.267 9.33066C19.4016 8.92498 18.5361 8.5271 17.6786 8.11361C17.4819 8.01999 17.3953 8.10581 17.3167 8.26964C17.1514 8.62072 16.9784 8.97179 16.8131 9.32286C15.7903 11.4527 14.7597 13.5825 13.7369 15.7124C13.5009 16.2117 13.5009 16.2195 13.9887 16.4535C14.7282 16.8046 15.4835 17.1401 16.2152 17.5146C16.4906 17.655 16.5928 17.5848 16.7109 17.3351C17.9146 14.8152 19.1262 12.3031 20.33 9.78316C20.3693 9.68174 20.4086 9.59592 20.4322 9.54131ZM18.2214 26.9467C19.1341 26.9467 20.0546 26.9389 20.9672 26.9545C21.2505 26.9623 21.3606 26.8765 21.3606 26.58C21.3449 25.5268 21.3527 24.4814 21.3606 23.4282C21.3606 23.2097 21.3055 23.0693 21.101 22.9523C20.2277 22.4608 19.3622 21.9537 18.4968 21.4388C18.2922 21.3139 18.1428 21.3061 17.9382 21.47C17.0885 22.1565 16.2231 22.8275 15.3498 23.4906C15.1688 23.6232 15.1059 23.7637 15.1059 23.9821C15.1137 24.8403 15.1216 25.6985 15.1059 26.5488C15.098 26.8531 15.1924 26.9623 15.5071 26.9545C16.4198 26.9311 17.3167 26.9467 18.2214 26.9467ZM10.6449 9.0108C10.1099 10.1264 9.59854 11.1952 9.08715 12.2563C8.977 12.4825 9.13436 12.5605 9.27597 12.6542C10.3932 13.4187 11.5182 14.1755 12.6276 14.9556C12.8715 15.1273 12.9265 15.0102 13.021 14.823C13.6582 13.4889 14.2955 12.1548 14.9564 10.8286C15.098 10.5321 15.0272 10.4151 14.7518 10.3059C14.1382 10.0484 13.5009 9.91578 12.84 9.93919C11.9746 9.95479 11.1957 9.82217 10.6449 9.0108ZM22.8948 11.3045C22.9027 11.1484 22.7925 11.125 22.6981 11.0782C22.2733 10.8754 21.8484 10.6803 21.4236 10.4775C21.2347 10.3839 21.1482 10.4541 21.0695 10.6257C19.9995 12.8648 18.9295 15.0961 17.8438 17.3273C17.7336 17.5614 17.8123 17.6472 18.009 17.733C18.4181 17.9124 18.8194 18.0919 19.2128 18.3025C19.4409 18.4195 19.5275 18.3493 19.6219 18.1465C20.6761 15.9464 21.7304 13.7464 22.7925 11.5463C22.8319 11.4605 22.8633 11.3747 22.8948 11.3045ZM22.4385 18.677C22.706 18.6068 23.0758 18.8252 23.2724 18.4039C23.9491 16.9606 24.6493 15.5251 25.3416 14.0818C25.4203 13.918 25.4046 13.801 25.2787 13.6606C24.8696 13.1925 24.4683 12.7166 24.0671 12.2329C23.7996 11.913 23.7602 11.913 23.5871 12.2797C23.0758 13.3407 22.5644 14.4017 22.053 15.4705C21.6045 16.4067 21.1561 17.3429 20.6997 18.2791C20.5896 18.5132 20.6053 18.599 20.8886 18.599C21.3921 18.6146 21.9035 18.6536 22.4385 18.677ZM14.0437 20.0579C14.0437 19.2621 14.0359 18.56 14.0437 17.8656C14.0437 17.6628 13.9493 17.5614 13.7762 17.4834C13.4065 17.3117 13.0446 17.1323 12.6826 16.9606C12.3758 16.8202 12.2421 16.5862 12.3365 16.2663C12.3837 16.0869 12.3286 16.001 12.2027 15.9152C11.6756 15.5564 11.1485 15.1975 10.6292 14.8308C10.4876 14.7294 10.3538 14.7138 10.1965 14.7918C9.79523 14.9868 9.39399 15.1585 8.99274 15.3457C8.49708 15.5798 8.49708 15.5798 8.90619 15.9152C9.76376 16.6096 10.6213 17.3117 11.4868 18.0061C12.305 18.6692 13.139 19.3323 14.0437 20.0579ZM9.38612 14.0038C8.90619 13.6684 8.54428 13.2081 8.05649 13.1457C7.02584 13.013 5.97158 13.013 4.92519 12.9584C4.71276 12.9506 4.65769 13.0598 4.65769 13.2471C4.65769 14.1599 4.65769 15.0649 4.65769 15.9776C4.65769 16.1571 4.69703 16.2195 4.88585 16.1259C6.36496 15.4315 7.8362 14.7372 9.38612 14.0038ZM15.1137 20.1983C15.1137 20.8068 15.1137 21.4154 15.1137 22.0317C15.1137 22.1175 15.0744 22.2345 15.1845 22.2657C15.2632 22.2891 15.3183 22.2033 15.3812 22.1565C16.0736 21.6182 16.7581 21.0799 17.4504 20.5494C17.6156 20.4168 17.6943 20.2529 17.7258 20.0579C17.773 19.7536 17.8202 19.4416 17.8674 19.1373C17.8989 18.9735 17.891 18.8174 17.71 18.7472C17.5291 18.677 17.3639 18.482 17.1436 18.6926C16.9312 18.8954 16.6873 18.8564 16.4512 18.7472C16.1287 18.599 15.814 18.4508 15.4914 18.3025C15.1059 18.1231 15.1059 18.1309 15.1059 18.5678C15.1137 19.1061 15.1137 19.6522 15.1137 20.1983ZM11.8723 6.94337C11.6599 6.91997 11.6756 6.92777 11.5497 7.11501C11.0383 7.89517 11.5261 9.0264 12.6197 8.92498C13.3042 8.86257 13.9729 8.95619 14.6338 9.15123C14.9485 9.24485 15.2947 9.59592 15.5543 9.41648C15.8061 9.24485 15.8769 8.81576 16.0421 8.50369C16.1601 8.27745 16.1444 8.16042 15.8612 8.09021C15.3812 7.97318 14.9092 7.80935 14.4293 7.67672C13.5796 7.43487 12.7062 7.18522 11.8723 6.94337ZM6.55378 1.2794C6.56165 1.15457 6.53805 1.09996 6.4751 1.06095C6.38856 1.01414 6.31775 1.05315 6.27055 1.11556C6.21547 1.18578 6.17614 1.2716 6.1368 1.34961C4.62622 4.47806 3.11564 7.60651 1.61292 10.735C1.43984 11.086 1.27462 11.4371 1.1094 11.7882C1.05432 11.8974 0.999251 12.0144 1.14874 12.0924C1.29035 12.1626 1.36903 12.0534 1.4241 11.952C1.47917 11.8662 1.51851 11.7648 1.56572 11.6711C1.91189 10.9456 2.25807 10.2122 2.60424 9.4867C3.84732 6.91216 5.09041 4.32983 6.32562 1.7553C6.42003 1.58366 6.49084 1.40422 6.55378 1.2794ZM21.3606 20.7678C21.3606 20.5728 21.3606 20.3778 21.3606 20.1827C21.3606 19.6678 21.3606 19.6756 20.8492 19.66C20.3457 19.6444 19.8264 19.7224 19.3386 19.504C18.8745 19.2933 18.8745 19.3011 18.8115 19.7926C18.8036 19.8784 18.7722 19.9721 18.7564 20.0579C18.7092 20.2529 18.7564 20.4012 18.9531 20.5104C19.6691 20.9161 20.3772 21.3295 21.0852 21.7508C21.2977 21.8757 21.3606 21.8054 21.3606 21.587C21.3527 21.3139 21.3606 21.0409 21.3606 20.7678ZM27.3715 17.733C26.8129 17.0621 26.3329 16.4769 25.8451 15.884C25.7193 15.728 25.6485 15.8294 25.5934 15.9464C25.3495 16.4457 25.1135 16.9528 24.8696 17.4521C24.783 17.6238 24.8145 17.7252 25.0269 17.7252C25.7665 17.733 26.5139 17.733 27.3715 17.733ZM2.31314 6.86535C2.55704 6.37385 2.7852 5.92136 3.00549 5.47667C3.03696 5.41425 3.09203 5.32063 3.00549 5.26602C2.96615 5.23482 2.87961 5.25822 2.82454 5.26602C2.0063 5.44546 1.77028 6.1008 2.31314 6.86535Z" fill="#0079C5" stroke="#0079C5" stroke-width="2" mask="url(#path-2-inside-1)"/>
</g>
<defs>
<clipPath id="clip0">
<rect width="29" height="28" fill="white"/>
</clipPath>
</defs>
</svg>
