<svg width="18" height="18" viewBox="0 0 18 18" fill="none" xmlns="http://www.w3.org/2000/svg">
<g clip-path="url(#clip0)">
<path d="M7.30002 3.01679C6.20002 3.01679 5.10002 3.51959 4.40002 4.32406C4.90002 4.12294 5.40002 4.02238 5.90002 4.02238C8.60002 4.02238 10.7 6.23467 10.7 8.8492C10.7 9.15087 10.7 9.35199 10.6 9.55311C11.1 8.84919 11.4 8.04473 11.4 7.1397C11.4 4.92741 9.60002 3.01679 7.30002 3.01679Z" fill="#E0E0E0"/>
<path d="M17.5 15.3855L13.3 11.3631C14.1 10.1564 14.5 8.84916 14.5 7.34078C14.5 3.31844 11.3 0 7.2 0C3.2 0 0 3.21788 0 7.34078C0 11.4637 3.2 14.6816 7.3 14.6816C8.7 14.6816 10.1 14.2793 11.2 13.5754L15.5 17.6983C15.8 18 16.2 18.1006 16.5 18.1006C16.9 18.1006 17.3 17.8994 17.6 17.5978C18.1 16.8939 18.1 15.8883 17.5 15.3855ZM7.3 12.771C4.3 12.771 1.9 10.3575 1.9 7.34078C1.9 4.32402 4.3 1.91061 7.3 1.91061C10.3 1.91061 12.7 4.32402 12.7 7.34078C12.7 10.3575 10.2 12.771 7.3 12.771Z" fill="#E0E0E0"/>
</g>
<defs>
<clipPath id="clip0">
<rect width="18" height="18" fill="white"/>
</clipPath>
</defs>
</svg>
