<svg width="195" height="78" viewBox="0 0 195 78" fill="none" xmlns="http://www.w3.org/2000/svg">
<path d="M5.50717 38.8381C8.72042 26.6748 16.6712 15.7954 26.6184 8.39868C14.8797 14.6952 5.16592 25.954 1.76226 38.8381C-1.64148 51.7222 2.12319 62.9813 10.5354 69.2777C4.49629 61.8811 2.29385 51.0015 5.50717 38.8381Z" fill="#1F70B6"/>
<path d="M41.1795 76.9387C20.0942 76.9387 10.7464 56.8899 15.6042 38.7605C20.5318 20.3704 40.5539 0.582219 61.6392 0.582219C61.941 0.582219 62.2349 0.598081 62.5332 0.604964C60.9278 0.385296 59.2669 0.260498 57.5426 0.260498C36.2796 0.260498 14.4239 17.4976 8.72654 38.7605C3.02916 60.0234 15.6475 77.2605 36.9104 77.2605C38.635 77.2605 40.363 77.1356 42.0864 76.9159C41.7841 76.9228 41.4817 76.9387 41.1795 76.9387Z" fill="#1F70B6"/>
<path d="M69.0732 21.9435C73.0347 17.781 81.5447 11.4851 81.5447 11.4851C81.5447 11.4851 81.5323 10.8453 80.5261 8.75185C79.52 6.65841 76.3185 4.38123 76.3185 4.38123C76.3185 4.38123 75.8422 4.99339 74.2613 7.20788C72.6805 9.42237 70.3083 13.5458 68.1515 17.6749C67.5834 18.7628 66.7518 20.2895 65.8384 21.9435H69.0732Z" fill="#1F70B6"/>
<path d="M63.1858 21.9433C63.5298 21.3039 63.8732 20.6778 64.2093 20.0819C66.9294 15.2594 73.7438 7.11852 73.7438 7.11852C73.7438 7.11852 73.5229 6.56471 71.8015 5.04544C70.0802 3.52616 66.0288 2.51282 66.0288 2.51282C66.0288 2.51282 65.7352 3.19098 64.8206 5.60059C63.906 8.01036 62.7938 12.324 61.9061 16.577C61.6299 17.9008 61.1744 19.8654 60.678 21.9433H63.1858V21.9433Z" fill="#1F70B6"/>
<path d="M55.2423 22.6644C56.0573 22.41 56.8964 22.228 57.7566 22.1125C57.9402 21.3463 58.1286 20.5917 58.3194 19.8762C59.6611 14.8467 64.2258 5.72282 64.2258 5.72282C64.2258 5.72282 63.8279 5.2971 61.5823 4.44776C59.3368 3.59826 54.8344 3.85938 54.8344 3.85938C54.8344 3.85938 54.7377 4.54128 54.5275 6.92755C54.3171 9.31398 54.4841 13.436 54.865 17.441C54.9864 18.7168 55.1185 20.6386 55.2423 22.6644Z" fill="#1F70B6"/>
<path d="M47.8565 20.3366C48.4692 21.5169 49.3611 23.379 50.2589 25.2935C50.9477 24.7471 51.6743 24.2515 52.4474 23.8291C52.3655 22.9878 52.2943 22.1532 52.2444 21.3631C51.9429 16.5886 53.5988 7.25971 53.5988 7.25971C53.5988 7.25971 53.0447 7.0158 50.4385 6.98363C47.8324 6.95131 43.2663 8.58729 43.2663 8.58729C43.2663 8.58729 43.3953 9.20799 43.9789 11.3399C44.5625 13.4719 46.1186 16.9886 47.8565 20.3366Z" fill="#1F70B6"/>
<path d="M46.5153 29.6785C46.8977 29.0147 47.3227 28.3876 47.795 27.7938C47.248 26.7869 46.712 25.7599 46.2511 24.7976C44.3213 20.768 42.8705 12.1848 42.8705 12.1848C42.8705 12.1848 42.2153 12.1493 39.511 12.9456C36.8069 13.7419 32.6428 16.5994 32.6428 16.5994C32.6428 16.5994 32.9864 17.0947 34.3122 18.7521C35.6378 20.4093 38.4378 22.9554 41.3686 25.2983C42.6175 26.2967 44.6232 28.024 46.5153 29.6785Z" fill="#1F70B6"/>
<path d="M44.9794 33.2294C45.0499 32.9725 45.1676 32.7403 45.2507 32.4895C43.9964 31.5237 42.6812 30.4739 41.5581 29.4861C38.2418 26.5697 33.9288 19.5443 33.9288 19.5443C33.9288 19.5443 33.2396 19.7139 30.7042 21.2337C28.1691 22.7534 24.7997 26.5132 24.7997 26.5132C24.7997 26.5132 25.3173 26.8392 27.2313 27.876C29.1453 28.9128 32.875 30.2721 36.6734 31.4148C38.5788 31.9879 41.9007 33.1194 44.7394 34.1053L44.9794 33.2294Z" fill="#1F70B6"/>
<path d="M43.9588 36.9526C42.0359 36.4039 39.8366 35.7374 37.9877 35.0727C33.6286 33.5055 26.9295 28.6384 26.9295 28.6384C26.9295 28.6384 26.2705 28.9917 24.132 31.0751C21.9934 33.1585 19.7053 37.4503 19.7053 37.4503C19.7053 37.4503 20.3445 37.5818 22.6546 37.9206C24.9647 38.2592 29.256 38.3408 33.5491 38.2121C35.9001 38.1416 40.2047 38.1521 43.6235 38.1759L43.9588 36.9526Z" fill="#1F70B6"/>
<path d="M42.9096 40.7798C40.7455 40.9028 38.2633 41.0093 36.1401 41.0093C31.1106 41.0093 22.5605 38.8782 22.5605 38.8782C22.5605 38.8782 21.9971 39.3896 20.4823 41.8617C18.9674 44.3338 18.0354 48.7665 18.0354 48.7665C18.0354 48.7665 18.7402 48.6814 21.2413 48.2551C23.7423 47.8289 28.2054 46.5624 32.6003 45.1133C34.907 44.3527 39.0916 43.098 42.5546 42.075L42.9096 40.7798Z" fill="#1F70B6"/>
<path d="M41.5653 45.6843L41.7595 44.9756C39.9152 45.6243 37.9439 46.2909 36.1865 46.8257C30.9886 48.4078 21.4332 49.254 21.4332 49.254C21.4332 49.254 21.0234 49.8737 20.2913 52.4884C19.5591 55.1032 20.0903 59.2305 20.0903 59.2305C20.0903 59.2305 20.79 58.9351 23.2312 57.7796C25.6724 56.6243 29.8581 54.1249 33.9117 51.489C35.6413 50.3643 38.5468 48.5645 41.3113 46.8699C41.3751 46.4735 41.4572 46.0777 41.5653 45.6843Z" fill="#1F70B6"/>
<path d="M41.2454 49.7664C40.253 50.4218 39.262 51.0624 38.3294 51.6433C33.4943 54.6546 23.9068 58.4091 23.9068 58.4091C23.9068 58.4091 23.6934 59.074 23.8236 61.5644C23.9536 64.0548 25.9023 67.452 25.9023 67.452C25.9023 67.452 26.5251 66.9754 28.6561 65.2049C30.7871 63.4344 34.265 59.951 37.56 56.3914C38.5742 55.2958 40.1032 53.7017 41.7326 52.0209C41.4877 51.2882 41.3285 50.5331 41.2454 49.7664Z" fill="#1F70B6"/>
<path d="M43.4112 55.199C43.2084 54.9331 43.0307 54.6548 42.8548 54.3759C42.5216 54.7274 42.1909 55.0738 41.8687 55.4051C37.8698 59.5161 29.2044 65.7441 29.2044 65.7441C29.2044 65.7441 29.2046 66.3871 30.166 68.5081C31.1273 70.6291 34.2697 72.9736 34.2697 72.9736C34.2697 72.9736 34.7554 72.3671 36.3706 70.1706C37.9858 67.9739 40.4249 63.8737 42.6495 59.7639C43.1257 58.8843 43.7838 57.7114 44.5163 56.4229C44.1248 56.0428 43.7492 55.6422 43.4112 55.199Z" fill="#1F70B6"/>
<path d="M46.504 57.9501C43.5161 62.7832 37.092 70.2255 37.092 70.2255C37.092 70.2255 37.3 70.7866 38.9794 72.3479C40.6587 73.9092 44.6662 75.0082 44.6662 75.0082C44.6662 75.0082 44.9727 74.3326 45.9336 71.9286C46.8945 69.5249 48.0926 65.2112 49.0658 60.9539C49.1814 60.4484 49.3265 59.8446 49.4896 59.182C48.4317 58.9254 47.4311 58.5043 46.504 57.9501Z" fill="#1F70B6"/>
<path d="M56.2953 59.4965H52.2845C50.5971 64.6301 47.117 71.785 47.117 71.785C47.117 71.785 47.5222 72.2038 49.7872 73.021C52.0523 73.8382 56.5664 73.5193 56.5664 73.5193C56.5664 73.5193 56.6538 72.8386 56.8316 70.458C57.0092 68.0774 56.7842 63.9723 56.3459 59.9867C56.3294 59.8373 56.3122 59.6627 56.2953 59.4965Z" fill="#1F70B6"/>
<path d="M64.6907 59.4965H58.9439C58.7396 64.2713 57.814 70.0491 57.814 70.0491C57.814 70.0491 58.3748 70.2825 60.9929 70.2711C63.6108 70.2599 68.1674 68.5552 68.1674 68.5552C68.1674 68.5552 68.0269 67.9396 67.4026 65.8272C66.9393 64.2591 65.9216 61.9385 64.6907 59.4965Z" fill="#1F70B6"/>
<path d="M87.443 15.9686C87.3233 13.4752 85.3905 10.0669 85.3905 10.0669C85.3905 10.0669 84.7664 10.5417 82.6303 12.3058C80.4944 14.07 77.0057 17.5435 73.6993 21.0941C73.4613 21.3497 73.1886 21.6387 72.8995 21.9433H80.6259C84.2138 20.3431 87.3469 19.1269 87.3469 19.1269C87.3469 19.1269 87.5627 18.4622 87.443 15.9686Z" fill="#1F70B6"/>
<path d="M91.1151 21.8975C91.1435 19.9121 90.887 18.0934 90.887 18.0934C90.887 18.0934 90.1893 18.3974 87.7565 19.5827C86.6704 20.112 85.2182 20.9325 83.6066 21.8975H91.1151V21.8975Z" fill="#1F70B6"/>
<path d="M71.4296 59.3875L71.3994 59.4964H67.1437C67.8852 62.6211 68.3401 65.378 68.3401 65.378C68.3401 65.378 68.9946 65.4158 71.6991 64.6282C74.4038 63.8408 78.5748 60.9953 78.5748 60.9953C78.5748 60.9953 78.2763 60.5714 77.3489 59.3875H71.4296Z" fill="#1F70B6"/>
<path d="M151.663 26.193H155.994L155.776 27.0022H152.4L151.771 29.3581H154.617L154.399 30.1674H151.553L150.82 32.9016H154.308L154.093 33.7108H149.649L151.663 26.193Z" fill="#3B3B3A"/>
<path d="M157.701 26.193H158.687L160.141 30.9192L160.536 32.4754H160.581C160.737 31.7164 160.888 30.8713 161.098 30.086L162.142 26.193H163.05L161.036 33.7108H160.05L158.597 28.9798L158.201 27.4284H158.156C158 28.1874 157.859 28.9918 157.648 29.7771L156.595 33.7108H155.688L157.701 26.193Z" fill="#3B3B3A"/>
<path d="M163.672 29.9567C164.321 27.5337 166.172 26.0565 168.164 26.0565C169.205 26.0565 169.763 26.5282 170.084 26.9831L169.392 27.6056C169.117 27.2129 168.719 26.8969 167.965 26.8969C166.449 26.8969 165.166 28.0605 164.666 29.9327C164.158 31.8242 164.733 33.0069 166.337 33.0069C166.876 33.0069 167.436 32.8465 167.809 32.5664L168.334 30.6079H166.742L166.952 29.8154H169.416L168.571 32.9758C167.951 33.4809 167.031 33.8473 166.021 33.8473C164.039 33.8473 163.016 32.3988 163.672 29.9567Z" fill="#3B3B3A"/>
<path d="M172.186 26.193H173.141L171.128 33.7108H170.172L172.186 26.193Z" fill="#3B3B3A"/>
<path d="M175.2 26.193H176.187L177.64 30.9192L178.035 32.4754H178.081C178.236 31.7164 178.387 30.8713 178.598 30.086L179.642 26.193H180.549L178.535 33.7108H177.549L176.096 28.9798L175.701 27.4284H175.655C175.5 28.1874 175.358 28.9918 175.148 29.7771L174.094 33.7108H173.187L175.2 26.193Z" fill="#3B3B3A"/>
<path d="M182.615 26.193H186.946L186.728 27.0022H183.353L182.723 29.3581H185.57L185.352 30.1674H182.505L181.772 32.9016H185.261L185.045 33.7108H180.602L182.615 26.193Z" fill="#3B3B3A"/>
<path d="M146.535 43.2996L147.281 42.6436C147.672 43.2039 148.325 43.575 149.106 43.575C150.092 43.575 150.808 43.0818 151.004 42.3515C151.21 41.583 150.732 41.3412 150.102 41.0299L149.154 40.5535C148.531 40.2542 147.854 39.7251 148.148 38.619C148.457 37.4697 149.685 36.6222 151.05 36.6222C151.941 36.6222 152.633 37.0101 153.013 37.5535L152.34 38.1665C151.998 37.7331 151.519 37.4626 150.825 37.4626C149.982 37.4626 149.309 37.8887 149.13 38.5615C148.936 39.2845 149.52 39.5551 150.042 39.8041L150.988 40.2686C151.756 40.6421 152.295 41.1592 151.996 42.2797C151.677 43.4648 150.444 44.4129 148.864 44.4129C147.811 44.4129 147.009 43.9844 146.535 43.2996Z" fill="#3B3B3A"/>
<path d="M153.736 41.1736L154.919 36.7587H155.874L154.687 41.1999C154.201 43.0051 154.814 43.575 155.795 43.575C156.789 43.575 157.727 43.0051 158.213 41.1999L159.401 36.7587H160.316L159.133 41.1736C158.486 43.5869 157.102 44.4129 155.57 44.4129C154.036 44.4129 153.09 43.5869 153.736 41.1736Z" fill="#3B3B3A"/>
<path d="M162.341 36.7587H164.486C166.169 36.7587 167.156 37.3261 166.715 38.9733C166.289 40.5559 164.963 41.2933 163.318 41.2933H162.082L161.283 44.2765H160.328L162.341 36.7587ZM163.406 40.52C164.721 40.52 165.473 40.0435 165.76 38.9733C166.05 37.8887 165.48 37.5368 164.161 37.5368H163.09L162.291 40.52H163.406Z" fill="#3B3B3A"/>
<path d="M168.827 36.7587H170.972C172.655 36.7587 173.642 37.3261 173.201 38.9733C172.775 40.5559 171.449 41.2933 169.804 41.2933H168.568L167.769 44.2765H166.813L168.827 36.7587ZM169.892 40.52C171.207 40.52 171.959 40.0435 172.246 38.9733C172.536 37.8887 171.966 37.5368 170.647 37.5368H169.576L168.777 40.52H169.892Z" fill="#3B3B3A"/>
<path d="M173.879 40.4912C174.523 38.0851 176.239 36.6222 178.126 36.6222C180.013 36.6222 180.944 38.0874 180.3 40.4912C179.654 42.8998 177.925 44.4129 176.038 44.4129C174.152 44.4129 173.232 42.8998 173.879 40.4912ZM179.314 40.4912C179.814 38.619 179.242 37.4626 177.901 37.4626C176.56 37.4626 175.366 38.619 174.865 40.4912C174.362 42.3659 174.923 43.575 176.263 43.575C177.604 43.575 178.811 42.3659 179.314 40.4912Z" fill="#3B3B3A"/>
<path d="M182.922 36.7587H185.275C186.805 36.7587 187.758 37.3093 187.339 38.8751C186.937 40.3763 185.644 41.0994 184.114 41.0994H182.716L181.863 44.2765H180.908L182.922 36.7587ZM184.183 40.3236C185.354 40.3236 186.123 39.8496 186.384 38.8751C186.647 37.8863 186.101 37.5368 184.93 37.5368H183.671L182.924 40.3236H184.183V40.3236ZM183.994 40.8384L184.875 40.3428L186.113 44.2765H185.031L183.994 40.8384Z" fill="#3B3B3A"/>
<path d="M190.631 37.5679H188.359L188.574 36.7587H194.076L193.861 37.5679H191.589L189.791 44.2765H188.833L190.631 37.5679Z" fill="#3B3B3A"/>
<path d="M146.001 47.3267H148.23C149.757 47.3267 150.676 47.8462 150.322 49.1654C150.123 49.91 149.551 50.5708 148.785 50.7983L148.773 50.8461C149.623 51.0233 150.097 51.6147 149.822 52.6442C149.424 54.1214 148.062 54.8445 146.388 54.8445H143.987L146.001 47.3267ZM146.451 54.0855C147.736 54.0855 148.617 53.621 148.89 52.6083C149.137 51.6817 148.524 51.2603 147.21 51.2603H145.902L145.143 54.0855H146.451ZM147.212 50.5229C148.491 50.5229 149.147 50.0537 149.35 49.2923C149.585 48.4136 149.07 48.0832 147.909 48.0832H146.752L146.099 50.5229H147.212Z" fill="#3B3B3A"/>
<path d="M154.282 47.3267H155.362L155.889 54.8445H154.876L154.692 50.645C154.644 49.8047 154.627 48.9787 154.617 48.112H154.572C154.105 48.9834 153.643 49.8047 153.15 50.645L150.7 54.8445H149.728L154.282 47.3267ZM151.881 51.7919H155.34L155.137 52.5556H151.677L151.881 51.7919Z" fill="#3B3B3A"/>
<path d="M158.927 47.3267H159.882L158.084 54.0352H161.364L161.149 54.8445H156.913L158.927 47.3267Z" fill="#3B3B3A"/>
<path d="M164.467 48.1359H162.195L162.413 47.3267H167.915L167.697 48.1359H165.422L163.627 54.8445H162.671L164.467 48.1359Z" fill="#3B3B3A"/>
<path d="M169.263 47.3267H170.218L168.204 54.8445H167.249L169.263 47.3267Z" fill="#3B3B3A"/>
<path d="M170.833 51.0903C171.482 48.6674 173.304 47.1902 175.21 47.1902C176.122 47.1902 176.721 47.6331 177.027 48.1167L176.338 48.7392C176.055 48.3179 175.636 48.0282 175.002 48.0282C173.582 48.0282 172.327 49.1941 171.824 51.064C171.319 52.9578 171.903 54.1406 173.328 54.1406C174.044 54.1406 174.674 53.8293 175.296 53.2978L175.66 53.8964C174.879 54.5859 174.039 54.9809 173.062 54.9809C171.19 54.9809 170.177 53.5324 170.833 51.0903Z" fill="#3B3B3A"/>
<path d="M78.1642 24.3956L76.0761 32.0906H63.0615C61.2974 32.0906 59.7491 33.2654 59.274 34.9644L58.7599 36.8034H74.0594L72.0313 44.2662H56.7342L56.1676 46.3386C55.7531 47.8551 56.8945 49.3506 58.4667 49.3506H71.6679L69.5333 57.0455H52.0952C46.5048 57.0455 42.4478 51.7251 43.9274 46.334L47.3458 33.8788C48.883 28.278 53.9745 24.3956 59.7824 24.3956H78.1642V24.3956Z" fill="#3B3B3A"/>
<path d="M97.7966 23.8637C97.6109 23.8619 97.4129 23.8637 97.2281 23.8637C91.2954 23.8637 86.6507 25.1611 83.2964 27.8068C80.4274 30.0604 78.8725 32.8592 78.6337 36.2084C78.4956 38.1222 78.9078 39.6819 79.8734 40.8852C80.8368 42.0885 82.9753 43.1148 86.2929 43.9663L89.7925 44.8325C90.6312 45.0167 91.2124 45.1985 91.5331 45.3827C92.0601 45.6864 92.3002 46.1291 92.2589 46.7055C92.2091 47.4065 91.8052 47.9686 91.0424 48.3944C90.0657 48.9231 88.4969 49.1893 86.3661 49.2079V49.2135H86.1925C86.176 49.2135 86.163 49.215 86.1465 49.215C86.1368 49.215 86.1263 49.2135 86.1166 49.2135H75.145L73.1192 56.8846H84.2508C84.8885 56.9033 85.5495 56.8846 86.2357 56.8846C88.6998 56.8846 90.9677 56.6573 93.0419 56.2003C96.1943 55.4994 98.729 54.3129 100.645 52.6407C101.782 51.6335 102.771 50.3512 103.615 48.782C104.457 47.2151 104.935 45.6409 105.049 44.0573C105.227 41.5623 104.284 39.6316 102.222 38.261C101.003 37.4403 99.239 36.7993 96.927 36.3447C96.2659 36.2227 95.2601 36.0409 93.909 35.7945C92.1078 35.4309 91.2419 34.7922 91.3065 33.8784C91.3767 32.9047 92.0936 32.2349 93.4574 31.8713C94.2807 31.6401 95.3919 31.527 96.7473 31.5148V31.5021H106.694L108.143 26.2771L108.852 23.8637H97.7966V23.8637Z" fill="#3B3B3A"/>
<path d="M143.666 31.7191C143.515 33.8041 142.623 35.6595 140.98 37.2948C139.341 38.9252 137.34 39.9592 134.975 40.3942L134.915 40.5825C136.783 40.5825 138.225 41.2498 139.249 42.5869C140.16 43.77 140.562 45.1217 140.453 46.6446C140.261 49.3188 138.976 51.6336 136.597 53.594C133.819 55.8942 130.207 57.0455 125.764 57.0455H105.287L114.248 24.3956H134.49C137.817 24.3956 140.277 25.1901 141.875 26.774C143.21 28.1135 143.805 29.7586 143.666 31.7191ZM127.816 46.5981C127.852 46.0995 127.761 45.6351 127.542 45.1999C127.215 44.5766 126.785 44.1807 126.251 44.0095C125.721 43.8384 125.003 43.7528 124.101 43.7528H120.789L118.96 50.4236H122.13C123.998 50.4236 125.442 49.9861 126.47 49.1159C127.297 48.3997 127.747 47.5613 127.816 46.5981ZM131.162 33.7234C131.209 33.0708 131.075 32.5453 130.762 32.1395C130.195 31.394 129.117 31.0199 127.53 31.0199H124.313L122.558 37.3143H125.496C127.204 37.3143 128.559 36.9599 129.559 36.2436C130.559 35.5299 131.093 34.689 131.162 33.7234Z" fill="#3B3B3A"/>
</svg>
