<?xml version="1.0" encoding="utf-8"?>
<!-- Generator: Adobe Illustrator 24.0.0, SVG Export Plug-In . SVG Version: 6.00 Build 0)  -->
<svg version="1.1" id="Слой_1" xmlns="http://www.w3.org/2000/svg" xmlns:xlink="http://www.w3.org/1999/xlink" x="0px" y="0px"
	 viewBox="0 0 595.2755737 841.8897705" style="enable-background:new 0 0 595.2755737 841.8897705;" xml:space="preserve">
<style type="text/css">
	.st0{fill:#1F70B6;}
	.st1{fill:#3B3B3A;}
</style>
<g>
	<path class="st0" d="M261.0005798,420.5316772c1.3106384-4.9612427,4.5536499-9.3988037,8.6109619-12.415802
		c-4.7880554,2.5682678-8.7501526,7.1605835-10.1384583,12.415802c-1.3883362,5.255249,0.1472168,9.8476868,3.5784302,12.4158936
		C260.5882568,429.930603,259.6899109,425.4929504,261.0005798,420.5316772z"/>
</g>
<path class="st0" d="M275.5508423,436.0723572c-8.6004028,0-12.4132385-8.1776123-10.4318237-15.5723572
	c2.0099182-7.5010681,10.1766357-15.5723877,18.7770386-15.5723877c0.1231079,0,0.242981,0.0064697,0.3646545,0.0092773
	c-0.6548462-0.0895996-1.3322754-0.1405029-2.035614-0.1405029c-8.6728821,0-17.5874939,7.0307617-19.911377,15.7036133
	s2.8229675,15.7036133,11.4958191,15.7036133c0.7034302,0,1.4082336-0.0509338,2.1112061-0.140564
	C275.7974548,436.0658875,275.6740723,436.0723572,275.5508423,436.0723572z"/>
<g>
	<path class="st0" d="M286.9283142,413.6404724c1.6158447-1.6978149,5.0869751-4.2658081,5.0869751-4.2658081
		s-0.0050659-0.2609863-0.4154663-1.1148682s-1.7162476-1.7827148-1.7162476-1.7827148s-0.1942749,0.2496948-0.8391113,1.1529541
		c-0.6447754,0.9032593-1.6123657,2.585144-2.4920654,4.2693481c-0.2317505,0.4437256-0.5709229,1.0664673-0.9434814,1.7410889
		H286.9283142z"/>
	<path class="st0" d="M284.526947,413.6404724c0.1403198-0.2608032,0.2803955-0.5161743,0.4174805-0.7592163
		c1.1094971-1.967041,3.8889771-5.2875977,3.8889771-5.2875977s-0.0900879-0.2258911-0.7922363-0.8455811
		c-0.7020874-0.6196899-2.3546143-1.03302-2.3546143-1.03302s-0.119751,0.2766113-0.4927979,1.2594604
		c-0.3730469,0.9829102-0.8267212,2.7423706-1.1887817,4.4771118c-0.1126709,0.539978-0.2984619,1.3413086-0.5009155,2.1888428
		H284.526947z"/>
	<path class="st0" d="M281.2868958,413.9346619c0.3324585-0.1037598,0.6746826-0.1779785,1.0255737-0.2250977
		c0.0748901-0.3125,0.1517334-0.6203003,0.2295532-0.9121704c0.5472412-2.0514526,2.4091187-5.7729492,2.4091187-5.7729492
		s-0.1622925-0.173645-1.0782471-0.5200806c-0.9158936-0.3464966-2.7523804-0.2399902-2.7523804-0.2399902
		s-0.0394287,0.2781372-0.1251831,1.2514648c-0.0858154,0.9733887-0.0177002,2.6547241,0.1376953,4.288269
		C281.1825256,412.3244934,281.2364197,413.1083679,281.2868958,413.9346619z"/>
	<path class="st0" d="M278.2743225,412.9850769c0.249939,0.4814453,0.6137085,1.2409668,0.9799194,2.0218506
		c0.2809448-0.2228394,0.5773315-0.4249878,0.8926392-0.59729c-0.0333862-0.3431396-0.062439-0.6835938-0.0827637-1.0058594
		c-0.1229858-1.9474487,0.5524292-5.7525635,0.5524292-5.7525635s-0.2260132-0.0994873-1.2890625-0.1126099
		c-1.0629883-0.0131836-2.925415,0.6541138-2.925415,0.6541138s0.0526123,0.2531738,0.2906494,1.1227417
		C276.9307556,410.1850891,277.5654602,411.6194763,278.2743225,412.9850769z"/>
	<path class="st0" d="M277.7272644,416.7955017c0.1560059-0.270752,0.3293457-0.5265503,0.5219727-0.7687378
		c-0.2230835-0.4107056-0.4417114-0.8295898-0.6296997-1.2221069c-0.7871704-1.6436157-1.3789063-5.1445923-1.3789063-5.1445923
		s-0.2672729-0.0144653-1.3703003,0.3103027c-1.1029663,0.3248291-2.8014526,1.4903564-2.8014526,1.4903564
		s0.1401367,0.2020264,0.6809082,0.8780518c0.5407104,0.6759644,1.6828003,1.7144775,2.8782349,2.670105
		C276.1374207,415.4161072,276.9555359,416.120636,277.7272644,416.7955017z"/>
	<path class="st0" d="M277.1007996,418.243988c0.0287476-0.1047974,0.0767822-0.1995239,0.1106567-0.3018188
		c-0.5115967-0.3939209-1.0480347-0.8221436-1.5061646-1.2250366c-1.3526611-1.1895752-3.1118774-4.0551147-3.1118774-4.0551147
		s-0.2811279,0.0691528-1.3152466,0.6890869c-1.0340576,0.619873-2.4083862,2.1534424-2.4083862,2.1534424
		s0.2111206,0.1329346,0.9918213,0.5558472s2.302002,0.977356,3.8513184,1.4434204
		c0.7771606,0.2337646,2.1321411,0.6953125,3.289978,1.0974121L277.1007996,418.243988z"/>
	<path class="st0" d="M276.6845398,419.7625427c-0.7843628-0.2238159-1.6813965-0.4956665-2.4355469-0.7667847
		c-1.7780151-0.6392212-4.510498-2.6244507-4.510498-2.6244507s-0.2687988,0.144104-1.1410522,0.9938965
		c-0.8723145,0.8497925-1.805603,2.6003418-1.805603,2.6003418s0.2607422,0.0536499,1.2030029,0.1918335
		c0.9422607,0.1381226,2.692627,0.1713867,4.4437256,0.1188965c0.9589233-0.0287476,2.7147217-0.0244751,4.1091919-0.0147705
		L276.6845398,419.7625427z"/>
	<path class="st0" d="M276.2565613,421.3236389c-0.8826904,0.0501709-1.8951416,0.0936279-2.7611694,0.0936279
		c-2.0514526,0-5.5389404-0.8692627-5.5389404-0.8692627s-0.2297974,0.2086182-0.8476563,1.2169189
		c-0.6179199,1.0083618-0.9980469,2.8164063-0.9980469,2.8164063s0.2874756-0.034729,1.3076172-0.2086182
		c1.0201416-0.1738281,2.8405762-0.6904297,4.6331787-1.2814941c0.9408569-0.3102417,2.6477051-0.8220215,4.0602417-1.2392578
		L276.2565613,421.3236389z"/>
	<path class="st0" d="M275.7082214,423.3240662l0.0792236-0.2890625c-0.7522583,0.2645874-1.5563354,0.536499-2.2731323,0.7546387
		c-2.1201782,0.6453247-6.0177002,0.9904785-6.0177002,0.9904785s-0.1671143,0.2527466-0.4657593,1.3192749
		s-0.0819702,2.75-0.0819702,2.75s0.2854004-0.1204834,1.2811279-0.5917969
		c0.9957275-0.4712524,2.7030029-1.4907227,4.3564453-2.5658569c0.7054443-0.4587402,1.890564-1.1928711,3.0181885-1.8840942
		C275.6306458,423.6459656,275.6641541,423.4845276,275.7082214,423.3240662z"/>
	<path class="st0" d="M275.5777893,424.9891052c-0.4047852,0.267334-0.809021,0.5286255-1.1893921,0.765564
		c-1.972168,1.2282715-5.8828125,2.7597046-5.8828125,2.7597046s-0.0870361,0.2711792-0.0339355,1.2869873
		c0.0530396,1.0158081,0.8479004,2.4014893,0.8479004,2.4014893s0.2540283-0.194397,1.12323-0.9165649
		s2.2877808-2.1430054,3.6317749-3.5949097c0.4136963-0.4468994,1.0373535-1.0971069,1.7019653-1.7826538
		C275.6766052,425.6098328,275.6116638,425.3018494,275.5777893,424.9891052z"/>
	<path class="st0" d="M276.4611511,427.2049255c-0.0827026-0.1084595-0.1552124-0.2219849-0.2269287-0.3357544
		c-0.1359253,0.1433716-0.270813,0.284668-0.4022217,0.4197998c-1.6311035,1.6768188-5.1655884,4.2171631-5.1655884,4.2171631
		s0.000061,0.2622681,0.3922119,1.1273804c0.3920898,0.8651123,1.6738281,1.8214111,1.6738281,1.8214111
		s0.1981201-0.2473755,0.8569336-1.1433105c0.6588135-0.8959961,1.6536865-2.5684204,2.5610962-4.244751
		c0.1942139-0.3587646,0.4626465-0.8371582,0.7614136-1.3627319
		C276.7522278,427.5491028,276.5990295,427.3857117,276.4611511,427.2049255z"/>
	<path class="st0" d="M277.7226868,428.3271179c-1.21875,1.9713745-3.8390503,5.006958-3.8390503,5.006958
		s0.0848389,0.2288818,0.7698364,0.8657227s2.3195801,1.085083,2.3195801,1.085083s0.125-0.2755737,0.5169678-1.2561035
		c0.3919067-0.9804688,0.8806152-2.7399292,1.2775879-4.4764404c0.0471191-0.2061768,0.1063232-0.4524536,0.1728516-0.7227173
		C278.5089417,428.7249451,278.1007996,428.5531921,277.7226868,428.3271179z"/>
	<path class="st0" d="M281.7164001,428.9578552h-1.6359253c-0.6882935,2.0939331-2.1077881,5.0123291-2.1077881,5.0123291
		s0.1652832,0.1708374,1.0891724,0.5041504s2.7651367,0.2032471,2.7651367,0.2032471s0.0356445-0.2776489,0.1081543-1.2486572
		c0.0724487-0.9710083-0.0193481-2.6454468-0.1981201-4.2711182
		C281.7303162,429.0968933,281.7232971,429.0256653,281.7164001,428.9578552z"/>
	<path class="st0" d="M285.1407776,428.9578552h-2.3440552c-0.083313,1.9475708-0.4608765,4.3042603-0.4608765,4.3042603
		s0.2287598,0.0952148,1.2966309,0.0905762c1.0678101-0.0045776,2.9263916-0.6998901,2.9263916-0.6998901
		s-0.057312-0.2510986-0.3119507-1.1127319C286.0579529,430.9004822,285.6428528,429.953949,285.1407776,428.9578552z"/>
	<path class="st0" d="M294.4211121,411.2034607c-0.0488281-1.0170288-0.8371582-2.4072266-0.8371582-2.4072266
		s-0.2545776,0.1936646-1.1258545,0.913208c-0.8712158,0.7196045-2.2941895,2.1364136-3.6428223,3.5846558
		c-0.0971069,0.104248-0.208313,0.2221069-0.3262329,0.3463745h3.1514893c1.4634399-0.65271,2.741394-1.1488037,2.741394-1.1488037
		S294.4699402,412.2205505,294.4211121,411.2034607z"/>
	<path class="st0" d="M295.9189148,413.6217346c0.0115967-0.8098145-0.0930176-1.5516357-0.0930176-1.5516357
		s-0.2846069,0.1240234-1.2769165,0.6074829c-0.4429932,0.2158813-1.0353394,0.5505371-1.692688,0.9441528H295.9189148z"/>
	<path class="st0" d="M287.8894958,428.9134216l-0.0123291,0.0444336h-1.7358398
		c0.3024292,1.2745361,0.4879761,2.3990479,0.4879761,2.3990479s0.2669678,0.0153809,1.3701172-0.3058472
		c1.1032104-0.321167,2.8045044-1.4818115,2.8045044-1.4818115s-0.1217651-0.1729126-0.500061-0.6558228H287.8894958z"/>
</g>
<g>
	<path class="st1" d="M320.615448,415.3738708h1.7666016l-0.0888672,0.3300781h-1.3769531l-0.2568359,0.9609375h1.1611328
		l-0.0888672,0.3300781h-1.1611328l-0.2988281,1.1152344h1.4228516l-0.0878906,0.3300781h-1.8125L320.615448,415.3738708z"/>
	<path class="st1" d="M323.0783386,415.3738708h0.4023438l0.5927734,1.9277344l0.1611328,0.6347656h0.0185547
		c0.0634766-0.3095703,0.125-0.6542969,0.2109375-0.9746094l0.4257813-1.5878906h0.3701172l-0.8212891,3.0664063h-0.4023438
		l-0.5927734-1.9296875l-0.1611328-0.6328125h-0.0185547c-0.0634766,0.3095703-0.1210938,0.6376953-0.2070313,0.9580078
		l-0.4296875,1.6044922h-0.3701172L323.0783386,415.3738708z"/>
	<path class="st1" d="M325.5138855,416.9090271c0.2646484-0.9882813,1.0195313-1.5908203,1.8320313-1.5908203
		c0.4248047,0,0.6523438,0.1923828,0.7832031,0.3779297l-0.2822266,0.2539063
		c-0.1123047-0.1601563-0.2744141-0.2890625-0.5820313-0.2890625c-0.6181641,0-1.1416016,0.4746094-1.3457031,1.2382813
		c-0.2070313,0.7714844,0.0273438,1.2539063,0.6816406,1.2539063c0.2197266,0,0.4482422-0.0654297,0.6005859-0.1796875
		l0.2138672-0.7988281h-0.6494141l0.0859375-0.3232422h1.0048828l-0.3447266,1.2890625
		c-0.2529297,0.2060547-0.6279297,0.3554688-1.0400391,0.3554688
		C325.6632996,418.4959412,325.2463074,417.9051208,325.5138855,416.9090271z"/>
	<path class="st1" d="M328.9865417,415.3738708h0.3896484l-0.8212891,3.0664063h-0.3896484L328.9865417,415.3738708z"/>
	<path class="st1" d="M330.2160339,415.3738708h0.4023438l0.5927734,1.9277344l0.1611328,0.6347656h0.0185547
		c0.0634766-0.3095703,0.125-0.6542969,0.2109375-0.9746094l0.4257813-1.5878906h0.3701172l-0.8212891,3.0664063h-0.4023438
		l-0.5927734-1.9296875l-0.1611328-0.6328125h-0.0185547c-0.0634766,0.3095703-0.1210938,0.6376953-0.2070313,0.9580078
		l-0.4296875,1.6044922h-0.3701172L330.2160339,415.3738708z"/>
	<path class="st1" d="M333.240448,415.3738708h1.7666016l-0.0888672,0.3300781h-1.3769531l-0.2568359,0.9609375h1.1611328
		l-0.0888672,0.3300781h-1.1611328l-0.2988281,1.1152344h1.4228516l-0.0878906,0.3300781h-1.8125L333.240448,415.3738708z"/>
	<path class="st1" d="M318.5236511,422.3514099l0.3046875-0.2675781c0.1591797,0.2285156,0.4257813,0.3798828,0.7441406,0.3798828
		c0.4023438,0,0.6943359-0.2011719,0.7744141-0.4990234c0.0839844-0.3134766-0.1113281-0.4121094-0.3681641-0.5390625
		l-0.3867188-0.1943359c-0.2539063-0.1220703-0.5302734-0.3378906-0.4101563-0.7890625
		c0.1259766-0.46875,0.6269531-0.8144531,1.1835938-0.8144531c0.3632813,0,0.6455078,0.1582031,0.8007813,0.3798828l-0.2744141,0.25
		c-0.1396484-0.1767578-0.3349609-0.2871094-0.6181641-0.2871094c-0.34375,0-0.6181641,0.1738281-0.6914063,0.4482422
		c-0.0791016,0.2949219,0.1591797,0.4052734,0.3720703,0.5068359l0.3857422,0.1894531
		c0.3134766,0.1523438,0.5332031,0.3632813,0.4111328,0.8203125c-0.1298828,0.4833984-0.6328125,0.8701172-1.2773438,0.8701172
		C319.0441589,422.8055115,318.7170105,422.6307068,318.5236511,422.3514099z"/>
	<path class="st1" d="M321.4611511,421.4842224l0.4824219-1.8007813h0.3896484l-0.484375,1.8115234
		c-0.1982422,0.7363281,0.0517578,0.96875,0.4521484,0.96875c0.4052734,0,0.7880859-0.2324219,0.9863281-0.96875l0.484375-1.8115234
		h0.3730469l-0.4824219,1.8007813c-0.2636719,0.984375-0.828125,1.3212891-1.453125,1.3212891
		C321.5832214,422.8055115,321.1974792,422.4685974,321.4611511,421.4842224z"/>
	<path class="st1" d="M324.9709167,419.6834412h0.875c0.6865234,0,1.0888672,0.2314453,0.9091797,0.9033203
		c-0.1738281,0.6455078-0.7148438,0.9462891-1.3857422,0.9462891h-0.5039063l-0.3261719,1.2167969h-0.3896484
		L324.9709167,419.6834412z M325.4054871,421.2176208c0.5361328,0,0.8427734-0.1943359,0.9599609-0.6308594
		c0.1181641-0.4423828-0.1142578-0.5859375-0.6523438-0.5859375h-0.4365234l-0.3261719,1.2167969H325.4054871z"/>
	<path class="st1" d="M327.6164246,419.6834412h0.875c0.6865234,0,1.0888672,0.2314453,0.9091797,0.9033203
		c-0.1738281,0.6455078-0.7148438,0.9462891-1.3857422,0.9462891h-0.5039063l-0.3261719,1.2167969h-0.3896484
		L327.6164246,419.6834412z M328.0509949,421.2176208c0.5361328,0,0.8427734-0.1943359,0.9599609-0.6308594
		c0.1181641-0.4423828-0.1142578-0.5859375-0.6523438-0.5859375h-0.4365234l-0.3261719,1.2167969H328.0509949z"/>
	<path class="st1" d="M329.6769714,421.2059021c0.2626953-0.9814453,0.9628906-1.578125,1.7324219-1.578125
		s1.1494141,0.5976563,0.8867188,1.578125c-0.2636719,0.9824219-0.96875,1.5996094-1.7382813,1.5996094
		S329.4132996,422.188324,329.6769714,421.2059021z M331.8937683,421.2059021
		c0.2041016-0.7636719-0.0292969-1.2353516-0.5761719-1.2353516s-1.0341797,0.4716797-1.2382813,1.2353516
		c-0.2050781,0.7646484,0.0234375,1.2578125,0.5703125,1.2578125S331.6886902,421.9705505,331.8937683,421.2059021z"/>
	<path class="st1" d="M333.365448,419.6834412h0.9599609c0.6240234,0,1.0126953,0.2246094,0.8417969,0.8632813
		c-0.1640625,0.6123047-0.6914063,0.9072266-1.3154297,0.9072266h-0.5703125l-0.3476563,1.2958984h-0.3896484
		L333.365448,419.6834412z M333.8800964,421.1375427c0.4775391,0,0.7910156-0.1933594,0.8974609-0.5908203
		c0.1074219-0.4033203-0.1152344-0.5458984-0.5927734-0.5458984h-0.5136719l-0.3046875,1.1367188H333.8800964z
		 M333.802948,421.3475037l0.359375-0.2021484l0.5048828,1.6044922h-0.4414063L333.802948,421.3475037z"/>
	<path class="st1" d="M336.5099792,420.0135193h-0.9267578l0.0878906-0.3300781h2.2441406l-0.0878906,0.3300781h-0.9267578
		l-0.7333984,2.7363281h-0.390625L336.5099792,420.0135193z"/>
	<path class="st1" d="M318.3058777,423.993988h0.9091797c0.6230469,0,0.9980469,0.2119141,0.8535156,0.75
		c-0.0810547,0.3037109-0.3144531,0.5732422-0.6269531,0.6660156l-0.0048828,0.0195313
		c0.3466797,0.0722656,0.5400391,0.3134766,0.4277344,0.7333984c-0.1621094,0.6025391-0.7177734,0.8974609-1.4003906,0.8974609
		h-0.9794922L318.3058777,423.993988z M318.4894714,426.750824c0.5244141,0,0.8837891-0.1894531,0.9951172-0.6025391
		c0.1005859-0.3779297-0.1494141-0.5498047-0.6855469-0.5498047h-0.5332031l-0.3095703,1.1523438H318.4894714z
		 M318.8000183,425.297699c0.5214844,0,0.7890625-0.1914063,0.8720703-0.5019531
		c0.0957031-0.3583984-0.1142578-0.4931641-0.5878906-0.4931641h-0.4716797l-0.2666016,0.9951172H318.8000183z"/>
	<path class="st1" d="M321.6838074,423.993988h0.4404297l0.2148438,3.0664063h-0.4130859l-0.0751953-1.7128906
		c-0.0195313-0.3427734-0.0263672-0.6796875-0.0302734-1.0332031h-0.0185547
		c-0.1904297,0.3554688-0.3789063,0.6904297-0.5800781,1.0332031l-0.9990234,1.7128906h-0.3964844L321.6838074,423.993988z
		 M320.7043152,425.8152771h1.4111328l-0.0830078,0.3115234h-1.4111328L320.7043152,425.8152771z"/>
	<path class="st1" d="M323.5783386,423.993988h0.3896484l-0.7333984,2.7363281h1.3378906l-0.0878906,0.3300781h-1.7275391
		L323.5783386,423.993988z"/>
	<path class="st1" d="M325.8381042,424.3240662h-0.9267578l0.0888672-0.3300781h2.2441406l-0.0888672,0.3300781h-0.9277344
		l-0.7324219,2.7363281h-0.3896484L325.8381042,424.3240662z"/>
	<path class="st1" d="M327.7941589,423.993988h0.3896484l-0.8212891,3.0664063h-0.3896484L327.7941589,423.993988z"/>
	<path class="st1" d="M328.4347839,425.5291443c0.2646484-0.9882813,1.0078125-1.5908203,1.7851563-1.5908203
		c0.3720703,0,0.6162109,0.1806641,0.7412109,0.3779297l-0.28125,0.2539063
		c-0.1152344-0.171875-0.2861328-0.2900391-0.5449219-0.2900391c-0.5791016,0-1.0908203,0.4755859-1.2958984,1.2382813
		c-0.2060547,0.7724609,0.0322266,1.2548828,0.6132813,1.2548828c0.2919922,0,0.5488281-0.1269531,0.8027344-0.34375
		l0.1484375,0.2441406c-0.3183594,0.28125-0.6611328,0.4423828-1.0595703,0.4423828
		C328.5802917,427.1160583,328.1672058,426.525238,328.4347839,425.5291443z"/>
</g>
<g>
	<path class="st1" d="M290.6364441,414.6407471l-0.8517151,3.1386719h-5.3084717
		c-0.719574,0-1.3511047,0.479187-1.5448608,1.1721802l-0.2097168,0.7501221h6.240448l-0.82724,3.0439453h-6.2394714
		l-0.2310791,0.8453064c-0.1690979,0.6185608,0.2964783,1.2285461,0.9377441,1.2285461h5.384613l-0.8706665,3.1386719h-7.1127625
		c-2.2802734,0-3.9350586-2.1701355-3.331543-4.3690796l1.3943176-5.0802917
		c0.6269836-2.2845154,2.7037354-3.8680725,5.0727234-3.8680725H290.6364441z"/>
</g>
<path class="st1" d="M298.6441345,414.4238586c-0.0757446-0.0007324-0.1564941,0-0.2318726,0
	c-2.4198608,0-4.3143921,0.5291748-5.6825562,1.6083374c-1.1702271,0.9191895-1.8044434,2.060791-1.9018555,3.4268799
	c-0.0563354,0.7806396,0.1118164,1.4168091,0.5056763,1.9075928c0.3929443,0.4908447,1.2651978,0.9094238,2.6184082,1.2567749
	l1.4274292,0.3532715c0.3421021,0.0751343,0.5791626,0.149292,0.7099609,0.2244263
	c0.2149658,0.1239014,0.3129272,0.3044434,0.2960815,0.5395508c-0.0203247,0.2859497-0.1850586,0.5151978-0.4962158,0.6889038
	c-0.3983765,0.2156372-1.038269,0.3242188-1.9074097,0.3317871v0.0023193h-0.0708008
	c-0.0067139,0-0.0120239,0.0006104-0.0187378,0.0006104c-0.0039673,0-0.0082397-0.0006104-0.012207-0.0006104h-4.4751587
	l-0.8262939,3.1289063h4.5404053c0.2601318,0.0076294,0.5297241,0,0.8096313,0c1.0050659,0,1.9301147-0.0927124,2.776123-0.2791138
	c1.2858276-0.2858887,2.3197021-0.7698364,3.1010742-1.4519043c0.4638672-0.4108276,0.8672485-0.9338379,1.2114868-1.5739136
	c0.3433228-0.6390991,0.5385742-1.281189,0.585083-1.927124c0.0724487-1.0177002-0.3120728-1.8051758-1.1531982-2.3642578
	c-0.4970703-0.3347168-1.2167358-0.5961914-2.159729-0.7816162c-0.2696533-0.0497437-0.6799316-0.1239014-1.2310181-0.2244263
	c-0.7346802-0.1483154-1.0878906-0.4088135-1.0615234-0.7815552c0.0286255-0.3971558,0.3210449-0.6703491,0.8773193-0.8186646
	c0.3358154-0.0942993,0.7890625-0.1404419,1.3419189-0.1453857v-0.005188h4.057251l0.5906982-2.1312256l0.2895508-0.984375
	H298.6441345z"/>
<path class="st1" d="M317.3534851,417.6278687c-0.0614624,0.8504639-0.4253845,1.6072388-1.0953064,2.2742615
	c-0.6686401,0.6650085-1.4849243,1.0867615-2.4494019,1.2642212l-0.024353,0.0767822
	c0.7617188,0,1.3500671,0.2721863,1.7676392,0.8175659c0.371582,0.4825745,0.5355225,1.0339355,0.4909058,1.6550903
	c-0.0781555,1.0907593-0.602417,2.0349426-1.5725098,2.8345642c-1.1330872,0.9382324-2.6063538,1.4078369-4.4189758,1.4078369
	h-8.3522034l3.6550293-13.3174438h8.2564697c1.3569641,0,2.3605347,0.3240356,3.0124817,0.9701233
	C317.1675415,416.1572266,317.4103088,416.8282471,317.3534851,417.6278687z M310.8887939,423.6968384
	c0.0145874-0.2033997-0.0227051-0.3928223-0.1120911-0.5703125c-0.1333008-0.2542419-0.3087463-0.415741-0.5264282-0.4855347
	c-0.2161865-0.0697937-0.5090027-0.1047058-0.8768921-0.1047058h-1.3509827l-0.7459412,2.7209167h1.2931519
	c0.7617493,0,1.3507385-0.1784668,1.7702026-0.5334167C310.677124,424.4316711,310.8606567,424.0896912,310.8887939,423.6968384z
	 M312.25354,418.4454346c0.0189819-0.2662048-0.0354004-0.4805603-0.1633911-0.6460876
	c-0.2312622-0.3040771-0.67099-0.4566345-1.3180542-0.4566345h-1.3121033l-0.716156,2.5673828h1.1984558
	c0.6969299,0,1.2495728-0.1445618,1.657196-0.4367065C312.0076904,419.182251,312.2254944,418.8392639,312.25354,418.4454346z"/>
</svg>
