<svg width="16" height="12" viewBox="0 0 16 12" fill="none" xmlns="http://www.w3.org/2000/svg">
<path fill-rule="evenodd" clip-rule="evenodd" d="M2 0.999954H14C14.071 0.999954 14.1403 1.00736 14.2071 1.02143L8.92049 5.54395C8.35913 6.02418 7.53169 6.02418 6.97032 5.54395L1.7089 1.04298C1.80101 1.015 1.89875 0.999954 2 0.999954ZM1.02555 1.77438C1.00883 1.84688 1 1.92239 1 1.99996V9.56622C1 9.66943 1.01563 9.76898 1.04466 9.86264L5.04404 5.86327L5.75114 6.57037L1.77965 10.5419C1.85055 10.5578 1.92429 10.5662 2 10.5662H14C14.1032 10.5662 14.2028 10.5506 14.2964 10.5216L10.3452 6.57037L11.0523 5.86327L14.9756 9.78656C14.9916 9.71567 15 9.64193 15 9.56622V1.99995C15 1.89495 14.9838 1.79373 14.9538 1.69864L9.57055 6.30384C8.63494 7.10422 7.25587 7.10422 6.32027 6.30384L1.02555 1.77438ZM0 1.99996C0 0.895387 0.895431 -4.57764e-05 2 -4.57764e-05H14C15.1046 -4.57764e-05 16 0.895385 16 1.99995V9.56622C16 10.6708 15.1046 11.5662 14 11.5662H2C0.895431 11.5662 0 10.6708 0 9.56622V1.99996Z" fill="#828282"/>
</svg>
