<svg width="16" height="16" viewBox="0 0 16 16" fill="none" xmlns="http://www.w3.org/2000/svg">
<path d="M11.4036 15.0456L11.3855 15.0455C11.3661 15.0454 11.3469 15.0426 11.3282 15.0376C11.2942 15.0283 11.2476 15.018 11.1936 15.006C11.0351 14.9707 10.8181 14.9225 10.6112 14.834C8.31566 13.8515 6.33436 12.5439 4.72234 10.9475C3.07544 9.31668 1.76948 7.34047 0.840598 5.07383C0.519284 4.28986 0.505916 3.53622 0.801936 2.89438C1.10826 2.23013 1.72258 1.72778 2.57864 1.44173C2.91845 1.3281 3.24971 1.32917 3.56499 1.44441C4.30966 1.7165 6.07704 4.11212 6.12057 4.9083C6.159 5.60942 5.61638 5.97555 5.32486 6.17221C4.8115 6.51883 4.71694 6.94473 5.00864 7.59627C5.61206 8.94433 6.66728 9.96558 8.14504 10.6317C8.32818 10.7143 8.49592 10.7562 8.64355 10.7562C8.89321 10.7562 9.09579 10.6339 9.26277 10.3824C9.63967 9.81522 10.0963 9.52757 10.6201 9.52757C11.009 9.52757 11.4206 9.68289 11.8784 10.0025C11.9523 10.0541 12.0265 10.1055 12.1006 10.1568C12.458 10.4045 12.8276 10.6607 13.175 10.9385C13.2405 10.991 13.3104 11.0441 13.3781 11.0955C13.8898 11.4842 14.5267 11.9681 14.1779 12.947C13.7797 14.065 12.4833 15.0456 11.4036 15.0456ZM11.4036 15.0456C11.4036 15.0456 11.4035 15.0456 11.4036 15.0456Z" stroke="#0079C5"/>
<path d="M15.0248 7.49621C15.0248 3.88324 12.0959 0.954346 8.48291 0.954346" stroke="#0079C5" stroke-linecap="round"/>
<path d="M13.0866 7.58286C13.0866 5.04029 11.0255 2.97913 8.48291 2.97913" stroke="#0079C5" stroke-linecap="round"/>
<path d="M10.7848 7.4962C10.7848 6.22492 9.7542 5.19434 8.48291 5.19434" stroke="#0079C5" stroke-linecap="round"/>
</svg>
