<svg width="16" height="16" viewBox="0 0 16 16" fill="none" xmlns="http://www.w3.org/2000/svg">
<path d="M13.4385 6.81925C13.4578 4.55489 11.5293 2.47906 9.13944 2.19201C9.09191 2.18638 9.04013 2.1778 8.98532 2.16872C8.86701 2.14912 8.74466 2.12897 8.62121 2.12897C8.1314 2.12897 8.00047 2.47303 7.96601 2.67822C7.93249 2.87774 7.96446 3.04528 8.06088 3.17641C8.22308 3.39697 8.50848 3.43612 8.73772 3.4675C8.80491 3.47677 8.8683 3.4854 8.92137 3.49732C11.0685 3.9771 11.7915 4.73141 12.1448 6.8603C12.1535 6.91232 12.1574 6.97642 12.1615 7.0444C12.1769 7.29888 12.209 7.82834 12.7782 7.82834H12.7783C12.8257 7.82834 12.8766 7.82425 12.9296 7.81617C13.4597 7.73561 13.4431 7.25165 13.4351 7.01911C13.4329 6.95362 13.4307 6.89167 13.4362 6.85048C13.4377 6.8401 13.4385 6.82968 13.4385 6.81925Z" fill="#828282"/>
<path d="M8.48151 1.3611C8.54511 1.36569 8.60531 1.37008 8.65544 1.37776C12.1813 1.91999 13.8028 3.59051 14.2521 7.14392C14.2597 7.20432 14.2609 7.27799 14.2622 7.356C14.2667 7.63363 14.2759 8.21116 14.8961 8.22313L14.9154 8.22333C15.1099 8.22333 15.2646 8.16468 15.3753 8.04886C15.5684 7.8469 15.5549 7.54689 15.5441 7.30578C15.5414 7.24662 15.5389 7.19091 15.5395 7.14213C15.5844 3.50791 12.4385 0.21241 8.80757 0.0898595C8.7925 0.0893607 8.77814 0.0901588 8.76362 0.0922038C8.75649 0.0932512 8.74327 0.094548 8.72063 0.094548C8.68442 0.094548 8.63988 0.0914057 8.59264 0.0882135C8.53553 0.084323 8.47079 0.079834 8.40515 0.079834C7.82691 0.079834 7.71698 0.49083 7.70292 0.735831C7.6705 1.30205 8.21826 1.3419 8.48151 1.3611Z" fill="#828282"/>
<path d="M11.9237 15L11.9056 14.9999C11.8863 14.9997 11.867 14.997 11.8483 14.9919C11.8144 14.9827 11.7677 14.9724 11.7137 14.9603C11.5553 14.9251 11.3382 14.8768 11.1313 14.7883C8.83581 13.8059 6.8545 12.4982 5.24248 10.9018C3.59558 9.27104 2.28962 7.29483 1.36074 5.02819C1.03943 4.24422 1.02606 3.49058 1.32208 2.84874C1.6284 2.18449 2.24272 1.68214 3.09878 1.39609C3.43859 1.28246 3.76985 1.28353 4.08514 1.39878C4.8298 1.67087 6.59718 4.06648 6.64071 4.86266C6.67914 5.56378 6.13652 5.92991 5.84501 6.12657C5.33164 6.47319 5.23708 6.89909 5.52878 7.55063C6.1322 8.89869 7.18742 9.91995 8.66518 10.586C8.84832 10.6687 9.01607 10.7105 9.16369 10.7105C9.41335 10.7105 9.61594 10.5883 9.78292 10.3368C10.1598 9.76958 10.6165 9.48193 11.1402 9.48193C11.5291 9.48193 11.9407 9.63725 12.3985 9.9569C12.4724 10.0084 12.5466 10.0598 12.6208 10.1112C12.9782 10.3589 13.3478 10.615 13.6951 10.8929C13.7606 10.9453 13.8306 10.9985 13.8982 11.0498C14.4099 11.4386 15.0468 11.9225 14.698 12.9014C14.2999 14.0194 13.0034 15 11.9237 15ZM11.9237 15C11.9238 15 11.9236 15 11.9237 15Z" stroke="#828282"/>
<path d="M9.01061 4.24734C8.80577 4.25253 8.37946 4.2631 8.22987 4.69729C8.15989 4.90019 8.16827 5.07636 8.25481 5.22091C8.3818 5.43299 8.62511 5.49798 8.84642 5.53365C9.64901 5.66243 10.0612 6.10625 10.1436 6.93023C10.182 7.31444 10.4407 7.58274 10.7729 7.58274C10.7974 7.58274 10.8225 7.58129 10.8475 7.57825C11.247 7.53072 11.4407 7.23718 11.4232 6.70588C11.4296 6.15139 11.1394 5.52187 10.6459 5.02045C10.1506 4.51748 9.55364 4.23422 9.01061 4.24734Z" fill="#828282"/>
</svg>
