<svg width="71" height="100" viewBox="0 0 71 100" fill="none" xmlns="http://www.w3.org/2000/svg">
<path d="M19.3168 56.2059C18.7724 57.7672 18.3447 59.2504 17.7615 60.6556C17.3726 61.5533 16.6728 61.5923 15.9729 60.9288C15.3119 60.3043 14.6508 59.6797 14.0287 59.0552C16.0506 55.7375 13.9121 53.3175 10.6459 51.5611C7.302 49.7656 3.41372 48.6727 1.15852 45.2769C0.497508 44.2231 0.264211 42.8179 0.10868 41.5299C-0.280148 38.3683 0.303094 35.4409 3.02489 33.4112C5.82445 31.3035 8.85731 30.6009 12.7067 32.0451C12.7067 30.4448 12.7067 28.9616 12.7067 27.5174C12.7067 25.4097 13.4066 24.7461 15.5063 24.5119C16.5172 24.3948 17.5282 24.0045 18.5002 23.6142C20.6777 22.7945 22.8162 21.8968 24.9548 20.999C26.0435 20.5307 27.1322 20.0232 28.2209 19.5939C29.2319 19.1645 29.3097 18.6571 28.4931 17.9545C25.3436 15.2613 24.566 11.7094 25.3047 7.92332C25.6547 6.20591 26.9767 4.6056 28.1043 3.16141C29.543 1.24884 31.6815 0.429172 33.9756 0.116916C37.3195 -0.351468 40.1191 0.5853 42.6465 2.96625C44.3573 4.56656 45.2127 6.47913 45.6793 8.58686C46.4181 11.9436 45.4071 14.871 43.1131 17.33C41.7133 18.8132 42.0243 19.6329 44.5128 20.6087C45.446 20.96 46.3792 21.3113 47.2735 21.6626C49.5287 22.5603 51.745 23.4971 54.0003 24.3558C54.5446 24.5509 55.1667 24.5119 55.7111 24.59C57.5775 24.8242 58.0052 25.2926 58.0052 27.1271C58.0052 28.5712 58.0052 29.9764 58.0052 31.5377C59.1717 31.4596 60.1826 31.3425 61.1547 31.2645C66.4039 30.9912 70.3699 34.8554 70.9143 39.9296C71.2253 42.6618 69.0479 46.565 66.5205 47.8531C63.9931 49.1411 61.4657 50.4682 58.9384 51.7953C56.6054 53.0443 55.5556 55.2691 55.9833 58.1965C56.1388 59.2894 54.5057 61.4362 53.4948 61.202C52.9115 61.0849 52.3672 60.1872 52.095 59.5627C51.8228 58.8601 51.9395 58.0014 51.8617 57.0646C51.2007 57.2598 50.7341 57.3769 50.5397 57.4549C48.5567 61.9436 45.6016 65.3784 42.3354 68.8913C43.1908 69.5939 44.0074 70.2965 44.8628 70.999C46.0682 71.9748 47.4679 72.7945 48.3622 74.0045C49.2177 75.0974 49.6454 76.5416 50.0342 77.8687C50.2675 78.7274 50.4619 79.0787 51.3562 79.0006C52.4838 78.9225 53.6114 79.0396 54.739 78.9225C55.5944 78.8445 55.9444 79.1177 55.9444 79.9764C55.9444 86.2996 55.9444 92.6618 55.9444 98.985C55.9444 99.9217 55.4 99.9998 54.7001 99.9998C51.5506 99.9998 48.4011 99.9998 45.2516 99.9998C35.8031 99.9998 26.3157 99.9998 16.8672 99.9998C14.6508 99.9998 14.6508 99.9998 14.6508 97.8531C14.6508 92.2324 14.6508 86.5728 14.612 80.9522C14.612 79.508 15.1174 78.8445 16.595 79.0006C17.4893 79.0787 18.4225 79.0787 19.3168 79.0787C20.6388 79.0787 21.4942 78.6493 21.2609 77.088C20.9499 74.8632 22.3108 73.8093 24.0605 72.7945C25.4992 71.9748 26.7434 70.7258 27.9876 69.5939C28.1432 69.4378 28.1043 68.7352 27.871 68.501C24.7604 64.9881 22.0386 61.202 19.8611 57.0256C19.8223 56.7133 19.5112 56.4401 19.3168 56.2059ZM16.9838 28.8835C16.9838 28.9616 16.9061 29.1177 16.9449 29.2738C17.3726 35.2848 18.0725 41.2566 20.25 46.9163C21.3387 49.7266 22.233 52.615 23.6717 55.2691C25.1881 58.0404 27.21 60.5385 28.9597 63.1926C30.7094 65.8078 32.8091 67.6032 36.2308 66.9007C37.0473 66.7445 38.0972 67.0178 38.6804 66.5494C40.0802 65.4955 41.4411 64.2855 42.4521 62.8804C44.0462 60.6556 45.2516 58.1965 46.7292 55.8937C48.3234 53.3566 49.3343 50.5463 50.5008 47.775C52.2505 43.6376 52.7949 39.227 53.8058 34.9725C54.3113 32.9428 54.1169 30.757 54.2335 28.7664C50.9674 27.5174 48.0123 26.4245 45.0572 25.2535C44.6295 25.0974 44.2407 24.7461 43.813 24.5509C42.0243 23.6532 40.1191 22.9897 38.486 21.8577C36.3863 20.4136 34.831 20.3745 32.7313 21.8187C31.0594 22.9506 29.1153 23.7703 27.2489 24.59C25.3825 25.4097 23.4384 26.1122 21.5331 26.8929C20.0556 27.5564 18.6169 28.1809 16.9838 28.8835ZM35.5698 83.3722C30.5539 83.3722 25.538 83.3331 20.5222 83.4112C19.9778 83.4112 18.9668 84.0748 18.9668 84.4651C18.8891 87.9389 18.928 91.4128 18.9668 94.8866C18.9668 95.7844 19.4723 96.1356 20.4444 96.1356C30.4373 96.0966 40.3913 96.0966 50.3841 96.1356C51.8228 96.1356 52.2116 95.5892 52.1728 94.2621C52.095 91.2176 52.095 88.1341 52.1728 85.0896C52.2116 83.7235 51.745 83.3331 50.423 83.3331C45.5238 83.4112 40.5468 83.3722 35.5698 83.3722ZM41.7133 10.4604C41.7133 6.83042 39.0692 4.17624 35.4531 4.17624C31.9537 4.17624 29.3874 7.33784 29.1153 10.2262C28.8431 13.1926 32.6147 16.9007 35.5698 16.8616C38.1749 16.8616 41.9466 13.8952 41.7133 10.4604ZM35.5309 79.0396V79.0787C38.4082 79.0787 41.2856 79.1177 44.2018 79.0396C44.785 79.0396 45.3294 78.6103 45.8737 78.4151C45.6016 77.8296 45.446 77.1271 45.0183 76.7367C43.1908 74.9803 41.2467 73.3019 39.3414 71.5845C38.5249 70.8429 32.7702 70.6868 31.9148 71.3503C31.7593 71.4674 31.6426 71.6626 31.4871 71.8187C30.204 72.8726 28.9597 73.9655 27.6766 75.0193C27.0156 75.5658 26.2379 75.9951 25.7713 76.6587C25.4214 77.1271 25.3436 77.9467 25.4214 78.5712C25.4603 78.7664 26.2768 79.0006 26.7434 79.0396C29.6596 79.0787 32.5758 79.0396 35.5309 79.0396ZM16.9449 50.5463C16.1673 48.0092 15.4285 45.7844 14.8064 43.5205C14.3398 41.725 14.1454 39.8515 13.601 38.0951C13.4066 37.3925 12.6678 36.807 12.0457 36.3386C11.6958 36.0654 11.1125 36.1044 10.6848 35.9483C8.89619 35.2067 6.60211 35.636 5.35786 37.1583C4.85238 37.7438 4.23026 38.4073 4.11361 39.1099C3.60813 42.3105 5.35786 44.8476 8.4296 45.9795C10.8792 46.8773 13.2511 47.8921 15.2341 49.6485C15.6618 49.9608 16.2839 50.1559 16.9449 50.5463ZM54.1558 49.6095C54.2724 49.7656 54.3502 49.8827 54.4668 50.0388C55.0501 49.6876 55.6333 49.3753 56.1777 48.985C56.6443 48.6727 57.072 48.2043 57.5775 47.9311C59.9104 46.6821 62.2823 45.5892 64.5764 44.3011C66.5205 43.1692 67.2982 40.7102 66.5205 38.7976C65.3929 36.1435 62.7489 35.1677 60.7659 35.5189C58.7439 35.8702 57.4997 36.9631 57.1109 39.1489C56.6443 41.8031 55.9444 44.4182 55.2834 47.0334C55.0112 47.9311 54.5446 48.7508 54.1558 49.6095Z" fill="#0079C5"/>
</svg>
