<svg width="95" height="100" viewBox="0 0 95 100" fill="none" xmlns="http://www.w3.org/2000/svg">
<path d="M74.1194 80.7527C70.6234 80.7527 67.1274 80.9048 63.6314 80.6766C60.5914 80.4485 59.7554 81.7412 59.9074 84.5545C60.0594 88.3564 59.9074 92.1582 59.9074 95.9601C59.9074 97.5568 59.6794 99.0015 57.5514 99.0015C55.4234 99.0015 55.2714 97.4808 55.2714 95.884C55.2714 93.6789 55.1954 91.4739 55.2714 89.1928C55.3474 87.3679 54.6634 86.4554 52.6874 86.5315C46.4554 86.6075 40.2234 86.6075 33.9914 86.5315C32.0914 86.5315 31.2554 87.2158 31.3314 89.1167C31.4074 91.5499 31.3314 93.9831 31.2554 96.4163C31.2554 97.7089 30.8754 98.7734 29.4314 98.9255C27.9874 99.0776 26.8474 98.6974 26.6954 97.1006C26.4674 95.4278 25.3274 95.1997 23.9594 95.1997C18.2594 95.1997 12.5594 95.1997 6.85937 95.1236C5.33937 95.1236 4.80737 95.808 4.65537 97.1766C4.42737 98.8495 3.28737 99.1536 1.84337 99.0015C0.323368 98.8494 0.0953676 97.7089 0.0953676 96.4923C0.0953676 96.4163 0.0953676 96.2642 0.0953676 96.1882C-0.208632 90.2573 -0.132633 90.1052 5.79537 90.1052C11.6474 90.1052 17.4234 90.0292 23.2754 90.1813C25.7834 90.2573 26.9234 89.4969 26.8474 86.7596C26.7714 82.3494 26.9234 82.3495 31.1794 82.3495C38.0194 82.3495 44.9354 82.2734 51.7754 82.3495C54.2074 82.4255 55.6514 81.8932 55.3474 79.0799C55.0434 76.4186 56.4874 75.3541 58.9194 75.6582C61.1234 75.9624 61.6554 74.8218 61.5794 72.8448C61.5034 71.02 61.5034 69.2711 61.5794 67.4462C61.8074 63.2642 62.0354 59.3103 57.0954 57.2573C55.1194 56.4209 53.8274 54.0637 53.5994 51.7826C53.0674 45.5476 52.7634 39.2365 53.7514 33.0776C54.5874 27.6789 58.0074 23.725 63.6314 22.8126C70.6994 21.672 77.9954 21.3679 84.9874 22.9647C90.9914 24.3333 94.6394 29.2757 94.7914 35.4347C94.9434 40.225 94.9434 44.9393 94.7914 49.7296C94.6394 53.5315 92.7394 56.573 89.2434 58.3978C87.1914 59.4624 86.3554 60.831 86.5074 63.1882C86.6594 66.2296 86.5834 69.3471 86.5074 72.3886C86.4314 74.4416 87.1154 75.6582 89.3194 75.5822C92.0554 75.4301 92.9674 76.8748 92.8914 79.5361C92.7394 84.9347 92.8154 90.3333 92.8914 95.7319C92.8914 97.4048 92.8914 99.0776 90.5354 99.0015C88.2554 99.0015 88.1794 97.3287 88.1794 95.6559C88.1794 92.0822 88.0274 88.4324 88.2554 84.8587C88.4834 81.7412 87.4954 80.3725 84.1514 80.6766C80.9594 80.9048 77.5394 80.7527 74.1194 80.7527ZM66.3674 56.4969C66.3674 61.8955 66.3674 67.2942 66.3674 72.6928C66.3674 74.1375 65.9874 75.7342 68.4954 75.6582C70.6234 75.5822 71.8394 75.202 71.8394 72.6167C71.6874 67.2942 71.7634 62.0476 71.8394 56.725C71.8394 55.1283 71.5354 53.3794 73.9674 53.3034C76.5514 53.2273 76.3994 55.1283 76.3994 56.8771C76.4754 62.1997 76.4754 67.4462 76.3994 72.7688C76.3234 75.202 77.3874 75.8103 79.6674 75.6582C81.9474 75.4301 82.0994 74.0614 82.0994 72.3886C82.0994 63.9485 81.7954 55.4324 82.2514 46.9923C82.4794 43.5706 79.5914 39.1605 84.5314 36.7273C89.0914 39.3886 85.8234 43.6467 86.7354 47.1444C87.1154 48.6651 86.7354 50.3379 86.8114 51.8587C86.8114 52.619 86.4314 53.7596 87.6474 53.9117C88.6354 54.0637 89.0154 53.0753 89.3954 52.3149C89.6994 51.6306 90.1554 50.9462 90.2314 50.2619C90.4594 44.5591 91.1434 38.8564 89.7754 33.2296C88.7874 29.1997 86.3554 27.4508 82.2514 27.3748C76.9314 27.2988 71.6874 27.2988 66.3674 27.3748C62.3394 27.4508 59.6034 29.5038 58.7674 33.5338C57.6274 39.0845 58.3114 44.7112 58.3874 50.2619C58.3874 50.9462 58.7674 51.7066 59.1474 52.3149C59.5274 53.0753 60.1354 53.9117 61.0474 53.7596C62.1874 53.5315 61.8074 52.3909 61.8074 51.6306C61.8834 47.7527 61.8074 43.7988 61.8074 39.9209C61.8074 38.3241 61.8074 36.5753 64.1634 36.6513C66.5194 36.6513 66.5194 38.2481 66.5194 39.9209C66.3674 45.5476 66.3674 51.0223 66.3674 56.4969Z" fill="#0079C5"/>
<path d="M65.9873 10.2666C65.0753 2.51084 70.1673 -0.0744148 75.1833 0.00162212C81.6433 0.077659 84.6833 3.34724 84.6833 10.3426C84.6833 17.4141 81.4153 21.0638 75.1073 21.0638C68.7233 21.0638 65.9873 17.8703 65.9873 10.2666ZM70.2433 10.3426C70.2433 14.6767 71.6113 16.3495 75.1833 16.3495C78.6793 16.3495 80.0473 14.6767 80.0473 10.4947C80.0473 6.16061 78.7553 4.56383 75.0313 4.63987C71.3073 4.71591 70.2433 5.9325 70.2433 10.3426Z" fill="#0079C5"/>
</svg>
