<svg width="797" height="205" viewBox="0 0 797 205" fill="none" xmlns="http://www.w3.org/2000/svg">
<g clip-path="url(#clip0)">
<path d="M539.42 197C550.91 197 561.318 191.875 570.916 181.558C581.257 170.431 588.962 155.326 595.72 141.974C597.207 139.141 598.559 136.444 599.911 133.814C622.62 90.6563 646.208 49.6562 683.854 22.6826C691.695 17.0181 707.713 6.97039 726.299 2.58717C744.21 -1.59375 759.215 0.699013 771.042 9.46546C791.521 24.6382 789.359 53.2303 787.669 76.0905L787.534 77.7763H787.669L787.804 76.0905C788.615 64.7615 789.629 51.8816 787.804 39.8783C785.709 26.0543 780.234 16.074 771.11 9.26316C764.892 4.67763 757.66 1.77796 749.617 0.766447C742.453 -0.177632 734.613 0.361842 726.232 2.31743C707.645 6.70066 691.627 16.8158 683.719 22.4128C666.282 34.8882 650.466 51.4095 635.394 72.9885C621.674 92.5444 610.252 113.651 599.776 133.612C598.424 136.174 597.072 138.872 595.585 141.771C588.826 155.123 581.121 170.229 570.781 181.288C558.818 194.168 545.706 198.888 530.769 195.786C510.492 191.605 492.041 177.984 475.753 165.98L475.347 165.711C454.192 150.066 433.645 132.87 413.842 116.214C407.557 110.954 401.068 105.492 394.715 100.232C390.322 96.5905 385.726 92.7467 381.333 89.0378C359.299 70.5609 336.455 51.477 312.123 34.8882C284.547 16.0066 259.202 3.32895 234.668 -3.88651C225.408 -6.58388 216.352 -8 207.768 -8C199.455 -8 191.277 -6.71875 183.436 -4.15625C168.567 0.699013 154.644 10.1398 140.991 24.6382C138.018 27.7401 135.044 31.1118 132.138 34.2812C115.443 52.6908 98.2086 71.7747 72.3901 75.6859C35.5549 81.2829 3.65363 60.8503 -27.1663 41.1595C-38.0479 34.1464 -48.3888 27.5378 -58.9324 22.0082L-59 22.1431C-48.4563 27.6727 -38.183 34.2812 -27.2339 41.227C0.139084 58.6924 28.2555 76.6974 59.954 76.6974C64.0093 76.6974 68.1997 76.4276 72.3901 75.7533C98.2086 71.8421 115.511 52.7582 132.205 34.2812C135.111 31.1118 138.085 27.8076 141.059 24.6382C169.311 -5.16776 199.049 -14.2039 234.6 -3.68421C289.414 12.5 338.144 53.2977 381.198 89.2401C385.591 92.949 390.187 96.7253 394.58 100.434C401.001 105.762 407.489 111.156 413.707 116.416C433.578 133.072 454.057 150.336 475.212 165.913L475.617 166.183C491.906 178.186 510.425 191.808 530.701 196.056C533.743 196.663 536.581 197 539.42 197Z" fill="#C6C5C5"/>
<path d="M540.299 195.921C551.856 195.921 562.265 190.864 571.997 180.546C582.27 169.622 590.111 154.786 596.937 141.704C598.491 138.737 599.978 135.972 601.398 133.342C610.657 116.349 621.539 96.6579 634.043 78.7204C647.695 59.1645 661.618 43.9244 676.623 32.1234C679.732 29.6958 682.908 27.3356 686.085 25.1777C695.209 19.0411 713.661 8.31911 734.004 5.68918C749.009 3.73358 761.783 6.70069 772.056 14.3882C777.869 18.704 782.127 24.301 785.101 31.3142C791.319 45.9474 790.508 63.6826 789.764 79.3273C789.697 80.0691 789.697 80.8109 789.629 81.5527H789.764C789.764 80.8109 789.832 80.0691 789.899 79.3273C790.643 63.6826 791.454 45.9474 785.236 31.2467C782.262 24.1661 777.936 18.5691 772.124 14.2533C761.85 6.49839 749.009 3.59872 733.937 5.55431C725.826 6.63325 717.175 9.06089 708.254 12.9046C700.684 16.1415 692.979 20.3224 685.95 25.1102C682.773 27.2681 679.529 29.6283 676.487 32.0559C661.415 43.8569 647.492 59.0971 633.84 78.653C621.336 96.5905 610.454 116.214 601.195 133.275C599.776 135.905 598.289 138.737 596.734 141.637C589.84 154.719 582.068 169.554 571.794 180.411C559.899 193.021 546.922 197.742 532.188 194.91C511.236 190.931 491.5 176.433 477.037 165.913C461.829 154.786 447.298 142.715 433.848 131.319C428.374 126.666 422.764 121.878 417.425 117.293C410.869 111.696 404.11 105.896 397.351 100.232C395.526 98.6809 393.634 97.13 391.741 95.5115C375.791 82.0921 359.367 68.2007 341.997 55.3882C317.192 36.9786 294.753 23.2221 273.531 13.3767C261.568 7.84707 249.605 3.46385 237.98 0.294439C229.193 -2.13319 220.61 -3.34701 212.499 -3.34701H212.432C204.456 -3.34701 196.616 -2.20063 189.114 0.0921366C173.704 4.81253 159.173 14.2533 144.844 28.954C142.14 31.7188 139.369 34.6184 136.733 37.3833C134.976 39.2714 133.151 41.1596 131.326 43.0477C115.376 59.6365 99.2224 74.6744 76.513 77.1694C56.034 79.3948 37.1771 72.5839 19.8071 64.8964C4.26194 58.0855 -10.7425 50.2632 -22.0296 44.2615C-23.9221 43.25 -25.7469 42.3059 -27.5718 41.3619C-38.0478 35.7648 -47.9832 30.505 -57.851 26.3915L-57.9186 26.5263C-48.0508 30.7073 -38.183 35.8997 -27.6394 41.4967C-25.8145 42.4408 -23.9896 43.4523 -22.0972 44.3964C-10.7425 50.398 4.26194 58.153 19.7395 65.0313C37.1095 72.7188 55.9664 79.5971 76.513 77.3717C86.9891 76.2254 96.9244 72.3142 106.86 65.3684C115.984 58.9622 124.027 50.9375 131.394 43.25C133.219 41.3619 135.044 39.4063 136.801 37.5856C139.437 34.8207 142.208 31.9211 144.912 29.1563C159.308 14.4556 173.771 5.01483 189.181 0.361873C204.524 -4.35852 220.474 -4.29109 237.98 0.496742C249.537 3.66615 261.5 8.04937 273.463 13.579C294.686 23.4244 317.125 37.1135 341.929 55.5905C359.299 68.403 375.791 82.2944 391.674 95.7138C393.566 97.2648 395.391 98.8833 397.283 100.434C403.975 106.099 410.801 111.898 417.357 117.495C422.764 122.081 428.306 126.868 433.781 131.521C447.231 142.918 461.83 154.989 476.969 166.115C485.553 172.387 494.069 178.523 503.125 183.715C513.602 189.717 523.064 193.426 532.188 195.179C535.027 195.651 537.663 195.921 540.299 195.921Z" fill="#C6C5C5"/>
<path d="M541.177 194.842C552.735 194.842 563.278 189.785 573.079 179.602C583.352 168.88 591.26 154.382 598.154 141.502C599.776 138.467 601.33 135.635 602.885 132.87C612.212 116.146 623.296 96.7928 636.003 79.1924C649.79 60.1085 663.849 45.3404 678.921 34.2138C682.165 31.7862 685.274 29.6957 688.383 27.7401C697.44 22.0082 715.621 12.0954 735.694 10.0049C750.428 8.45393 763 11.6233 773.205 19.3108C778.95 23.6266 783.208 29.1562 786.25 36.102C792.535 50.398 792.265 67.4589 791.995 82.5641C791.995 83.5082 791.995 84.4523 791.927 85.3289H792.062C792.062 84.3849 792.062 83.5082 792.13 82.5641C792.4 67.4589 792.671 50.3306 786.385 36.0345C783.276 29.0214 779.018 23.4918 773.273 19.176C763.067 11.421 750.428 8.31907 735.694 9.87005C715.553 11.9605 697.372 21.8733 688.315 27.6052C685.206 29.5608 682.097 31.7187 678.853 34.0789C663.781 45.2056 649.723 59.9737 635.935 79.0576C623.229 96.6579 612.212 116.011 602.817 132.735C601.263 135.433 599.708 138.332 598.086 141.367C591.124 154.179 583.284 168.745 573.011 179.4C561.116 191.74 548.274 196.528 533.743 193.965C513.804 190.526 495.691 178.253 478.862 166.048C463.587 154.988 449.326 142.85 436.079 131.386C430.942 126.936 425.67 122.35 420.669 117.967C413.978 112.1 407.016 106.031 400.122 100.164C384.509 86.8125 365.044 70.1562 344.903 55.9276C320.166 38.4622 297.795 25.5148 276.64 16.3437C264.947 11.2862 253.052 7.24012 241.427 4.34045C232.708 2.18255 224.192 1.1036 216.081 1.23847C208.174 1.37334 200.401 2.58716 192.966 4.94736C177.827 9.66775 163.295 18.9737 148.696 33.3372C146.331 35.6299 143.965 37.9901 141.667 40.3503C139.505 42.5082 137.274 44.801 135.044 46.9589C118.282 63.4803 102.602 77.3043 80.5683 78.7204C60.292 80.0691 41.1648 71.5724 22.6458 63.4128C11.9669 58.6924 1.69364 54.3092 -8.30931 50.0608C-12.7025 48.1727 -16.8929 46.4194 -21.0158 44.6661C-22.773 43.9243 -24.5303 43.1826 -26.22 42.4408C-36.9664 38.0576 -46.9694 33.8092 -56.7696 30.7072L-56.8372 30.8421C-47.037 33.8766 -37.034 38.1924 -26.3552 42.7105C-24.6655 43.4523 -22.9082 44.1941 -21.1509 44.9358C-17.0281 46.6891 -12.8377 48.4424 -8.44449 50.3306C1.55847 54.5789 11.8994 58.9622 22.5106 63.6826C31.8377 67.796 41.4351 72.0444 51.1001 75.0115C61.7789 78.3158 71.3764 79.597 80.5007 78.9901C90.8416 78.3158 100.642 74.8092 110.51 68.2681C119.364 62.4013 127.542 54.6464 135.111 47.1612C137.342 45.0033 139.572 42.7105 141.735 40.5526C144.033 38.2599 146.399 35.8322 148.764 33.5395C163.363 19.176 177.827 9.93749 192.966 5.21709C208.174 0.496697 223.989 0.294395 241.359 4.61018C253.052 7.50986 264.879 11.5559 276.572 16.6135C297.727 25.7845 320.098 38.7319 344.835 56.1974C364.977 70.426 384.442 87.0148 400.055 100.367C406.948 106.234 413.91 112.303 420.601 118.169C425.67 122.553 430.874 127.138 436.011 131.589C449.258 143.053 463.519 155.123 478.794 166.25C495.623 178.456 513.804 190.729 533.743 194.168C536.243 194.64 538.744 194.842 541.177 194.842Z" fill="#C6C5C5"/>
<path d="M542.056 193.763C553.681 193.763 564.292 188.773 574.228 178.59C584.501 168.071 592.476 153.842 599.438 141.232C601.195 138.13 602.817 135.163 604.439 132.398C613.901 115.944 625.121 96.9277 638.03 79.6645C652.021 60.9852 666.147 46.824 681.286 36.3043C684.598 34.0115 687.639 31.9885 690.681 30.2352C699.67 24.9753 717.648 15.8717 737.384 14.2533C751.848 13.1069 764.284 16.4786 774.287 24.1661C779.964 28.4819 784.222 33.9441 787.331 40.8224C793.684 54.7138 793.887 71.2352 794.09 85.801C794.09 86.9474 794.09 88.0263 794.157 89.1053H794.293C794.293 88.0263 794.293 86.88 794.225 85.801C794.022 71.2352 793.819 54.7138 787.466 40.755C784.29 33.8092 780.032 28.3471 774.354 24.0313C764.284 16.3438 751.848 12.9721 737.316 14.1184C717.581 15.6694 699.535 24.773 690.546 30.1003C687.504 31.8536 684.463 33.8767 681.151 36.1694C666.011 46.6892 651.886 60.8504 637.895 79.5296C624.986 96.7928 613.766 115.809 604.304 132.263C602.682 135.028 601.06 137.995 599.303 141.097C592.273 153.707 584.298 167.936 574.092 178.388C562.265 190.459 549.558 195.247 535.23 192.954C515.697 189.919 497.448 178.253 480.619 166.115C465.817 155.461 452.164 143.66 438.309 131.454C433.443 127.138 428.441 122.755 423.643 118.439C416.816 112.37 409.787 106.099 402.826 100.03C386.672 86.0033 367.748 69.954 347.674 56.4671C323.275 40.0806 301.039 27.9425 279.614 19.3109C268.124 14.7253 256.363 11.0165 244.671 8.38653C236.087 6.43094 227.639 5.5543 219.596 5.82403C211.756 6.09377 204.051 7.37502 196.616 9.80265C181.679 14.5905 167.215 23.6941 152.414 37.7204C150.521 39.5411 148.561 41.3619 146.736 43.1826C144.101 45.6777 141.397 48.3076 138.694 50.8027C121.121 67.1892 105.981 79.7994 84.5559 80.2714C66.9156 80.676 50.6946 73.3931 33.5949 65.6382C30.959 64.4244 28.1879 63.2105 25.4844 61.9967C10.0069 55.3207 -4.92996 50.3306 -20.0696 45.3405L-21.151 45.0033C-33.8574 40.8224 -44.8742 37.2484 -55.6206 35.0905V35.2253C-44.8742 37.3832 -33.8574 40.9573 -21.151 45.1382L-20.0696 45.4753C-4.86238 50.4655 10.0069 55.4556 25.4844 62.2665C28.1879 63.4803 30.959 64.6941 33.5949 65.9079C50.7622 73.6628 66.9832 81.0132 84.6235 80.6086C94.7616 80.3388 104.427 77.2369 114.294 71.1004C122.946 65.7056 130.853 58.5576 138.896 51.0724C141.6 48.5773 144.303 45.9474 146.939 43.4523C148.832 41.6316 150.724 39.8109 152.617 37.9901C167.418 24.0313 181.882 14.8602 196.751 10.1398C211.823 5.28456 227.504 4.87995 244.671 8.7237C256.363 11.3536 268.124 15.0625 279.614 19.648C301.039 28.2796 323.275 40.4178 347.674 56.7369C367.68 70.1563 386.605 86.2731 402.758 100.299C409.787 106.368 416.816 112.64 423.575 118.709C428.374 122.957 433.308 127.408 438.241 131.724C452.097 143.929 465.75 155.73 480.619 166.385C497.448 178.523 515.764 190.122 535.297 193.224C537.528 193.628 539.825 193.763 542.056 193.763Z" fill="#C6C5C5"/>
<path d="M542.867 192.752C554.627 192.752 565.306 187.761 575.376 177.511C585.65 167.127 593.693 153.1 600.789 140.76C602.547 137.658 604.236 134.758 605.926 131.926C616.199 114.73 627.284 96.5904 639.99 80.1365C654.048 61.9967 668.309 48.375 683.517 38.3947C687.031 36.1019 690.005 34.3487 692.844 32.7302C701.765 27.875 719.541 19.5806 738.938 18.569C753.132 17.8273 765.365 21.3338 775.3 29.0888C780.843 33.4046 785.168 38.7993 788.345 45.6102C794.766 59.097 795.441 75.0115 796.117 89.1052C796.185 90.3865 796.253 91.6677 796.32 92.949H796.455C796.388 91.6677 796.32 90.3865 796.253 89.1052C795.644 75.0789 794.901 59.097 788.48 45.6102C785.236 38.7993 780.978 33.3371 775.368 29.0214C765.433 21.3339 753.132 17.7598 738.938 18.5016C719.541 19.5131 701.698 27.8075 692.776 32.6628C689.87 34.2138 686.896 36.0345 683.381 38.3273C668.107 48.2401 653.846 61.9293 639.787 80.0691C627.081 96.4556 615.997 114.663 605.723 131.859C604.034 134.623 602.412 137.59 600.587 140.692C593.49 153.033 585.447 167.059 575.174 177.444C563.346 189.38 550.707 194.168 536.581 192.145C516.508 189.312 497.854 177.579 482.241 166.452C467.777 156.135 454.733 144.604 440.337 131.724C435.673 127.543 430.942 123.227 426.346 119.046C419.52 112.842 412.423 106.368 405.326 100.164C388.565 85.3963 370.316 69.9539 350.31 57.2763C326.316 41.9687 304.148 30.6398 282.452 22.6151C271.165 18.4342 259.472 15.1299 247.78 12.7697C239.264 11.0164 230.883 10.3421 222.975 10.7467C215.203 11.1513 207.565 12.5 200.198 14.9276C185.532 19.7154 171.068 28.6842 155.996 42.3733C154.644 43.5871 153.292 44.8684 151.873 46.0822C148.696 48.9819 145.385 52.0164 142.14 54.9161C127.677 67.6612 111.321 82.1595 89.2194 82.1595C88.8815 82.1595 88.6111 82.1595 88.2732 82.1595C72.2549 81.8898 57.5208 74.8092 41.9757 67.324C37.4474 65.1661 32.7162 62.8733 27.9851 60.7829C10.8855 53.2977 -5.47072 49.1842 -19.3937 45.9473C-32.2354 42.9802 -43.7928 40.4177 -54.8772 39.4737V39.6085C-43.8604 40.5526 -32.303 43.1151 -19.3937 46.0822C-5.40313 49.319 10.8855 53.4325 27.9851 60.9177C32.7162 63.0082 37.4474 65.2335 41.9757 67.4589C57.5884 74.9441 72.3225 81.9572 88.3408 82.2944C98.2761 82.4967 107.806 79.7993 117.606 74.0674C126.122 69.0773 133.76 62.5362 142.208 55.051C145.452 52.1513 148.764 49.1842 151.941 46.2171C153.292 45.0033 154.644 43.722 156.063 42.5082C171.068 28.8865 185.532 19.9177 200.198 15.1299C215.203 10.2072 230.748 9.53286 247.712 12.972C259.405 15.3322 271.03 18.6365 282.317 22.8174C303.945 30.8421 326.114 42.171 350.107 57.4786C370.046 70.2237 388.294 85.5986 405.124 100.367C412.22 106.571 419.249 113.044 426.143 119.248C430.739 123.429 435.47 127.745 440.134 131.926C454.53 144.806 467.574 156.337 482.038 166.655C497.651 177.781 516.305 189.582 536.446 192.414C538.812 192.617 540.839 192.752 542.867 192.752Z" fill="#C6C5C5"/>
<path d="M543.678 191.673C571.794 191.673 588.489 163.418 602.074 140.423C603.966 137.253 605.723 134.286 607.413 131.454C617.822 114.528 629.109 96.5905 641.95 80.6086C656.211 62.8734 670.54 49.7911 685.815 40.4852C689.397 38.3273 692.371 36.6415 695.142 35.2253C703.928 30.7747 721.568 23.2895 740.628 22.8175C754.551 22.4803 766.582 26.1892 776.449 33.8767C781.924 38.1925 786.25 43.5198 789.561 50.2632C796.05 63.4129 797.199 78.7204 798.28 92.2073C798.415 93.6908 798.483 95.1744 798.618 96.5905H798.753C798.618 95.1744 798.551 93.7582 798.415 92.2073C797.334 78.653 796.185 63.3454 789.697 50.1957C786.385 43.4523 782.059 38.0576 776.585 33.7418C766.717 26.0543 754.686 22.278 740.696 22.6152C721.636 23.0872 703.996 30.5724 695.142 35.023C692.371 36.4392 689.397 38.0576 685.815 40.2829C670.54 49.5888 656.144 62.6711 641.883 80.4063C629.041 96.3882 617.754 114.326 607.345 131.252C605.588 134.084 603.831 137.051 601.938 140.22C587.542 164.632 569.564 195.044 538.136 191.066C517.454 188.503 498.394 176.567 484.066 166.452C468.791 155.595 454.26 142.378 442.635 131.656C438.174 127.543 433.646 123.362 429.252 119.248C422.426 112.91 415.329 106.301 408.233 99.9622C392.687 86.0707 374.033 70.1563 353.351 57.6809C329.831 43.4523 307.662 32.9326 285.764 25.4474C274.68 21.6711 263.122 18.704 251.429 16.6135C234.6 13.579 219.19 14.5905 204.253 19.5806C189.857 24.3684 175.394 33.2023 160.119 46.5543C159.443 47.1612 158.767 47.7681 158.024 48.375C154.171 51.7467 150.116 55.2533 146.128 58.5576C131.394 70.8306 114.632 84.7895 92.6664 83.4408C77.7296 82.5642 64.0769 75.551 49.5456 68.0658C43.5979 65.0313 37.4474 61.8619 31.0942 59.0971C13.5214 51.4096 -3.71342 48.2402 -18.1772 46.2171C-29.8022 44.5313 -42.1031 43.1152 -53.593 43.5198V43.6546C-42.1707 43.1826 -29.8698 44.6661 -18.2447 46.352C-3.78101 48.4425 13.3862 51.5444 31.0266 59.2319C37.3798 61.9967 43.5303 65.1661 49.478 68.2007C63.9417 75.6184 77.662 82.699 92.5988 83.5757C102.331 84.1826 111.794 81.8224 121.526 76.5625C129.907 71.977 137.68 65.773 146.196 58.625C150.183 55.3207 154.171 51.8142 158.091 48.4425C158.767 47.8355 159.443 47.2286 160.186 46.6217C175.461 33.3372 189.857 24.5033 204.253 19.7155C219.123 14.7253 234.533 13.7813 251.362 16.8158C263.055 18.9063 274.612 21.8734 285.696 25.5823C307.662 33 329.763 43.5872 353.284 57.8158C373.898 70.2911 392.62 86.1382 408.165 100.097C415.262 106.436 422.358 113.044 429.185 119.383C433.578 123.497 438.106 127.678 442.567 131.791C454.192 142.446 468.723 155.73 484.066 166.587C498.394 176.702 517.454 188.706 538.203 191.201C540.028 191.605 541.921 191.673 543.678 191.673Z" fill="#C6C5C5"/>
<path d="M544.354 190.661C572.538 190.661 589.57 162.743 603.358 140.086C605.318 136.916 607.143 133.882 608.968 130.982C619.579 114.326 631.001 96.7253 643.978 81.0806C658.374 63.8174 672.838 51.2072 688.18 42.6431C691.83 40.5526 694.736 39.0691 697.44 37.8553C712.512 30.9096 728.395 27.2007 742.25 27.2681C755.903 27.3355 767.798 31.2467 777.463 38.9342C782.87 43.25 787.196 48.5773 790.575 55.1859C797.064 67.9309 798.753 82.699 800.173 95.6464C800.375 97.3322 800.511 98.9507 800.713 100.502H800.849C800.646 98.8832 800.511 97.3322 800.308 95.6464C798.821 82.6316 797.199 67.8635 790.71 55.1184C787.331 48.4424 783.006 43.1151 777.599 38.7994C767.866 31.1119 755.971 27.1332 742.25 27.0658C728.395 26.9984 712.444 30.7747 697.372 37.7204C694.601 39.0017 691.762 40.4852 688.113 42.5082C680.205 46.9589 672.297 52.6234 664.727 59.3668C657.766 65.5707 650.737 72.8536 643.91 81.0132C630.934 96.6579 619.511 114.258 608.9 130.914C607.075 133.814 605.25 136.781 603.29 140.018C588.759 163.89 570.645 193.561 539.69 190.257C523.334 188.503 506.302 181.018 485.958 166.722C470.886 156.135 457.098 143.255 444.933 131.926C440.607 127.947 436.281 123.766 432.023 119.788C425.197 113.314 418.1 106.571 411.004 100.164C395.797 86.3405 377.413 70.6283 356.258 58.5576C333.143 45.4079 311.109 35.6299 288.873 28.8191C277.991 25.5148 266.569 22.8849 254.809 21.0642C238.182 18.5017 222.908 19.7155 208.106 24.773C193.98 29.5609 179.584 38.2599 163.971 51.2073C159.646 54.7813 154.779 58.8947 149.913 62.6711C135.111 74.2697 118.282 87.4194 96.7893 85.2615C82.5959 83.8454 69.6867 76.6974 56.034 69.1447C49.0049 65.2336 41.7055 61.2549 34.0681 57.8832C15.1436 49.6563 -3.17266 47.7007 -17.0957 46.8915C-32.2353 46.0822 -42.779 46.4194 -52.444 48.1053V48.2401C-42.779 46.6217 -32.2353 46.2845 -17.1633 47.0938C-3.30783 47.903 15.076 49.8586 33.9329 58.0181C41.6379 61.3898 48.8697 65.3684 55.8988 69.2796C69.5515 76.8322 82.5283 83.9803 96.7217 85.3964C106.252 86.3405 115.579 84.4523 125.244 79.597C133.557 75.4161 141.059 69.7517 149.913 62.8059C154.779 59.0296 159.646 54.9161 163.971 51.3421C179.516 38.3273 193.913 29.6957 208.038 24.9079C222.84 19.8503 238.115 18.6365 254.674 21.199C266.434 23.0197 277.856 25.5822 288.738 28.954C310.974 35.8322 333.008 45.5428 356.123 58.6924C377.278 70.7632 395.661 86.4753 410.869 100.299C417.965 106.773 425.062 113.449 431.888 119.923C436.146 123.901 440.472 128.082 444.798 132.061C456.963 143.457 470.751 156.337 485.823 166.857C506.167 181.153 523.334 188.638 539.623 190.391C541.245 190.594 542.799 190.661 544.354 190.661Z" fill="#C6C5C5"/>
<path d="M545.097 189.65C557.128 189.65 568.212 184.66 578.756 174.477C588.962 164.632 597.275 151.415 604.574 139.748C606.602 136.512 608.494 133.477 610.454 130.51C621.201 114.123 632.826 96.7928 645.938 81.5527C660.334 64.9639 675.271 52.556 690.478 44.7336C693.182 43.3849 696.358 41.7665 699.738 40.3504C714.607 34.1464 730.355 31.0444 743.94 31.5165C757.39 31.9885 769.015 36.102 778.612 43.7895C783.952 48.1053 788.277 53.3652 791.724 59.9063C798.28 72.2467 800.375 86.4079 802.2 98.8833C802.471 100.771 802.741 102.525 803.011 104.278H803.146C802.876 102.525 802.606 100.771 802.335 98.8833C800.511 86.4079 798.415 72.2467 791.859 59.8388C788.412 53.2977 784.087 47.9704 778.747 43.6546C769.15 35.9671 757.457 31.7862 744.007 31.3142C736.64 31.0444 728.8 31.7862 720.69 33.5395C713.661 35.0905 706.564 37.2484 699.67 40.1481C696.291 41.5642 693.114 43.1826 690.411 44.5313C682.503 48.6448 674.595 53.9721 666.89 60.4458C659.861 66.38 652.764 73.4606 645.87 81.4178C632.758 96.6579 621.133 113.989 610.387 130.375C608.494 133.275 606.534 136.377 604.507 139.614C589.84 162.946 571.659 192.01 541.177 189.245C524.753 187.762 507.248 180.479 487.716 166.857C472.846 156.539 459.802 144.064 447.163 131.993C443.04 128.082 438.782 123.969 434.727 120.058C427.901 113.449 420.871 106.638 413.707 100.097C399.649 87.1497 380.724 70.7632 359.096 59.0971C336.522 46.9589 314.489 37.9902 291.914 31.7862C281.303 28.8866 269.949 26.6612 258.121 25.1102C241.697 23.0198 226.557 24.4359 211.823 29.5609C204.389 32.1234 197.022 35.6974 189.249 40.3504C182.355 44.4638 175.326 49.454 167.756 55.5231C163.295 59.0971 158.497 62.9408 153.563 66.4474C138.694 77.3717 121.864 89.7122 100.777 86.7451C87.1242 84.8569 74.8233 77.5066 61.7789 69.8191C53.8712 65.0987 45.6931 60.2435 36.8391 56.3997C16.5628 47.6333 -3.10514 47.0263 -16.1495 47.3635C-30.5457 47.7681 -41.4273 49.2517 -51.295 52.2862L-51.2275 52.4211C-41.3597 49.3865 -30.4781 47.903 -16.0819 47.4984C-3.03755 47.1612 16.6304 47.7007 36.9067 56.5346C45.7607 60.3783 53.9387 65.2336 61.8465 69.8865C74.8909 77.6415 87.2594 84.9244 100.912 86.88C110.239 88.1612 119.431 86.6777 129.029 82.227C137.342 78.3833 145.182 72.8537 153.766 66.5148C158.632 62.9408 163.431 59.1645 167.959 55.5231C183.842 42.8454 197.833 34.6185 211.823 29.7632C226.49 24.6382 241.629 23.1546 258.053 25.3125C269.813 26.7961 281.168 29.0889 291.779 31.9885C314.354 38.1925 336.319 47.1612 358.894 59.2994C380.522 70.9655 399.446 87.2846 413.504 100.232C420.601 106.773 427.698 113.584 434.524 120.192C438.579 124.171 442.837 128.217 446.96 132.128C459.599 144.199 472.711 156.674 487.58 166.992C507.181 180.614 524.686 187.964 541.11 189.447C542.461 189.582 543.813 189.65 545.097 189.65Z" fill="#C6C5C5"/>
<path d="M545.841 188.638C558.007 188.638 569.159 183.648 579.973 173.465C590.178 163.822 598.491 150.875 605.926 139.411C608.021 136.107 610.049 133.005 612.077 130.105C622.958 113.988 634.718 96.9951 648.033 82.0921C662.564 65.9079 677.704 54.0395 692.844 46.8915C695.547 45.6102 698.724 44.1267 702.036 42.9128C712.444 39.0691 728.395 34.6859 745.63 35.8322C758.809 36.7089 770.231 41.0247 779.761 48.7122C785.033 52.9605 789.291 58.2204 792.873 64.6941C799.429 76.6974 801.93 90.2516 804.16 102.187C804.566 104.211 804.904 106.166 805.242 108.122H805.377C804.971 106.234 804.633 104.278 804.296 102.255C802.065 90.2516 799.564 76.6974 793.008 64.6941C789.426 58.2204 785.168 52.9605 779.896 48.7122C770.367 41.0247 758.877 36.6415 745.697 35.7648C728.462 34.6184 712.444 39.0017 702.036 42.8454C698.724 44.0592 695.547 45.5428 692.844 46.824C677.636 53.972 662.564 65.8405 647.966 82.0921C634.651 96.9951 622.891 113.988 612.009 130.105C610.049 133.072 608.021 136.174 605.859 139.411C591.124 162.204 572.808 190.594 542.732 188.436C526.24 187.289 508.33 180.074 489.54 167.127C474.874 157.012 461.897 144.401 449.393 132.196C445.406 128.352 441.35 124.306 437.43 120.395C430.672 113.651 423.643 106.706 416.546 100.097C402.69 87.1497 384.036 70.898 362.003 59.7714C339.902 48.5773 318.003 40.4852 295.091 34.8882C284.547 32.3257 273.598 30.5049 261.635 29.2911C245.414 27.6053 230.41 29.3586 215.811 34.551C202.226 39.4063 188.235 47.4984 171.811 60.0411C166.066 64.4243 161.673 67.6612 157.55 70.4934C142.681 80.676 125.784 92.2747 105.103 88.4984C91.8554 86.1382 80.0275 78.5855 67.4563 70.6283C58.8051 65.0987 49.8159 59.4342 39.9481 55.1859C30.8914 51.2747 21.0912 48.7796 10.8179 47.7681C2.775 47.0263 -5.60586 47.0938 -14.9329 48.0378C-29.1263 49.5214 -39.9403 52.2188 -50.0109 56.8043L-49.9433 56.9392C-39.8727 52.4211 -29.0587 49.7237 -14.9329 48.2401C5.88402 46.0822 23.7947 48.375 39.8806 55.3207C49.7483 59.5691 58.7375 65.301 67.3887 70.7632C79.96 78.7204 91.8554 86.273 105.103 88.7007C114.227 90.3191 123.284 89.1727 132.881 85.1941C141.262 81.6875 149.034 76.5625 157.686 70.6283C161.876 67.7961 166.269 64.5592 171.947 60.176C188.37 47.6332 202.361 39.5411 215.946 34.6859C230.545 29.4934 245.549 27.8076 261.77 29.426C273.733 30.6398 284.683 32.4605 295.226 35.023C318.138 40.5526 340.037 48.7122 362.138 59.8388C384.104 70.9655 402.826 87.2171 416.613 100.164C423.71 106.773 430.739 113.719 437.498 120.462C441.418 124.373 445.473 128.352 449.461 132.263C461.965 144.469 474.942 157.079 489.608 167.194C498.394 173.263 506.978 178.051 515.156 181.558C524.686 185.536 533.945 187.896 542.867 188.571C543.678 188.571 544.759 188.638 545.841 188.638Z" fill="#C6C5C5"/>
<path d="M546.449 187.627C558.75 187.627 570.037 182.636 580.986 172.386C591.124 162.878 599.573 150.201 607.007 139.007C609.238 135.702 611.333 132.533 613.361 129.566C624.377 113.719 636.34 96.995 649.79 82.4967C664.524 66.7171 679.732 55.3881 694.939 48.9144C697.778 47.7006 700.887 46.4194 704.063 45.4079C714.336 42.1036 730.084 38.4621 747.049 40.148C759.958 41.4292 771.245 45.9473 780.572 53.6348C785.776 57.8832 790.034 63.0756 793.684 69.4819C800.24 81.0806 803.146 94.0279 805.715 105.492C806.188 107.717 806.661 109.808 807.202 111.898L807.337 111.831C806.864 109.74 806.391 107.65 805.85 105.424C803.282 93.9605 800.375 80.9457 793.752 69.4144C790.102 63.0082 785.844 57.8158 780.64 53.5674C771.245 45.8799 759.958 41.2944 746.981 40.0806C730.017 38.3947 714.201 42.0362 703.928 45.4079C700.751 46.4194 697.642 47.7006 694.736 48.9144C679.529 55.3881 664.322 66.7171 649.52 82.5641C636.07 97.0625 624.107 113.786 613.09 129.633C610.995 132.6 608.9 135.77 606.737 139.074C591.868 161.327 573.416 189.11 543.881 187.559C527.051 186.683 509.276 179.872 490.96 167.329C476.428 157.416 463.789 144.806 451.489 132.6L451.218 132.331C447.366 128.487 443.446 124.508 439.661 120.664C432.902 113.854 425.94 106.773 418.844 100.097C409.584 91.3306 401.203 84.1151 393.228 78.1135C383.428 70.6957 373.966 64.9638 364.436 60.4457C342.875 50.2631 321.045 42.9128 297.727 38.0575C287.454 35.8996 276.572 34.4835 264.541 33.5394C248.523 32.3256 233.654 34.2812 219.123 39.5411C205.808 44.3964 192.223 52.0839 175.123 64.5592C169.649 68.5378 165.053 71.7072 160.727 74.472C142.749 85.9358 127.542 94.3651 108.617 90.1842C95.7078 87.352 84.2179 79.5296 72.0522 71.3026C62.7251 65.0312 53.1277 58.4901 42.3137 53.8371C32.919 49.7911 22.7133 47.4309 12.0345 46.824C3.58603 46.3519 -5.06517 46.9589 -14.4598 48.6447C-28.518 51.2072 -39.2645 55.051 -49.4026 61.1875L-49.335 61.3223C-39.1969 55.1858 -28.4505 51.3421 -14.3923 48.7796C6.83023 44.9358 25.3492 46.6217 42.3137 53.9046C53.1277 58.5575 62.7927 65.0987 72.0522 71.37C84.2179 79.597 95.7078 87.4194 108.685 90.2516C117.606 92.2072 126.528 91.4654 136.058 87.8914C144.506 84.722 152.617 79.7319 160.93 74.472C165.255 71.7072 169.851 68.6052 175.326 64.5592C192.426 52.0839 205.943 44.3964 219.258 39.5411C233.789 34.2812 248.591 32.3256 264.609 33.5394C276.64 34.4835 287.521 35.9671 297.795 38.0575C321.112 42.9128 342.875 50.2631 364.503 60.4457C386.807 70.9654 405.259 87.1496 418.844 100.097C425.94 106.84 432.902 113.854 439.661 120.664C443.446 124.508 447.366 128.487 451.218 132.331L451.489 132.6C463.722 144.806 476.428 157.349 490.96 167.329C509.276 179.872 527.119 186.683 543.948 187.559C544.894 187.559 545.706 187.627 546.449 187.627Z" fill="#C6C5C5"/>
<path d="M547.125 186.615C559.561 186.615 571.051 181.625 582.203 171.375C592.341 162.069 600.857 149.661 608.359 138.669C610.657 135.298 612.82 132.128 615.05 129.094C626.27 113.516 638.301 97.13 651.953 82.9688C666.89 67.5263 682.165 56.8043 697.44 51.005C700.346 49.926 703.455 48.7796 706.564 47.903C716.634 45.0708 732.18 42.1711 748.941 44.3964C761.58 46.0823 772.664 50.8027 781.924 58.4902C787.061 62.7385 791.319 67.8635 795.036 74.1349C801.592 85.329 804.904 97.6694 807.81 108.594C808.418 111.021 809.027 113.314 809.703 115.539L809.838 115.472C809.229 113.247 808.621 110.954 807.945 108.526C805.039 97.602 801.727 85.1941 795.171 74C791.454 67.6612 787.128 62.5362 782.059 58.2879C772.597 50.6678 761.513 45.9474 748.874 44.2615C732.112 42.0362 716.567 44.9359 706.429 47.7681C703.32 48.6448 700.211 49.7911 697.304 50.8701C682.03 56.6694 666.755 67.4589 651.75 82.9013C638.098 97.0625 626 113.449 614.848 129.026C612.685 132.061 610.522 135.23 608.156 138.602C593.22 160.383 574.633 187.424 545.503 186.48C528.403 185.941 510.695 179.467 492.852 167.396C478.456 157.618 466.02 145.076 454.057 132.87L453.584 132.398C449.867 128.622 446.082 124.711 442.364 120.934C435.673 113.989 428.779 106.84 421.683 100.03C412.558 91.2632 404.245 84.0477 396.27 78.1135C386.469 70.8306 377.075 65.2336 367.41 60.9852C346.322 51.6793 324.627 45.2056 300.904 41.0247C290.901 39.2714 280.154 38.1925 267.988 37.5856C252.173 36.8438 237.439 39.0017 222.975 44.3964C206.551 50.4655 190.871 60.7155 179.043 68.9425C173.704 72.6513 168.973 75.6859 164.58 78.3158C147.277 88.5658 131.462 96.5905 112.807 91.7352C100.101 88.4309 88.9491 80.4063 77.0537 71.8421C67.1859 64.7615 56.9802 57.4112 45.22 52.3536C27.6472 44.801 7.97924 43.7221 -13.446 49.1168C-27.3014 52.6908 -38.0479 57.6809 -48.1184 65.4359L-48.0508 65.5707C-37.9803 57.8158 -27.2339 52.8257 -13.2432 49.2517C8.11441 43.8569 27.7824 44.9359 45.2875 52.4211C57.0478 57.4786 67.2535 64.829 77.1213 71.9096C89.0167 80.4063 100.169 88.4984 112.875 91.8027C121.594 94.0954 130.38 93.6908 139.843 90.5888C148.426 87.7566 156.875 83.0362 164.715 78.3158C169.175 75.6859 173.907 72.6513 179.246 68.9425C191.074 60.7155 206.754 50.4655 223.178 44.3964C237.574 39.0691 252.308 36.8438 268.124 37.5856C280.222 38.1925 291.036 39.3388 301.039 41.0247C324.694 45.1382 346.458 51.6793 367.477 60.9852C385.05 68.7402 401.812 80.7434 421.683 100.03C428.779 106.84 435.673 113.989 442.364 120.934C446.014 124.711 449.799 128.689 453.584 132.398L454.057 132.87C466.02 145.076 478.456 157.618 492.852 167.396C501.301 173.128 509.817 177.646 518.265 180.816C527.525 184.322 536.716 186.211 545.57 186.548C546.044 186.615 546.584 186.615 547.125 186.615Z" fill="#C6C5C5"/>
<path d="M547.666 185.671C560.237 185.671 571.862 180.681 583.284 170.363C593.355 161.192 602.006 149.054 609.576 138.332C612.009 134.961 614.239 131.724 616.537 128.689C627.892 113.382 640.058 97.3322 653.913 83.5082C669.053 68.4704 684.463 58.2878 699.67 53.1628C703.049 52.0164 705.821 51.1398 708.727 50.4655C718.662 48.1727 733.937 46.0148 750.496 48.7122C762.864 50.8026 773.746 55.7253 782.938 63.4128C788.007 67.6612 792.265 72.7187 796.05 78.9227C802.606 89.6447 806.256 101.446 809.432 111.898C810.243 114.528 810.987 116.956 811.798 119.383L811.933 119.316C811.122 116.888 810.378 114.461 809.567 111.831C806.323 101.446 802.741 89.5773 796.117 78.8553C792.333 72.5839 788.007 67.5263 782.938 63.278C773.746 55.5905 762.797 50.6003 750.428 48.5773C733.869 45.8125 718.527 47.9704 708.659 50.3306C705.753 51.0049 702.914 51.8816 699.603 53.028C684.328 58.153 668.918 68.403 653.778 83.3734C639.923 97.1974 627.689 113.314 616.402 128.554C614.104 131.589 611.874 134.826 609.441 138.197C593.76 160.383 575.985 185.469 547.733 185.469C547.531 185.469 547.328 185.469 547.057 185.469C529.958 185.266 511.844 178.995 494.677 167.464C480.349 157.821 468.25 145.278 456.49 133.072L455.882 132.465C452.3 128.757 448.582 124.845 445.068 121.137C438.444 114.123 431.55 106.84 424.521 99.9622C415.532 91.1283 407.286 83.9803 399.311 78.1135C389.578 70.9655 380.116 65.5033 370.384 61.5921C349.837 53.2303 328.141 47.4984 304.08 44.1266C294.348 42.778 283.669 42.0362 271.435 41.7664C255.823 41.4293 241.224 43.9243 226.895 49.3191C211.485 55.1184 196.684 64.2895 182.963 73.3931C177.692 76.8997 172.893 79.7993 168.364 82.227C151.13 91.6003 135.382 98.8832 116.93 93.3536C104.427 89.5773 93.4775 81.2829 81.92 72.449C71.5115 64.5592 60.8327 56.3997 48.1938 50.9375C38.0557 46.5543 27.1065 44.4638 15.7518 44.7336C6.6951 44.9359 -2.76716 46.5543 -12.297 49.6562C-26.3552 54.1743 -37.1016 60.4457 -47.037 69.8191L-46.9694 69.9539C-36.9664 60.5806 -26.2876 54.3766 -12.2294 49.8586C9.46618 42.8454 29.81 43.25 48.1938 51.1398C60.8327 56.5345 71.5115 64.6941 81.92 72.5839C93.5451 81.4178 104.494 89.7122 116.998 93.4885C125.514 96.051 134.233 95.9835 143.56 93.421C152.346 90.9934 160.727 86.6102 168.5 82.3618C173.096 79.8668 177.827 76.9671 183.099 73.528C196.751 64.4918 211.553 55.3207 226.963 49.5214C241.291 44.1266 255.823 41.6316 271.435 41.9687C283.669 42.2385 294.28 42.9803 304.013 44.3289C328.074 47.7007 349.702 53.4326 370.248 61.7944C393.296 71.2352 412.153 88.2286 424.318 100.164C431.348 107.043 438.241 114.326 444.865 121.339C448.447 125.115 452.097 128.959 455.679 132.668L456.287 133.275C468.048 145.48 480.213 158.09 494.474 167.666C502.788 173.263 511.304 177.579 519.82 180.613C528.944 183.85 538.068 185.536 546.922 185.671C547.26 185.671 547.463 185.671 547.666 185.671Z" fill="#C6C5C5"/>
<path d="M548.071 184.727C548.206 184.727 548.409 184.727 548.544 184.727C561.183 184.66 572.876 179.602 584.433 169.352C594.504 160.383 603.155 148.447 610.792 137.995C613.293 134.556 615.659 131.319 618.024 128.217C629.447 113.247 641.815 97.4671 655.873 83.9803C671.216 69.3471 686.693 59.704 701.968 55.2533C704.672 54.4441 707.848 53.5675 711.025 52.9605C720.757 51.1398 735.762 49.6563 752.118 53.028C764.216 55.4556 774.895 60.648 783.952 68.3355C788.886 72.5165 793.211 77.574 797.064 83.7105C803.552 94.028 807.54 105.222 811.054 115.135C812.068 117.967 813.014 120.597 813.961 123.227L814.096 123.16C813.15 120.53 812.203 117.9 811.189 115.067C807.675 105.155 803.755 93.9605 797.199 83.6431C793.346 77.4392 789.021 72.449 784.019 68.2007C774.963 60.5132 764.216 55.3207 752.118 52.8931C735.694 49.5888 720.69 51.0049 710.957 52.8257C707.78 53.4326 704.604 54.3092 701.9 55.1184C686.626 59.5691 671.08 69.2122 655.738 83.8454C641.68 97.3323 629.311 113.112 617.889 128.082C615.524 131.184 613.158 134.421 610.657 137.86C594.774 159.641 576.728 184.39 548.544 184.592C548.409 184.592 548.206 184.592 548.071 184.592C530.904 184.592 513.061 178.725 496.434 167.666C482.173 158.225 470.278 145.548 458.788 133.342L458.045 132.6C454.598 128.959 451.015 125.115 447.569 121.406C441.013 114.258 434.186 106.908 427.157 99.9622C418.303 91.1283 410.125 83.9803 402.082 78.1809C392.35 71.1003 382.887 65.9079 373.087 62.199C352.811 54.579 331.791 49.7911 307.054 47.1612C297.457 46.1497 287.183 45.7451 274.747 45.88C259.337 46.0148 244.873 48.7122 230.613 54.2418C215.541 60.0411 200.671 69.0773 186.748 77.8438C181.544 81.148 176.678 83.8454 172.014 86.1382C155.523 94.3652 139.234 101.176 120.918 94.9721C108.549 90.7911 97.8706 82.1596 86.5159 73.0559C75.6343 64.3569 64.4148 55.3882 50.9649 49.5888C40.4212 45.0707 29.1341 43.1151 17.3739 43.7895C7.91162 44.329 -1.7534 46.4869 -11.4184 50.2632C-25.5442 55.7928 -36.223 63.2105 -46.0908 74.2023L-45.9556 74.2698C-36.0203 63.2105 -25.3414 55.8602 -11.2832 50.3306C3.92395 44.3964 27.1065 39.4063 50.9649 49.6563C64.4148 55.4556 75.6343 64.4244 86.4483 73.1234C97.803 82.227 108.549 90.8586 120.918 95.0395C125.919 96.7254 130.718 97.4671 135.449 97.4671C148.156 97.4671 160.119 92.2073 172.149 86.2056C176.813 83.9128 181.679 81.148 186.883 77.9112C200.806 69.1448 215.676 60.1086 230.748 54.3767C245.009 48.8471 259.405 46.1497 274.815 46.0148C287.318 45.9474 297.592 46.352 307.122 47.2961C331.859 49.926 352.878 54.6464 373.155 62.3339C396.405 71.1003 415.126 88.0938 427.157 100.03C434.186 106.975 440.945 114.326 447.569 121.474C451.015 125.183 454.53 129.026 458.045 132.668L458.788 133.41C470.278 145.615 482.241 158.225 496.434 167.734C512.993 178.86 530.836 184.727 548.071 184.727Z" fill="#C6C5C5"/>
<path d="M547.936 183.783C548.612 183.783 549.288 183.783 550.031 183.783C562.467 183.446 574.092 178.388 585.515 168.273C595.518 159.439 603.899 148.312 612.009 137.523C614.645 134.084 617.078 130.78 619.511 127.678C631.069 112.977 643.572 97.5345 657.833 84.3849C673.379 70.1562 688.991 60.9852 704.266 57.2763C706.97 56.602 710.146 55.8602 713.255 55.4556C726.908 53.5674 740.898 54.1743 753.74 57.2763C765.568 60.1085 776.044 65.4358 785.033 73.1908C789.899 77.3717 794.225 82.3618 798.145 88.4309C804.566 98.2763 808.824 108.863 812.609 118.237C813.825 121.271 814.974 124.171 816.191 126.936L816.326 126.868C815.11 124.104 813.961 121.204 812.744 118.169C809.027 108.796 804.769 98.2089 798.28 88.3635C794.293 82.2944 790.035 77.2368 785.101 73.0559C776.112 65.3684 765.568 59.9737 753.74 57.1414C740.831 54.0395 726.84 53.4326 713.188 55.3207C710.079 55.7253 706.902 56.4671 704.198 57.1414C688.924 60.8503 673.243 70.0214 657.698 84.25C643.437 97.3997 630.934 112.842 619.308 127.543C616.875 130.645 614.375 133.949 611.806 137.388C595.856 158.697 577.742 182.771 549.964 183.513C532.459 183.985 514.548 178.523 498.124 167.734C483.998 158.428 472.306 145.75 461.018 133.477L460.207 132.6C456.828 128.959 453.449 125.183 450.137 121.474C443.648 114.258 436.89 106.773 429.928 99.7599C421.209 90.926 413.031 83.7779 405.056 78.046C395.391 71.1003 385.861 66.0427 375.993 62.671C356.19 55.8602 335.306 51.8141 310.163 50.0608C300.904 49.4539 290.765 49.3865 278.127 49.7911C262.919 50.3306 248.658 53.2977 234.465 58.8947C219.799 64.6266 205.267 73.2582 191.277 81.62L190.668 81.9572C185.532 84.9918 180.53 87.6217 175.867 89.7796C160.186 96.8602 143.357 103.266 125.108 96.3207C112.875 91.6677 102.331 82.7664 91.1795 73.3931C79.8924 63.8849 68.1997 54.0395 53.9388 47.9029C43.0572 43.25 31.3645 41.4293 19.2663 42.5082C9.46615 43.3849 -0.469218 46.0822 -10.2694 50.5329C-17.9744 54.0395 -24.598 58.1529 -30.4781 63.0756C-35.5471 67.324 -40.2783 72.3141 -44.8066 78.3158L-44.6715 78.3832C-35.074 65.7056 -24.3952 57.1414 -10.2018 50.6677C5.27572 43.5872 28.999 37.3832 53.9388 48.0378C68.1997 54.1743 79.8924 63.9523 91.1795 73.4605C102.331 82.9013 112.943 91.7352 125.108 96.3881C130.651 98.4786 136.125 99.3552 141.397 99.3552C153.495 99.3552 164.985 94.7697 175.934 89.7796C180.665 87.6891 185.599 85.0592 190.804 81.9572L191.412 81.62C205.402 73.2582 219.934 64.6266 234.6 58.8947C248.794 53.2977 263.055 50.3306 278.262 49.7911C290.833 49.3191 301.039 49.3865 310.298 50.0608C335.441 51.8141 356.325 55.7927 376.061 62.6036C399.514 70.6957 418.033 87.6217 429.928 99.6924C436.89 106.706 443.648 114.191 450.137 121.406C453.449 125.115 456.896 128.891 460.207 132.533L461.018 133.41C472.306 145.683 483.998 158.36 498.192 167.666C513.872 178.321 531.039 183.783 547.936 183.783Z" fill="#C6C5C5"/>
<path d="M547.666 182.906C548.95 182.906 550.166 182.906 551.451 182.839C578.824 181.558 597.072 157.956 613.158 137.186C615.862 133.679 618.43 130.375 620.998 127.206C632.691 112.842 645.33 97.6694 659.793 84.8569C675.541 70.9654 691.289 62.4013 706.564 59.3667C709.268 58.8273 712.377 58.2204 715.486 57.9506C728.8 56.7368 742.588 57.9506 755.362 61.5246C766.852 64.7615 777.193 70.2911 786.115 77.9786C790.913 82.1595 795.171 87.0822 799.227 93.0838C805.58 102.457 809.905 111.965 814.028 121.204C815.515 124.508 816.934 127.61 818.354 130.577L818.489 130.51C817.07 127.543 815.65 124.373 814.163 121.136C810.176 112.37 805.715 102.39 799.362 93.0164C795.306 87.0148 790.981 82.0246 786.182 77.9112C777.328 70.1562 766.92 64.6266 755.362 61.3898C742.521 57.8158 728.733 56.6019 715.418 57.8158C712.309 58.0855 709.132 58.6924 706.429 59.2319C691.154 62.2664 675.406 70.8306 659.591 84.722C645.059 97.6019 632.421 112.707 620.728 127.071C618.16 130.24 615.591 133.544 612.888 137.051C596.802 157.821 578.621 181.355 551.315 182.636C533.743 183.513 515.9 178.456 499.949 168.003C485.823 158.832 474.401 146.087 463.316 133.814L462.438 132.87C459.194 129.296 455.882 125.52 452.705 121.878C446.284 114.595 439.593 107.043 432.632 99.8947C423.981 90.9934 415.938 83.9128 407.962 78.2483C398.297 71.37 388.835 66.5148 378.832 63.4128C359.299 57.2763 339.091 54.1743 313.205 53.2977C304.148 53.0279 294.348 53.2977 281.438 54.1069C266.434 55.1184 252.308 58.3552 238.182 64.0197C225.206 69.2121 212.296 76.495 199.86 83.5756C198.035 84.5871 196.211 85.5986 194.386 86.6776C189.249 89.5773 184.248 92.0049 179.449 93.9605C164.58 100.03 147.21 105.896 129.029 98.2089C116.93 93.1513 106.59 83.9802 95.5727 74.2697C83.8801 63.9523 71.7143 53.2302 56.6423 46.824C45.3552 42.0362 33.3246 40.3503 20.8209 41.7664C10.6828 42.9802 0.477073 46.2171 -9.45829 51.3421C-17.2984 55.3881 -23.922 60.1085 -29.8021 65.7056C-34.8712 70.5608 -39.3996 76.023 -43.8604 82.9013L-43.7252 82.9687C-34.3305 68.6052 -23.7193 58.8947 -9.32312 51.4095C3.5861 44.7335 29.337 35.2253 56.6423 46.8914C71.7143 53.3651 83.8125 64.0197 95.5052 74.3371C106.522 84.0477 116.93 93.2187 129.029 98.2763C134.909 100.771 140.924 101.985 147.277 101.985C149.575 101.985 152.008 101.85 154.441 101.513C163.431 100.299 172.149 97.0625 179.516 94.0954C184.315 92.1398 189.317 89.7121 194.453 86.8125C196.278 85.801 198.103 84.7894 199.928 83.7105C212.432 76.6299 225.341 69.347 238.25 64.1546C252.376 58.4901 266.502 55.2533 281.438 54.3092C294.348 53.4325 304.148 53.2302 313.137 53.5C338.955 54.3766 359.164 57.4786 378.697 63.6151C396.743 69.2796 413.775 80.8783 432.429 100.03C439.391 107.11 446.014 114.663 452.502 122.013C455.679 125.655 458.991 129.431 462.235 133.005L463.114 133.949C474.198 146.222 485.688 158.967 499.746 168.206C514.751 177.849 531.174 182.906 547.666 182.906Z" fill="#C6C5C5"/>
<path d="M547.328 182.03C549.22 182.03 551.045 181.962 552.938 181.827C579.905 180.007 598.221 157.011 614.375 136.781C617.213 133.275 619.849 129.903 622.553 126.734C634.381 112.64 647.087 97.8717 661.821 85.3289C677.772 71.8421 693.587 63.8174 708.862 61.4572C711.565 61.0526 714.675 60.5806 717.784 60.4457C730.76 59.9062 744.278 61.727 757.052 65.8404C768.271 69.4145 778.41 75.2138 787.196 82.9013C791.859 87.0148 796.185 91.9375 800.308 97.8717C806.526 106.706 810.987 115.607 815.312 124.238C817.137 127.812 818.827 131.184 820.584 134.421L820.719 134.354C818.962 131.117 817.272 127.745 815.515 124.171C811.19 115.539 806.729 106.638 800.511 97.8043C796.32 91.87 792.062 86.9473 787.331 82.8339C778.545 75.0789 768.339 69.347 757.119 65.7056C744.345 61.5921 730.76 59.7714 717.784 60.3108C714.675 60.4457 711.565 60.9177 708.862 61.3224C693.587 63.6826 677.704 71.7072 661.753 85.1941C647.019 97.7368 634.245 112.505 622.418 126.599C619.714 129.768 617.078 133.14 614.239 136.646C598.086 156.877 579.837 179.804 552.938 181.625C535.027 182.839 517.319 178.186 501.706 168.003C487.648 158.9 476.428 146.155 465.547 133.814L464.668 132.803C461.559 129.296 458.315 125.52 455.206 121.946C448.853 114.528 442.229 106.908 435.335 99.6924C426.819 90.7911 418.776 83.7105 410.869 78.1135C401.271 71.37 391.741 66.7171 381.738 63.8849C357.339 56.9391 334.022 56.1299 316.381 56.1974C305.364 56.2648 294.28 57.2089 284.953 58.0855C270.219 59.5016 256.161 63.0082 242.17 68.7401C230.815 73.3931 219.393 79.5296 208.376 85.5312C205.132 87.2845 201.753 89.1053 198.441 90.8585C193.304 93.5559 188.235 95.8487 183.369 97.602C167.621 103.334 150.657 107.582 133.287 99.5575C121.324 94.0279 111.118 84.5872 100.236 74.6069C88.1381 63.4128 75.5668 51.8816 59.6837 45.1381C31.2294 33 4.87023 43.9918 -8.30933 51.6118C-16.2847 56.1974 -22.9758 61.5247 -28.8559 67.796C-33.925 73.1908 -38.3182 79.3273 -42.6438 86.9474L-42.5086 87.0148C-36.3582 76.2253 -26.8959 62.4687 -8.24175 51.6793C4.93782 44.0592 31.2294 33.0674 59.6161 45.2056C75.4992 51.949 88.0029 63.4802 100.101 74.6743C110.915 84.6546 121.188 94.0954 133.151 99.625C140.992 103.266 149.17 104.615 158.159 103.873C165.391 103.266 173.163 101.378 183.301 97.6694C188.168 95.9161 193.237 93.6233 198.373 90.926C201.685 89.1727 205.064 87.352 208.309 85.5987C219.325 79.597 230.748 73.4605 242.102 68.8076C256.161 63.0756 270.151 59.5691 284.885 58.1529C294.212 57.2763 305.297 56.3322 316.314 56.2648C333.954 56.1974 357.272 57.0066 381.671 63.9523C399.852 69.0773 416.884 80.4737 435.268 99.7599C442.162 106.908 448.785 114.595 455.138 122.013C458.247 125.587 461.424 129.363 464.601 132.87L465.479 133.882C476.361 146.222 487.58 159.035 501.639 168.071C515.629 177.309 531.377 182.03 547.328 182.03Z" fill="#C6C5C5"/>
<path d="M546.99 181.288C549.49 181.288 551.924 181.153 554.424 180.951C580.919 178.523 599.302 156.202 615.523 136.444C618.43 132.87 621.201 129.498 624.039 126.262C635.935 112.505 648.844 98.0066 663.849 85.801C680.002 72.6513 695.953 65.2336 711.227 63.5477C714.539 63.2105 717.31 62.9408 720.081 63.0082C732.653 63.0757 746.035 65.5707 758.741 70.1563C769.691 74.1349 779.626 80.0691 788.345 87.824C792.941 91.9375 797.199 96.7253 801.524 102.66C807.54 110.954 812.136 119.181 816.529 127.138C818.692 131.049 820.719 134.691 822.882 138.197L823.017 138.13C820.922 134.623 818.827 130.914 816.664 127.071C812.203 119.114 807.675 110.887 801.592 102.592C797.334 96.6579 793.008 91.8026 788.412 87.7566C779.694 80.0017 769.691 74 758.741 70.0214C746.035 65.4359 732.653 62.9408 720.014 62.8734C717.243 62.8734 714.404 63.0757 711.16 63.4128C695.885 65.0313 679.934 72.5165 663.713 85.6661C648.709 97.8717 635.867 112.37 623.904 126.127C621.133 129.363 618.362 132.735 615.388 136.309C599.167 156 580.783 178.388 554.357 180.748C536.311 182.367 518.671 178.051 503.396 168.273C489.405 159.304 478.388 146.492 467.71 134.084L466.763 133.005C463.722 129.498 460.68 125.857 457.639 122.283C451.353 114.798 444.797 107.043 437.971 99.7599C429.523 90.7911 421.615 83.778 413.64 78.2484C404.042 71.5724 394.512 67.1217 384.442 64.5592C360.786 58.5576 338.212 58.5576 319.287 59.3668C308.744 59.8388 298.065 61.0526 288.129 62.3339C273.598 64.1546 259.743 67.9309 245.752 73.7303C235.884 77.8438 225.881 83.0362 216.216 88.0938C211.553 90.5214 206.754 93.0165 202.091 95.3767C196.954 97.9392 191.817 100.03 186.951 101.581C172.149 106.368 154.644 110.01 137.207 101.243C125.379 95.3092 115.308 85.5987 104.562 75.3487C92.0581 63.3454 79.0813 50.9375 62.3872 43.7895C50.3566 38.6645 37.5825 37.2484 24.3354 39.5411C13.589 41.4293 2.5722 45.8125 -7.49835 52.2188C-15.6088 57.3438 -22.3676 63.278 -28.1801 70.2911C-33.1816 76.2928 -37.5072 82.9688 -41.6976 91.398L-41.5625 91.4655C-30.2078 68.875 -17.2985 58.6924 -7.36317 52.3536C6.08675 43.9244 32.919 31.5165 62.3872 44.0592C79.0813 51.1398 91.9905 63.5477 104.494 75.551C115.173 85.801 125.311 95.5115 137.139 101.446C144.844 105.289 152.887 107.043 161.808 106.773C169.108 106.571 177.083 104.952 187.019 101.783C191.952 100.232 197.021 98.1415 202.158 95.579C206.889 93.2188 211.688 90.7237 216.284 88.2961C225.949 83.2385 235.952 78.0461 245.82 73.9326C259.81 68.0658 273.666 64.3569 288.129 62.5362C298.065 61.2549 308.744 60.0411 319.287 59.5691C338.212 58.7599 360.786 58.8273 384.374 64.7615C402.69 69.4145 419.655 80.5411 437.836 99.8947C444.662 107.11 451.218 114.865 457.504 122.35C460.478 125.924 463.587 129.566 466.628 133.072L467.574 134.151C478.253 146.559 489.27 159.372 503.328 168.34C516.575 176.905 531.512 181.288 546.99 181.288Z" fill="#C6C5C5"/>
<path d="M546.517 180.479C549.626 180.479 552.735 180.276 555.844 179.939C581.865 176.972 600.316 155.191 616.673 136.039C619.714 132.465 622.62 129.026 625.526 125.789C637.016 112.91 650.534 98.1414 665.809 86.273C682.232 73.5279 698.251 66.5822 713.525 65.7056C716.364 65.5033 719.405 65.3684 722.379 65.5707C734.748 66.245 747.522 69.2796 760.431 74.472C771.11 78.7878 780.843 84.9918 789.494 92.7467C794.022 96.8602 798.213 101.513 802.673 107.447C808.418 115.067 813.014 122.62 817.475 129.835C820.111 134.151 822.612 138.197 825.18 141.974L825.315 141.906C822.747 138.062 820.246 134.016 817.61 129.768C813.149 122.485 808.553 115 802.809 107.312C798.348 101.378 794.157 96.7253 789.629 92.6118C780.978 84.7894 771.178 78.6529 760.566 74.2697C747.657 69.0098 734.883 65.9753 722.515 65.301C719.541 65.1661 716.499 65.301 713.661 65.4358C698.386 66.3799 682.3 73.3256 665.876 86.0707C650.669 98.0066 637.084 112.707 625.594 125.587C622.688 128.824 619.782 132.263 616.74 135.837C600.451 155.056 582 176.77 556.046 179.737C537.865 181.76 520.293 177.849 505.356 168.34C491.433 159.507 480.551 146.627 470.075 134.151L469.129 133.072C466.223 129.633 463.249 125.992 460.343 122.485C454.125 114.865 447.704 107.043 440.877 99.7598C432.564 90.7237 424.656 83.7105 416.749 78.3158C407.219 71.7747 397.621 67.4589 387.483 65.2335C364.436 60.1085 342.673 60.8503 322.532 62.4687C312.056 63.3454 301.512 64.9638 291.644 66.5148C277.383 68.8075 263.663 72.7862 249.672 78.7204C241.156 82.2944 232.505 86.745 224.057 90.9934C218.109 94.0279 211.958 97.1299 206.011 99.8947C200.806 102.322 195.67 104.21 190.736 105.559C170.054 111.291 155.32 110.549 141.329 102.929C129.637 96.523 119.701 86.6102 109.09 76.0904C96.1809 63.2105 82.7986 49.926 65.2934 42.4408C52.9249 37.1809 39.7453 35.8997 26.1602 38.597C15.0759 40.8224 3.78878 45.745 -6.41694 52.8256C-14.6626 58.4901 -21.4214 65.0312 -27.3015 72.7187C-32.2354 79.2598 -36.4934 86.6102 -40.5486 95.7812L-40.4135 95.8487C-31.6947 76.2927 -21.489 63.4128 -6.34935 52.8931C4.59983 45.273 33.5273 29.0888 65.2258 42.5082C82.731 49.926 96.0458 63.2105 108.955 76.0904C119.499 86.6102 129.502 96.523 141.194 102.929C148.764 107.043 156.672 109.133 165.458 109.336C172.893 109.47 180.936 108.324 190.668 105.559C195.602 104.21 200.739 102.255 205.943 99.8947C211.958 97.1299 218.109 93.9605 224.057 90.9934C232.437 86.745 241.156 82.3618 249.605 78.7204C263.528 72.7862 277.248 68.8075 291.509 66.5148C301.377 64.9638 311.92 63.3454 322.396 62.4687C342.537 60.8503 364.301 60.1085 387.28 65.2335C405.732 69.347 422.629 80.2714 440.607 99.6924C447.433 106.975 453.854 114.865 460.072 122.418C462.978 125.924 465.952 129.566 468.859 133.005L469.805 134.084C480.281 146.559 491.095 159.439 505.085 168.34C517.522 176.433 531.715 180.479 546.517 180.479Z" fill="#C6C5C5"/>
<path d="M546.111 179.804C549.828 179.804 553.613 179.535 557.398 179.062C568.821 177.511 579.837 172.319 590.989 163.148C600.857 155.123 609.508 145.211 617.822 135.702C620.998 132.061 623.972 128.622 627.013 125.385C638.639 112.775 652.291 98.4112 667.769 86.8125C684.395 74.472 700.549 68.0658 715.756 67.8635C718.527 67.796 721.568 67.796 724.542 68.1332C736.438 69.347 749.077 72.9885 761.918 78.8552C772.259 83.5756 781.856 89.9145 790.372 97.7368C794.766 101.783 798.956 106.368 803.552 112.303C808.891 119.181 813.42 125.857 817.745 132.398C820.99 137.186 823.964 141.704 827.14 145.952L827.275 145.885C824.166 141.636 821.125 137.118 817.881 132.331C813.487 125.857 809.027 119.113 803.687 112.235C799.091 106.368 794.901 101.715 790.508 97.6694C781.924 89.847 772.327 83.4408 761.986 78.7878C749.077 72.921 736.505 69.347 724.542 68.0658C721.568 67.7286 718.527 67.7286 715.756 67.796C700.481 67.9983 684.328 74.4046 667.634 86.8125C652.156 98.4112 638.503 112.842 626.878 125.452C623.837 128.757 620.863 132.196 617.686 135.77C601.33 154.449 582.811 175.623 557.331 179.062C539.015 181.558 521.577 177.984 506.91 168.745C492.987 159.979 482.376 147.031 472.103 134.488L471.157 133.342C468.318 129.903 465.479 126.329 462.708 122.822C456.558 115.135 450.204 107.178 443.446 99.8273C435.2 90.7911 427.36 83.7779 419.52 78.4506C409.99 71.977 400.392 67.9309 390.187 65.9753C379.913 64.0197 369.099 63.1431 357.272 63.2779C345.579 63.4128 334.157 64.6266 325.505 65.6381C315.638 66.852 305.77 68.6727 294.956 70.7631C280.965 73.4605 267.38 77.7089 253.457 83.7105C246.225 86.8125 238.791 90.5214 231.626 94.0954C224.462 97.602 217.095 101.311 209.863 104.413C204.659 106.638 199.522 108.391 194.521 109.538C174.447 114.258 159.308 112.775 145.52 104.615C133.962 97.8043 124.162 87.6891 113.754 76.8997C100.439 63.1431 86.6511 48.9145 68.3349 41.1595C55.6285 35.7648 42.0434 34.6184 28.1203 37.7204C13.4538 40.8898 1.8288 48.0378 -5.40307 53.4325C-13.7163 59.7039 -20.6103 66.7845 -26.4228 75.2138C-31.3567 82.2944 -35.4795 90.2516 -39.3996 100.232L-39.2644 100.299C-30.8836 79.0576 -20.6779 65.0987 -5.26789 53.5674C5.81646 45.2056 35.2846 27.3355 68.0646 41.227C86.3808 48.9819 100.101 63.2105 113.416 76.9671C123.824 87.6891 133.692 97.8717 145.25 104.683C152.684 109.066 160.524 111.493 169.176 112.1C176.678 112.64 184.923 111.831 194.386 109.605C199.387 108.459 204.591 106.706 209.796 104.413C217.028 101.243 224.462 97.602 231.559 94.0954C238.723 90.5214 246.158 86.8799 253.39 83.7779C267.313 77.7089 280.898 73.5279 294.888 70.8306C305.77 68.7401 315.57 66.9194 325.438 65.7056C345.714 63.2779 367.613 61.6595 390.119 65.9753C408.706 69.5493 425.603 80.3388 443.378 99.8273C450.137 107.178 456.49 115.135 462.641 122.822C465.412 126.329 468.318 129.903 471.089 133.342L472.035 134.488C482.309 147.031 492.987 159.979 506.91 168.745C518.535 176.028 531.918 179.804 546.111 179.804Z" fill="#C6C5C5"/>
<path d="M545.638 179.13C549.964 179.13 554.424 178.793 558.885 178.051C570.105 176.298 580.986 171.038 592.071 162.069C601.871 154.179 610.59 144.536 618.971 135.23C622.282 131.589 625.391 128.15 628.568 124.778C640.261 112.438 654.048 98.4112 669.796 87.1497C686.626 75.1464 702.914 69.3471 718.121 69.8191C720.757 69.8865 723.866 70.0214 726.84 70.4935C738.33 72.2467 750.699 76.4951 763.608 82.9688C773.611 88.0263 783.005 94.5675 791.522 102.457C795.78 106.436 799.97 111.021 804.701 116.888C809.5 122.822 813.69 128.554 817.745 134.151C821.733 139.614 825.518 144.739 829.371 149.526L829.506 149.459C825.586 144.671 821.868 139.546 817.881 134.084C813.825 128.487 809.567 122.755 804.769 116.821C800.038 110.954 795.847 106.368 791.589 102.39C783.073 94.5 773.678 87.9589 763.608 82.9013C750.699 76.3602 738.262 72.1793 726.773 70.426C723.731 69.954 720.622 69.8191 717.986 69.7517C702.711 69.2796 686.423 75.079 669.594 87.1497C653.846 98.4112 640.058 112.505 628.365 124.845C625.189 128.15 622.08 131.589 618.768 135.298C602.344 153.438 583.825 174.072 558.75 178.051C540.299 180.951 522.996 177.781 508.6 168.88C494.745 160.248 484.269 147.234 474.198 134.623L473.319 133.477C470.616 130.105 467.98 126.734 465.141 123.092C459.058 115.337 452.773 107.245 446.082 99.8273C437.971 90.7237 430.199 83.778 422.358 78.5181C412.896 72.1793 403.231 68.2681 392.958 66.5823C369.843 62.806 347.539 65.7056 328.479 68.7402C318.476 70.3586 308.676 72.5839 298.268 74.8767H298.2C284.48 77.9787 271.03 82.4293 257.107 88.6333C251.024 91.3306 244.806 94.2977 238.791 97.2648C230.477 101.311 221.961 105.424 213.513 108.864C208.309 110.954 203.037 112.505 198.035 113.516C178.57 117.293 163.093 115 149.372 106.301C138.018 99.0856 128.285 88.7681 118.012 77.7763C104.291 63.1431 90.0981 47.9704 70.9708 39.8109C57.8589 34.2813 43.9358 33.2023 29.6073 36.7763C14.738 40.4178 2.84261 48.1727 -4.52443 54.0395C-12.9729 60.8504 -19.9344 68.5379 -25.7469 77.6415C-30.6132 85.329 -34.6685 93.8931 -38.4534 104.615L-38.3182 104.683C-30.2077 81.755 -20.0696 66.6497 -4.45684 54.1744C6.96545 45.0033 36.9743 25.4474 70.9033 39.8109C90.0305 47.903 104.224 63.0757 117.944 77.7089C128.217 88.7007 137.883 99.0181 149.305 106.234C163.093 114.933 178.638 117.293 198.103 113.449C203.172 112.505 208.376 110.954 213.581 108.796C222.029 105.424 230.613 101.243 238.858 97.1974C244.874 94.2977 251.092 91.2632 257.174 88.5658C271.098 82.4293 284.547 77.9112 298.2 74.8092H298.268C308.676 72.449 318.476 70.2911 328.479 68.6727C347.539 65.6382 369.843 62.7385 392.89 66.5148C411.544 69.5494 428.441 80.0691 445.946 99.6925C452.638 107.178 458.923 115.202 465.006 122.957C467.845 126.531 470.481 129.97 473.184 133.342L474.063 134.489C484.133 147.099 494.609 160.181 508.465 168.813C515.967 173.465 524.28 176.635 533.134 178.118C537.325 178.793 541.448 179.13 545.638 179.13Z" fill="#C6C5C5"/>
<path d="M545.165 178.523C550.099 178.523 555.168 178.051 560.372 177.107C571.389 175.084 582.135 169.824 593.22 161.058C602.952 153.303 611.671 143.929 620.119 134.893C623.566 131.184 626.811 127.745 630.055 124.373C644.654 109.47 657.36 97.5345 671.756 87.6891C688.856 76.0904 705.212 70.7631 720.419 71.9769C722.853 72.1792 726.029 72.449 729.138 73.1233C740.29 75.4161 752.118 80.069 765.298 87.3519C774.963 92.7467 784.154 99.4901 792.67 107.447C798.01 112.437 802.538 117.697 805.85 121.676C809.77 126.396 813.42 130.982 816.934 135.365C822.003 141.771 826.802 147.773 831.736 153.303L831.871 153.235C826.937 147.773 822.139 141.704 817.07 135.298C813.555 130.847 809.973 126.329 805.985 121.609C802.673 117.63 798.145 112.37 792.806 107.312C784.357 99.3552 775.098 92.6118 765.433 87.2171C752.253 79.9342 740.425 75.2138 729.206 72.921C726.097 72.3141 722.92 71.9769 720.487 71.7746C705.28 70.5608 688.856 75.8881 671.756 87.5542C657.36 97.3996 644.654 109.335 630.055 124.306C626.743 127.678 623.499 131.117 620.119 134.826C603.696 152.493 585.042 172.521 560.44 176.972C541.65 180.411 524.889 177.714 510.56 168.88C496.705 160.383 486.499 147.234 476.564 134.556L475.685 133.477C473.049 130.173 470.548 126.801 467.845 123.227C461.83 115.337 455.679 107.178 448.988 99.6924C440.945 90.5213 433.24 83.5756 425.4 78.4506C415.938 72.1792 406.273 68.4704 395.932 67.1217C373.29 64.0871 351.797 67.7286 331.656 71.7072C322.396 73.5954 313.272 75.9556 303.607 78.4506L301.647 78.9901C288.265 82.4292 274.95 87.2171 261.027 93.4885C256.093 95.7138 251.024 98.1414 246.09 100.502C236.763 105.02 227.03 109.673 217.501 113.179C212.229 115.135 206.957 116.484 201.888 117.293C183.099 120.192 167.283 117.09 153.563 107.785C142.343 100.232 132.813 89.6447 122.743 78.5181C108.617 62.9408 94.0182 46.824 74.0123 38.3273C60.5623 32.5954 46.2338 31.7187 31.5673 35.6973C16.0222 39.7434 3.99157 48.1727 -3.44305 54.5115C-12.0943 61.8618 -19.0558 70.1562 -24.8007 79.9342C-29.667 88.1611 -33.5871 97.3996 -37.2368 108.931L-37.1016 108.998C-31.6271 91.6677 -23.2462 71.6398 -3.30788 54.6463C8.182 44.8684 38.7992 23.6266 73.8771 38.4621C93.883 46.9588 108.482 63.0082 122.608 78.5855C132.746 89.7796 142.276 100.299 153.495 107.852C160.727 112.775 168.297 115.877 176.678 117.428C184.45 118.844 192.696 118.844 201.955 117.428C207.025 116.686 212.296 115.27 217.568 113.314C227.166 109.74 236.831 105.087 246.158 100.636C251.092 98.2763 256.161 95.8487 261.095 93.6233C275.085 87.3519 288.332 82.5641 301.715 79.125L303.675 78.5855C313.34 76.0904 322.396 73.7302 331.656 71.8421C351.729 67.8635 373.29 64.222 395.864 67.2565C414.653 69.7516 431.483 80.069 448.853 99.8273C455.544 107.38 461.694 115.472 467.71 123.362C470.413 126.936 472.981 130.308 475.55 133.612L476.428 134.691C486.364 147.368 496.569 160.518 510.425 169.015C517.86 173.6 526.173 176.567 535.027 177.849C538.271 178.321 541.718 178.523 545.165 178.523Z" fill="#C6C5C5"/>
<path d="M544.759 177.984C550.234 177.984 555.979 177.377 561.791 176.163C572.605 173.937 583.217 168.678 594.166 160.046C603.831 152.493 612.617 143.322 621.133 134.488C624.715 130.78 628.095 127.273 631.542 123.834C644.248 111.224 658.171 98.2089 673.716 88.0937C691.019 76.8322 707.51 72.1118 722.717 74C726.299 74.472 728.935 74.9441 731.369 75.551C742.25 78.3158 753.537 83.4408 766.92 91.6003C776.247 97.2648 785.236 104.211 793.684 112.303C798.753 117.09 803.146 122.148 806.864 126.396C809.432 129.363 811.933 132.263 814.298 135.095C820.99 142.985 827.343 150.47 833.831 157.079L833.966 156.944C827.478 150.336 821.125 142.918 814.434 135.028C812.068 132.196 809.567 129.296 806.999 126.329C803.282 122.013 798.821 117.023 793.819 112.235C785.371 104.143 776.314 97.1974 766.987 91.5329C753.605 83.3734 742.25 78.2484 731.369 75.4836C728.935 74.8766 726.232 74.4046 722.65 73.9326C707.443 72.0444 690.951 76.7648 673.581 88.0263C658.036 98.1414 644.113 111.224 631.407 123.834C627.96 127.206 624.58 130.78 620.998 134.488C603.696 152.493 585.853 171.038 561.724 176.095C542.867 180.007 526.173 177.646 512.115 169.082C498.259 160.653 488.256 147.436 478.524 134.691L477.713 133.612C475.212 130.308 472.779 127.003 470.143 123.497C464.263 115.539 458.112 107.312 451.489 99.6924C443.581 90.5214 435.876 83.5757 428.103 78.5181C418.641 72.3816 408.976 68.875 398.568 67.7961C376.331 65.5033 355.582 69.8191 334.495 74.8766C325.843 76.9671 317.327 79.4622 308.338 82.1595C307.122 82.4967 305.973 82.8339 304.756 83.2385C291.779 87.0822 278.6 92.0724 264.541 98.546C260.689 100.299 256.701 102.187 252.849 104.076C242.44 109.066 231.694 114.191 221.083 117.832C215.743 119.653 210.471 120.867 205.402 121.406C186.951 123.497 171.271 119.586 157.415 109.605C146.398 101.648 137.004 90.9934 127.068 79.6645C112.537 63.1431 97.5327 46.0148 76.5805 37.1809C62.7251 31.3141 48.0586 30.5724 33.0542 34.8882C17.3739 39.2039 5.07294 48.2401 -2.49687 55.051C-11.2832 62.9408 -18.3123 71.8421 -23.9897 82.3618C-28.7884 91.1283 -32.6409 100.974 -36.1555 113.314L-36.0203 113.382C-30.7485 94.8372 -22.5704 73.4605 -2.36169 55.2533C22.0374 33.3372 51.5732 26.5263 76.6481 37.1809C97.5327 46.0148 112.537 63.1431 127.068 79.6645C137.004 90.9934 146.398 101.715 157.415 109.673C171.338 119.72 187.086 123.564 205.538 121.541C210.674 121.002 215.946 119.788 221.285 117.967C231.964 114.326 242.711 109.201 253.119 104.211C256.972 102.39 260.959 100.434 264.812 98.6809C278.87 92.2072 291.982 87.2171 305.026 83.3734C306.243 83.0362 307.392 82.699 308.609 82.2944C317.598 79.6645 326.046 77.102 334.765 75.0115C355.852 69.9539 376.534 65.6382 398.77 67.9309C417.695 69.8865 434.457 80.0016 451.624 99.8273C458.247 107.447 464.33 115.674 470.278 123.632C472.914 127.138 475.347 130.442 477.848 133.747L478.659 134.826C488.391 147.571 498.394 160.788 512.25 169.217C519.617 173.735 527.93 176.5 536.784 177.579C539.285 177.849 541.988 177.984 544.759 177.984Z" fill="#C6C5C5"/>
<path d="M544.489 177.512C550.437 177.512 556.722 176.77 563.278 175.219C573.89 172.724 584.366 167.464 595.247 159.035C604.912 151.617 613.699 142.715 622.215 134.151C625.932 130.375 629.447 126.868 633.029 123.429C645.87 111.156 659.929 98.4112 675.676 88.6332C693.249 77.7763 709.808 73.5954 724.948 76.1579C728.395 76.7648 731.166 77.3717 733.599 78.1135C744.143 81.3503 754.889 86.8799 768.542 95.9161C777.463 101.85 786.25 108.998 794.766 117.225C799.632 121.878 804.093 126.868 807.945 131.184L808.418 131.724C818.354 142.85 826.87 152.426 836.062 160.855L836.129 160.72C827.005 152.291 818.421 142.715 808.554 131.589L808.08 131.049C804.228 126.734 799.767 121.743 794.901 117.09C786.385 108.863 777.531 101.715 768.677 95.7812C755.024 86.745 744.278 81.2154 733.734 77.9786C731.301 77.2368 728.53 76.5625 725.083 76.023C717.175 74.6743 708.794 75.2138 700.143 77.5066C692.235 79.6645 683.99 83.3733 675.676 88.4983C659.861 98.3437 645.87 111.021 633.029 123.362C629.447 126.801 625.932 130.375 622.215 134.084C604.912 151.549 587.002 169.554 563.346 175.084C544.421 179.467 527.795 177.511 514.007 169.217C500.219 160.923 489.878 147.031 480.822 134.758L480.011 133.679C477.577 130.442 475.212 127.206 472.711 123.699C466.899 115.607 460.883 107.312 454.327 99.625C446.487 90.3865 438.917 83.5082 431.145 78.4506C421.75 72.3816 412.085 69.0773 401.541 68.2681C391.403 67.5263 380.657 68.2006 368.762 70.2911C358.015 72.1793 347.539 75.0115 337.739 77.7763C329.628 80.0691 321.653 82.699 313.272 85.5312C311.65 86.0707 309.96 86.6102 308.338 87.1497C295.835 91.2631 282.79 96.523 268.597 103.199C265.758 104.548 262.852 105.896 260.013 107.312C248.658 112.707 236.898 118.372 225.138 122.013C219.799 123.699 214.459 124.711 209.323 125.048C191.277 126.329 175.664 121.743 161.673 110.954C150.927 102.66 141.667 91.87 131.935 80.4062C116.998 62.8733 101.52 44.7335 79.6896 35.495C72.3226 32.3931 64.6176 30.7072 56.8451 30.5049C49.6808 30.3026 42.3813 31.3816 35.0819 33.6069C18.7257 38.6644 6.15442 48.3075 -1.48297 55.5904C-10.3369 64.0197 -17.4336 73.5954 -23.1786 84.722C-27.9773 94.0954 -31.7622 104.548 -35.074 117.562L-34.9388 117.63C-27.7745 89.7796 -17.7716 71.2352 -1.41539 55.6579C7.91169 46.8914 41.2323 19.5131 79.4869 35.6299C101.318 44.801 116.728 62.9408 131.664 80.4737C141.465 91.9375 150.657 102.794 161.471 111.089C168.432 116.484 176.069 120.395 183.977 122.687C191.817 124.98 200.333 125.857 209.255 125.183C214.392 124.845 219.731 123.766 225.07 122.148C236.831 118.507 248.591 112.91 259.946 107.447C262.784 106.099 265.691 104.683 268.529 103.334C282.79 96.6579 295.767 91.398 308.271 87.2845C309.96 86.745 311.582 86.2056 313.205 85.6661C321.585 82.9013 329.561 80.2039 337.671 77.9112C358.826 71.977 379.643 66.7845 401.406 68.4029C420.466 69.8191 437.228 79.7319 454.125 99.625C460.681 107.312 466.696 115.674 472.508 123.699C475.009 127.138 477.375 130.442 479.808 133.679L480.619 134.758C489.676 147.031 500.016 160.923 513.804 169.217C522.929 174.814 533.202 177.512 544.489 177.512Z" fill="#C6C5C5"/>
<path d="M544.354 177.039C550.775 177.039 557.601 176.095 564.765 174.275C575.174 171.577 585.447 166.25 596.329 158.09C605.926 150.808 614.713 142.176 623.296 133.882C627.216 130.105 630.866 126.464 634.651 123.025C647.56 111.021 661.753 98.6809 677.772 89.1727C695.547 78.653 712.241 75.0115 727.381 78.3158C730.76 79.0576 733.464 79.7993 735.965 80.7434C748.806 85.3964 760.499 93.2187 770.299 100.367C778.747 106.503 787.331 113.854 795.982 122.283C800.511 126.666 804.701 131.252 808.756 135.635L809.162 136.107C821.057 148.987 829.776 157.551 838.36 164.834L838.427 164.699C829.844 157.484 821.125 148.852 809.229 136.039L808.824 135.567C804.769 131.117 800.578 126.599 796.05 122.148C787.466 113.719 778.815 106.368 770.367 100.232C760.566 93.1513 748.874 85.2615 736.032 80.6085C733.531 79.7319 730.828 78.9227 727.449 78.1809C719.541 76.4951 711.16 76.6299 702.441 78.7204C694.466 80.6086 686.153 84.1151 677.772 89.0378C661.686 98.546 647.56 110.954 634.651 122.957C630.866 126.464 627.216 130.038 623.296 133.814C605.994 150.74 588.083 168.206 564.9 174.207C545.908 179.13 529.417 177.512 515.832 169.419C502.044 161.192 491.974 147.234 483.052 134.893L482.309 133.882C480.011 130.712 477.713 127.475 475.347 124.036C469.602 115.877 463.654 107.447 457.166 99.6924C449.393 90.3865 441.891 83.5082 434.186 78.5855C424.792 72.6513 415.127 69.4819 404.515 69.0099C381.265 67.9309 358.894 75.2138 340.915 81.0132C333.278 83.5082 325.776 86.273 317.936 89.1727C315.908 89.9145 313.88 90.6562 311.785 91.4655C299.755 95.9161 287.251 101.243 272.449 108.257C270.557 109.133 268.664 110.077 266.84 110.954C254.539 116.821 241.832 122.957 229.058 126.531C223.651 128.015 218.312 128.891 213.175 129.026C195.737 129.566 179.854 124.104 165.864 112.64C155.388 104.076 146.331 93.1513 136.734 81.5526C121.324 62.9408 105.373 43.722 82.6635 34.1464C75.0937 30.977 67.2535 29.2911 59.2106 29.1563C51.8436 29.0214 44.3414 30.2352 36.9067 32.6628C20.2802 38.125 7.50616 48.4424 -0.266401 56.1299C-9.32313 65.0987 -16.4198 75.2812 -22.0972 87.1497C-26.8283 97.0625 -30.5456 108.189 -33.7222 121.946H-33.5871C-28.7883 101.109 -21.0158 76.9671 -0.131228 56.1974C9.33103 46.824 43.1924 17.625 82.5959 34.2138C105.305 43.7895 121.256 63.0082 136.666 81.5526C146.263 93.1513 155.32 104.076 165.796 112.64C172.758 118.304 180.192 122.553 187.965 125.317C195.873 128.082 204.389 129.363 213.243 129.094C218.447 128.959 223.786 128.082 229.193 126.599C242.035 123.025 254.741 116.888 267.042 111.021C268.867 110.145 270.827 109.201 272.652 108.324C287.454 101.311 299.957 95.9161 311.988 91.5329C314.016 90.7911 316.111 90.0493 318.138 89.2401C326.046 86.3405 333.481 83.5757 341.118 81.0806C359.096 75.2812 381.4 68.0658 404.65 69.0773C423.778 69.9539 440.539 79.6645 457.234 99.6924C463.722 107.447 469.67 115.877 475.415 124.036C477.848 127.475 480.078 130.712 482.376 133.882L483.12 134.893C492.041 147.234 502.112 161.26 515.967 169.487C524.078 174.544 533.743 177.039 544.354 177.039Z" fill="#C6C5C5"/>
<path d="M544.219 176.702C551.045 176.702 558.48 175.556 566.252 173.331C588.962 166.857 606.872 149.864 624.242 133.477C628.298 129.633 632.15 125.992 636.07 122.485C649.047 110.819 663.376 98.7484 679.664 89.5773C697.71 79.4622 714.539 76.3602 729.611 80.3388C732.856 81.2155 735.694 82.0921 738.127 83.1711C750.293 88.2286 761.513 96.4556 771.786 104.548C779.694 110.819 787.939 118.169 796.861 127.071C800.375 130.577 803.755 134.151 807.067 137.59C808.08 138.669 809.094 139.681 810.04 140.76C820.787 152.021 830.452 160.855 840.387 168.475L840.455 168.34C830.519 160.72 820.922 151.887 810.176 140.625C809.162 139.546 808.148 138.535 807.202 137.456C803.89 134.016 800.511 130.442 796.996 126.936C788.007 118.035 779.829 110.684 771.854 104.413C761.58 96.3207 750.361 88.0938 738.127 83.0362C735.627 82.0247 732.855 81.0806 729.544 80.204C721.704 78.1135 713.255 77.9786 704.401 79.7994C696.426 81.4178 688.045 84.6546 679.461 89.4425C663.105 98.6135 648.844 110.752 635.867 122.418C631.947 125.924 628.095 129.566 624.04 133.41C606.737 149.796 588.826 166.722 566.117 173.196C547.125 178.59 530.701 177.377 517.386 169.487C503.599 161.395 493.731 147.301 485.012 134.893L484.336 133.882C482.106 130.78 479.943 127.543 477.645 124.171C471.968 115.877 466.155 107.38 459.667 99.4901C452.029 90.1842 444.527 83.3059 436.822 78.4507C427.495 72.5839 417.762 69.6842 407.084 69.4819C384.171 69.0773 362.679 76.9671 343.686 83.9129C336.455 86.6102 329.426 89.4425 321.991 92.5444C319.693 93.4885 317.26 94.5 314.827 95.4441C300.498 101.243 286.507 107.919 275.896 113.044C275.018 113.449 274.071 113.921 273.193 114.326C260.013 120.732 246.36 127.34 232.505 130.78C227.03 132.128 221.691 132.803 216.487 132.803C199.455 132.668 183.639 126.396 169.513 114.123C159.308 105.289 150.454 94.2977 141.059 82.6316C125.176 62.9408 108.82 42.6431 85.0966 32.5954C77.4592 29.426 69.4163 27.7402 61.1706 27.7402C53.6684 27.6727 45.9634 29.0214 38.326 31.6513C21.2939 37.5181 8.31714 48.5099 0.4094 56.6694C-8.7825 66.1777 -15.9468 76.9671 -21.5565 89.5099C-26.2877 100.03 -29.8698 111.696 -32.9113 126.329H-32.7761C-28.1801 104.278 -20.6103 78.7879 0.544573 56.8043C10.142 46.8915 44.6117 15.8043 85.1642 32.8652C108.887 42.8454 125.244 63.1431 141.127 82.8339C150.521 94.5 159.375 105.492 169.581 114.326C176.475 120.327 183.842 124.913 191.412 128.015C199.387 131.319 207.903 133.005 216.689 133.005C221.894 133.072 227.301 132.398 232.775 130.982C246.631 127.475 260.283 120.867 273.463 114.461C274.342 113.989 275.288 113.584 276.167 113.179C286.71 108.054 300.701 101.378 315.029 95.579C317.395 94.6349 319.828 93.6234 322.194 92.6793C329.628 89.6448 336.657 86.7451 343.889 84.0477C362.408 77.2369 383.293 69.6168 405.597 69.6168C406.137 69.6168 406.678 69.6168 407.219 69.6168C426.481 69.954 443.175 79.4622 459.667 99.5576C466.155 107.38 471.968 115.944 477.645 124.171C479.943 127.543 482.106 130.712 484.336 133.882L485.012 134.893C493.731 147.301 503.666 161.395 517.454 169.554C524.686 173.803 532.864 176.163 541.718 176.567C542.529 176.702 543.34 176.702 544.219 176.702Z" fill="#C6C5C5"/>
<path d="M544.286 176.365C551.451 176.365 559.358 175.016 567.739 172.386C589.975 165.441 607.886 149.054 625.189 133.207C629.244 129.498 633.502 125.587 637.625 122.013C650.737 110.617 665.065 98.8832 681.692 89.9819C700.008 80.2714 716.905 77.7089 731.909 82.3618C735.086 83.3733 737.925 84.3848 740.425 85.5987C752.659 91.3306 763.473 100.164 773.476 108.729C780.64 114.798 788.412 122.148 798.01 131.791C800.511 134.286 802.944 136.781 805.242 139.209C807.202 141.232 809.229 143.322 811.189 145.345C821.26 155.528 831.533 164.294 842.618 172.117L842.685 171.982C831.601 164.16 821.328 155.46 811.257 145.278C809.297 143.255 807.269 141.164 805.309 139.141C802.944 136.714 800.511 134.151 798.077 131.724C788.48 122.081 780.64 114.73 773.543 108.594C763.473 100.03 752.659 91.1957 740.425 85.3964C737.925 84.1825 735.086 83.171 731.909 82.1595C724.069 79.7319 715.553 79.2598 706.699 80.7434C698.656 82.1595 690.208 85.1266 681.557 89.7796C664.93 98.6809 650.534 110.414 637.489 121.811C633.367 125.385 629.109 129.296 625.053 133.005C607.751 148.852 589.908 165.238 567.672 172.184C548.342 178.186 532.526 177.377 519.211 169.622C505.423 161.597 495.758 147.436 487.175 134.893L486.499 133.949C484.404 130.847 482.309 127.745 480.078 124.373C474.536 116.011 468.791 107.312 462.37 99.4227C454.8 90.0493 447.433 83.171 439.728 78.4506C430.401 72.6513 420.669 69.9539 409.922 70.0888C387.28 70.3585 365.72 79.1924 346.796 86.9473C339.969 89.7796 332.94 92.949 326.249 95.9835C323.613 97.1299 320.91 98.3437 318.274 99.5575C305.094 105.424 291.644 112.033 279.816 117.9C266.502 124.441 251.362 131.926 236.493 135.23C231.018 136.444 225.544 136.916 220.339 136.714C203.713 135.972 188.032 128.891 173.704 115.742C163.836 106.638 155.185 95.6464 145.993 83.9802C129.637 63.1431 112.808 41.6316 88.0705 31.2467C80.1628 27.9424 71.8495 26.2566 63.4686 26.2566C55.7637 26.2566 47.9235 27.7401 40.0834 30.5724C32.9191 33.1349 25.89 36.9112 19.0636 41.699C12.778 46.0822 6.83029 51.2747 1.42329 57.1414C-7.90379 67.2566 -15.1357 78.5855 -20.7454 91.8026C-25.409 102.862 -28.9911 115.202 -31.8298 130.577H-31.6946C-27.3014 107.38 -19.9344 80.4737 1.55846 57.2089C11.2911 46.6891 46.3014 13.8487 88.0029 31.3816C112.74 41.7664 129.569 63.2779 145.925 84.0477C155.117 95.7138 163.769 106.773 173.636 115.809C180.53 122.148 187.762 127.071 195.129 130.577C203.172 134.354 211.688 136.444 220.339 136.849C225.544 137.118 231.018 136.579 236.493 135.365C251.43 132.061 266.502 124.576 279.884 118.035C291.779 112.168 305.229 105.559 318.341 99.6924C321.045 98.4786 323.748 97.2648 326.316 96.1184C333.075 93.0839 340.037 89.9144 346.863 87.0822C365.855 79.3273 387.348 70.4934 409.99 70.2237C429.388 69.9539 446.014 79.3273 462.303 99.5575C468.723 107.447 474.468 116.146 480.011 124.508C482.241 127.812 484.336 130.982 486.431 134.084L487.107 135.028C495.691 147.571 505.356 161.732 519.144 169.757C526.308 173.937 534.486 176.163 543.34 176.298C543.678 176.365 543.948 176.365 544.286 176.365Z" fill="#C6C5C5"/>
<path d="M544.489 176.028C544.692 176.028 544.827 176.028 545.03 176.028C552.464 175.96 560.372 174.477 569.226 171.442C590.922 164.025 608.765 148.245 626.067 132.937C630.325 129.161 634.786 125.183 639.112 121.541C651.615 111.021 666.755 99.0855 683.652 90.4539C702.171 81.0806 719.203 79.125 734.207 84.4523C737.316 85.5987 740.087 86.745 742.656 88.0937C754.348 94.2302 764.284 102.997 775.098 113.044C783.073 120.395 791.183 128.689 799.091 136.714C800.375 138.062 801.727 139.411 803.011 140.76C806.053 143.862 809.162 147.099 812.271 150.133C822.003 159.574 832.615 168.003 844.848 175.893L844.916 175.758C832.682 167.868 822.071 159.507 812.338 149.998C809.229 146.964 806.053 143.727 803.079 140.625C801.795 139.276 800.443 137.928 799.159 136.579C791.251 128.554 783.141 120.26 775.165 112.91C764.284 102.862 754.348 94.0954 742.656 87.9589C740.087 86.6102 737.316 85.3963 734.14 84.3174C726.299 81.4852 717.783 80.7434 708.794 81.9572C700.684 83.1036 692.168 85.8684 683.449 90.319C666.485 98.8832 651.413 110.819 638.841 121.406C634.516 125.048 630.055 129.026 625.797 132.803C608.562 148.11 590.719 163.89 569.023 171.308C549.693 177.916 533.945 177.377 520.833 169.824C507.113 161.934 497.583 147.638 489.202 135.028L488.594 134.151C486.567 131.117 484.539 128.015 482.444 124.778C476.969 116.281 471.292 107.515 464.939 99.5575C457.504 90.1167 450.137 83.3059 442.499 78.6529C433.172 72.9885 423.44 70.426 412.626 70.898C402.623 71.3026 391.944 73.4605 380.184 77.5065C369.775 81.0806 359.705 85.6661 350.04 90.0493L349.702 90.1842C343.146 93.1513 336.59 96.4556 330.169 99.5575C327.33 100.974 324.356 102.39 321.45 103.806C313.069 107.852 304.486 112.235 296.24 116.484C292.05 118.641 287.724 120.799 283.466 122.957C269.002 130.24 254.809 136.984 240.142 139.816C234.6 140.895 229.126 141.164 223.921 140.76C207.498 139.411 192.29 131.791 177.624 117.495C168.094 108.257 159.713 97.1973 150.792 85.5987C134.098 63.4802 116.728 40.7549 90.9091 29.898C82.7986 26.4588 74.3502 24.8404 65.699 24.9079C57.7913 24.9753 49.7483 26.5937 41.773 29.6283C34.4736 32.3931 27.2417 36.3717 20.2802 41.4292C13.8594 46.0822 7.84407 51.6118 2.36948 57.7483C-7.09277 68.4029 -14.3922 80.3388 -19.9344 94.2977C-24.5979 105.964 -28.0449 118.911 -30.7484 135.028H-30.6132C-26.4904 110.617 -19.2585 82.4292 2.50465 57.8832C22.8485 35.0904 56.7774 15.8042 90.8416 30.1003C116.592 40.8898 133.962 63.6825 150.792 85.6661C159.713 97.3322 168.094 108.324 177.692 117.63C184.585 124.306 191.682 129.633 198.914 133.41C207.025 137.658 215.473 140.22 224.124 140.962C229.396 141.434 234.871 141.097 240.413 140.018C255.079 137.186 269.273 130.442 283.736 123.16C288.062 121.002 292.388 118.776 296.51 116.686C304.756 112.505 313.34 108.122 321.721 104.076C324.627 102.66 327.601 101.176 330.439 99.8273C336.86 96.6579 343.484 93.421 349.972 90.4539L350.31 90.319C370.046 81.3503 390.457 72.0444 412.829 71.1003C438.444 70.0888 454.868 86.9473 465.006 99.7598C471.359 107.717 477.037 116.484 482.511 124.98C484.607 128.285 486.634 131.319 488.662 134.354L489.27 135.23C497.651 147.84 507.181 162.136 520.969 170.094C527.863 174.005 535.838 176.028 544.489 176.028Z" fill="#C6C5C5"/>
<path d="M847.078 179.737L847.146 179.602C833.696 171.712 823.017 163.822 813.487 154.854C809.027 150.673 804.633 146.155 800.443 141.771L800.308 141.637C797.402 138.602 794.495 135.567 791.657 132.6C786.588 127.273 781.721 122.215 776.855 117.293C767.596 108.054 757.119 97.602 745.021 90.5888C742.385 89.1053 739.682 87.7566 736.573 86.4754C728.733 83.306 720.217 82.1596 711.16 83.1711C703.049 84.0477 694.398 86.6102 685.544 90.8586C668.309 99.0856 653.102 110.752 640.463 121.002C635.867 124.778 631.204 128.757 626.675 132.6C609.508 147.301 591.733 162.541 570.578 170.364C551.315 177.512 535.635 177.377 522.658 169.959C508.938 162.137 499.611 147.773 491.433 135.028L490.892 134.219C488.932 131.252 487.04 128.217 485.012 124.98C479.605 116.416 474.063 107.515 467.777 99.4227C460.41 89.9819 453.111 83.1036 445.473 78.5181C436.214 72.9211 426.414 70.5609 415.532 71.3027C405.597 71.977 395.053 74.4721 383.428 78.9902C373.155 82.9688 363.287 87.8915 353.689 92.6793L352.811 93.0839C346.593 96.1859 340.24 99.5576 334.157 102.862C331.115 104.48 327.939 106.166 324.83 107.852C320.166 110.28 315.502 112.842 310.907 115.27C303.202 119.383 295.226 123.632 287.251 127.745C274.342 134.354 259.27 141.569 243.995 144.132C238.385 145.076 232.911 145.211 227.639 144.536C211.62 142.581 196.548 134.219 181.679 118.979C172.555 109.605 164.377 98.6135 155.726 87.0148C138.423 63.75 120.512 39.7434 93.6126 28.4145C85.2994 24.9079 76.6482 23.2895 67.8618 23.4244C59.8189 23.5592 51.5732 25.3125 43.3951 28.5494C35.8929 31.5165 28.5258 35.6974 21.4967 41.0247C14.9408 45.9474 8.79029 51.7467 3.24812 58.2204C-6.34931 69.4145 -13.7164 81.9573 -19.2585 96.5905C-23.8545 108.796 -27.2339 122.35 -29.8022 139.276H-29.667C-25.7469 113.719 -18.7854 84.1152 3.38329 58.2879C24.0651 34.2813 58.6023 13.8487 93.6126 28.5494C120.445 39.8109 138.356 63.8175 155.658 87.0823C164.309 98.6809 172.487 109.605 181.612 119.046C196.548 134.354 211.62 142.715 227.706 144.671C232.978 145.345 238.453 145.211 244.062 144.266C259.405 141.771 274.477 134.489 287.386 127.88C295.361 123.766 303.337 119.518 311.042 115.405C315.638 112.977 320.301 110.415 324.965 107.987C328.074 106.368 331.25 104.683 334.292 102.997C340.375 99.7599 346.728 96.3882 352.946 93.2188L353.825 92.8142C373.29 83.0362 393.363 72.9885 415.6 71.4375C441.35 69.6842 457.639 86.6102 467.642 99.4902C473.928 107.582 479.47 116.416 484.877 124.98C486.904 128.217 488.797 131.252 490.757 134.219L491.298 135.028C499.543 147.773 508.803 162.137 522.591 170.026C535.568 177.444 551.315 177.579 570.645 170.431C591.8 162.609 609.576 147.368 626.743 132.668C631.271 128.824 635.935 124.778 640.531 121.069C653.102 110.819 668.309 99.2204 685.544 90.926C704.334 81.9573 721.433 80.4737 736.438 86.5428C739.479 87.7566 742.25 89.1053 744.886 90.6563C756.984 97.6694 767.46 108.122 776.72 117.36C781.586 122.215 786.452 127.273 791.522 132.668C794.293 135.635 797.199 138.669 800.173 141.704L800.308 141.839C804.566 146.222 808.959 150.74 813.352 154.921C822.95 163.957 833.629 171.847 847.078 179.737Z" fill="#C6C5C5"/>
<path d="M849.309 183.513L849.376 183.378C834.777 175.556 824.031 168.206 814.569 159.574C809.77 155.191 805.174 150.47 801.322 146.492C796.59 141.502 791.994 136.512 787.601 131.589C784.492 128.15 781.518 124.845 778.477 121.609L778.004 121.137C768.542 110.954 758.809 100.502 747.184 93.0839C744.548 91.398 741.777 89.9145 738.803 88.5658C730.963 85.0592 722.379 83.5757 713.323 84.25C705.144 84.8569 696.426 87.2171 687.504 91.2632C669.999 99.153 654.657 110.482 641.95 120.462C637.016 124.306 632.082 128.487 627.216 132.465C610.184 146.627 592.611 161.26 571.997 169.352C552.735 177.039 537.19 177.309 524.348 170.094C510.628 162.339 501.503 147.84 493.46 135.028L492.987 134.286C491.162 131.387 489.338 128.352 487.378 125.183C482.106 116.484 476.631 107.515 470.345 99.3553C463.046 89.8471 455.814 83.0362 448.244 78.5181C438.985 73.0559 429.185 70.8981 418.235 71.9096C408.368 72.8536 397.959 75.7533 386.402 80.6086C376.196 84.9244 366.463 90.2517 357.069 95.4441L355.785 96.1859C349.837 99.4902 343.754 102.929 337.942 106.368C334.765 108.257 331.386 110.145 328.141 112.033C326.452 112.977 324.762 113.989 323.005 114.933C312.596 120.867 301.85 127.003 290.968 132.668C278.127 139.344 262.919 146.492 247.78 148.515C242.102 149.257 236.628 149.257 231.356 148.38C215.473 145.885 201.009 136.984 185.734 120.53C176.948 111.089 169.108 100.232 160.795 88.7007C142.951 64.1546 124.5 38.7319 96.5189 26.9984C88.0028 23.4244 79.1489 21.7385 70.1597 22.0082C61.914 22.2106 53.5332 24.0987 45.2199 27.4704C37.6501 30.7747 30.1479 35.1579 22.916 40.755C16.2249 45.9474 10.0068 52.0165 4.39706 58.8273C-5.33554 70.5609 -12.7702 83.7105 -18.2448 99.0181C-22.8407 111.831 -26.0849 125.992 -28.5181 143.66H-28.3829C-24.7332 116.888 -17.9068 85.9359 4.53223 58.8948C25.4844 33.7418 60.6975 12.1629 96.5864 27.2681C124.568 39.0017 142.951 64.3569 160.795 88.9704C169.108 100.434 177.016 111.291 185.802 120.799C192.831 128.352 199.522 134.219 206.349 138.669C214.594 144.064 222.84 147.301 231.491 148.717C236.763 149.526 242.305 149.594 247.983 148.852C263.122 146.829 278.397 139.681 291.239 132.938C302.188 127.206 312.934 121.137 323.275 115.202C324.965 114.258 326.654 113.247 328.412 112.303C331.723 110.414 335.035 108.526 338.212 106.638C344.024 103.266 350.107 99.7599 356.055 96.4556L357.339 95.7138C375.655 85.6661 396.405 74.3372 418.438 72.1793C444.324 69.6842 460.478 86.6102 470.413 99.5576C476.631 107.717 482.106 116.686 487.378 125.385C489.27 128.554 491.095 131.521 492.987 134.489L493.46 135.23C501.503 148.043 510.628 162.541 524.348 170.296C537.19 177.579 552.87 177.309 572.132 169.554C592.679 161.395 610.319 146.762 627.351 132.6C632.15 128.622 637.152 124.441 642.085 120.597C654.792 110.617 670.067 99.3553 687.572 91.398C706.631 82.8339 723.799 81.8898 738.803 88.6333C741.777 89.9819 744.616 91.4655 747.184 93.1513C758.741 100.502 768.542 111.021 777.936 121.137L778.409 121.609C781.451 124.845 784.425 128.15 787.534 131.589C791.927 136.444 796.523 141.502 801.254 146.492C805.107 150.538 809.702 155.258 814.501 159.641C823.963 168.34 834.71 175.691 849.309 183.513Z" fill="#C6C5C5"/>
<path d="M851.471 187.289L851.539 187.155C840.455 181.692 827.478 174.747 815.65 164.362C811.595 160.788 807.404 156.674 802.403 151.414C796.523 145.143 790.981 138.669 785.641 132.331C783.816 130.24 781.992 128.015 780.167 125.924L778.95 124.508C770.029 114.123 760.769 103.401 749.55 95.6464C746.846 93.8256 744.075 92.1398 741.169 90.7237C733.396 86.8125 724.745 85.0592 715.553 85.4638C707.307 85.8684 698.589 87.9589 689.464 91.8026C671.351 99.4901 655.4 110.954 643.437 120.058C638.098 124.104 632.691 128.419 627.486 132.6C610.725 146.087 593.355 159.979 573.552 168.475C554.357 176.77 538.879 177.377 526.173 170.296C512.452 162.676 503.531 148.043 495.691 135.163L495.285 134.488C493.528 131.589 491.771 128.689 489.946 125.587C484.742 116.821 479.402 107.717 473.184 99.4227C466.02 89.847 458.856 83.0362 451.286 78.6529C442.026 73.2582 432.226 71.3026 421.277 72.6513C411.477 73.8651 401.068 77.102 389.646 82.4293C379.575 87.1497 369.978 92.8816 360.651 98.4112L359.029 99.3552C353.284 102.794 347.471 106.368 341.862 109.875C338.55 111.965 335.035 114.123 331.656 116.214C318.747 124.104 307.054 131.184 294.956 137.658C283.128 143.929 267.515 151.347 251.767 153.033C246.09 153.64 240.48 153.437 235.208 152.359C214.865 148.38 199.59 133.207 189.925 122.148C181.612 112.64 174.042 101.985 165.999 90.6562C147.615 64.6941 128.623 37.8553 99.4251 25.6497C90.7739 22.0082 81.7172 20.3224 72.5253 20.6595C64.0768 20.9293 55.4932 22.9523 47.0448 26.5263C39.2046 29.8306 31.5672 34.4835 24.2002 40.3503C17.3738 45.8125 11.0206 52.1513 5.34326 59.2319C-4.52452 71.5049 -11.9591 85.2615 -17.5013 101.311C-22.0297 114.73 -25.2063 129.566 -27.5043 147.975H-27.3691C-23.9221 120.058 -17.2986 87.6891 5.47844 59.4342C26.7009 33.0674 62.5899 10.4095 99.4251 25.852C128.555 38.0576 147.547 64.8964 165.931 90.8585C173.974 102.187 181.544 112.91 189.857 122.35C196.886 130.375 203.51 136.579 210.133 141.299C218.379 147.234 226.625 150.875 235.276 152.561C240.548 153.572 246.158 153.842 251.903 153.235C267.65 151.549 283.263 144.132 295.159 137.793C307.324 131.319 319.017 124.238 331.926 116.349C335.373 114.258 338.82 112.1 342.132 110.01C347.742 106.503 353.554 102.929 359.299 99.4901L360.921 98.546C379.035 87.7566 399.514 75.551 421.48 72.8536C441.283 70.3585 457.774 78.8552 473.319 99.5576C479.537 107.785 484.877 116.888 490.081 125.655C491.906 128.757 493.663 131.724 495.42 134.556L495.826 135.23C503.666 148.178 512.588 162.811 526.375 170.431C533.405 174.342 541.448 175.893 550.301 175.151C557.466 174.544 565.171 172.386 573.89 168.61C593.76 160.113 611.13 146.222 627.892 132.735C633.096 128.554 638.503 124.238 643.843 120.192C655.738 111.089 671.756 99.625 689.802 91.9375C709.132 83.7105 726.435 83.3733 741.304 90.8585C744.21 92.2747 746.981 93.9605 749.685 95.7812C760.904 103.536 770.096 114.258 779.018 124.643L780.234 126.059C782.059 128.217 783.952 130.375 785.709 132.465C791.048 138.737 796.59 145.278 802.471 151.549C807.404 156.809 811.595 160.923 815.718 164.497C827.41 174.882 840.387 181.827 851.471 187.289Z" fill="#C6C5C5"/>
<path d="M853.702 191.066L853.77 190.931C841.401 185.401 828.424 178.995 816.732 169.15C812.474 165.508 808.148 161.327 803.485 156.337C796.861 149.189 790.778 141.502 784.83 134.084C783.817 132.803 782.803 131.521 781.789 130.24C781.248 129.566 780.708 128.891 780.167 128.217C771.583 117.495 762.729 106.436 751.78 98.2089C749.077 96.1858 746.238 94.3651 743.467 92.8141C735.694 88.5658 727.043 86.4753 717.784 86.6102C709.47 86.7451 700.684 88.6332 691.492 92.3421C673.176 99.625 657.022 110.752 644.992 119.653C639.247 123.834 633.502 128.285 627.96 132.6C611.401 145.48 594.233 158.765 575.039 167.599C555.844 176.433 540.434 177.377 527.93 170.498C514.21 162.946 505.491 148.245 497.854 135.23L497.516 134.623C495.826 131.791 494.204 128.959 492.447 125.857C487.378 116.956 482.106 107.717 475.955 99.4227C468.859 89.7796 461.762 83.0362 454.192 78.653C449.799 76.1579 445.135 74.4046 440.404 73.4605C435.268 72.449 429.793 72.3816 424.116 73.2582C402.217 76.5625 381.873 89.6447 363.963 101.243L362.07 102.457C356.528 106.031 350.918 109.808 345.511 113.382C342.064 115.674 338.55 118.035 334.968 120.395C321.721 129.094 310.501 136.242 298.673 142.581C287.048 148.852 271.706 156.202 255.552 157.484C249.74 157.956 244.13 157.551 238.858 156.337C219.258 151.819 204.524 136.579 193.913 123.834C186.005 114.393 178.773 103.873 171.136 92.8141C152.211 65.3684 132.678 37.046 102.264 24.301C93.4099 20.5921 84.1504 18.9062 74.7557 19.3108C66.1721 19.648 57.3857 21.8059 48.7345 25.5822C40.7592 29.0888 32.9191 33.9441 25.4844 40.0806C18.5229 45.8125 12.1021 52.421 6.28957 59.8388C-3.71338 72.6513 -11.2156 87.0148 -16.6902 103.738C-21.2186 117.63 -24.3276 133.072 -26.4228 152.291H-26.2876C-23.2462 124.913 -16.8254 89.6447 6.42475 59.9062C27.9852 32.3931 64.4824 8.58881 102.196 24.3684C132.543 37.046 152.076 65.4358 171 92.8141C178.638 103.941 185.87 114.393 193.777 123.834C204.389 136.579 219.123 151.819 238.791 156.337C244.063 157.551 249.672 157.956 255.485 157.484C262.514 156.944 269.746 155.191 277.789 152.224C284.142 149.863 290.968 146.694 298.673 142.513C310.501 136.107 321.788 129.026 334.968 120.26C338.482 117.967 342.064 115.539 345.511 113.247C350.918 109.605 356.528 105.896 362.07 102.322L363.963 101.109C381.873 89.5773 402.15 76.4951 424.048 73.1908C443.986 70.1562 460.41 78.4507 475.753 99.2878C481.903 107.582 487.175 116.821 492.244 125.722C494.001 128.757 495.623 131.656 497.313 134.488L497.651 135.095C505.356 148.11 514.075 162.878 527.795 170.431C534.756 174.275 542.799 175.691 551.586 174.679C558.615 173.87 566.32 171.51 574.971 167.531C594.166 158.697 611.333 145.413 627.96 132.533C633.502 128.217 639.247 123.766 644.992 119.586C657.022 110.684 673.176 99.625 691.424 92.2747C710.957 84.4523 728.395 84.6546 743.264 92.8141C746.035 94.3651 748.874 96.1184 751.577 98.1414C762.527 106.368 771.38 117.428 779.896 128.15C780.437 128.824 780.978 129.498 781.519 130.173C782.532 131.454 783.546 132.735 784.56 134.016C790.508 141.434 796.591 149.122 803.214 156.27C807.878 161.26 812.203 165.508 816.461 169.082C828.289 179.062 841.334 185.536 853.702 191.066Z" fill="#C6C5C5"/>
<path d="M855.932 194.842L856 194.707C840.996 188.638 828.695 182.771 817.881 173.87C804.904 163.283 794.698 149.594 784.898 136.377L783.479 134.488C782.735 133.544 782.059 132.533 781.316 131.589C771.11 117.832 760.566 103.604 745.832 94.8372C738.06 90.1842 729.341 87.824 720.081 87.6217C711.768 87.4868 702.847 89.1727 693.587 92.6793C669.391 101.715 648.506 117.428 628.23 132.6C611.941 144.806 595.045 157.484 576.593 166.587C557.196 176.163 542.326 177.444 529.755 170.633C516.035 163.215 507.519 148.312 500.016 135.23L499.746 134.758C498.192 131.993 496.637 129.161 494.947 126.194C487.648 113.044 479.402 98.074 468.723 87.6217C456.49 75.6184 442.837 71.1003 427.022 73.9326C405.124 77.8438 385.05 91.8026 367.275 104.143C366.599 104.615 365.923 105.087 365.179 105.559C359.772 109.268 354.365 113.179 349.094 116.956C334.224 127.61 318.814 138.602 302.526 147.571C287.454 155.865 264.812 166.25 242.643 160.316C223.583 155.191 209.39 139.883 198.035 125.52C190.601 116.214 183.774 105.964 176.475 95.1743C157.01 66.1776 136.869 36.2368 105.17 22.9523C96.1134 19.176 86.7187 17.4901 77.1213 17.9622C68.3349 18.3668 59.4134 20.6595 50.5594 24.6382C42.4489 28.347 34.4736 33.4046 26.8362 39.8783C19.7395 45.8799 13.1835 52.8257 7.30338 60.5132C-2.83475 73.8651 -10.4045 88.8355 -15.8115 106.234C-20.3399 120.732 -23.3138 136.781 -25.2738 156.742H-25.1386C-22.3 128.217 -16.0819 91.5329 7.43856 60.5806C29.2693 31.7862 66.3749 6.83553 105.103 23.0197C136.734 36.2368 156.875 66.1776 176.34 95.1743C183.639 105.964 190.466 116.214 197.9 125.52C209.323 139.883 223.516 155.258 242.576 160.316C252.173 162.878 262.311 162.676 273.598 159.776C282.452 157.484 291.644 153.572 302.526 147.571C318.814 138.602 334.224 127.61 349.094 116.956C354.365 113.179 359.772 109.336 365.179 105.559C365.855 105.087 366.531 104.615 367.275 104.143C384.982 91.8701 405.124 77.9112 426.954 74C442.702 71.1678 456.287 75.6184 468.521 87.6217C479.2 98.074 487.445 113.044 494.745 126.194C496.367 129.161 497.989 131.993 499.543 134.758L499.814 135.23C507.384 148.38 515.9 163.283 529.687 170.701C536.649 174.477 544.624 175.758 553.411 174.477C560.372 173.465 567.942 170.903 576.593 166.655C595.045 157.551 611.941 144.873 628.23 132.668C648.439 117.495 669.391 101.85 693.52 92.8141C713.323 85.3964 730.828 86.1382 745.697 94.972C760.431 103.738 770.975 117.967 781.181 131.656C781.924 132.6 782.6 133.612 783.343 134.556L784.763 136.444C794.631 149.661 804.769 163.35 817.745 173.937C828.627 182.839 840.86 188.706 855.932 194.842Z" fill="#C6C5C5"/>
</g>
<defs>
<clipPath id="clip0">
<rect width="797" height="205" fill="white"/>
</clipPath>
</defs>
</svg>
